<svg width="119" height="27" viewBox="0 0 119 27" fill="none" xmlns="http://www.w3.org/2000/svg">
<g clip-path="url(#clip0_468_54)">
<path fill-rule="evenodd" clip-rule="evenodd" d="M10.142 18.9C9.24543 18.9 8.38554 18.5444 7.75154 17.9115C7.11754 17.2786 6.76136 16.4201 6.76136 15.525V0H0V15.525C0 21.1167 4.54093 25.65 10.142 25.65H17.5795V18.9H10.142ZM30.4261 6.75C29.627 6.75 28.8357 6.90713 28.0974 7.21243C27.3591 7.51773 26.6883 7.96521 26.1232 8.52933C25.5582 9.09344 25.1099 9.76315 24.8041 10.5002C24.4983 11.2373 24.3409 12.0272 24.3409 12.825C24.3409 13.6228 24.4983 14.4127 24.8041 15.1498C25.1099 15.8869 25.5582 16.5566 26.1232 17.1207C26.6883 17.6848 27.3591 18.1323 28.0974 18.4376C28.8357 18.7429 29.627 18.9 30.4261 18.9C32.04 18.9 33.5878 18.26 34.729 17.1207C35.8702 15.9814 36.5114 14.4362 36.5114 12.825C36.5114 11.2138 35.8702 9.66861 34.729 8.52933C33.5878 7.39004 32.04 6.75 30.4261 6.75ZM17.5795 12.825C17.5795 5.74223 23.3314 0 30.4261 0C37.5208 0 43.2727 5.74223 43.2727 12.825C43.2727 19.9078 37.5208 25.65 30.4261 25.65C23.3314 25.65 17.5795 19.9078 17.5795 12.825ZM103.449 6.75C101.835 6.75 100.287 7.39004 99.146 8.52933C98.0048 9.66861 97.3636 11.2138 97.3636 12.825C97.3636 14.4362 98.0048 15.9814 99.146 17.1207C100.287 18.26 101.835 18.9 103.449 18.9C105.063 18.9 106.611 18.26 107.752 17.1207C108.893 15.9814 109.534 14.4362 109.534 12.825C109.534 11.2138 108.893 9.66861 107.752 8.52933C106.611 7.39004 105.063 6.75 103.449 6.75ZM90.6023 12.825C90.6023 5.74223 96.3542 0 103.449 0C110.544 0 116.295 5.74223 116.295 12.825C116.295 19.9078 110.544 25.65 103.449 25.65C96.3542 25.65 90.6023 19.9078 90.6023 12.825ZM57.4716 0C50.3769 0 44.625 5.74223 44.625 12.825C44.625 19.9078 50.3769 25.65 57.4716 25.65H76.4034C77.7347 25.65 79.0187 25.4475 80.2263 25.0722L83.8409 27L87.7409 19.7073C88.7316 17.8508 89.2498 15.7797 89.25 13.6762V12.825C89.25 5.74223 83.4981 0 76.4034 0H57.4716ZM82.4886 12.825C82.4886 11.2138 81.8475 9.66861 80.7063 8.52933C79.5651 7.39004 78.0173 6.75 76.4034 6.75H57.4716C56.6725 6.75 55.8812 6.90713 55.1429 7.21243C54.4046 7.51773 53.7338 7.96521 53.1687 8.52933C52.6036 9.09344 52.1554 9.76315 51.8496 10.5002C51.5438 11.2373 51.3864 12.0272 51.3864 12.825C51.3864 13.6228 51.5438 14.4127 51.8496 15.1498C52.1554 15.8869 52.6036 16.5566 53.1687 17.1207C53.7338 17.6848 54.4046 18.1323 55.1429 18.4376C55.8812 18.7429 56.6725 18.9 57.4716 18.9H76.4034C78.0091 18.9 79.5498 18.2665 80.6897 17.1374C81.8295 16.0083 82.4762 14.4752 82.4886 12.8722V12.825Z" fill="#A3A3A3"/>
<path d="M119 1.6875C119 2.13505 118.822 2.56428 118.505 2.88074C118.188 3.19721 117.758 3.375 117.309 3.375C116.861 3.375 116.431 3.19721 116.114 2.88074C115.797 2.56428 115.619 2.13505 115.619 1.6875C115.619 1.23995 115.797 0.810725 116.114 0.494257C116.431 0.17779 116.861 0 117.309 0C117.758 0 118.188 0.17779 118.505 0.494257C118.822 0.810725 119 1.23995 119 1.6875Z" fill="#A3A3A3"/>
</g>
<defs>
<clipPath id="clip0_468_54">
<rect width="119" height="27" fill="white"/>
</clipPath>
</defs>
</svg>
