<svg width="105" height="27" viewBox="0 0 105 27" fill="none" xmlns="http://www.w3.org/2000/svg">
<g clip-path="url(#clip0_468_220)">
<path d="M9.69572 20.2778C9.69545 20.305 9.69531 20.3324 9.69531 20.3597C9.69531 20.5694 9.70283 20.7751 9.71794 20.9769H13.9284C13.8906 20.7817 13.8716 20.5759 13.8716 20.3597C13.8716 20.3322 13.8719 20.305 13.8726 20.2778H9.69572Z" fill="#A3A3A3"/>
<path d="M4.5572 20.278V20.9771H0.5625V20.278H4.5572Z" fill="#A3A3A3"/>
<path d="M9.73242 19.5666H13.9702C14.0241 19.3629 14.0999 19.169 14.1978 18.9848C14.2209 18.9448 14.2449 18.9057 14.2697 18.8675H9.83444C9.78966 19.095 9.75566 19.328 9.73242 19.5666Z" fill="#A3A3A3"/>
<path d="M4.5572 18.8675V19.5666H0.5625V18.8675H4.5572Z" fill="#A3A3A3"/>
<path d="M9.32099 18.1561C9.15408 17.9972 8.92193 17.8754 8.62454 17.7908C8.29768 17.7063 7.83169 17.6641 7.22641 17.6641H4.5572V18.1561H0.5625V17.457H9.53242V18.1561H9.32099Z" fill="#A3A3A3"/>
<path d="M10.0137 18.1561H14.9617C15.0194 18.1167 15.079 18.0793 15.1406 18.044C15.5401 17.8149 16.0001 17.7002 16.5206 17.7002C17.0412 17.7002 17.4951 17.8149 17.8824 18.044C17.9441 18.0793 18.0036 18.1167 18.0609 18.1561H22.9976C22.945 17.995 22.8863 17.8371 22.8214 17.6822C22.7906 17.6062 22.7586 17.5311 22.7254 17.457H10.2827C10.2485 17.5311 10.2154 17.6062 10.1836 17.6822C10.1209 17.8371 10.0643 17.995 10.0137 18.1561Z" fill="#A3A3A3"/>
<path d="M10.668 16.7455H22.3528C22.2024 16.4998 22.0357 16.2667 21.8527 16.0464H11.1734C10.9894 16.2667 10.8209 16.4998 10.668 16.7455Z" fill="#A3A3A3"/>
<path d="M11.875 15.3349H21.1538C20.8498 15.0718 20.5198 14.8387 20.1636 14.6357H12.8693C12.5146 14.8387 12.1832 15.0718 11.875 15.3349Z" fill="#A3A3A3"/>
<path d="M9.5315 14.6357V15.3349H0.489172C0.469077 15.2137 0.44479 15.1035 0.416326 15.0042C0.380433 14.8663 0.334748 14.7434 0.279297 14.6357H9.5315Z" fill="#A3A3A3"/>
<path d="M27.5357 14.636C27.5187 14.6441 27.5016 14.6524 27.4845 14.6607C27.0879 14.856 26.7233 15.0809 26.3906 15.3351H35.3215C35.3239 15.3273 35.3263 15.3196 35.3287 15.312C35.4134 15.0466 35.5466 14.8416 35.7282 14.6968V14.636H27.5357Z" fill="#A3A3A3"/>
<path d="M39.0783 14.6357C38.7235 14.8387 38.3921 15.0718 38.084 15.3349H47.3629C47.0588 15.0718 46.7287 14.8387 46.3725 14.6357H39.0783Z" fill="#A3A3A3"/>
<path d="M67.0723 14.636H72.745C72.9584 14.7501 73.1556 14.879 73.3364 15.0225C73.4604 15.1218 73.5749 15.2261 73.6812 15.3351H67.0723V14.636Z" fill="#A3A3A3"/>
<path d="M55.6934 14.636H60.2589C60.2031 14.738 60.1531 14.8548 60.1091 14.9864C60.075 15.0884 60.0462 15.2047 60.0227 15.3351H55.8876C55.87 15.214 55.8488 15.1037 55.8239 15.0044C55.788 14.8665 55.7444 14.7436 55.6934 14.636Z" fill="#A3A3A3"/>
<path d="M50.2773 14.6357H54.7873C54.7362 14.7434 54.6927 14.8663 54.6568 15.0042C54.6319 15.1035 54.6106 15.2137 54.593 15.3349H50.4716C50.454 15.2137 50.4328 15.1035 50.4079 15.0042C50.372 14.8663 50.3285 14.7434 50.2773 14.6357Z" fill="#A3A3A3"/>
<path d="M48.0597 16.0464H37.3804C37.1964 16.2667 37.028 16.4998 36.875 16.7455H48.5599C48.4094 16.4998 48.2426 16.2667 48.0597 16.0464Z" fill="#A3A3A3"/>
<path d="M50.5328 16.7455V16.3975C50.5328 16.275 50.5309 16.158 50.5273 16.0464H54.5329C54.5293 16.158 54.5275 16.275 54.5275 16.3975V16.7455H50.5328Z" fill="#A3A3A3"/>
<path d="M48.9344 17.457H36.4917C36.4575 17.5311 36.4244 17.6062 36.3926 17.6822C36.3299 17.8371 36.2733 17.995 36.2227 18.1561H41.1707C41.2284 18.1167 41.288 18.0793 41.3496 18.044C41.749 17.8149 42.2091 17.7002 42.7296 17.7002C43.2501 17.7002 43.7041 17.8149 44.0914 18.044C44.1531 18.0793 44.2125 18.1167 44.2699 18.1561H49.2065C49.1541 17.995 49.0953 17.8371 49.0304 17.6822C48.9996 17.6062 48.9676 17.5311 48.9344 17.457Z" fill="#A3A3A3"/>
<path d="M50.5352 18.1561V17.457H54.5299V18.1561H50.5352Z" fill="#A3A3A3"/>
<path d="M49.394 18.8677H44.9492C44.973 18.9059 44.9958 18.945 45.0176 18.9851C45.1209 19.1692 45.201 19.3631 45.2579 19.5668H49.4999C49.4757 19.3282 49.4404 19.0952 49.394 18.8677Z" fill="#A3A3A3"/>
<path d="M50.5352 19.5668V18.8677H54.5299V19.5668H50.5352Z" fill="#A3A3A3"/>
<path d="M49.5386 20.2778H45.3617C45.3623 20.305 45.3627 20.3322 45.3627 20.3597C45.3627 20.5759 45.3427 20.7817 45.3027 20.9769H49.5155C49.5312 20.7751 49.539 20.5694 49.539 20.3597C49.539 20.3324 49.5388 20.305 49.5386 20.2778Z" fill="#A3A3A3"/>
<path d="M50.5352 20.9769V20.2778H54.5299V20.9769H50.5352Z" fill="#A3A3A3"/>
<path d="M49.4267 21.6885H45.0451C45.0365 21.7041 45.0278 21.7195 45.0189 21.7349C44.8814 21.9861 44.7078 22.2037 44.498 22.3876H49.2625C49.3293 22.1605 49.384 21.9276 49.4267 21.6885Z" fill="#A3A3A3"/>
<path d="M50.5352 22.3876V21.6885H54.5299V22.3876H50.5352Z" fill="#A3A3A3"/>
<path d="M49.0045 23.0991H36.418C36.5226 23.3422 36.6395 23.5751 36.7685 23.7983H48.663C48.7895 23.5751 48.9034 23.3422 49.0045 23.0991Z" fill="#A3A3A3"/>
<path d="M50.5352 23.7983V23.0991H54.5299V23.7983H50.5352Z" fill="#A3A3A3"/>
<path d="M48.1907 24.5095H37.248C37.4201 24.7305 37.607 24.9395 37.8087 25.1365C37.834 25.1608 37.8596 25.1848 37.8853 25.2086H47.5569C47.5821 25.1848 47.6071 25.1608 47.632 25.1365C47.8337 24.9395 48.0199 24.7305 48.1907 24.5095Z" fill="#A3A3A3"/>
<path d="M50.4922 25.2084C50.5149 25.0041 50.5283 24.771 50.5326 24.5093H54.5302C54.5345 24.771 54.548 25.0041 54.5706 25.2084H50.4922Z" fill="#A3A3A3"/>
<path d="M46.6455 25.9199H38.8086C39.1703 26.1506 39.558 26.3477 39.9716 26.5114C40.8068 26.8371 41.7268 26.9999 42.7316 26.9999C43.7242 26.9999 44.6381 26.8371 45.4734 26.5114C45.8932 26.3477 46.2838 26.1506 46.6455 25.9199Z" fill="#A3A3A3"/>
<path d="M34.3116 25.2084V24.5093H25.4512C25.6651 24.7619 25.9012 24.9949 26.1595 25.2084H34.3116Z" fill="#A3A3A3"/>
<path d="M27.2383 25.9199H34.313V26.8371C34.0467 26.7527 33.7804 26.7105 33.5141 26.7105C33.3325 26.7105 33.0722 26.7346 32.7333 26.7828C32.4064 26.831 32.0251 26.8552 31.5893 26.8552C30.0278 26.8552 28.6841 26.5959 27.5583 26.0772C27.4492 26.027 27.3425 25.9745 27.2383 25.9199Z" fill="#A3A3A3"/>
<path d="M21.3498 25.2084C21.375 25.1845 21.4001 25.1605 21.425 25.1362C21.6266 24.9393 21.8129 24.7303 21.9836 24.5093H11.041C11.2131 24.7303 11.4 24.9393 11.6016 25.1362C11.627 25.1605 11.6525 25.1845 11.6783 25.2084H21.3498Z" fill="#A3A3A3"/>
<path d="M12.5977 25.92H20.4345C20.0729 26.1506 19.6822 26.3478 19.2624 26.5115C18.4272 26.8372 17.5133 27 16.5207 27C15.5159 27 14.5959 26.8372 13.7607 26.5115C13.347 26.3478 12.9593 26.1506 12.5977 25.92Z" fill="#A3A3A3"/>
<path d="M4.60782 25.2086C4.58088 25.0046 4.56488 24.7715 4.5598 24.5095H0.561837C0.557565 24.7713 0.544119 25.0043 0.521484 25.2086H4.60782Z" fill="#A3A3A3"/>
<path d="M0.369406 25.9199H4.79179C4.8904 26.1506 5.01216 26.3236 5.15702 26.4391V26.6019H0.0546875V26.4391C0.184422 26.319 0.289333 26.146 0.369406 25.9199Z" fill="#A3A3A3"/>
<path d="M0.5625 23.7981H4.5572V23.099H0.5625V23.7981Z" fill="#A3A3A3"/>
<path d="M0.5625 22.3876H4.5572V21.6885H0.5625V22.3876Z" fill="#A3A3A3"/>
<path d="M9.80273 21.6885C9.84385 21.9276 9.89663 22.1605 9.96098 22.3876H14.7329C14.5204 22.2037 14.3414 21.9861 14.1963 21.7349C14.1879 21.7196 14.1797 21.7041 14.1715 21.6885H9.80273Z" fill="#A3A3A3"/>
<path d="M18.8362 21.6885C18.8276 21.7041 18.8189 21.7195 18.81 21.7349C18.6725 21.9861 18.4989 22.2037 18.2891 22.3876H23.0536C23.1203 22.1605 23.1751 21.9276 23.2178 21.6885H18.8362Z" fill="#A3A3A3"/>
<path d="M24.168 21.6885C24.2097 21.9292 24.2628 22.1623 24.3272 22.3876H29.1771C28.9568 22.2185 28.7741 22.0191 28.6291 21.7893C28.6082 21.7562 28.5882 21.7226 28.569 21.6885H24.168Z" fill="#A3A3A3"/>
<path d="M28.3012 20.9771H24.079C24.0615 20.7532 24.0527 20.5234 24.0527 20.2876C24.0527 20.2844 24.0527 20.2812 24.0527 20.278H28.229C28.2296 20.5259 28.2536 20.759 28.3012 20.9771Z" fill="#A3A3A3"/>
<path d="M35.6398 20.9771H31.0547C31.1831 20.8215 31.2825 20.6037 31.3528 20.3238C31.3566 20.3088 31.3604 20.2935 31.3641 20.278H35.3178C35.3215 20.2935 35.3253 20.3088 35.3293 20.3238C35.3995 20.6037 35.503 20.8215 35.6398 20.9771Z" fill="#A3A3A3"/>
<path d="M36.0117 21.6885C36.0528 21.9276 36.1056 22.1605 36.17 22.3876H40.9419C40.7293 22.2037 40.5505 21.9861 40.4053 21.7349C40.3969 21.7196 40.3887 21.7041 40.3805 21.6885H36.0117Z" fill="#A3A3A3"/>
<path d="M40.1355 20.9769H35.9249C35.9099 20.7751 35.9023 20.5694 35.9023 20.3597C35.9023 20.3324 35.9025 20.305 35.9027 20.2778H40.0797C40.079 20.305 40.0786 20.3322 40.0786 20.3597C40.0786 20.5759 40.0976 20.7817 40.1355 20.9769Z" fill="#A3A3A3"/>
<path d="M40.1791 19.5666C40.2331 19.3629 40.309 19.169 40.4068 18.9848C40.4299 18.9448 40.4539 18.9057 40.4787 18.8675H36.0434C35.9986 19.095 35.9646 19.328 35.9414 19.5666H40.1791Z" fill="#A3A3A3"/>
<path d="M35.2211 19.5668C35.2085 19.3755 35.2022 19.1635 35.2022 18.9308V18.8677H31.4798V18.9308C31.4798 19.1635 31.4735 19.3755 31.4609 19.5668H35.2211Z" fill="#A3A3A3"/>
<path d="M28.3015 19.5668C28.3558 19.3169 28.4411 19.0839 28.5571 18.8677H24.1878C24.1424 19.0945 24.1084 19.3276 24.0859 19.5668H28.3015Z" fill="#A3A3A3"/>
<path d="M23.2928 19.5668C23.2686 19.3282 23.2333 19.0952 23.1869 18.8677H18.7422C18.7659 18.9059 18.7887 18.945 18.8105 18.9851C18.9138 19.1692 18.9939 19.3631 19.0508 19.5668H23.2928Z" fill="#A3A3A3"/>
<path d="M19.1527 20.2778C19.1534 20.305 19.1537 20.3322 19.1537 20.3597C19.1537 20.5759 19.1337 20.7817 19.0938 20.9769H23.3066C23.3222 20.7751 23.33 20.5694 23.33 20.3597C23.33 20.3324 23.3299 20.305 23.3296 20.2778H19.1527Z" fill="#A3A3A3"/>
<path d="M24.373 18.1561H29.1621C29.3078 18.0385 29.4685 17.9349 29.644 17.8451C30.104 17.6279 30.6427 17.5194 31.2601 17.5194C31.3332 17.5194 31.4058 17.5201 31.478 17.5216V18.1561H35.2003V17.457H24.6542C24.5459 17.6822 24.4522 17.9153 24.373 18.1561Z" fill="#A3A3A3"/>
<path d="M25.0625 16.7455H35.2006V16.5603C35.2006 16.3724 35.2052 16.2011 35.2145 16.0464H25.6113C25.412 16.2643 25.229 16.4974 25.0625 16.7455Z" fill="#A3A3A3"/>
<path d="M34.3112 23.0991H24.5781C24.6826 23.3427 24.8025 23.5757 24.938 23.7983H34.3112V23.0991Z" fill="#A3A3A3"/>
<path d="M22.456 23.7983C22.5826 23.5751 22.6965 23.3422 22.7975 23.0991H10.2109C10.3156 23.3422 10.4325 23.5751 10.5616 23.7983H22.456Z" fill="#A3A3A3"/>
<path d="M50.3382 25.9199H54.7203C54.8003 26.146 54.9053 26.319 55.035 26.4391V26.6019H50.0234V26.4391C50.1532 26.319 50.2581 26.146 50.3382 25.9199Z" fill="#A3A3A3"/>
<path d="M55.7377 25.92C55.6533 26.1461 55.537 26.3191 55.3887 26.4391V26.602H61.2173C62.3068 26.602 63.2389 26.4271 64.0136 26.0773C64.1283 26.0281 64.2392 25.9756 64.3461 25.92H55.7377Z" fill="#A3A3A3"/>
<path d="M68.3086 25.92C69.1479 26.4711 70.2731 26.7467 71.6855 26.7467C72.0127 26.7467 72.3088 26.7286 72.5757 26.6924C72.8419 26.6562 73.0417 26.6381 73.1745 26.6381C73.3804 26.6381 73.6047 26.6804 73.8465 26.7648V25.92H68.3086Z" fill="#A3A3A3"/>
<path d="M73.8463 25.2086H67.5074C67.3315 24.9938 67.1884 24.7608 67.0781 24.5095H73.8463V25.2086Z" fill="#A3A3A3"/>
<path d="M75.1197 25.9199C75.0397 26.146 74.9348 26.319 74.8047 26.4391V26.6019H79.7986V26.4391C79.6686 26.319 79.5636 26.146 79.4836 25.9199H75.1197Z" fill="#A3A3A3"/>
<path d="M79.3441 25.2084H75.2715C75.2945 25.0041 75.3074 24.771 75.3121 24.5093H79.3096C79.313 24.771 79.3245 25.0041 79.3441 25.2084Z" fill="#A3A3A3"/>
<path d="M81.4988 25.9199C81.4236 26.146 81.3166 26.319 81.1777 26.4391V26.6019H86.1893V26.4391C86.0504 26.319 85.9393 26.146 85.8573 25.9199H81.4988Z" fill="#A3A3A3"/>
<path d="M85.705 25.2086H81.6445C81.6676 25.0043 81.6811 24.7713 81.6852 24.5095H85.665C85.6691 24.7713 85.6826 25.0043 85.705 25.2086Z" fill="#A3A3A3"/>
<path d="M86.7671 25.9199C86.6736 26.1479 86.5497 26.3209 86.3945 26.4391V26.6019H90.7707V26.4752C90.667 26.2928 90.6101 26.1076 90.6013 25.9199H86.7671Z" fill="#A3A3A3"/>
<path d="M90.7989 25.2086H86.9355C86.9613 25.0055 86.9782 24.7725 86.9857 24.5095H91.4221L91.1674 24.7565C91.0129 24.9103 90.8903 25.0611 90.7989 25.2086Z" fill="#A3A3A3"/>
<path d="M96.4759 25.9199C96.4637 26.1074 96.4075 26.2925 96.3086 26.4752V26.6019H100.63V26.4391C100.484 26.3209 100.362 26.1479 100.264 25.9199H96.4759Z" fill="#A3A3A3"/>
<path d="M100.086 25.2084H96.3036C96.2101 25.0456 96.078 24.8828 95.9079 24.7201L95.6973 24.5093H100.035C100.043 24.7723 100.06 25.0053 100.086 25.2084Z" fill="#A3A3A3"/>
<path d="M100.03 23.7981V23.099H94.2891L94.9868 23.7981H100.03Z" fill="#A3A3A3"/>
<path d="M92.1548 23.7983L92.8749 23.0991H86.9922V23.7983H92.1548Z" fill="#A3A3A3"/>
<path d="M85.662 23.7981V23.099H81.6855V23.7981H85.662Z" fill="#A3A3A3"/>
<path d="M79.3072 23.7983V23.0991H75.3125V23.7983H79.3072Z" fill="#A3A3A3"/>
<path d="M73.8461 23.7983V23.0991H73.3759C73.3373 23.1265 73.2974 23.1519 73.2567 23.1755C73.2066 23.2049 73.1551 23.2314 73.1016 23.2549C73.0366 23.2828 72.9607 23.307 72.874 23.3277C72.8645 23.33 72.8543 23.3322 72.8448 23.3344C72.8279 23.3382 72.8103 23.3419 72.7927 23.3454C72.6836 23.3815 72.563 23.3996 72.4296 23.3996C72.1512 23.3996 71.9337 23.3333 71.7759 23.2006C71.7379 23.1682 71.7041 23.1344 71.6749 23.0991H66.8008C66.8012 23.3433 66.8217 23.5764 66.8623 23.7983H73.8461Z" fill="#A3A3A3"/>
<path d="M66.2348 23.7981C66.3116 23.5772 66.3691 23.3441 66.4074 23.099H61.7926C61.5503 23.2149 61.2434 23.2729 60.8719 23.2729H59.9458V23.099H55.9512V23.7981H66.2348Z" fill="#A3A3A3"/>
<path d="M55.9504 24.5095C55.9456 24.7713 55.9302 25.0043 55.9043 25.2086H65.3378C65.5226 25.0269 65.6866 24.8279 65.8299 24.6118C65.8527 24.578 65.8749 24.5439 65.8964 24.5095H55.9504Z" fill="#A3A3A3"/>
<path d="M55.9512 22.3876H59.9458V21.6885H55.9512V22.3876Z" fill="#A3A3A3"/>
<path d="M55.9512 20.9771H59.9458V20.278H55.9512V20.9771Z" fill="#A3A3A3"/>
<path d="M55.9512 19.5666H65.6081C65.4253 19.3203 65.2119 19.0872 64.9681 18.8675H55.9512V19.5666Z" fill="#A3A3A3"/>
<path d="M55.9512 18.1561H63.9888C63.5477 17.8991 63.0419 17.666 62.4712 17.457H55.9512V18.1561Z" fill="#A3A3A3"/>
<path d="M55.9507 16.7456H60.1123L59.9454 16.6978V16.3976C59.9454 16.2748 59.9476 16.1577 59.9519 16.0465H55.9453C55.949 16.1581 55.9507 16.2751 55.9507 16.3976V16.7456Z" fill="#A3A3A3"/>
<path d="M67.0723 16.0465V16.7456H74.5063C74.4338 16.4985 74.337 16.2655 74.2144 16.0465H67.0723Z" fill="#A3A3A3"/>
<path d="M75.9044 16.0464C75.7851 16.2657 75.6842 16.4988 75.6016 16.7455H85.3747C85.2914 16.4988 85.1904 16.2657 85.0712 16.0464H75.9044Z" fill="#A3A3A3"/>
<path d="M86.9863 16.0464C86.9904 16.158 86.9918 16.275 86.9918 16.3975V16.7455H90.8774V16.3975C90.8774 16.275 90.8795 16.158 90.8828 16.0464H86.9863Z" fill="#A3A3A3"/>
<path d="M90.9411 15.3349H86.9288C86.9112 15.2137 86.8895 15.1035 86.8651 15.0042C86.8292 14.8663 86.7852 14.7434 86.7344 14.6357H91.1356C91.0841 14.7434 91.0407 14.8663 91.0048 15.0042C90.9798 15.1035 90.9588 15.2137 90.9411 15.3349Z" fill="#A3A3A3"/>
<path d="M96.1562 16.0464C96.1603 16.158 96.1617 16.275 96.1617 16.3975V16.7455H100.03V16.3975C100.03 16.275 100.031 16.158 100.035 16.0464H96.1562Z" fill="#A3A3A3"/>
<path d="M100.092 15.3351H96.0982C96.0806 15.214 96.0596 15.1037 96.0345 15.0044C95.9986 14.8665 95.9539 14.7436 95.9004 14.636H100.29C100.237 14.7436 100.192 14.8665 100.156 15.0044C100.132 15.1037 100.11 15.214 100.092 15.3351Z" fill="#A3A3A3"/>
<path d="M83.839 14.6357H77.142C76.8596 14.8391 76.6076 15.0721 76.3867 15.3349H84.5957C84.3762 15.0721 84.1242 14.8391 83.839 14.6357Z" fill="#A3A3A3"/>
<path d="M100.028 17.457H96.1602V18.1561H100.028V17.457Z" fill="#A3A3A3"/>
<path d="M100.028 18.8677H96.1602V19.5668H100.028V18.8677Z" fill="#A3A3A3"/>
<path d="M100.03 20.2778H96.1617V20.3518L96.0865 20.2778H86.9922V20.9769H100.03V20.2778Z" fill="#A3A3A3"/>
<path d="M100.03 21.6885H86.9922V22.3876H100.03V21.6885Z" fill="#A3A3A3"/>
<path d="M85.662 22.3876V21.6885H81.6855V22.3876H85.662Z" fill="#A3A3A3"/>
<path d="M79.3072 22.3876V21.6885H75.3125V22.3876H79.3072Z" fill="#A3A3A3"/>
<path d="M71.6245 22.3876C71.6468 22.344 71.6739 22.3013 71.7051 22.2597C71.8264 22.127 72.0201 21.9521 72.2863 21.7349L72.3493 21.6885H67.0879C66.9909 21.9159 66.9186 22.149 66.8711 22.3876H71.6245Z" fill="#A3A3A3"/>
<path d="M66.4645 22.3876C66.4647 22.3692 66.4648 22.3506 66.4648 22.332C66.4648 22.1111 66.4527 21.8966 66.4285 21.6885H62.3906C62.4193 21.8053 62.4338 21.9294 62.4338 22.0606C62.4338 22.178 62.4214 22.287 62.3969 22.3876H66.4645Z" fill="#A3A3A3"/>
<path d="M61.9439 20.9771H66.2927C66.2262 20.7339 66.1404 20.5008 66.0355 20.278H60.3457L60.4552 20.3057C61.1318 20.4831 61.6281 20.707 61.9439 20.9771Z" fill="#A3A3A3"/>
<path d="M68.1341 20.2778C67.8869 20.4959 67.6728 20.7289 67.4922 20.9769H73.2452C73.4566 20.7796 73.6449 20.574 73.8095 20.3597C73.8305 20.3326 73.8508 20.3053 73.8712 20.2778H68.1341Z" fill="#A3A3A3"/>
<path d="M75.3125 20.2778V20.9769H79.3072V20.2778H75.3125Z" fill="#A3A3A3"/>
<path d="M79.3072 19.5668H75.3125V18.8677H79.3133C79.3093 18.9288 79.3072 18.9919 79.3072 19.0574V19.5668Z" fill="#A3A3A3"/>
<path d="M81.6855 20.278V20.9771H85.662V20.278H81.6855Z" fill="#A3A3A3"/>
<path d="M85.6622 19.5666H81.6858V19.0572C81.6858 18.9917 81.6838 18.9285 81.6797 18.8675H85.6622V19.5666Z" fill="#A3A3A3"/>
<path d="M86.9922 19.5668H90.8779V18.8677H86.9922V19.5668Z" fill="#A3A3A3"/>
<path d="M86.9922 18.1561H90.8779V17.457H86.9922V18.1561Z" fill="#A3A3A3"/>
<path d="M85.559 17.457H75.4201C75.3781 17.6808 75.349 17.9138 75.332 18.1561H79.5002C79.53 18.1029 79.5632 18.0535 79.5998 18.0079C79.8057 17.7667 80.1017 17.646 80.4892 17.646C80.8767 17.646 81.1734 17.7667 81.3794 18.0079C81.418 18.0535 81.4532 18.1029 81.4843 18.1561H85.6464C85.6295 17.9138 85.6004 17.6808 85.559 17.457Z" fill="#A3A3A3"/>
<path d="M74.6549 18.1561C74.6596 18.0714 74.6623 17.9858 74.6623 17.8993C74.6623 17.748 74.6556 17.6005 74.6413 17.457H69.5234C69.6041 17.4935 69.6765 17.5384 69.7416 17.5918C69.9394 17.7451 70.0478 17.9332 70.0661 18.1561H74.6549Z" fill="#A3A3A3"/>
<path d="M69.836 18.8675C69.8293 18.8765 69.8218 18.8854 69.8144 18.8943C69.6721 19.0671 69.4215 19.2912 69.0645 19.5666H74.2948C74.351 19.4473 74.4012 19.3257 74.4445 19.2019C74.4838 19.0922 74.5177 18.9807 74.5461 18.8675H69.836Z" fill="#A3A3A3"/>
<path d="M68.1596 17.457H67.0723V18.0802H67.2175L67.4899 17.8088C67.5867 17.7364 67.6896 17.6761 67.7985 17.6279C67.9083 17.564 68.0288 17.5071 68.1596 17.457Z" fill="#A3A3A3"/>
<path d="M92.341 18.8675L91.541 19.5666H95.3596L94.6456 18.8675H92.341Z" fill="#A3A3A3"/>
<path d="M93.9211 18.1563H93.1562L93.5126 17.8452H93.6033L93.9211 18.1563Z" fill="#A3A3A3"/>
<path d="M0.556641 16.0465H9.53279V16.7456H0.562874V16.3976C0.562874 16.2751 0.560805 16.1581 0.556641 16.0465Z" fill="#A3A3A3"/>
<path d="M103.126 0C102.9 0 102.693 0.0380585 102.505 0.114176C102.314 0.187365 102.148 0.292758 102.007 0.430354C101.867 0.565022 101.757 0.724572 101.681 0.909009C101.605 1.09345 101.566 1.29545 101.566 1.51502C101.566 1.73459 101.605 1.93659 101.681 2.12103C101.757 2.30546 101.867 2.46648 102.007 2.60408C102.148 2.73874 102.314 2.84414 102.505 2.92026C102.693 2.99344 102.9 3.03004 103.126 3.03004C103.35 3.03004 103.557 2.99344 103.748 2.92026C103.939 2.84414 104.105 2.73874 104.246 2.60408C104.387 2.46648 104.496 2.30546 104.572 2.12103C104.649 1.93659 104.687 1.73459 104.687 1.51502C104.687 1.29545 104.649 1.09345 104.572 0.909009C104.496 0.724572 104.387 0.565022 104.246 0.430354C104.105 0.292758 103.939 0.187365 103.748 0.114176C103.557 0.0380585 103.35 0 103.126 0ZM102.545 2.46795C102.377 2.37719 102.248 2.24984 102.157 2.0859C102.066 1.92195 102.02 1.73166 102.02 1.51502C102.02 1.29545 102.066 1.10516 102.157 0.944143C102.248 0.780199 102.377 0.652849 102.545 0.562095C102.709 0.47134 102.904 0.425962 103.126 0.425962C103.347 0.425962 103.541 0.47134 103.708 0.562095C103.873 0.652849 104.002 0.780199 104.096 0.944143C104.187 1.10516 104.233 1.29545 104.233 1.51502C104.233 1.73166 104.187 1.92195 104.096 2.0859C104.002 2.24984 103.873 2.37719 103.708 2.46795C103.541 2.5587 103.347 2.60408 103.126 2.60408C102.904 2.60408 102.709 2.5587 102.545 2.46795ZM102.664 1.26032H102.695C102.715 1.2369 102.744 1.21787 102.783 1.20323C102.809 1.19445 102.841 1.19006 102.88 1.19006C102.933 1.19006 102.982 1.20323 103.026 1.22958C103.066 1.25593 103.099 1.29106 103.122 1.33497C103.145 1.37889 103.158 1.43012 103.158 1.48867C103.158 1.58236 103.133 1.65848 103.082 1.71702C103.03 1.77557 102.961 1.80485 102.875 1.80485C102.831 1.80485 102.793 1.79607 102.761 1.7785C102.746 1.76972 102.733 1.76094 102.721 1.75215C102.707 1.74045 102.696 1.7302 102.69 1.72141H102.66V2.31864C102.686 2.33035 102.723 2.33913 102.77 2.34499C102.814 2.35084 102.861 2.35377 102.91 2.35377C103.093 2.35377 103.255 2.31864 103.395 2.24838C103.534 2.17519 103.642 2.07419 103.721 1.94538C103.801 1.81363 103.84 1.66286 103.84 1.49307C103.84 1.32619 103.804 1.17835 103.73 1.04954C103.657 0.92072 103.554 0.821185 103.422 0.750924C103.29 0.677734 103.14 0.641139 102.972 0.641139C102.931 0.641139 102.896 0.642603 102.866 0.64553C102.837 0.648458 102.811 0.649922 102.787 0.649922C102.743 0.649922 102.702 0.64553 102.664 0.636748V1.26032Z" fill="#A3A3A3"/>
<path fill-rule="evenodd" clip-rule="evenodd" d="M10.1856 10.5537C9.85871 9.74554 9.69531 8.85299 9.69531 7.87592C9.69531 6.89893 9.85871 6.00633 10.1856 5.19818C10.5245 4.39003 10.9966 3.69044 11.6018 3.09941C12.2192 2.50837 12.9395 2.05002 13.7626 1.72434C14.5979 1.39868 15.5179 1.23584 16.5226 1.23584C17.5152 1.23584 18.4292 1.39868 19.2645 1.72434C20.0997 2.05002 20.82 2.50837 21.4252 3.09941C22.0304 3.69044 22.4965 4.39003 22.8234 5.19818C23.1623 6.00633 23.3318 6.89893 23.3318 7.87592C23.3318 8.85299 23.1623 9.74554 22.8234 10.5537C22.4965 11.3618 22.0304 12.0614 21.4252 12.6525C20.82 13.2435 20.0997 13.7018 19.2645 14.0275C18.4292 14.3532 17.5152 14.516 16.5226 14.516C15.5179 14.516 14.5979 14.3532 13.7626 14.0275C12.9395 13.7018 12.2192 13.2435 11.6018 12.6525C10.9966 12.0614 10.5245 11.3618 10.1856 10.5537ZM19.1555 7.87592C19.1555 7.35725 19.0405 6.89893 18.8105 6.50087C18.5926 6.10283 18.2839 5.78922 17.8844 5.56005C17.4971 5.33087 17.0431 5.21628 16.5226 5.21628C16.0021 5.21628 15.5421 5.33087 15.1426 5.56005C14.7432 5.78922 14.4284 6.10283 14.1984 6.50087C13.9805 6.89893 13.8716 7.35725 13.8716 7.87592C13.8716 8.38251 13.9805 8.8409 14.1984 9.25097C14.4284 9.64901 14.7432 9.96262 15.1426 10.1918C15.5421 10.421 16.0021 10.5356 16.5226 10.5356C17.0431 10.5356 17.4971 10.421 17.8844 10.1918C18.2839 9.96262 18.5926 9.64901 18.8105 9.25097C19.0405 8.8409 19.1555 8.38251 19.1555 7.87592Z" fill="#A3A3A3"/>
<path d="M7.22678 10.5717H4.5576V3.91349C4.5576 3.29833 4.61207 2.82792 4.72102 2.50224C4.82997 2.17657 4.97523 1.94137 5.1568 1.79662V1.63378H0.0544733V1.79662C0.223945 1.95343 0.35105 2.20069 0.435786 2.53843C0.520522 2.8641 0.562891 3.32246 0.562891 3.91349V11.8382C0.562891 12.4292 0.51447 12.8936 0.417628 13.2313C0.332892 13.557 0.193683 13.7983 0 13.9551V14.1179H7.95311C8.24365 14.1179 8.5281 14.13 8.80652 14.1541C9.08494 14.1782 9.32705 14.2204 9.53285 14.2807V10.0108H9.38754C9.21812 10.2038 8.96388 10.3486 8.6249 10.445C8.29812 10.5295 7.83205 10.5717 7.22678 10.5717Z" fill="#A3A3A3"/>
<path d="M31.3521 7.91202C31.4369 8.23771 31.4792 8.70211 31.4792 9.30522V10.7142C31.4071 10.7157 31.3345 10.7164 31.2614 10.7164C30.644 10.7164 30.1053 10.6079 29.6453 10.3908C29.1974 10.1616 28.8464 9.84198 28.5921 9.43185C28.3501 9.00971 28.229 8.52114 28.229 7.96629C28.229 7.37526 28.3621 6.86868 28.6285 6.44652C28.8948 6.02435 29.2882 5.70471 29.8087 5.48759C30.3414 5.25842 30.989 5.14383 31.7516 5.14383C32.0663 5.14383 32.3448 5.16192 32.5869 5.19811C32.841 5.23429 33.0711 5.28857 33.2769 5.36094C33.4342 5.40919 33.5855 5.47553 33.7308 5.55997C33.8882 5.63234 34.0274 5.7228 34.1484 5.83136H34.3118V1.3986C34.0455 1.48303 33.7792 1.52525 33.5129 1.52525C33.3313 1.52525 33.0711 1.50112 32.7321 1.45287C32.4052 1.40463 32.024 1.3805 31.5882 1.3805C30.0266 1.3805 28.683 1.63984 27.5572 2.1585C26.4314 2.67716 25.5659 3.425 24.9606 4.40202C24.3553 5.37903 24.0527 6.56111 24.0527 7.9482C24.0527 9.23887 24.3553 10.3667 24.9606 11.3316C25.5659 12.2966 26.4072 13.0444 27.4845 13.5751C28.574 14.1058 29.839 14.3712 31.2795 14.3712C32.0663 14.3712 32.8411 14.317 33.6037 14.2084C34.3663 14.0998 35.0745 13.9309 35.7281 13.7018V13.539C35.5466 13.3942 35.4134 13.1892 35.3286 12.9238C35.244 12.6584 35.2016 12.2423 35.2016 11.6754V9.30522C35.2016 8.70211 35.244 8.23771 35.3286 7.91202C35.4134 7.57432 35.5466 7.32707 35.7281 7.17027V7.00739H30.9708V7.17027C31.1403 7.32707 31.2674 7.57432 31.3521 7.91202Z" fill="#A3A3A3"/>
<path fill-rule="evenodd" clip-rule="evenodd" d="M36.3926 10.5537C36.0657 9.74554 35.9023 8.85299 35.9023 7.87592C35.9023 6.89893 36.0657 6.00633 36.3926 5.19818C36.7315 4.39003 37.2037 3.69044 37.8089 3.09941C38.4263 2.50837 39.1465 2.05002 39.9696 1.72434C40.8049 1.39868 41.7249 1.23584 42.7296 1.23584C43.7223 1.23584 44.6362 1.39868 45.4715 1.72434C46.3067 2.05002 47.027 2.50837 47.6323 3.09941C48.2375 3.69044 48.7035 4.39003 49.0304 5.19818C49.3693 6.00633 49.5388 6.89893 49.5388 7.87592C49.5388 8.85299 49.3693 9.74554 49.0304 10.5537C48.7035 11.3618 48.2375 12.0614 47.6323 12.6525C47.027 13.2435 46.3067 13.7018 45.4715 14.0275C44.6362 14.3532 43.7223 14.516 42.7296 14.516C41.7249 14.516 40.8049 14.3532 39.9696 14.0275C39.1465 13.7018 38.4263 13.2435 37.8089 12.6525C37.2037 12.0614 36.7315 11.3618 36.3926 10.5537ZM45.3625 7.87592C45.3625 7.35725 45.2476 6.89893 45.0175 6.50087C44.7996 6.10283 44.4909 5.78922 44.0915 5.56005C43.7041 5.33087 43.2502 5.21628 42.7296 5.21628C42.2091 5.21628 41.7492 5.33087 41.3497 5.56005C40.9502 5.78922 40.6355 6.10283 40.4054 6.50087C40.1876 6.89893 40.0786 7.35725 40.0786 7.87592C40.0786 8.38251 40.1876 8.8409 40.4054 9.25097C40.6355 9.64901 40.9502 9.96262 41.3497 10.1918C41.7492 10.421 42.2091 10.5356 42.7296 10.5356C43.2502 10.5356 43.7041 10.421 44.0915 10.1918C44.4909 9.96262 44.7996 9.64901 45.0175 9.25097C45.2476 8.8409 45.3625 8.38251 45.3625 7.87592Z" fill="#A3A3A3"/>
<path d="M50.4067 2.53844C50.4915 2.86411 50.5338 3.32246 50.5338 3.9135V11.8382C50.5338 12.4292 50.4915 12.8936 50.4067 13.2313C50.322 13.557 50.1949 13.7983 50.0254 13.9551V14.1179H55.0369V13.9551C54.8674 13.7983 54.7404 13.557 54.6556 13.2313C54.5709 12.8936 54.5285 12.4292 54.5285 11.8382V3.9135C54.5285 3.32246 54.5709 2.86411 54.6556 2.53844C54.7404 2.2007 54.8674 1.95344 55.0369 1.79663V1.63379H50.0254V1.79663C50.1949 1.95344 50.322 2.2007 50.4067 2.53844Z" fill="#A3A3A3"/>
<path fill-rule="evenodd" clip-rule="evenodd" d="M60.1097 13.2494C60.2187 13.5751 60.3639 13.8103 60.5455 13.9551V14.1179H55.4431V13.9551C55.6126 13.7983 55.7397 13.557 55.8245 13.2313C55.9092 12.8936 55.9516 12.4292 55.9516 11.8382V3.91349C55.9516 3.32246 55.9032 2.8641 55.8063 2.53843C55.7216 2.20069 55.5823 1.95343 55.3887 1.79662V1.63378H61.2173C62.3068 1.63378 63.2389 1.80868 64.0136 2.15848C64.8005 2.49622 65.4057 2.98472 65.8294 3.62401C66.2531 4.25122 66.4649 5.01112 66.4649 5.90371C66.4649 6.76012 66.2833 7.52003 65.9202 8.18342C65.557 8.84681 65.0002 9.42583 64.2497 9.92033C63.4991 10.4028 62.5368 10.8069 61.3626 11.1326L59.9463 11.5379V11.8382C59.9463 12.4533 60.0007 12.9237 60.1097 13.2494ZM60.4547 7.93009L59.9463 8.05861V4.96288H60.8723C61.3807 4.96288 61.7681 5.07143 62.0344 5.28855C62.3007 5.49361 62.4339 5.78912 62.4339 6.17511C62.4339 6.60933 62.2765 6.96518 61.9618 7.24261C61.6471 7.52003 61.1447 7.74919 60.4547 7.93009Z" fill="#A3A3A3"/>
<path d="M73.701 5.37927H73.8459V1.47119C73.6041 1.55563 73.3799 1.59784 73.1739 1.59784C73.0412 1.59784 72.8413 1.57975 72.5751 1.54357C72.3089 1.50738 72.0122 1.48929 71.685 1.48929C70.1357 1.48929 68.9313 1.82099 68.0716 2.4844C67.2244 3.13574 66.8008 4.02229 66.8008 5.14406C66.8008 5.72303 66.9339 6.27185 67.2003 6.79054C67.4665 7.29712 67.8542 7.74944 68.3622 8.14749L68.8527 8.50936C69.3248 8.85914 69.6453 9.13657 69.8146 9.34163C69.9847 9.5467 70.0693 9.76978 70.0693 10.011C70.0693 10.2644 69.9603 10.4754 69.7421 10.6443C69.5362 10.8132 69.2524 10.8976 68.8886 10.8976C68.6833 10.8976 68.4835 10.8735 68.2897 10.8252C68.1082 10.7649 67.9449 10.6926 67.7993 10.6081C67.6905 10.5599 67.5876 10.4995 67.4907 10.4272L67.2184 10.1558H67.0731V13.9734C67.3152 14.0579 67.6724 14.1241 68.1441 14.1724C68.6285 14.2327 69.1006 14.2629 69.5606 14.2629C71.1952 14.2629 72.4538 13.9131 73.3379 13.2135C74.2212 12.5018 74.6629 11.5429 74.6629 10.3367C74.6629 9.87839 74.5904 9.44416 74.4455 9.03403C74.2998 8.6239 74.0878 8.23794 73.8094 7.87607C73.5309 7.5142 73.1861 7.1765 72.7749 6.8629L72.2845 6.50102C72.0183 6.28391 71.8245 6.10901 71.7033 5.97633C71.5942 5.83158 71.54 5.67478 71.54 5.50592C71.54 5.32498 71.6186 5.16818 71.7758 5.0355C71.9336 4.90282 72.151 4.83648 72.4295 4.83648C72.5629 4.83648 72.6842 4.85457 72.7926 4.89075C72.9138 4.91488 73.0168 4.94503 73.1015 4.98122C73.2105 5.02947 73.3135 5.08978 73.4104 5.16215C73.5194 5.22246 73.6163 5.29483 73.701 5.37927Z" fill="#A3A3A3"/>
<path d="M75.3128 3.9135C75.3128 3.32246 75.2707 2.86411 75.1854 2.53844C75.1007 2.2007 74.974 1.95344 74.8047 1.79663V1.63379H79.7979V1.79663C79.6286 1.95344 79.5012 2.2007 79.4166 2.53844C79.3441 2.86411 79.3075 3.32246 79.3075 3.9135V9.17851C79.3075 9.63691 79.4044 9.98669 79.5981 10.2279C79.804 10.4692 80.1008 10.5898 80.4876 10.5898C80.875 10.5898 81.1717 10.4692 81.3777 10.2279C81.5836 9.98669 81.6859 9.63691 81.6859 9.17851V3.9135C81.6859 3.32246 81.6439 2.86411 81.5592 2.53844C81.4868 2.2007 81.3594 1.95344 81.1778 1.79663V1.63379H86.1894V1.79663C86.0078 1.95344 85.8744 2.2007 85.7897 2.53844C85.705 2.86411 85.663 3.32246 85.663 3.9135V9.55847C85.663 10.6079 85.4571 11.5004 85.0452 12.2363C84.6462 12.972 84.0589 13.5389 83.2839 13.937C82.5212 14.323 81.589 14.5159 80.4876 14.5159C79.3983 14.5159 78.4661 14.323 77.6912 13.937C76.9291 13.5389 76.3417 12.972 75.9299 12.2363C75.5187 11.5004 75.3128 10.6079 75.3128 9.55847V3.9135Z" fill="#A3A3A3"/>
<path d="M86.8484 2.55653C86.9453 2.90633 86.9934 3.41896 86.9934 4.09443V11.8382C86.9934 12.4292 86.9514 12.8936 86.8667 13.2313C86.782 13.557 86.6547 13.7983 86.4853 13.9551V14.1179H91.3878V13.9551C91.2184 13.7983 91.0911 13.557 91.0064 13.2313C90.9217 12.8936 90.879 12.4292 90.879 11.8382V8.09001L93.5122 10.3907H93.603L96.1636 7.88386V11.8382C96.1636 12.4292 96.1209 12.8936 96.0362 13.2313C95.9516 13.557 95.8181 13.7983 95.6366 13.9551V14.1179H100.557V13.9551C100.376 13.7983 100.243 13.557 100.158 13.2313C100.073 12.8936 100.031 12.4292 100.031 11.8382V4.09443C100.031 3.41896 100.079 2.90633 100.176 2.55653C100.285 2.20674 100.436 1.95344 100.63 1.79663V1.63379H96.3086V1.76044C96.4657 2.04993 96.5145 2.34545 96.4535 2.647C96.3932 2.93648 96.2117 3.22597 95.9089 3.51545L93.5941 5.83427L91.1697 3.47927C90.8675 3.17772 90.686 2.88824 90.625 2.61081C90.5647 2.32132 90.6128 2.03786 90.7707 1.76044V1.63379H86.3945V1.79663C86.6005 1.95344 86.7515 2.20674 86.8484 2.55653Z" fill="#A3A3A3"/>
</g>
<defs>
<clipPath id="clip0_468_220">
<rect width="105" height="27" fill="white"/>
</clipPath>
</defs>
</svg>
