<svg width="103" height="27" viewBox="0 0 103 27" fill="none" xmlns="http://www.w3.org/2000/svg">
<g clip-path="url(#clip0_468_26)">
<path fill-rule="evenodd" clip-rule="evenodd" d="M15.7814 5.76123C14.8525 5.76123 13.9327 5.94334 13.0745 6.29714C12.2163 6.65094 11.4365 7.16949 10.7797 7.82324C10.1228 8.47696 9.60182 9.25305 9.24633 10.1072C8.93018 10.8668 8.75049 11.675 8.7146 12.4949C8.70639 12.6825 8.60145 12.8543 8.433 12.9381L6.1534 14.0725C5.98495 14.1564 5.87699 14.3281 5.8852 14.5158C5.92109 15.3357 6.10078 16.1438 6.41693 16.9035C6.77242 17.7576 7.29345 18.5337 7.95029 19.1874C8.60711 19.8412 9.38691 20.3597 10.2451 20.7135C11.1033 21.0673 12.0231 21.2494 12.952 21.2494C13.8809 21.2494 14.8007 21.0673 15.6589 20.7135C16.5171 20.3597 17.2969 19.8412 17.9537 19.1874C18.6105 18.5337 19.1316 17.7576 19.4871 16.9035C19.8032 16.1438 19.9829 15.3357 20.0188 14.5158C20.027 14.3281 20.1319 14.1564 20.3004 14.0725L22.58 12.9381C22.7484 12.8543 22.8564 12.6825 22.8482 12.4949C22.8123 11.675 22.6326 10.8668 22.3165 10.1072C21.961 9.25305 21.4399 8.47696 20.7831 7.82324C20.1263 7.16949 19.3465 6.65094 18.4883 6.29714C17.6301 5.94334 16.7103 5.76123 15.7814 5.76123ZM19.0489 11.4543C19.1873 11.7867 19.2734 12.1378 19.3047 12.4952C19.3211 12.6823 19.2117 12.8543 19.0432 12.9381L16.7636 14.0725C16.5952 14.1564 16.4917 14.3284 16.4753 14.5155C16.444 14.8728 16.3579 15.2239 16.2195 15.5564C16.0418 15.9835 15.7813 16.3715 15.4529 16.6984C15.1244 17.0252 14.7345 17.2845 14.3054 17.4614C13.8764 17.6383 13.4164 17.7294 12.952 17.7294C12.4876 17.7294 12.0277 17.6383 11.5986 17.4614C11.1695 17.2845 10.7796 17.0252 10.4511 16.6984C10.1227 16.3715 9.86222 15.9835 9.68446 15.5564C9.5461 15.2239 9.46 14.8728 9.42865 14.5155C9.41225 14.3284 9.5217 14.1564 9.69015 14.0725L11.9697 12.9381C12.1382 12.8543 12.2416 12.6823 12.258 12.4952C12.2894 12.1378 12.3755 11.7867 12.5139 11.4543C12.6916 11.0272 12.9521 10.6391 13.2805 10.3123C13.609 9.98542 13.9988 9.72612 14.4279 9.54923C14.857 9.37232 15.3169 9.28129 15.7814 9.28129C16.2458 9.28129 16.7058 9.37232 17.1348 9.54923C17.5639 9.72612 17.9538 9.98542 18.2823 10.3123C18.6107 10.6391 18.8712 11.0272 19.0489 11.4543Z" fill="#A3A3A3"/>
<path fill-rule="evenodd" clip-rule="evenodd" d="M15.7808 0.129395C14.1087 0.129395 12.4531 0.457168 10.9083 1.094C9.36356 1.73084 7.95998 2.66427 6.77766 3.84098C5.59537 5.01771 4.65753 6.41467 4.01766 7.95211C3.41711 9.3951 3.09011 10.9353 3.05219 12.495C3.04762 12.6828 2.94202 12.8545 2.77357 12.9383L0.493958 14.0728C0.325519 14.1566 0.218231 14.3283 0.222796 14.5161C0.260714 16.0757 0.587715 17.616 1.18826 19.059C1.82812 20.5964 2.76597 21.9934 3.94827 23.1701C5.13058 24.3468 6.53416 25.2804 8.07894 25.917C9.62369 26.5538 11.2793 26.8818 12.9514 26.8818C14.6234 26.8818 16.2791 26.5538 17.8238 25.917C19.3686 25.2804 20.7721 24.3468 21.9545 23.1701C23.1367 21.9934 24.0746 20.5964 24.7145 19.059C25.3151 17.616 25.642 16.0757 25.68 14.5161C25.6844 14.3283 25.7901 14.1566 25.9584 14.0728L28.2381 12.9383C28.4066 12.8545 28.5138 12.6828 28.5093 12.495C28.4714 10.9353 28.1445 9.3951 27.5439 7.95211C26.904 6.41467 25.9661 5.01771 24.7839 3.84098C23.6015 2.66427 22.198 1.73084 20.6532 1.094C19.1085 0.457171 17.4528 0.129395 15.7808 0.129395ZM22.1417 14.5161C22.1481 14.3283 22.2534 14.1566 22.4218 14.0728L24.7014 12.9383C24.8699 12.8545 24.9776 12.6828 24.9711 12.495C24.9341 11.3977 24.6991 10.3151 24.2763 9.29919C23.8142 8.18879 23.1369 7.17986 22.283 6.33003C21.4291 5.48017 20.4154 4.80604 19.2997 4.3461C18.1841 3.88616 16.9883 3.64943 15.7808 3.64943C14.5732 3.64943 13.3774 3.88616 12.2618 4.3461C11.1461 4.80604 10.1324 5.48017 9.27853 6.33003C8.42465 7.17986 7.7473 8.18879 7.28519 9.29919C6.8624 10.3151 6.62731 11.3977 6.59038 12.495C6.58405 12.6828 6.47877 12.8545 6.31032 12.9383L4.03071 14.0728C3.86227 14.1566 3.75465 14.3283 3.76098 14.5161C3.79791 15.6134 4.033 16.696 4.45579 17.7119C4.91791 18.8223 5.59525 19.8312 6.44913 20.6811C7.30301 21.5309 8.31673 22.205 9.43238 22.665C10.548 23.1249 11.7438 23.3617 12.9514 23.3617C14.1589 23.3617 15.3547 23.1249 16.4703 22.665C17.586 22.205 18.5997 21.5309 19.4536 20.6811C20.3075 19.8312 20.9848 18.8223 21.4469 17.7119C21.8697 16.696 22.1048 15.6134 22.1417 14.5161Z" fill="#A3A3A3"/>
<path d="M66.2046 4.29742C65.8276 4.29742 65.5089 4.16738 65.2483 3.90728C64.9877 3.64719 64.8574 3.33137 64.8574 2.95981C64.8574 2.57896 64.9877 2.26082 65.2483 2.00537C65.5089 1.74528 65.8276 1.61523 66.2046 1.61523C66.5816 1.61523 66.8981 1.74528 67.1539 2.00537C67.4145 2.26082 67.5449 2.57896 67.5449 2.95981C67.5449 3.33137 67.4145 3.64719 67.1539 3.90728C66.8981 4.16738 66.5816 4.29742 66.2046 4.29742Z" fill="#A3A3A3"/>
<path d="M65.0938 12.651V5.15479H67.2997V12.651H65.0938Z" fill="#A3A3A3"/>
<path fill-rule="evenodd" clip-rule="evenodd" d="M68.543 14.8566V5.15469H70.637V5.90013H70.6643C70.7963 5.77041 70.9385 5.65198 71.0907 5.54482C71.5841 5.20113 72.1517 5.0293 72.794 5.0293C73.3572 5.0293 73.8945 5.17559 74.4065 5.46818C74.923 5.7608 75.3417 6.19505 75.6629 6.77097C75.984 7.34689 76.1399 8.06447 76.1307 8.92369C76.1352 9.57392 76.0446 10.1405 75.8585 10.6236C75.6723 11.102 75.4209 11.4991 75.1044 11.8149C74.788 12.1307 74.4343 12.3676 74.0434 12.5255C73.6525 12.6834 73.2569 12.7624 72.8568 12.7624C72.2239 12.7624 71.6561 12.5859 71.1535 12.2329C71.0271 12.1429 70.9073 12.0453 70.7938 11.9403H70.7487V13.5986L68.543 14.8566ZM72.3403 10.9231C72.6659 10.9185 72.9521 10.8326 73.1988 10.6654C73.4455 10.4982 73.6386 10.2613 73.7781 9.95477C73.9178 9.64823 73.9853 9.29062 73.9806 8.8819C73.9853 8.46389 73.9156 8.10626 73.7712 7.80901C73.6317 7.50713 73.4339 7.27723 73.178 7.11932C72.9218 6.95675 72.6287 6.87781 72.2984 6.88244C71.9866 6.87781 71.7074 6.95442 71.4607 7.11233C71.214 7.27025 71.0187 7.50017 70.8742 7.80205C70.73 8.0993 70.6581 8.45924 70.6581 8.8819C70.6581 9.29062 70.73 9.64823 70.8742 9.95477C71.0232 10.2613 71.2235 10.4982 71.4746 10.6654C71.726 10.8326 72.0144 10.9185 72.3403 10.9231Z" fill="#A3A3A3"/>
<path d="M79.5389 12.7622C79.0921 12.7622 78.664 12.6856 78.2545 12.5323C77.8497 12.3791 77.4913 12.1631 77.1795 11.8844C76.8678 11.6011 76.6328 11.2713 76.4747 10.8952L78.2058 10.1358C78.322 10.3541 78.4964 10.5608 78.7292 10.7558C78.9618 10.9509 79.2366 11.0484 79.553 11.0484C79.7205 11.0484 79.867 11.0205 79.9928 10.9648C80.1184 10.9044 80.2162 10.8278 80.2859 10.7349C80.3604 10.642 80.3976 10.5422 80.3976 10.4353C80.3976 10.3007 80.344 10.1845 80.237 10.087C80.1301 9.98947 79.9928 9.90586 79.8253 9.83621C79.6577 9.76653 79.4808 9.70616 79.2946 9.65506C79.1132 9.60398 78.9457 9.55754 78.792 9.51573C78.4384 9.40892 78.1033 9.2626 77.7869 9.07682C77.4751 8.8864 77.2215 8.64489 77.0259 8.35227C76.8306 8.05968 76.7328 7.70437 76.7328 7.28637C76.7328 6.84516 76.847 6.45732 77.0748 6.12292C77.3076 5.78388 77.6216 5.51913 78.0172 5.32872C78.4175 5.13828 78.8735 5.04309 79.3855 5.04309C80.0228 5.04309 80.5954 5.18939 81.1025 5.48198C81.6145 5.77459 81.9774 6.1624 82.1915 6.64543L80.4954 7.37693C80.4068 7.22831 80.2765 7.08434 80.1045 6.94501C79.937 6.80567 79.7228 6.73599 79.4622 6.73599C79.2435 6.73599 79.0621 6.79172 78.9176 6.90319C78.7734 7.01466 78.7012 7.154 78.7012 7.3212C78.7012 7.4884 78.7734 7.6231 78.9176 7.72528C79.0621 7.82746 79.2457 7.91569 79.4691 7.99C79.6925 8.06432 79.9253 8.13632 80.1673 8.20598C80.3534 8.25708 80.5698 8.33139 80.8163 8.42892C81.063 8.52181 81.3028 8.64952 81.5353 8.81209C81.7726 8.97464 81.9682 9.18365 82.1218 9.43909C82.2799 9.69455 82.3591 10.008 82.3591 10.3796C82.3591 10.8487 82.2288 11.2644 81.9682 11.6267C81.7123 11.9843 81.3703 12.2629 80.9421 12.4627C80.5185 12.6624 80.0509 12.7622 79.5389 12.7622Z" fill="#A3A3A3"/>
<path d="M91.3262 12.6508V5.15456H93.4274V6.109H93.4658C93.6299 5.88093 93.8148 5.68819 94.0205 5.53075C94.4395 5.20564 94.9351 5.04309 95.5075 5.04309C95.9823 5.04309 96.3846 5.15919 96.7152 5.39142C96.9701 5.56454 97.1778 5.79676 97.3384 6.08809H97.3779C97.6156 5.78552 97.9045 5.54866 98.2438 5.37749C98.6858 5.15456 99.1676 5.04309 99.6888 5.04309C100.187 5.04309 100.596 5.13132 100.917 5.30781C101.238 5.47967 101.49 5.70724 101.671 5.99057C101.853 6.26924 101.981 6.57577 102.055 6.91018C102.13 7.23992 102.167 7.56041 102.167 7.87158V12.6508H99.9471V8.14329C99.9471 7.73457 99.861 7.42107 99.6888 7.20277C99.5212 6.97983 99.2745 6.86837 98.9489 6.86837C98.7347 6.86837 98.5439 6.91714 98.3763 7.01466C98.2135 7.10755 98.0832 7.24921 97.9854 7.43965C97.8924 7.63006 97.8459 7.86462 97.8459 8.14329V12.6508H95.64V8.14329C95.64 7.73457 95.5541 7.42107 95.3819 7.20277C95.2096 6.97983 94.9607 6.86837 94.6348 6.86837C94.3184 6.86837 94.0555 6.9775 93.8461 7.19581C93.6368 7.40946 93.5321 7.72991 93.5321 8.15721V12.6508H91.3262Z" fill="#A3A3A3"/>
<path d="M84.5188 12.4348C84.9424 12.6531 85.4123 12.7622 85.929 12.7622C86.5386 12.7622 87.0784 12.6136 87.5485 12.3164C87.7862 12.1636 88.0027 11.9894 88.1975 11.7939H88.2536C88.3201 11.9462 88.4176 12.0809 88.5467 12.1979C88.8026 12.4302 89.2074 12.6182 89.7611 12.7622L90.5429 10.923C90.3009 10.8348 90.1403 10.7303 90.0614 10.6095C89.9822 10.4888 89.9428 10.2937 89.9428 10.0243V5.15456H87.7368V9.57146C87.7368 9.8455 87.6832 10.0824 87.5763 10.2821C87.474 10.4771 87.3296 10.6281 87.1434 10.7349C86.962 10.8417 86.7503 10.8952 86.5083 10.8952C86.1827 10.8952 85.9057 10.7837 85.6776 10.5607C85.4542 10.3332 85.3425 10.0034 85.3425 9.57146V5.15456H83.1368V9.86408C83.1368 10.4957 83.2602 11.0275 83.5067 11.4595C83.7581 11.8867 84.0954 12.2119 84.5188 12.4348Z" fill="#A3A3A3"/>
<path fill-rule="evenodd" clip-rule="evenodd" d="M60.3183 12.7621C59.5968 12.7621 58.9384 12.5972 58.3427 12.2675C57.7518 11.9377 57.2795 11.4825 56.9258 10.902C56.5768 10.3214 56.4023 9.65261 56.4023 8.89557C56.4023 8.13851 56.5768 7.4697 56.9258 6.88915C57.2795 6.30858 57.7518 5.85574 58.3427 5.53063C58.9384 5.20551 59.5968 5.04297 60.3183 5.04297C61.0535 5.04297 61.7166 5.20551 62.3076 5.53063C62.8988 5.85574 63.3664 6.30858 63.7106 6.88915C64.0598 7.4697 64.2343 8.13851 64.2343 8.89557C64.2343 9.65261 64.0598 10.3214 63.7106 10.902C63.3664 11.4825 62.8963 11.9377 62.3006 12.2675C61.7097 12.5972 61.0488 12.7621 60.3183 12.7621ZM60.3183 10.8811C60.6626 10.8811 60.9721 10.7975 61.2466 10.6303C61.5213 10.4631 61.7375 10.2309 61.8958 9.93361C62.0539 9.63636 62.1331 9.29034 62.1331 8.89557C62.1331 8.51472 62.0564 8.17566 61.9028 7.87841C61.7492 7.58117 61.5375 7.34894 61.2677 7.18174C60.9976 7.00991 60.6859 6.92398 60.3322 6.92398C59.9833 6.92398 59.6691 7.00758 59.3898 7.17478C59.1153 7.33735 58.8989 7.56725 58.7406 7.86449C58.5825 8.16174 58.5033 8.50543 58.5033 8.89557C58.5033 9.29034 58.5825 9.63636 58.7406 9.93361C58.9036 10.2309 59.1223 10.4631 59.3968 10.6303C59.6713 10.7975 59.9786 10.8811 60.3183 10.8811Z" fill="#A3A3A3"/>
<path fill-rule="evenodd" clip-rule="evenodd" d="M51.5905 15.6883C50.9668 15.6883 50.3944 15.6116 49.8732 15.4584C49.3567 15.3098 48.9494 15.1565 48.6516 14.9986L49.3776 13.2708C49.6382 13.4287 49.9407 13.5634 50.285 13.6749C50.6339 13.791 50.9876 13.8491 51.346 13.8491C51.6533 13.8491 51.9719 13.798 52.3023 13.6958C52.6329 13.5936 52.9143 13.4311 53.1469 13.2081C53.3797 12.9898 53.4961 12.7019 53.4961 12.3442V11.6197H53.4626C53.3261 11.7542 53.1789 11.8773 53.0213 11.9889C52.5234 12.3373 51.9556 12.5114 51.3182 12.5114C50.9226 12.5114 50.5294 12.4371 50.1385 12.2885C49.7476 12.1353 49.3915 11.9053 49.0703 11.5988C48.7539 11.2876 48.5005 10.8998 48.3096 10.4354C48.1187 9.97092 48.0234 9.42517 48.0234 8.79817C48.0234 7.96217 48.1863 7.26782 48.5119 6.71511C48.8425 6.15777 49.2659 5.73977 49.7824 5.4611C50.2989 5.1778 50.8365 5.03613 51.3949 5.03613C52.0417 5.03613 52.6071 5.20101 53.091 5.53078C53.2464 5.63561 53.3909 5.75173 53.5241 5.8791H53.5658V5.1476H55.5692V12.2189C55.5692 12.7901 55.4715 13.2917 55.2761 13.7237C55.0806 14.1556 54.8036 14.5179 54.4454 14.8105C54.0918 15.1031 53.6728 15.3214 53.1888 15.4653C52.7048 15.614 52.172 15.6883 51.5905 15.6883ZM51.8625 10.721C52.1975 10.721 52.4931 10.6374 52.749 10.4702C53.0052 10.303 53.2074 10.0708 53.3564 9.77352C53.5053 9.47161 53.5797 9.12329 53.5797 8.72849C53.5797 8.32907 53.5078 7.9877 53.3633 7.7044C53.2191 7.41644 53.0213 7.19581 52.7701 7.04256C52.5187 6.88927 52.2278 6.81266 51.8975 6.81266C51.5671 6.81266 51.2715 6.8916 51.0109 7.04952C50.7503 7.2028 50.5456 7.4234 50.3967 7.71136C50.2525 7.99932 50.1802 8.33836 50.1802 8.72849C50.1802 9.11863 50.2525 9.46465 50.3967 9.76656C50.5409 10.0638 50.7387 10.2983 50.9901 10.4702C51.2413 10.6374 51.5321 10.721 51.8625 10.721Z" fill="#A3A3A3"/>
<path fill-rule="evenodd" clip-rule="evenodd" d="M43.5468 12.7622C42.8253 12.7622 42.1669 12.5973 41.5712 12.2676C40.9803 11.9378 40.508 11.4827 40.1543 10.9021C39.8053 10.3215 39.6309 9.65273 39.6309 8.89569C39.6309 8.13863 39.8053 7.46982 40.1543 6.88927C40.508 6.3087 40.9803 5.85587 41.5712 5.53075C42.1669 5.20564 42.8253 5.04309 43.5468 5.04309C44.282 5.04309 44.9452 5.20564 45.5361 5.53075C46.1273 5.85587 46.5949 6.3087 46.9391 6.88927C47.2884 7.46982 47.4628 8.13863 47.4628 8.89569C47.4628 9.65273 47.2884 10.3215 46.9391 10.9021C46.5949 11.4827 46.1248 11.9378 45.5292 12.2676C44.9382 12.5973 44.2773 12.7622 43.5468 12.7622ZM43.5468 10.8812C43.8911 10.8812 44.2006 10.7976 44.4751 10.6304C44.7498 10.4632 44.966 10.231 45.1244 9.93373C45.2825 9.63648 45.3616 9.29046 45.3616 8.89569C45.3616 8.51484 45.2849 8.17578 45.1313 7.87854C44.9777 7.58129 44.766 7.34906 44.4962 7.18186C44.2261 7.01003 43.9144 6.9241 43.5607 6.9241C43.2118 6.9241 42.8976 7.0077 42.6184 7.1749C42.3439 7.33747 42.1274 7.56737 41.9691 7.86462C41.811 8.16186 41.7318 8.50556 41.7318 8.89569C41.7318 9.29046 41.811 9.63648 41.9691 9.93373C42.1321 10.231 42.3508 10.4632 42.6253 10.6304C42.8998 10.7976 43.2071 10.8812 43.5468 10.8812Z" fill="#A3A3A3"/>
<path d="M33.6662 12.6508V2.38179H35.9558V10.6165H39.6623V12.6508H33.6662Z" fill="#A3A3A3"/>
<path fill-rule="evenodd" clip-rule="evenodd" d="M68.5479 16.341V18.4007H68.4851C68.394 18.3216 68.2987 18.2473 68.1986 18.1778C67.7102 17.8341 67.1471 17.6622 66.5094 17.6622C65.9463 17.6622 65.4065 17.8085 64.89 18.1011C64.3735 18.3937 63.9545 18.828 63.6336 19.4039C63.3125 19.9798 63.1588 20.6974 63.1727 21.5566C63.1636 22.2068 63.2519 22.7735 63.4381 23.2565C63.6242 23.7349 63.8756 24.132 64.1921 24.4478C64.5085 24.7636 64.8622 25.0006 65.2531 25.1583C65.644 25.3164 66.0394 25.3954 66.4397 25.3954C67.0726 25.3954 67.6402 25.2188 68.1428 24.8658C68.3947 24.6866 68.6203 24.4776 68.8196 24.2388H68.8884C68.9407 24.3734 69.0202 24.5011 69.1271 24.622C69.2713 24.7751 69.4622 24.9168 69.6995 25.0469C69.9415 25.1725 70.2348 25.2884 70.5791 25.3954L71.3539 23.5561C71.1397 23.4771 70.9863 23.3819 70.8933 23.2704C70.8002 23.159 70.7535 22.9662 70.7535 22.6922V15.083L68.5479 16.341ZM67.8219 23.2983C67.5705 23.4655 67.2821 23.5514 66.9562 23.5561C66.635 23.5514 66.3489 23.4655 66.0977 23.2983C65.8463 23.1311 65.6509 22.8942 65.5112 22.5877C65.3764 22.2812 65.3112 21.9235 65.3159 21.5148C65.3112 21.0968 65.3809 20.7392 65.5254 20.4419C65.6696 20.1401 65.8674 19.9102 66.1185 19.7522C66.3744 19.5897 66.6678 19.5107 66.9981 19.5154C67.3099 19.5107 67.5891 19.5873 67.8358 19.7453C68.0825 19.9032 68.2778 20.1331 68.422 20.435C68.5665 20.7322 68.6409 21.0922 68.6454 21.5148C68.6409 21.9235 68.5665 22.2812 68.422 22.5877C68.2778 22.8942 68.0778 23.1311 67.8219 23.2983Z" fill="#A3A3A3"/>
<path d="M95.9296 25.2839V17.7876H98.0658V18.7699H98.0993C98.1584 18.6811 98.2242 18.5975 98.2961 18.5191C98.5567 18.2404 98.8685 18.0314 99.2316 17.8921C99.5944 17.7481 99.9831 17.6761 100.397 17.6761C100.9 17.6761 101.333 17.7922 101.696 18.0244C102.058 18.2567 102.338 18.5748 102.533 18.9789C102.729 19.383 102.826 19.8497 102.826 20.3792V25.2839H100.62V20.8599C100.62 20.4094 100.513 20.0727 100.3 19.8497C100.085 19.6221 99.7945 19.5084 99.4269 19.5084C99.1849 19.5084 98.9663 19.5618 98.7707 19.6686C98.5754 19.7708 98.4195 19.9241 98.3031 20.1284C98.1914 20.3281 98.1356 20.5789 98.1356 20.8808V25.2839H95.9296Z" fill="#A3A3A3"/>
<path fill-rule="evenodd" clip-rule="evenodd" d="M91.3947 25.3955C90.6733 25.3955 90.0148 25.2305 89.4191 24.9009C88.8282 24.571 88.3559 24.1159 88.0022 23.5353C87.6532 22.9547 87.4785 22.2859 87.4785 21.5289C87.4785 20.7718 87.6532 20.103 88.0022 19.5225C88.3559 18.9419 88.8282 18.489 89.4191 18.1639C90.0148 17.8388 90.6733 17.6763 91.3947 17.6763C92.1299 17.6763 92.7931 17.8388 93.384 18.1639C93.975 18.489 94.4428 18.9419 94.787 19.5225C95.1363 20.103 95.3107 20.7718 95.3107 21.5289C95.3107 22.2859 95.1363 22.9547 94.787 23.5353C94.4428 24.1159 93.9727 24.571 93.3771 24.9009C92.7861 25.2305 92.1252 25.3955 91.3947 25.3955ZM91.3947 23.5144C91.739 23.5144 92.0485 23.4308 92.323 23.2636C92.5975 23.0964 92.8139 22.8642 92.9723 22.5669C93.1304 22.2697 93.2095 21.9237 93.2095 21.5289C93.2095 21.148 93.1328 20.809 92.9792 20.5117C92.8256 20.2145 92.6139 19.9823 92.3441 19.8151C92.0741 19.6432 91.7623 19.5573 91.4086 19.5573C91.0597 19.5573 90.7455 19.6409 90.4663 19.8081C90.1918 19.9707 89.9753 20.2005 89.817 20.4978C89.6589 20.795 89.5797 21.1387 89.5797 21.5289C89.5797 21.9237 89.6589 22.2697 89.817 22.5669C89.98 22.8642 90.1987 23.0964 90.4732 23.2636C90.7477 23.4308 91.055 23.5144 91.3947 23.5144Z" fill="#A3A3A3"/>
<path d="M84.627 25.2839V17.7876H86.8326V25.2839H84.627Z" fill="#A3A3A3"/>
<path d="M84.7796 16.5406C85.0402 16.8007 85.3591 16.9307 85.7361 16.9307C86.1129 16.9307 86.4293 16.8007 86.6854 16.5406C86.946 16.2805 87.0763 15.9647 87.0763 15.5931C87.0763 15.2123 86.946 14.8941 86.6854 14.6387C86.4293 14.3786 86.1129 14.2485 85.7361 14.2485C85.3591 14.2485 85.0402 14.3786 84.7796 14.6387C84.519 14.8941 84.3887 15.2123 84.3887 15.5931C84.3887 15.9647 84.519 16.2805 84.7796 16.5406Z" fill="#A3A3A3"/>
<path d="M80.576 24.629C81.0275 25.1398 81.7162 25.3954 82.6422 25.3954C82.9261 25.3954 83.2054 25.3697 83.4799 25.3186C83.7591 25.2676 84.0035 25.1911 84.213 25.0888L83.501 23.3541C83.4218 23.3959 83.3309 23.4307 83.2287 23.4585C83.1262 23.4864 83.0217 23.5004 82.9145 23.5004C82.6866 23.5004 82.4933 23.4307 82.3352 23.2913C82.1816 23.1474 82.1049 22.9152 82.1049 22.5947V19.6129H83.843V17.7876H82.1049V15.6279H79.8989V17.7876H78.6426V19.6129H79.8989V22.6504C79.8989 23.4539 80.1248 24.1134 80.576 24.629Z" fill="#A3A3A3"/>
<path fill-rule="evenodd" clip-rule="evenodd" d="M72.872 25.0889C73.2582 25.2932 73.7049 25.3955 74.2122 25.3955C74.7985 25.3955 75.3152 25.2793 75.7619 25.047C76.1231 24.8612 76.3874 24.6546 76.5549 24.427H76.5889C76.6542 24.5385 76.7413 24.65 76.8508 24.7614C77.0694 24.9843 77.3953 25.1679 77.8282 25.3118L78.0863 25.3955L78.8611 23.5562L78.6936 23.5005C78.5308 23.4494 78.4166 23.3588 78.3516 23.2288C78.291 23.0941 78.2608 22.899 78.2608 22.6436V20.3863C78.2608 20.1169 78.2282 19.8267 78.1632 19.5155C78.1027 19.1997 77.9724 18.9047 77.7723 18.6307C77.572 18.352 77.265 18.1245 76.8508 17.948C76.4365 17.7668 75.8781 17.6763 75.1755 17.6763C74.724 17.6763 74.3006 17.7134 73.905 17.7877C73.5141 17.8574 73.1651 17.9457 72.8581 18.0525C72.5555 18.1593 72.3111 18.2661 72.1249 18.3729L72.8581 20.031C73.0301 19.9195 73.2349 19.822 73.4724 19.7384C73.7096 19.6502 73.9563 19.5828 74.2122 19.5364C74.4681 19.4853 74.7079 19.4598 74.9312 19.4598C75.1266 19.4598 75.3011 19.483 75.4547 19.5294C75.6083 19.5712 75.7386 19.6339 75.8456 19.7175C75.9526 19.8011 76.0317 19.9033 76.0829 20.0241C76.1387 20.1402 76.1668 20.2702 76.1668 20.4142V20.7904H74.7496C74.0981 20.7904 73.5396 20.8903 73.0743 21.09C72.6136 21.2897 72.2599 21.5637 72.0132 21.912C71.7713 22.2604 71.6504 22.6598 71.6504 23.1103C71.6504 23.5376 71.7574 23.9231 71.9715 24.2668C72.1902 24.6105 72.4903 24.8845 72.872 25.0889ZM75.0149 22.1698H76.2715V22.6366C76.2715 22.9106 76.1829 23.1289 76.0062 23.2915C75.8339 23.454 75.6292 23.5701 75.3919 23.6398C75.1546 23.7095 74.9474 23.7443 74.7707 23.7443C74.5798 23.7443 74.4076 23.7141 74.2542 23.6537C74.1053 23.5887 73.9889 23.5005 73.905 23.389C73.8213 23.2729 73.7794 23.1335 73.7794 22.971C73.7794 22.697 73.8841 22.4949 74.0936 22.3649C74.3075 22.2348 74.6148 22.1698 75.0149 22.1698Z" fill="#A3A3A3"/>
<path d="M55.7695 25.2841V17.7877H57.9055V18.77H57.9392C57.9983 18.6813 58.0638 18.5977 58.136 18.5192C58.3966 18.2406 58.7084 18.0316 59.0712 17.8922C59.4343 17.7483 59.8228 17.6763 60.237 17.6763C60.7396 17.6763 61.1724 17.7924 61.5353 18.0246C61.8984 18.2568 62.1776 18.575 62.3729 18.9791C62.5685 19.3831 62.6663 19.8499 62.6663 20.3794V25.2841H60.4604V20.8601C60.4604 20.4096 60.3534 20.0728 60.1392 19.8499C59.9253 19.6223 59.6344 19.5085 59.2668 19.5085C59.0248 19.5085 58.8062 19.5619 58.6106 19.6687C58.4153 19.7709 58.2592 19.9242 58.143 20.1286C58.0313 20.3283 57.9755 20.5791 57.9755 20.881V25.2841H55.7695Z" fill="#A3A3A3"/>
<path d="M50.5793 25.3954C50.0625 25.3954 49.5927 25.2861 49.169 25.0679C48.7456 24.845 48.4083 24.5198 48.1569 24.0925C47.9102 23.6606 47.7871 23.1288 47.7871 22.4971V17.7876H49.9928V22.2045C49.9928 22.6365 50.1045 22.9662 50.3279 23.1938C50.5559 23.4167 50.8327 23.5282 51.1586 23.5282C51.4005 23.5282 51.6123 23.4748 51.7937 23.368C51.9798 23.2611 52.1243 23.1102 52.2265 22.9151C52.3335 22.7154 52.3871 22.4785 52.3871 22.2045V17.7876H54.5928V22.6574C54.5928 22.9267 54.6325 23.1218 54.7117 23.2426C54.7906 23.3633 54.9512 23.4678 55.1932 23.5561L54.4114 25.3954C53.8577 25.2512 53.4529 25.0632 53.1967 24.8309C53.0679 24.714 52.9701 24.5793 52.9039 24.4269H52.8478C52.6529 24.6225 52.4365 24.7967 52.1987 24.9495C51.7287 25.2468 51.1888 25.3954 50.5793 25.3954Z" fill="#A3A3A3"/>
<path fill-rule="evenodd" clip-rule="evenodd" d="M43.301 25.3955C42.5795 25.3955 41.921 25.2305 41.3254 24.9009C40.7344 24.571 40.2621 24.1159 39.9085 23.5353C39.5595 22.9547 39.3848 22.2859 39.3848 21.5289C39.3848 20.7718 39.5595 20.103 39.9085 19.5225C40.2621 18.9419 40.7344 18.489 41.3254 18.1639C41.921 17.8388 42.5795 17.6763 43.301 17.6763C44.0361 17.6763 44.6993 17.8388 45.2903 18.1639C45.8812 18.489 46.3491 18.9419 46.6933 19.5225C47.0425 20.103 47.217 20.7718 47.217 21.5289C47.217 22.2859 47.0425 22.9547 46.6933 23.5353C46.3491 24.1159 45.879 24.571 45.2833 24.9009C44.6924 25.2305 44.0314 25.3955 43.301 25.3955ZM43.301 23.5144C43.6452 23.5144 43.9547 23.4308 44.2292 23.2636C44.5037 23.0964 44.7202 22.8642 44.8785 22.5669C45.0366 22.2697 45.1158 21.9237 45.1158 21.5289C45.1158 21.148 45.0391 20.809 44.8855 20.5117C44.7318 20.2145 44.5201 19.9823 44.2503 19.8151C43.9803 19.6432 43.6686 19.5573 43.3149 19.5573C42.9659 19.5573 42.6517 19.6409 42.3725 19.8081C42.098 19.9707 41.8816 20.2005 41.7232 20.4978C41.5651 20.795 41.486 21.1387 41.486 21.5289C41.486 21.9237 41.5651 22.2697 41.7232 22.5669C41.8863 22.8642 42.105 23.0964 42.3795 23.2636C42.654 23.4308 42.9612 23.5144 43.301 23.5144Z" fill="#A3A3A3"/>
<path d="M33.6504 25.2837V15.0146H39.6465V17.0489H35.94V19.4106H39.0253V21.4449H35.94V25.2837H33.6504Z" fill="#A3A3A3"/>
<path d="M28.5091 12.5146H24.9711C24.9696 12.6947 24.8637 12.8575 24.7012 12.9385L22.4216 14.0734C22.2591 14.1543 22.1553 14.3172 22.1426 14.4972H25.6805C25.6919 14.3171 25.7959 14.1543 25.9584 14.0734L28.2381 12.9385C28.4004 12.8576 28.5061 12.6948 28.5091 12.5146Z" fill="#A3A3A3"/>
<path d="M0.222656 14.4972H3.76067C3.76221 14.3172 3.86811 14.1543 4.03063 14.0734L6.31025 12.9385C6.4728 12.8575 6.57652 12.6947 6.58927 12.5146H3.05126C3.04007 12.6948 2.93602 12.8576 2.77351 12.9385L0.493886 14.0734C0.331362 14.1543 0.22577 14.3171 0.222656 14.4972Z" fill="#A3A3A3"/>
<path d="M8.71339 12.5146C8.69897 12.6947 8.59555 12.8575 8.43301 12.9385L6.15338 14.0734C5.99084 14.1543 5.88462 14.3172 5.88477 14.4972H9.4274C9.41987 14.3176 9.52752 14.1544 9.69013 14.0734L11.9698 12.9385C12.1324 12.8575 12.2344 12.6943 12.256 12.5146H8.71339Z" fill="#A3A3A3"/>
<path d="M19.3032 12.5146C19.3108 12.6943 19.2031 12.8575 19.0405 12.9385L16.7609 14.0734C16.5983 14.1544 16.4962 14.3176 16.4746 14.4972H20.0173C20.0317 14.3172 20.1351 14.1543 20.2976 14.0734L22.5772 12.9385C22.7398 12.8575 22.846 12.6947 22.8459 12.5146H19.3032Z" fill="#A3A3A3"/>
</g>
<defs>
<clipPath id="clip0_468_26">
<rect width="103" height="27" fill="white"/>
</clipPath>
</defs>
</svg>
