<svg width="137" height="27" viewBox="0 0 137 27" fill="none" xmlns="http://www.w3.org/2000/svg">
<g clip-path="url(#clip0_468_338)">
<path d="M11.7618 1.79351L13.5638 0L27.1282 13.5L13.5638 27L11.7617 25.2065L23.5241 13.5L11.7618 1.79351Z" fill="#A3A3A3"/>
<path d="M9.41016 4.13482L11.2122 2.34131L22.4241 13.5L11.2122 24.6587L9.41016 22.8652L18.82 13.5L9.41016 4.13482Z" fill="#A3A3A3"/>
<path d="M0 13.5L8.85942 4.6826L17.7188 13.5L8.85942 22.3174L7.0574 20.5239L14.1147 13.5L8.85942 8.26963L1.80206 15.2935L0 13.5Z" fill="#A3A3A3"/>
<path d="M8.85958 9.36523L7.05756 11.1587L9.41002 13.5L4.70508 18.1826L6.50713 19.9761L13.0141 13.5L8.85958 9.36523Z" fill="#A3A3A3"/>
<path d="M4.15362 17.6346L2.35156 15.8411L6.48723 11.7251L8.2893 13.5186L4.15362 17.6346Z" fill="#A3A3A3"/>
<path d="M131.849 8.66602C132.721 8.66602 133.501 8.84651 134.186 9.20764C134.885 9.56869 135.43 10.1036 135.819 10.8124C136.222 11.5213 136.424 12.3772 136.424 13.3801V19.8998H134.146V13.7212C134.146 12.7315 133.898 11.9759 133.4 11.4544C132.903 10.9194 132.224 10.6519 131.364 10.6519C130.504 10.6519 129.819 10.9194 129.309 11.4544C128.812 11.9759 128.563 12.7315 128.563 13.7212V19.8998H126.285V13.7212C126.285 12.7315 126.037 11.9759 125.54 11.4544C125.043 10.9194 124.364 10.6519 123.504 10.6519C122.644 10.6519 121.959 10.9194 121.448 11.4544C120.951 11.9759 120.702 12.7315 120.702 13.7212V19.8998H118.404V8.84651H120.702V10.1103C121.079 9.65563 121.555 9.30126 122.133 9.04712C122.711 8.79305 123.329 8.66602 123.987 8.66602C124.874 8.66602 125.667 8.85319 126.366 9.22768C127.064 9.60211 127.602 10.1438 127.979 10.8525C128.314 10.1839 128.839 9.65563 129.551 9.26778C130.263 8.86656 131.029 8.66602 131.849 8.66602Z" fill="#A3A3A3"/>
<path d="M116.078 8.84628V19.8995H113.78V18.5956C113.418 19.0503 112.941 19.4114 112.349 19.6788C111.771 19.933 111.154 20.06 110.495 20.06C109.622 20.06 108.835 19.8794 108.137 19.5184C107.451 19.1572 106.907 18.6223 106.504 17.9136C106.114 17.2047 105.92 16.3488 105.92 15.3458V8.84628H108.197V15.0048C108.197 15.9944 108.446 16.7567 108.943 17.2917C109.44 17.8133 110.119 18.074 110.979 18.074C111.839 18.074 112.518 17.8133 113.015 17.2917C113.525 16.7567 113.78 15.9944 113.78 15.0048V8.84628H116.078Z" fill="#A3A3A3"/>
<path d="M99.9911 20.0803C99.1175 20.0803 98.3315 19.9265 97.6329 19.6189C96.9472 19.2979 96.4033 18.87 96.0005 18.3351C95.5969 17.7868 95.3819 17.1782 95.3555 16.5096H97.734C97.774 16.9776 97.9958 17.3722 98.3986 17.6931C98.8151 18.0007 99.3325 18.1545 99.9511 18.1545C100.596 18.1545 101.093 18.0341 101.442 17.7934C101.805 17.5394 101.986 17.2183 101.986 16.8305C101.986 16.416 101.785 16.1084 101.382 15.9078C100.992 15.7071 100.368 15.4865 99.5075 15.2458C98.674 15.0184 97.9958 14.7978 97.4715 14.5838C96.9473 14.3698 96.4908 14.0421 96.1008 13.6008C95.7251 13.1595 95.5366 12.5778 95.5366 11.8556C95.5366 11.2671 95.7115 10.7322 96.0608 10.2508C96.4101 9.75594 96.9072 9.36808 97.5522 9.08728C98.2108 8.80642 98.9629 8.66602 99.81 8.66602C101.073 8.66602 102.087 8.98698 102.853 9.6289C103.632 10.2575 104.049 11.12 104.103 12.2167H101.805C101.765 11.7218 101.563 11.3273 101.2 11.0331C100.838 10.7389 100.347 10.5918 99.7293 10.5918C99.1243 10.5918 98.6611 10.7055 98.3383 10.9328C98.0161 11.1601 97.8547 11.4611 97.8547 11.8355C97.8547 12.1297 97.9619 12.3772 98.1769 12.5778C98.3919 12.7783 98.6543 12.9388 98.9629 13.0592C99.2722 13.1662 99.7293 13.3066 100.334 13.4805C101.14 13.6944 101.799 13.9151 102.309 14.1424C102.833 14.3564 103.283 14.6774 103.66 15.1054C104.036 15.5333 104.231 16.1017 104.244 16.8105C104.244 17.4391 104.069 18.0007 103.72 18.4956C103.371 18.9903 102.874 19.3782 102.229 19.6591C101.597 19.9399 100.851 20.0803 99.9911 20.0803Z" fill="#A3A3A3"/>
<path d="M85.3037 10.4714C85.693 9.96323 86.224 9.53528 86.8961 9.18759C87.5675 8.83983 88.3272 8.66602 89.1736 8.66602C90.1407 8.66602 91.021 8.90672 91.8139 9.38813C92.6203 9.85624 93.2517 10.5182 93.7088 11.3741C94.1653 12.23 94.3938 13.213 94.3938 14.323C94.3938 15.433 94.1653 16.4293 93.7088 17.312C93.2517 18.1813 92.6203 18.8633 91.8139 19.3582C91.021 19.8396 90.1407 20.0803 89.1736 20.0803C88.3272 20.0803 87.5743 19.9131 86.9158 19.5788C86.2572 19.2311 85.7201 18.8031 85.3037 18.295V25.1556H83.0059V8.84651H85.3037V10.4714ZM92.056 14.323C92.056 13.5607 91.8946 12.9054 91.5718 12.3571C91.2632 11.7954 90.8467 11.3741 90.3225 11.0933C89.8118 10.7991 89.2611 10.6519 88.6697 10.6519C88.0918 10.6519 87.5411 10.7991 87.0168 11.0933C86.5061 11.3875 86.0897 11.8154 85.7669 12.3772C85.4583 12.9388 85.3037 13.6008 85.3037 14.3631C85.3037 15.1254 85.4583 15.7941 85.7669 16.3691C86.0897 16.9309 86.5061 17.3588 87.0168 17.653C87.5411 17.9472 88.0918 18.0943 88.6697 18.0943C89.2611 18.0943 89.8118 17.9472 90.3225 17.653C90.8467 17.3454 91.2632 16.9041 91.5718 16.329C91.8946 15.754 92.056 15.0853 92.056 14.323Z" fill="#A3A3A3"/>
<path d="M79.5634 7.38186C79.1463 7.38186 78.797 7.24146 78.5149 6.96059C78.2327 6.67978 78.0917 6.33206 78.0917 5.91748C78.0917 5.5029 78.2327 5.15519 78.5149 4.87435C78.797 4.5935 79.1463 4.45308 79.5634 4.45308C79.9663 4.45308 80.3088 4.5935 80.5909 4.87435C80.873 5.15519 81.0141 5.5029 81.0141 5.91748C81.0141 6.33206 80.873 6.67978 80.5909 6.96059C80.3088 7.24146 79.9663 7.38186 79.5634 7.38186ZM80.692 8.84627V19.8995H78.3942V8.84627H80.692Z" fill="#A3A3A3"/>
<path d="M71.0648 20.0803C70.0169 20.0803 69.0694 19.8462 68.223 19.3782C67.3764 18.8967 66.7113 18.2281 66.2276 17.3722C65.7438 16.5029 65.502 15.4999 65.502 14.3631C65.502 13.2397 65.7505 12.2434 66.2477 11.3741C66.7449 10.5049 67.4235 9.8362 68.2834 9.36808C69.1434 8.90004 70.1044 8.66602 71.1658 8.66602C72.2272 8.66602 73.1883 8.90004 74.0482 9.36808C74.9082 9.8362 75.5864 10.5049 76.0836 11.3741C76.5807 12.2434 76.8296 13.2397 76.8296 14.3631C76.8296 15.4865 76.5746 16.4829 76.0639 17.3521C75.5532 18.2214 74.854 18.8967 73.9675 19.3782C73.094 19.8462 72.1268 20.0803 71.0648 20.0803ZM71.0648 18.0943C71.6562 18.0943 72.2069 17.9539 72.7176 17.6731C73.2418 17.3922 73.6651 16.9709 73.9879 16.4093C74.31 15.8476 74.4714 15.1655 74.4714 14.3631C74.4714 13.5607 74.3168 12.8854 74.0075 12.337C73.699 11.7753 73.2886 11.3541 72.7779 11.0732C72.2679 10.7924 71.7165 10.6519 71.1251 10.6519C70.5344 10.6519 69.983 10.7924 69.473 11.0732C68.9752 11.3541 68.5791 11.7753 68.2834 12.337C67.9877 12.8854 67.8398 13.5607 67.8398 14.3631C67.8398 15.5534 68.1423 16.4761 68.7473 17.1315C69.3651 17.7734 70.1376 18.0943 71.0648 18.0943Z" fill="#A3A3A3"/>
<path d="M58.9165 20.0803C57.8684 20.0803 56.9211 19.8462 56.0745 19.3782C55.228 18.8967 54.5628 18.2281 54.0791 17.3722C53.5954 16.5029 53.3535 15.4999 53.3535 14.3631C53.3535 13.2397 53.6021 12.2434 54.0993 11.3741C54.5964 10.5049 55.275 9.8362 56.135 9.36808C56.995 8.90004 57.9558 8.66602 59.0173 8.66602C60.0789 8.66602 61.0396 8.90004 61.8996 9.36808C62.7596 9.8362 63.4382 10.5049 63.9353 11.3741C64.4325 12.2434 64.6811 13.2397 64.6811 14.3631C64.6811 15.4865 64.4258 16.4829 63.9152 17.3521C63.4046 18.2214 62.7059 18.8967 61.819 19.3782C60.9456 19.8462 59.9781 20.0803 58.9165 20.0803ZM58.9165 18.0943C59.5078 18.0943 60.0587 17.9539 60.5693 17.6731C61.0933 17.3922 61.5166 16.9709 61.8392 16.4093C62.1617 15.8476 62.3229 15.1655 62.3229 14.3631C62.3229 13.5607 62.1684 12.8854 61.8593 12.337C61.5503 11.7753 61.1404 11.3541 60.6298 11.0732C60.1191 10.7924 59.5682 10.6519 58.977 10.6519C58.3858 10.6519 57.8348 10.7924 57.3242 11.0732C56.827 11.3541 56.4307 11.7753 56.135 12.337C55.8394 12.8854 55.6916 13.5607 55.6916 14.3631C55.6916 15.5534 55.9939 16.4761 56.5986 17.1315C57.2167 17.7734 57.9893 18.0943 58.9165 18.0943Z" fill="#A3A3A3"/>
<path d="M46.7681 20.0803C45.72 20.0803 44.7727 19.8462 43.9262 19.3782C43.0796 18.8967 42.4144 18.2281 41.9307 17.3722C41.4469 16.5029 41.2051 15.4999 41.2051 14.3631C41.2051 13.2397 41.4536 12.2434 41.9508 11.3741C42.448 10.5049 43.1266 9.8362 43.9866 9.36808C44.8466 8.90004 45.8073 8.66602 46.8689 8.66602C47.9304 8.66602 48.8912 8.90004 49.7512 9.36808C50.6111 9.8362 51.2898 10.5049 51.787 11.3741C52.2841 12.2434 52.5327 13.2397 52.5327 14.3631C52.5327 15.4865 52.2774 16.4829 51.7668 17.3521C51.2562 18.2214 50.5574 18.8967 49.6706 19.3782C48.7971 19.8462 47.8296 20.0803 46.7681 20.0803ZM46.7681 18.0943C47.3594 18.0943 47.9103 17.9539 48.4209 17.6731C48.945 17.3922 49.3682 16.9709 49.6907 16.4093C50.0132 15.8476 50.1744 15.1655 50.1744 14.3631C50.1744 13.5607 50.0199 12.8854 49.7109 12.337C49.4018 11.7753 48.992 11.3541 48.4813 11.0732C47.9708 10.7924 47.4198 10.6519 46.8286 10.6519C46.2373 10.6519 45.6864 10.7924 45.1758 11.0732C44.6786 11.3541 44.2822 11.7753 43.9866 12.337C43.6909 12.8854 43.5432 13.5607 43.5432 14.3631C43.5432 15.5534 43.8455 16.4761 44.4501 17.1315C45.0683 17.7734 45.841 18.0943 46.7681 18.0943Z" fill="#A3A3A3"/>
<path d="M35.999 18.0539H40.7356V19.8995H33.7012V5.95752H35.999V18.0539Z" fill="#A3A3A3"/>
<path fill-rule="evenodd" clip-rule="evenodd" d="M61.0349 21.9537C61.6153 21.5104 62.0325 20.889 62.2219 20.1856L64.4429 20.7779C64.1225 21.9678 63.4166 23.0193 62.4347 23.7693C61.4526 24.5192 60.2494 24.9257 59.0116 24.9257C57.7738 24.9257 56.5706 24.5192 55.5886 23.7693C54.6066 23.0193 53.9006 21.9678 53.5803 20.7779L55.8013 20.1856C55.9906 20.889 56.4079 21.5104 56.9884 21.9537C57.5688 22.397 58.28 22.6373 59.0116 22.6373C59.7432 22.6373 60.4544 22.397 61.0349 21.9537Z" fill="#A3A3A3"/>
</g>
<defs>
<clipPath id="clip0_468_338">
<rect width="137" height="27" fill="white"/>
</clipPath>
</defs>
</svg>
