<svg width="144" height="27" viewBox="0 0 144 27" fill="none" xmlns="http://www.w3.org/2000/svg">
<g clip-path="url(#clip0_468_207)">
<path d="M34.707 1.14697H38.3023V20.7571H44.218V24.0256H34.707V1.14697Z" fill="#A3A3A3"/>
<path d="M51.0128 24.3525C49.2479 24.3525 47.897 23.8514 46.96 22.8491C46.0231 21.8467 45.5547 20.4305 45.5547 18.6002V6.57264C45.5547 4.74235 46.0231 3.32606 46.96 2.32376C47.897 1.32146 49.2479 0.820312 51.0128 0.820312C52.7777 0.820312 54.1286 1.32146 55.0656 2.32376C56.0025 3.32606 56.471 4.74235 56.471 6.57264V18.6002C56.471 20.4305 56.0025 21.8467 55.0656 22.8491C54.1286 23.8514 52.7777 24.3525 51.0128 24.3525ZM51.0128 21.0842C52.2548 21.0842 52.8758 20.3324 52.8758 18.829V6.34385C52.8758 4.8404 52.2548 4.08867 51.0128 4.08867C49.7708 4.08867 49.1498 4.8404 49.1498 6.34385V18.829C49.1498 20.3324 49.7708 21.0842 51.0128 21.0842Z" fill="#A3A3A3"/>
<path d="M64.0008 24.3526C62.2576 24.3526 60.9285 23.8623 60.0133 22.8818C59.0982 21.8795 58.6406 20.4523 58.6406 18.6002V6.57268C58.6406 4.72061 59.0982 3.30431 60.0133 2.32381C60.9285 1.32151 62.2576 0.820358 64.0008 0.820358C65.7439 0.820358 67.073 1.32151 67.9881 2.32381C68.9033 3.30431 69.3609 4.72061 69.3609 6.57268V8.53369H65.9618V6.34389C65.9618 4.84044 65.3408 4.08872 64.0988 4.08872C62.8569 4.08872 62.2359 4.84044 62.2359 6.34389V18.8618C62.2359 20.3434 62.8569 21.0842 64.0988 21.0842C65.3408 21.0842 65.9618 20.3434 65.9618 18.8618V14.3841H64.1642V11.1157H69.3609V18.6002C69.3609 20.4523 68.9033 21.8795 67.9881 22.8818C67.073 23.8623 65.7439 24.3526 64.0008 24.3526Z" fill="#A3A3A3"/>
<path d="M76.8663 24.3526C75.1014 24.3526 73.7505 23.8514 72.8136 22.8491C71.8767 21.8468 71.4082 20.4305 71.4082 18.6002V6.57268C71.4082 4.7424 71.8767 3.3261 72.8136 2.32381C73.7505 1.32151 75.1014 0.820358 76.8663 0.820358C78.6313 0.820358 79.9822 1.32151 80.9191 2.32381C81.8561 3.3261 82.3246 4.7424 82.3246 6.57268V18.6002C82.3246 20.4305 81.8561 21.8468 80.9191 22.8491C79.9822 23.8514 78.6313 24.3526 76.8663 24.3526ZM76.8663 21.0842C78.1083 21.0842 78.7293 20.3324 78.7293 18.829V6.34389C78.7293 4.84044 78.1083 4.08872 76.8663 4.08872C75.6244 4.08872 75.0034 4.84044 75.0034 6.34389V18.829C75.0034 20.3324 75.6244 21.0842 76.8663 21.0842Z" fill="#A3A3A3"/>
<path d="M84.7617 1.14718H88.3569V24.0258H84.7617V1.14718Z" fill="#A3A3A3"/>
<path d="M91.0508 1.14697H96.3455C98.132 1.14697 99.4721 1.62633 100.366 2.58506C101.259 3.54377 101.706 4.94917 101.706 6.80124V9.0564C101.706 10.9085 101.259 12.3139 100.366 13.2726C99.4721 14.2313 98.132 14.7106 96.3455 14.7106H94.6463V24.0256H91.0508V1.14697ZM96.3455 11.4423C96.9341 11.4423 97.3697 11.2789 97.6532 10.9521C97.9583 10.6252 98.1104 10.0696 98.1104 9.28518V6.57246C98.1104 5.78805 97.9583 5.23242 97.6532 4.90559C97.3697 4.57875 96.9341 4.41534 96.3455 4.41534H94.6463V11.4423H96.3455Z" fill="#A3A3A3"/>
<path d="M108.459 24.3525C106.716 24.3525 105.398 23.8623 104.504 22.8817C103.611 21.8795 103.164 20.4523 103.164 18.6002V17.2928H106.563V18.8617C106.563 20.3434 107.184 21.0842 108.426 21.0842C109.037 21.0842 109.494 20.9098 109.799 20.5613C110.126 20.1908 110.289 19.6025 110.289 18.7963C110.289 17.8376 110.072 16.9987 109.636 16.2797C109.2 15.5388 108.394 14.6564 107.217 13.6323C105.735 12.3249 104.7 11.1484 104.112 10.1025C103.524 9.03479 103.23 7.8364 103.23 6.50727C103.23 4.69877 103.687 3.30427 104.602 2.32376C105.518 1.32146 106.847 0.820312 108.59 0.820312C110.311 0.820312 111.608 1.32146 112.479 2.32376C113.373 3.30427 113.819 4.72056 113.819 6.57264V7.52046H110.42V6.34385C110.42 5.55944 110.268 4.99292 109.963 4.6443C109.658 4.27388 109.211 4.08867 108.623 4.08867C107.424 4.08867 106.825 4.81861 106.825 6.27848C106.825 7.10646 107.043 7.87998 107.479 8.59901C107.936 9.31802 108.753 10.1896 109.93 11.2137C111.433 12.521 112.468 13.7086 113.035 14.7763C113.601 15.8439 113.885 17.0967 113.885 18.5348C113.885 20.4087 113.416 21.8467 112.479 22.8491C111.564 23.8514 110.224 24.3525 108.459 24.3525Z" fill="#A3A3A3"/>
<path d="M121.175 24.3523C119.432 24.3523 118.102 23.8621 117.187 22.8816C116.272 21.8793 115.814 20.4521 115.814 18.6V1.14697H119.41V18.8615C119.41 19.6459 119.562 20.2124 119.867 20.5611C120.194 20.9097 120.652 21.084 121.24 21.084C121.828 21.084 122.275 20.9097 122.58 20.5611C122.906 20.2124 123.07 19.6459 123.07 18.8615V1.14697H126.534V18.6C126.534 20.4521 126.077 21.8793 125.162 22.8816C124.247 23.8621 122.917 24.3523 121.175 24.3523Z" fill="#A3A3A3"/>
<path d="M129.098 1.14697H134.229L136.517 17.5214H136.582L138.871 1.14697H144.002V24.0256H140.602V6.70319H140.538L137.922 24.0256H134.915L132.301 6.70319H132.236V24.0256H129.098V1.14697Z" fill="#A3A3A3"/>
<path d="M0 24.0258C4.42303 24.0258 8.00857 20.4402 8.00857 16.0172C8.00857 11.5942 4.42303 8.0086 0 8.0086V13.6146C1.3269 13.6146 2.40256 14.6903 2.40256 16.0172C2.40256 17.3441 1.3269 18.4198 0 18.4198V24.0258Z" fill="#A3A3A3"/>
<path d="M26.6945 10.6782C25.3259 10.2447 23.8686 10.0107 22.3565 10.0107C14.4319 10.0107 8.00781 16.4349 8.00781 24.3594C8.00781 25.1549 8.07254 25.9352 8.19697 26.6953H17.1123C16.794 25.9818 16.6171 25.1913 16.6171 24.3594C16.6171 21.1896 19.1867 18.62 22.3565 18.62C24.089 18.62 25.6421 19.3876 26.6945 20.6012V10.6782Z" fill="#A3A3A3"/>
<path d="M1.4082 0C2.07217 6.00637 7.16441 10.6781 13.3478 10.6781C19.531 10.6781 24.6233 6.00637 25.2873 0H16.6963C16.1659 1.32957 14.8665 2.26909 13.3478 2.26909C11.8289 2.26909 10.5296 1.32957 9.99914 0H1.4082Z" fill="#A3A3A3"/>
</g>
<defs>
<clipPath id="clip0_468_207">
<rect width="144" height="27" fill="white"/>
</clipPath>
</defs>
</svg>
