<svg width="172" height="27" viewBox="0 0 172 27" fill="none" xmlns="http://www.w3.org/2000/svg">
<g clip-path="url(#clip0_468_13)">
<path d="M23.9993 1.0386C24.5953 0.419867 25.4048 0.0722656 26.2476 0.0722656C30.0398 0.0722656 33.6134 0.0722676 37.1327 0.0722746C44.211 0.0722894 47.7555 8.9567 42.7504 14.1527L31.8481 25.4709C31.3476 25.9905 30.4918 25.6225 30.4918 24.8877V14.919L31.7517 13.611C32.7527 12.5718 32.0438 10.7949 30.6281 10.7949H14.6016L23.9993 1.0386Z" fill="#A3A3A3"/>
<path d="M21.0941 24.6756C20.4981 25.2943 19.6887 25.6419 18.8458 25.6419C15.0537 25.6419 11.4801 25.6419 7.96076 25.6419C0.882436 25.6418 -2.66205 16.7575 2.34307 11.5614L13.2454 0.243237C13.7459 -0.276369 14.6017 0.0916374 14.6017 0.82647L14.6018 10.795L13.3418 12.1031C12.3408 13.1424 13.0497 14.9192 14.4654 14.9192L30.492 14.9192L21.0941 24.6756Z" fill="#A3A3A3"/>
<path d="M108.322 8.64014V21.4939H112.105V8.64014H108.322Z" fill="#A3A3A3"/>
<path d="M108.587 6.50152C109.034 6.94747 109.58 7.17048 110.227 7.17048C110.873 7.17048 111.416 6.94747 111.855 6.50152C112.302 6.05552 112.525 5.51397 112.525 4.87686C112.525 4.22381 112.302 3.67828 111.855 3.24027C111.416 2.79428 110.873 2.57129 110.227 2.57129C109.58 2.57129 109.034 2.79428 108.587 3.24027C108.14 3.67828 107.916 4.22381 107.916 4.87686C107.916 5.51397 108.14 6.05552 108.587 6.50152Z" fill="#A3A3A3"/>
<path fill-rule="evenodd" clip-rule="evenodd" d="M114.24 26.5109V8.63984H117.832V9.91803H117.879C118.105 9.6956 118.348 9.49253 118.61 9.3088C119.456 8.71943 120.429 8.4248 121.531 8.4248C122.496 8.4248 123.418 8.67565 124.296 9.1774C125.182 9.67908 125.9 10.4238 126.451 11.4113C127.001 12.3988 127.268 13.6292 127.253 15.1025C127.261 16.2175 127.105 17.1891 126.786 18.0174C126.466 18.8377 126.035 19.5186 125.493 20.0601C124.951 20.6017 124.344 21.0078 123.673 21.2786C123.003 21.5494 122.325 21.6848 121.638 21.6848C120.553 21.6848 119.579 21.3822 118.717 20.7769C118.5 20.6225 118.295 20.4553 118.101 20.2752H118.023V26.5109H114.24ZM120.752 18.531C121.311 18.5231 121.802 18.3758 122.225 18.0891C122.648 17.8024 122.979 17.3962 123.218 16.8706C123.458 16.3449 123.574 15.7317 123.566 15.0309C123.574 14.3141 123.454 13.7009 123.207 13.1912C122.967 12.6736 122.628 12.2793 122.189 12.0085C121.75 11.7299 121.247 11.5944 120.681 11.6024C120.146 11.5944 119.667 11.7259 119.244 11.9966C118.821 12.2674 118.486 12.6616 118.239 13.1792C117.991 13.689 117.868 14.3062 117.868 15.0309C117.868 15.7317 117.991 16.3449 118.239 16.8706C118.494 17.3962 118.837 17.8024 119.268 18.0891C119.699 18.3758 120.194 18.5231 120.752 18.531Z" fill="#A3A3A3"/>
<path d="M130.895 21.2906C131.597 21.5534 132.331 21.6848 133.097 21.6848C133.975 21.6848 134.777 21.5136 135.503 21.1712C136.238 20.8287 136.824 20.3509 137.263 19.7377C137.71 19.1165 137.933 18.4037 137.933 17.5994C137.933 16.9622 137.798 16.4247 137.527 15.9867C137.263 15.5486 136.928 15.1902 136.521 14.9115C136.122 14.6328 135.711 14.4137 135.288 14.2545C134.865 14.0872 134.494 13.9598 134.174 13.8722C133.759 13.7528 133.361 13.6293 132.977 13.5019C132.595 13.3745 132.279 13.2232 132.032 13.0479C131.784 12.8727 131.661 12.6418 131.661 12.3551C131.661 12.0684 131.784 11.8295 132.032 11.6383C132.279 11.4472 132.59 11.3516 132.966 11.3516C133.412 11.3516 133.779 11.4711 134.067 11.71C134.362 11.9489 134.585 12.1958 134.737 12.4506L137.646 11.1963C137.279 10.368 136.656 9.70307 135.779 9.20132C134.909 8.69964 133.927 8.44873 132.834 8.44873C131.956 8.44873 131.174 8.61202 130.488 8.93852C129.809 9.26503 129.271 9.71902 128.871 10.3004C128.48 10.8738 128.285 11.5388 128.285 12.2953C128.285 13.0121 128.452 13.6214 128.787 14.1231C129.123 14.6248 129.558 15.0389 130.093 15.3655C130.635 15.684 131.21 15.9349 131.816 16.1181C132.08 16.1898 132.367 16.2693 132.678 16.357C132.997 16.4446 133.301 16.5481 133.588 16.6676C133.875 16.787 134.11 16.9304 134.294 17.0976C134.478 17.2649 134.57 17.464 134.57 17.6949C134.57 17.8781 134.506 18.0493 134.378 18.2086C134.259 18.3679 134.09 18.4993 133.875 18.6028C133.66 18.6984 133.408 18.7461 133.121 18.7461C132.579 18.7461 132.108 18.5789 131.708 18.2445C131.309 17.9099 131.011 17.5556 130.811 17.1812L127.842 18.4833C128.113 19.1285 128.516 19.6938 129.051 20.1797C129.586 20.6575 130.2 21.0278 130.895 21.2906Z" fill="#A3A3A3"/>
<path d="M153.309 21.4937V8.63992H156.912V10.2765H156.977C157.259 9.88545 157.576 9.55496 157.929 9.28496C158.648 8.72747 159.497 8.44873 160.479 8.44873C161.293 8.44873 161.983 8.64782 162.55 9.04607C162.987 9.34288 163.343 9.74107 163.619 10.2406H163.687C164.094 9.72184 164.59 9.31562 165.171 9.02216C165.93 8.63992 166.756 8.44873 167.65 8.44873C168.503 8.44873 169.206 8.60006 169.756 8.90272C170.307 9.19734 170.738 9.58762 171.049 10.0734C171.36 10.5513 171.58 11.0769 171.707 11.6503C171.836 12.2157 171.899 12.7652 171.899 13.2988V21.4937H168.092V13.7647C168.092 13.0639 167.945 12.5263 167.65 12.152C167.362 11.7697 166.939 11.5786 166.381 11.5786C166.013 11.5786 165.686 11.6622 165.399 11.8295C165.12 11.9888 164.896 12.2316 164.729 12.5581C164.569 12.8847 164.489 13.2869 164.489 13.7647V21.4937H160.707V13.7647C160.707 13.0639 160.559 12.5263 160.263 12.152C159.968 11.7697 159.541 11.5786 158.983 11.5786C158.44 11.5786 157.989 11.7657 157.63 12.1401C157.271 12.5064 157.091 13.0559 157.091 13.7886V21.4937H153.309Z" fill="#A3A3A3"/>
<path d="M144.052 21.6851C143.166 21.6851 142.36 21.4979 141.634 21.1237C140.908 20.7413 140.329 20.1839 139.898 19.4512C139.476 18.7106 139.264 17.7987 139.264 16.7156V8.64014H143.046V16.2138C143.046 16.9545 143.238 17.5199 143.621 17.9101C144.012 18.2924 144.487 18.4836 145.046 18.4836C145.461 18.4836 145.824 18.392 146.135 18.2088C146.454 18.0257 146.702 17.7668 146.877 17.4323C147.061 17.0899 147.152 16.6837 147.152 16.2138V8.64014H150.935V16.9903C150.935 17.4522 151.003 17.7867 151.139 17.9938C151.275 18.2008 151.55 18.3801 151.965 18.5313L150.624 21.6851C149.675 21.4382 148.98 21.1157 148.541 20.7175C148.32 20.5169 148.153 20.2859 148.039 20.0246H147.943C147.609 20.3599 147.238 20.6586 146.83 20.9206C146.023 21.4302 145.097 21.6851 144.052 21.6851Z" fill="#A3A3A3"/>
<path fill-rule="evenodd" clip-rule="evenodd" d="M100.132 21.6848C98.8942 21.6848 97.765 21.4022 96.7439 20.8367C95.73 20.2713 94.9202 19.4908 94.3134 18.4953C93.7149 17.4998 93.416 16.353 93.416 15.0549C93.416 13.7567 93.7149 12.6099 94.3134 11.6144C94.9202 10.619 95.73 9.84244 96.7439 9.28496C97.765 8.72747 98.8942 8.44873 100.132 8.44873C101.392 8.44873 102.529 8.72747 103.543 9.28496C104.557 9.84244 105.359 10.619 105.949 11.6144C106.548 12.6099 106.847 13.7567 106.847 15.0549C106.847 16.353 106.548 17.4998 105.949 18.4953C105.359 19.4908 104.553 20.2713 103.531 20.8367C102.518 21.4022 101.385 21.6848 100.132 21.6848ZM100.132 18.4594C100.722 18.4594 101.253 18.3161 101.724 18.0294C102.194 17.7427 102.566 17.3445 102.837 16.8348C103.108 16.3251 103.244 15.7318 103.244 15.0549C103.244 14.4018 103.112 13.8204 102.849 13.3107C102.585 12.8011 102.222 12.4029 101.76 12.1162C101.296 11.8215 100.762 11.6741 100.156 11.6741C99.5571 11.6741 99.0179 11.8175 98.5393 12.1042C98.0684 12.383 97.6973 12.7772 97.4261 13.2869C97.1549 13.7965 97.019 14.3859 97.019 15.0549C97.019 15.7318 97.1549 16.3251 97.4261 16.8348C97.7051 17.3445 98.0806 17.7427 98.5515 18.0294C99.0224 18.3161 99.5488 18.4594 100.132 18.4594Z" fill="#A3A3A3"/>
<path fill-rule="evenodd" clip-rule="evenodd" d="M82.2195 26.3081C83.113 26.5709 84.0948 26.7023 85.1641 26.7023C86.162 26.7023 87.0755 26.5749 87.9058 26.3201C88.7356 26.0732 89.4538 25.6989 90.06 25.1971C90.6746 24.6954 91.1494 24.0743 91.485 23.3336C91.82 22.5929 91.9875 21.7328 91.9875 20.7533V8.62813H88.552V9.88241H88.4805C88.2518 9.66403 88.0044 9.46494 87.7377 9.28513C86.908 8.71968 85.9385 8.43701 84.8292 8.43701C83.8713 8.43701 82.9494 8.67988 82.0636 9.16569C81.1779 9.64353 80.4519 10.3603 79.885 11.316C79.3265 12.2637 79.0469 13.4543 79.0469 14.8878C79.0469 15.9629 79.2105 16.8987 79.5378 17.6951C79.865 18.4915 80.2998 19.1565 80.8429 19.6901C81.3937 20.2157 82.0037 20.6099 82.6743 20.8727C83.3449 21.1276 84.0188 21.255 84.6971 21.255C85.791 21.255 86.7643 20.9563 87.6185 20.3591C87.8884 20.1675 88.141 19.9565 88.3748 19.7259H88.4321V20.9683C88.4321 21.5815 88.2331 22.0753 87.8337 22.4496C87.4349 22.8319 86.9518 23.1106 86.3855 23.2858C85.8187 23.461 85.2717 23.5486 84.7454 23.5486C84.1309 23.5486 83.524 23.4491 82.9256 23.25C82.3348 23.0588 81.8163 22.8279 81.3698 22.5571L80.1246 25.5197C80.6355 25.7905 81.3338 26.0533 82.2195 26.3081ZM87.1515 17.7548C86.7128 18.0416 86.2058 18.1848 85.6312 18.1848C85.0643 18.1848 84.5657 18.0416 84.1347 17.7548C83.7038 17.4602 83.3649 17.058 83.1175 16.5483C82.8702 16.0306 82.7458 15.4373 82.7458 14.7683C82.7458 14.0994 82.8702 13.518 83.1175 13.0242C83.3726 12.5305 83.7237 12.1521 84.1708 11.8893C84.6179 11.6186 85.1242 11.4832 85.6911 11.4832C86.2573 11.4832 86.7566 11.6146 87.1876 11.8774C87.6185 12.1403 87.9574 12.5185 88.2047 13.0123C88.4521 13.4981 88.5758 14.0834 88.5758 14.7683C88.5758 15.4452 88.4483 16.0426 88.1932 16.5602C87.9374 17.0699 87.5902 17.4681 87.1515 17.7548Z" fill="#A3A3A3"/>
<path fill-rule="evenodd" clip-rule="evenodd" d="M71.37 21.6848C70.1332 21.6848 69.0039 21.4022 67.9822 20.8367C66.9689 20.2713 66.1585 19.4908 65.5523 18.4953C64.9539 17.4998 64.6543 16.353 64.6543 15.0549C64.6543 13.7567 64.9539 12.6099 65.5523 11.6144C66.1585 10.619 66.9689 9.84244 67.9822 9.28496C69.0039 8.72747 70.1332 8.44873 71.37 8.44873C72.6307 8.44873 73.7684 8.72747 74.7817 9.28496C75.795 9.84244 76.597 10.619 77.1878 11.6144C77.7862 12.6099 78.0858 13.7567 78.0858 15.0549C78.0858 16.353 77.7862 17.4998 77.1878 18.4953C76.597 19.4908 75.7911 20.2713 74.7694 20.8367C73.7561 21.4022 72.623 21.6848 71.37 21.6848ZM71.37 18.4594C71.9608 18.4594 72.4909 18.3161 72.9618 18.0294C73.4327 17.7427 73.8038 17.3445 74.0756 16.8348C74.3469 16.3251 74.4821 15.7318 74.4821 15.0549C74.4821 14.4018 74.3507 13.8204 74.0872 13.3107C73.8238 12.8011 73.4611 12.4029 72.9979 12.1162C72.5354 11.8215 72.0001 11.6741 71.3939 11.6741C70.7954 11.6741 70.2569 11.8175 69.7776 12.1042C69.3067 12.383 68.9356 12.7772 68.6644 13.2869C68.3932 13.7965 68.2573 14.3859 68.2573 15.0549C68.2573 15.7318 68.3932 16.3251 68.6644 16.8348C68.944 17.3445 69.3189 17.7427 69.7898 18.0294C70.2607 18.3161 70.787 18.4594 71.37 18.4594Z" fill="#A3A3A3"/>
<path d="M54.4277 3.88574V21.4941H64.7109V18.0058H58.3542V3.88574H54.4277Z" fill="#A3A3A3"/>
</g>
<defs>
<clipPath id="clip0_468_13">
<rect width="172" height="27" fill="white"/>
</clipPath>
</defs>
</svg>
