<svg width="32" height="33" viewBox="0 0 32 33" fill="none" xmlns="http://www.w3.org/2000/svg">
<path d="M31.5244 20.3616C29.3894 28.9278 20.7133 34.1586 12.1313 32.0223C3.56511 29.8808 -1.6573 21.2046 0.477713 12.6384C2.61273 4.07221 11.2836 -1.15861 19.8446 0.977698C28.4318 3.08783 33.6542 11.7902 31.5244 20.3616Z" fill="#F7931A"/>
<path d="M23.5769 14.3972C23.8645 12.2638 22.2435 11.1501 20.0213 10.3972L20.7115 7.51088L18.9546 7.08735L18.2854 9.91089C17.82 9.80108 17.3494 9.69128 16.8841 9.59716L17.5533 6.77363L15.7756 6.3501L15.0854 9.23638C14.7089 9.14749 14.3272 9.07951 13.9507 8.99063L11.5298 8.41023L11.0854 10.2769C11.0854 10.2769 12.3978 10.5645 12.3507 10.5906C13.0618 10.7684 13.1978 11.2338 13.1716 11.5893L12.3926 14.8782C12.4396 14.8991 12.5024 14.8991 12.5703 14.9462C12.5024 14.9253 12.4605 14.9253 12.3926 14.9044L11.3259 19.5057C11.237 19.7253 11.0122 20.039 10.5259 19.9292C10.5468 19.9501 9.23439 19.6155 9.23439 19.6155L8.40302 21.639L10.6932 22.1723C11.1167 22.2822 11.5403 22.371 11.9377 22.4861L11.2475 25.3985L13.0043 25.822L13.6945 22.9357C14.186 23.0665 14.6514 23.1815 15.0958 23.2913L14.4056 26.1567L16.1625 26.5802L16.8527 23.6678C19.854 24.2011 22.0971 23.9554 23.0069 21.2207C23.739 19.0403 22.939 17.7959 21.339 16.975C22.5102 16.7083 23.3573 15.9501 23.5769 14.3972ZM19.6239 20.0599C19.1115 22.2403 15.4252 21.1057 14.2435 20.8181L15.1533 16.9488C16.356 17.2416 20.1573 17.775 19.6239 20.0599ZM20.1102 14.3972C19.6448 16.3736 16.5756 15.422 15.5769 15.1763L16.4239 11.6678C17.4017 11.9083 20.6017 12.3318 20.1102 14.3972Z" fill="white"/>
</svg>
