<svg width="32" height="33" viewBox="0 0 32 33" fill="none" xmlns="http://www.w3.org/2000/svg">
<path d="M31.5244 20.3616C29.3894 28.9278 20.7133 34.1586 12.1313 32.0223C3.56511 29.8808 -1.6573 21.2046 0.477713 12.6384C2.61273 4.07221 11.2836 -1.15861 19.8446 0.977698C28.4318 3.08783 33.6542 11.7902 31.5244 20.3616Z" fill="#ECEFF0"/>
<path d="M16.1921 20.3788C16.1299 20.3999 16.0945 20.3458 16.0522 20.321C13.9802 19.098 11.9103 17.8743 9.8428 16.6497C9.82278 16.6395 9.802 16.631 9.78064 16.6242V16.5968L9.81732 16.5757C9.86939 16.562 9.92066 16.5454 9.97086 16.5259L14.8537 14.3043C15.2889 14.106 15.724 13.9108 16.1592 13.7143H16.1902C16.1902 13.7765 16.1902 13.8318 16.1902 13.8909C16.1919 16.0537 16.1925 18.2164 16.1921 20.3788Z" fill="#343535"/>
<path d="M16.1952 13.7158H16.1641C16.1641 13.6537 16.1703 13.5915 16.1703 13.5262C16.1703 11.0969 16.1703 8.6674 16.1703 6.23766C16.1632 6.17526 16.1674 6.11208 16.1828 6.05117H16.1958C16.4513 6.4285 16.6738 6.82634 16.9088 7.2161C18.7704 10.3039 20.6309 13.3913 22.4904 16.4783C22.5084 16.5088 22.5227 16.5405 22.5389 16.5741C22.4862 16.5628 22.4345 16.5477 22.3841 16.5287C22.0428 16.3745 21.7003 16.2179 21.3622 16.0606C20.8325 15.8182 20.3027 15.5762 19.7727 15.3346L17.219 14.1777C16.879 14.0211 16.5371 13.8688 16.1952 13.7158Z" fill="#2F3030"/>
<path d="M16.1848 6.04796C16.1694 6.10886 16.1652 6.17205 16.1724 6.23445C16.1724 8.66377 16.1724 11.0933 16.1724 13.523C16.1724 13.5852 16.1686 13.6474 16.1662 13.7126C15.731 13.9091 15.2959 14.1042 14.8607 14.3025L9.97786 16.5242C9.92766 16.5437 9.87639 16.5603 9.82432 16.574C9.96542 16.2806 10.1488 16.0145 10.316 15.7335C12.2534 12.5131 14.1923 9.29327 16.1326 6.07407C16.1454 6.05624 16.1593 6.03921 16.1742 6.0231L16.1848 6.04796Z" fill="#828384"/>
<path d="M16.1952 13.7158C16.5371 13.8688 16.8791 14.0211 17.2204 14.1753L19.774 15.3321C20.3045 15.5733 20.8343 15.8153 21.3635 16.0582C21.7042 16.2142 22.0473 16.3721 22.3855 16.5263C22.4359 16.5452 22.4876 16.5604 22.5403 16.5716C22.6024 16.6494 22.5104 16.6525 22.4824 16.6692C21.9522 16.9863 21.4195 17.2989 20.888 17.6135C19.3625 18.5161 17.8374 19.4185 16.3128 20.3207C16.2742 20.3431 16.2325 20.3595 16.1921 20.3788C16.1921 18.2168 16.1922 16.0549 16.1922 13.8924C16.1928 13.8334 16.1946 13.7749 16.1952 13.7158Z" fill="#131313"/>
<path d="M16.1703 21.6069L20.1642 19.2528C20.9268 18.8028 21.6889 18.3523 22.4506 17.9014L22.5196 17.8635C22.5264 17.9257 22.4835 17.9586 22.4574 17.9947C20.7169 20.4484 18.9763 22.9014 17.2357 25.3535C16.9063 25.8184 16.5774 26.2859 16.2449 26.7472C16.2275 26.7714 16.2007 26.8852 16.1473 26.7646C16.1895 26.7285 16.1709 26.68 16.1709 26.6402C16.1713 24.9618 16.1711 23.2841 16.1703 21.6069Z" fill="#2F3030"/>
<path d="M16.1699 21.6072C16.1699 23.2844 16.1699 24.9611 16.1699 26.6374C16.1699 26.6803 16.1886 26.7288 16.1463 26.7618C16.0574 26.7083 16.0189 26.6126 15.9598 26.5336C13.9416 23.6907 11.9244 20.8474 9.90827 18.0037C9.88278 17.9676 9.85916 17.9291 9.83305 17.8893C9.88527 17.8588 9.91324 17.9005 9.9437 17.9185C11.9847 19.1236 14.0253 20.3298 16.0655 21.537C16.1034 21.5606 16.1357 21.5849 16.1699 21.6072Z" fill="#828384"/>
<path d="M16.1853 6.04793L16.1704 6.02493C16.1977 6.00752 16.194 6.03301 16.1983 6.04606L16.1853 6.04793Z" fill="#393939"/>
</svg>
