<svg width="32" height="33" viewBox="0 0 32 33" fill="none" xmlns="http://www.w3.org/2000/svg">
<rect y="0.5" width="32" height="32" rx="16" fill="#1A79FF"/>
<g clip-path="url(#clip0_869_974)">
<path d="M22.0144 20.0473C22.0144 21.014 21.2333 21.7986 20.2631 21.7986C19.2929 21.7986 18.5118 22.5832 18.5118 23.5499C18.5118 24.5166 17.7307 25.3012 16.7605 25.3012H13.2578C12.2911 25.3012 11.5065 24.5166 11.5065 23.5499C11.5065 22.5832 10.7254 21.7986 9.75522 21.7986C8.78499 21.7986 8.00391 21.014 8.00391 20.0473V9.5394C8.00391 8.57267 8.78849 7.78809 9.75522 7.78809C10.7219 7.78809 11.5065 8.57267 11.5065 9.5394V20.0473C11.5065 21.014 12.2911 21.7986 13.2578 21.7986H16.7605C17.7307 21.7986 18.5118 21.014 18.5118 20.0473C18.5118 19.0806 19.2964 18.296 20.2631 18.296C21.2298 18.296 22.0144 19.0806 22.0144 20.0473Z" fill="white"/>
<path d="M23.0131 12.9414C23.0131 13.9082 22.2285 14.6928 21.2618 14.6928C20.295 14.6928 19.5104 13.9082 19.5104 12.9414C19.5104 11.9747 18.7259 11.1901 17.7591 11.1901C16.7924 11.1901 16.0078 10.4055 16.0078 9.43881C16.0078 8.47209 16.7924 7.6875 17.7591 7.6875C18.7259 7.6875 19.5104 8.47209 19.5104 9.43881C19.5104 10.4055 20.295 11.1901 21.2618 11.1901C22.2285 11.1901 23.0131 11.9747 23.0131 12.9414Z" fill="white"/>
</g>
<defs>
<clipPath id="clip0_869_974">
<rect width="16" height="17.6287" fill="white" transform="translate(8 7.68555)"/>
</clipPath>
</defs>
</svg>
