<svg width="32" height="33" viewBox="0 0 32 33" fill="none" xmlns="http://www.w3.org/2000/svg">
<path d="M16 32.5C24.8366 32.5 32 25.3366 32 16.5C32 7.66345 24.8366 0.5 16 0.5C7.16344 0.5 0 7.66345 0 16.5C0 25.3366 7.16344 32.5 16 32.5Z" fill="url(#paint0_linear_869_1054)"/>
<path d="M20.6171 19.9628L25.1438 17.349C25.3836 17.2105 25.5319 16.9531 25.5319 16.6761V11.449C25.5319 11.1726 25.3829 10.9146 25.1438 10.7761L20.6171 8.16222C20.3773 8.02372 20.0801 8.02438 19.8403 8.16222L15.3136 10.7761C15.0738 10.9146 14.9255 11.1726 14.9255 11.449V20.7905L11.7511 22.6231L8.57674 20.7905V17.1249L11.7511 15.2924L13.845 16.501V14.0419L12.1392 13.0574C12.0216 12.9895 11.887 12.9535 11.7505 12.9535C11.6139 12.9535 11.4794 12.9895 11.3624 13.0574L6.83569 15.6713C6.59593 15.8098 6.44763 16.0672 6.44763 16.3442V21.5712C6.44763 21.8476 6.59658 22.1056 6.83569 22.2441L11.3624 24.858C11.6015 24.9959 11.8994 24.9959 12.1392 24.858L16.6659 22.2448C16.9057 22.1063 17.054 21.8482 17.054 21.5719V12.2303L17.1115 12.1977L20.2284 10.3978L23.4028 12.2303V15.896L20.2284 17.7285L18.1378 16.5212V18.9803L19.8403 19.9635C20.0801 20.1013 20.3773 20.1013 20.6171 19.9635V19.9628Z" fill="white"/>
<defs>
<linearGradient id="paint0_linear_869_1054" x1="-5.84797" y1="3.13007" x2="27.1869" y2="23.3458" gradientUnits="userSpaceOnUse">
<stop stop-color="#A229C5"/>
<stop offset="1" stop-color="#7B3FE4"/>
</linearGradient>
</defs>
</svg>
