<svg width="32" height="33" viewBox="0 0 32 33" fill="none" xmlns="http://www.w3.org/2000/svg">
<rect y="0.5" width="32" height="32" rx="16" fill="#009393"/>
<path fill-rule="evenodd" clip-rule="evenodd" d="M23.7885 11.3478V8.51172H8.16982V11.3478H14.0327V13.3142C9.91501 13.5243 6.82579 14.3874 6.8029 15.4219L6.80273 17.5784C6.82566 18.6129 9.91501 19.4759 14.0327 19.686V24.5117H17.9257V19.686C22.0433 19.4759 25.1326 18.6129 25.1555 17.5784L25.1556 15.4219C25.1327 14.3874 22.0433 13.5243 17.9257 13.3142V11.3478H23.7885ZM24.9452 16.5001C24.0463 17.4747 20.3735 18.2045 15.9792 18.2045C11.5849 18.2045 7.91203 17.4747 7.01316 16.5001C7.77539 15.6737 10.5324 15.0233 14.0327 14.8446V16.9034C14.66 16.9354 15.3113 16.9523 15.9792 16.9523C16.6471 16.9523 17.2983 16.9354 17.9257 16.9034V14.8446C21.4259 15.0233 24.1829 15.6737 24.9452 16.5001Z" fill="white"/>
</svg>
