<svg width="32" height="33" viewBox="0 0 32 33" fill="none" xmlns="http://www.w3.org/2000/svg">
<path d="M31.5244 20.3616C29.3894 28.9278 20.7133 34.1586 12.1313 32.0223C3.56511 29.8808 -1.6573 21.2046 0.477713 12.6384C2.61273 4.07221 11.2836 -1.15861 19.8446 0.977698C28.4318 3.08783 33.6542 11.7902 31.5244 20.3616Z" fill="#262C32"/>
<path d="M23.1618 8.14258H26.0495L20.0334 14.2255C17.8543 16.4314 14.3249 16.4314 12.1457 14.2255L6.1297 8.14258H9.0174L13.5896 12.7683C14.9399 14.1453 17.1725 14.1586 18.5495 12.8084C18.5629 12.795 18.5762 12.7816 18.5896 12.7683L23.1618 8.14258ZM8.99067 25.0544H6.10297L12.1591 18.9314C14.3383 16.7255 17.8677 16.7255 20.0468 18.9314L26.103 25.0544H23.2153L18.6163 20.4019C17.2661 19.0249 15.0334 19.0116 13.6564 20.3618C13.6431 20.3752 13.6297 20.3886 13.6163 20.4019L8.99067 25.0544Z" fill="white"/>
</svg>
