<svg width="100" height="24" viewBox="0 0 100 24" fill="none" xmlns="http://www.w3.org/2000/svg">
<path d="M94.9 10.8824C94.1915 10.8824 93.5381 10.7617 92.94 10.5205C92.3419 10.2699 91.822 9.92659 91.3803 9.49047C90.9478 9.04507 90.6073 8.5208 90.3589 7.91765C90.1196 7.3145 90 6.65567 90 5.94118C90 5.22668 90.1196 4.56785 90.3589 3.96471C90.6073 3.36156 90.9478 2.84192 91.3803 2.4058C91.822 1.9604 92.3419 1.61707 92.94 1.37581C93.5381 1.12527 94.1915 1 94.9 1C95.6085 1 96.2619 1.12527 96.86 1.37581C97.4581 1.61707 97.9734 1.9604 98.4059 2.4058C98.8476 2.84192 99.1881 3.36156 99.4273 3.96471C99.6758 4.56785 99.8 5.22668 99.8 5.94118C99.8 6.65567 99.6758 7.3145 99.4273 7.91765C99.1881 8.5208 98.8476 9.04507 98.4059 9.49047C97.9734 9.92659 97.4581 10.2699 96.86 10.5205C96.2619 10.7617 95.6085 10.8824 94.9 10.8824ZM94.9 10.089C95.6914 10.089 96.3907 9.91268 96.998 9.56007C97.6145 9.19818 98.0976 8.70638 98.4473 8.08467C98.797 7.45369 98.9718 6.73919 98.9718 5.94118C98.9718 5.14316 98.797 4.43331 98.4473 3.8116C98.0976 3.18989 97.6145 2.70273 96.998 2.35012C96.3907 1.98824 95.6914 1.80729 94.9 1.80729C94.1086 1.80729 93.4047 1.98824 92.7882 2.35012C92.1717 2.70273 91.6885 3.18989 91.3389 3.8116C90.9892 4.43331 90.8144 5.14316 90.8144 5.94118C90.8144 6.73919 90.9892 7.45369 91.3389 8.08467C91.6885 8.70638 92.1717 9.19818 92.7882 9.56007C93.4047 9.91268 94.1086 10.089 94.9 10.089ZM92.871 8.79453V3.05998H95.5211C96.1101 3.05998 96.5518 3.22237 96.8462 3.54714C97.1407 3.86263 97.2879 4.2802 97.2879 4.79983C97.2879 5.171 97.2051 5.50041 97.0394 5.78807C96.883 6.06645 96.6438 6.27987 96.3217 6.42833L97.5225 8.79453H96.4045L95.3279 6.60928H93.9062V8.79453H92.871ZM93.9062 5.71848H95.3831C95.6316 5.71848 95.834 5.6396 95.9904 5.48186C96.1561 5.31483 96.2389 5.08749 96.2389 4.79983C96.2389 4.51218 96.1607 4.29876 96.0042 4.15957C95.857 4.0111 95.65 3.93687 95.3831 3.93687H93.9062V5.71848Z" fill="black"/>
<path d="M10.6551 23.9999C8.39493 23.9999 6.4684 23.6075 4.87552 22.8227C3.30416 22.0168 2.09873 20.776 1.25924 19.1005C0.419746 17.4249 0 15.2933 0 12.7058C0 8.88803 0.936358 6.05655 2.80907 4.21131C4.70331 2.34487 7.32942 1.41164 10.6874 1.41164C12.5386 1.41164 14.196 1.71918 15.6598 2.33426C17.145 2.94934 18.3074 3.87196 19.1469 5.10211C20.0079 6.31106 20.4384 7.85936 20.4384 9.74702H16.7576C16.7576 8.58049 16.51 7.60485 16.0149 6.82009C15.5199 6.03534 14.8095 5.44147 13.8839 5.03848C12.9799 4.6355 11.9251 4.43401 10.7197 4.43401C9.2129 4.43401 7.93213 4.73095 6.87739 5.32481C5.84416 5.89747 5.05848 6.76707 4.52035 7.9336C4.00374 9.10013 3.74543 10.5848 3.74543 12.3876V13.0875C3.74543 14.8904 4.00374 16.375 4.52035 17.5415C5.05848 18.7081 5.84416 19.5777 6.87739 20.1503C7.91061 20.7018 9.19137 20.9775 10.7197 20.9775C11.9682 20.9775 13.0552 20.7866 13.9808 20.4048C14.9064 20.0019 15.6167 19.408 16.1118 18.6232C16.6284 17.8385 16.8867 16.8628 16.8867 15.6963H20.4384C20.4384 17.584 20.0079 19.1429 19.1469 20.373C18.3074 21.6032 17.145 22.5152 15.6598 23.1091C14.196 23.7029 12.5278 23.9999 10.6551 23.9999Z" fill="black"/>
<path d="M30.2737 23.9999C28.5086 23.9999 27.0126 23.6923 25.7857 23.0773C24.5802 22.441 23.6654 21.4759 23.0412 20.1821C22.4384 18.8884 22.1371 17.2446 22.1371 15.2509C22.1371 13.236 22.4384 11.5923 23.0412 10.3197C23.6654 9.02589 24.5802 8.07146 25.7857 7.45638C27.0126 6.82009 28.5086 6.50195 30.2737 6.50195C32.0819 6.50195 33.5886 6.82009 34.7941 7.45638C35.9995 8.07146 36.9036 9.02589 37.5063 10.3197C38.1305 11.5923 38.4426 13.236 38.4426 15.2509C38.4426 17.2446 38.1305 18.8884 37.5063 20.1821C36.9036 21.4759 35.9995 22.441 34.7941 23.0773C33.5886 23.6923 32.0819 23.9999 30.2737 23.9999ZM30.2737 21.2638C31.35 21.2638 32.2325 21.0623 32.9213 20.6594C33.6102 20.2352 34.116 19.5989 34.4389 18.7505C34.7833 17.9021 34.9555 16.831 34.9555 15.5372V14.9646C34.9555 13.6708 34.7833 12.5997 34.4389 11.7513C34.116 10.9029 33.6102 10.2773 32.9213 9.87428C32.2325 9.45008 31.35 9.23799 30.2737 9.23799C29.219 9.23799 28.3472 9.45008 27.6584 9.87428C26.9696 10.2773 26.4529 10.9029 26.1085 11.7513C25.7857 12.5997 25.6242 13.6708 25.6242 14.9646V15.5372C25.6242 16.831 25.7857 17.9021 26.1085 18.7505C26.4529 19.5989 26.9696 20.2352 27.6584 20.6594C28.3472 21.0623 29.219 21.2638 30.2737 21.2638Z" fill="black"/>
<path d="M40.8968 23.6181V6.88372H43.6736L43.9642 9.2698H44.1902C44.5992 8.65472 45.0835 8.14569 45.6431 7.74271C46.2028 7.33973 46.8163 7.03219 47.4836 6.82009C48.1724 6.608 48.9258 6.50195 49.7437 6.50195C50.82 6.50195 51.7671 6.69283 52.5851 7.07461C53.4031 7.43517 54.0381 8.02904 54.4901 8.85622C54.9637 9.68339 55.2005 10.7969 55.2005 12.1967V23.6181H51.8425V12.7058C51.8425 12.0695 51.7564 11.5392 51.5842 11.115C51.4335 10.6908 51.2075 10.3515 50.9061 10.097C50.6048 9.84246 50.2496 9.66218 49.8406 9.55613C49.4316 9.45008 48.9796 9.39706 48.4845 9.39706C47.7096 9.39706 46.9992 9.58795 46.3535 9.96972C45.7292 10.3303 45.2234 10.8393 44.8359 11.4968C44.4485 12.1543 44.2548 12.9285 44.2548 13.8193V23.6181H40.8968Z" fill="black"/>
<path d="M65.4759 23.9999C63.7324 23.9999 62.2686 23.6923 61.0847 23.0773C59.9223 22.441 59.0398 21.4759 58.4371 20.1821C57.8344 18.8884 57.533 17.2446 57.533 15.2509C57.533 13.236 57.8344 11.5923 58.4371 10.3197C59.0398 9.02589 59.9331 8.07146 61.117 7.45638C62.3009 6.82009 63.7754 6.50195 65.5405 6.50195C67.1549 6.50195 68.5002 6.80949 69.5765 7.42457C70.6743 8.01844 71.503 8.93045 72.0627 10.1606C72.6224 11.3908 72.9022 12.9391 72.9022 14.8055V16.0781H60.9879C61.0309 17.2658 61.2139 18.2627 61.5368 19.0686C61.8596 19.8534 62.344 20.4367 62.9897 20.8184C63.657 21.179 64.4965 21.3593 65.5082 21.3593C66.1324 21.3593 66.6921 21.285 67.1872 21.1366C67.6823 20.9669 68.102 20.7336 68.4464 20.4367C68.7908 20.1185 69.0599 19.7474 69.2536 19.3232C69.4473 18.8778 69.5442 18.3793 69.5442 17.8279H72.8376C72.8376 18.8247 72.6654 19.7049 72.321 20.4685C71.9766 21.232 71.4707 21.8789 70.8035 22.4092C70.1577 22.9182 69.3828 23.3106 68.4787 23.5863C67.5746 23.862 66.5737 23.9999 65.4759 23.9999ZM61.0524 13.6602H69.3828C69.3828 12.833 69.2859 12.1437 69.0922 11.5923C68.92 11.0196 68.6617 10.553 68.3173 10.1924C67.9729 9.83186 67.5639 9.57734 67.0903 9.42887C66.6168 9.2592 66.0786 9.17436 65.4759 9.17436C64.5718 9.17436 63.7969 9.33343 63.1512 9.65158C62.5269 9.96972 62.0426 10.4681 61.6982 11.1469C61.3538 11.8044 61.1385 12.6421 61.0524 13.6602Z" fill="black"/>
<path d="M75.3468 23.6181V6.88372H78.1236L78.4142 9.58795H78.6079C78.8016 9.05771 79.0492 8.55928 79.3505 8.09267C79.6734 7.62606 80.0824 7.24428 80.5775 6.94735C81.0941 6.65042 81.7183 6.50195 82.4502 6.50195C82.7946 6.50195 83.0959 6.53376 83.3542 6.59739C83.6341 6.66102 83.8493 6.71405 84 6.75646V9.87428H82.8699C82.1811 9.87428 81.5676 9.98032 81.0295 10.1924C80.5129 10.4045 80.0716 10.7227 79.7057 11.1469C79.3613 11.5498 79.103 12.0483 78.9308 12.6421C78.7801 13.236 78.7047 13.9041 78.7047 14.6464V23.6181H75.3468Z" fill="black"/>
</svg>
