<svg width="128" height="128" viewBox="0 0 128 128" fill="none" xmlns="http://www.w3.org/2000/svg">
<rect width="128" height="128" rx="24" fill="white"/>
<path fill-rule="evenodd" clip-rule="evenodd" d="M57.3298 34.0534L52.1044 25L37.2824 33.5578L42.5098 42.6091C43.4257 44.197 42.0539 46.1278 40.252 45.7809L30.2372 43.8481L27 60.6524L37.0128 62.5832C53.2145 65.7074 65.5823 48.3421 57.3318 34.0534H57.3298Z" fill="#111111"/>
<path fill-rule="evenodd" clip-rule="evenodd" d="M70.5209 34.0534L75.7483 25L90.5683 33.5578L85.3428 42.6091C84.425 44.197 85.7988 46.1278 87.5987 45.7809L97.6135 43.8481L100.855 60.6524L90.8399 62.5832C74.6402 65.7074 62.2723 48.3421 70.5209 34.0534Z" fill="#111111"/>
<path fill-rule="evenodd" clip-rule="evenodd" d="M57.3338 93.85L52.1064 102.903L37.2844 94.3476L42.5118 85.2942C43.4297 83.7064 42.0559 81.7756 40.2539 82.1225L30.2411 84.0533L27 67.2509L37.0148 65.3201C53.2145 62.196 65.5804 79.5613 57.3338 93.85Z" fill="#111111"/>
<path fill-rule="evenodd" clip-rule="evenodd" d="M70.524 93.85L75.7475 102.903L90.5695 94.3476L85.342 85.2942C84.4262 83.7064 85.798 81.7756 87.5999 82.1225L97.6127 84.0533L100.854 67.2509L90.8391 65.3201C74.6394 62.196 62.2735 79.5613 70.5201 93.85H70.524Z" fill="#111111"/>
</svg>
