<svg width="205" height="60" viewBox="0 0 205 60" fill="none" xmlns="http://www.w3.org/2000/svg">
<path fill-rule="evenodd" clip-rule="evenodd" d="M23.6604 0L36.7873 0.0259132C39.9041 0.0212964 42.9909 0.631314 45.8677 1.82034C48.7445 3.00937 51.354 4.75369 53.5445 6.95189C55.735 9.15009 57.4629 11.7582 58.6273 14.6245C59.7916 17.4909 60.3693 20.5581 60.3269 23.6479L60.3007 36.6622C60.2883 42.8641 57.7913 48.8071 53.3591 53.1838C48.9269 57.5604 42.9225 60.0123 36.6669 60L23.54 59.974C17.2935 59.9324 11.3163 57.4475 6.90805 53.0597C2.49985 48.6719 0.017137 42.7361 0 36.5432L0.026138 23.5289C0.0299984 17.3067 2.51814 11.3391 6.94676 6.93019C11.3754 2.52131 17.3844 0.0297037 23.6604 0ZM42.7431 26.6238L49.4753 26.6371L49.4594 34.5699L42.6469 34.5564L47.1463 42.2912L40.2133 46.2439L35.7139 38.4933L28.4106 50.8242L21.5258 46.8123L28.7969 34.5291L10.8496 34.4937L10.8655 26.5609L28.7967 26.5963L21.0308 13.2321L27.9478 9.27935L35.7777 22.7552L40.4047 14.9429L47.3056 18.9548L42.7431 26.6238Z" fill="#FCFAF4"/>
<path d="M88.7173 42.6946L88.7672 17.8491L93.307 17.858L93.2647 38.9306L104.302 38.9524L104.295 42.7253L88.7173 42.6946Z" fill="white"/>
<path d="M120.034 34.9194L120.056 24.1222L124.486 24.131L124.448 42.7651L120.153 42.7566L120.16 39.4447L119.964 39.4443C119.538 40.4868 118.839 41.3387 117.867 42C116.903 42.6613 115.715 42.9905 114.304 42.9877C113.072 42.9853 111.983 42.7122 111.038 42.1685C110.101 41.6166 109.368 40.8186 108.84 39.7742C108.312 38.7217 108.05 37.4514 108.053 35.9633L108.076 24.0986L112.506 24.1073L112.484 35.2927C112.481 36.4735 112.806 37.4123 113.457 38.1091C114.108 38.806 114.964 39.1554 116.025 39.1575C116.677 39.1588 117.31 39.0023 117.922 38.6881C118.535 38.3739 119.037 37.9058 119.43 37.2838C119.831 36.6538 120.033 35.8656 120.034 34.9194Z" fill="white"/>
<path d="M133.455 31.8644L133.433 42.7829L129.003 42.7741L129.041 24.14L133.275 24.1483L133.268 27.3147L133.489 27.3151C133.923 26.2727 134.614 25.445 135.562 24.8322C136.517 24.2194 137.697 23.9144 139.1 23.9172C140.397 23.9198 141.526 24.197 142.488 24.7488C143.458 25.3007 144.206 26.0989 144.735 27.1432C145.271 28.1876 145.534 29.4538 145.522 30.942L145.499 42.8067L141.069 42.7979L141.091 31.6126C141.094 30.3671 140.769 29.3919 140.118 28.687C139.475 27.982 138.583 27.6285 137.441 27.6262C136.666 27.6247 135.976 27.7932 135.372 28.1317C134.775 28.4621 134.305 28.9424 133.961 29.5725C133.626 30.2027 133.457 30.9667 133.455 31.8644Z" fill="white"/>
<path d="M158.199 43.1957C156.364 43.1921 154.774 42.7886 153.43 41.9852C152.085 41.1819 151.043 40.0597 150.304 38.6186C149.572 37.1775 149.209 35.4946 149.213 33.5697C149.216 31.6448 149.587 29.9592 150.324 28.513C151.069 27.0668 152.116 25.9446 153.463 25.1466C154.811 24.3486 156.403 23.9514 158.238 23.955C160.074 23.9586 161.664 24.3621 163.008 25.1654C164.352 25.9688 165.39 27.095 166.122 28.5442C166.861 29.9933 167.229 31.6804 167.225 33.6053C167.221 35.5301 166.847 37.2116 166.101 38.6498C165.364 40.088 164.322 41.2061 162.974 42.0041C161.627 42.8021 160.035 43.1993 158.199 43.1957ZM158.231 39.6776C159.226 39.6796 160.059 39.4103 160.729 38.8697C161.399 38.321 161.898 37.586 162.226 36.6647C162.563 35.7434 162.732 34.7165 162.734 33.5843C162.736 32.4439 162.571 31.4124 162.239 30.4897C161.914 29.559 161.418 28.818 160.75 28.2667C160.082 27.7154 159.251 27.4388 158.256 27.4368C157.236 27.4348 156.387 27.7081 155.709 28.2567C155.039 28.8054 154.535 29.5444 154.199 30.4738C153.871 31.3952 153.706 32.4261 153.703 33.5664C153.701 34.6987 153.862 35.7262 154.187 36.6488C154.519 37.5715 155.02 38.3085 155.687 38.8597C156.363 39.403 157.211 39.6756 158.231 39.6776Z" fill="white"/>
<path d="M187.153 24.2547L180.422 42.8756L175.527 42.866L168.871 24.2186L173.595 24.2279L177.886 38.0786L178.082 38.079L182.442 24.2454L187.153 24.2547Z" fill="white"/>
<path d="M195.05 43.2806C193.859 43.2782 192.787 43.0658 191.833 42.6434C190.888 42.2129 190.139 41.5805 189.585 40.7464C189.041 39.9123 188.769 38.8846 188.772 37.6634C188.774 36.612 188.971 35.7429 189.364 35.0562C189.757 34.3695 190.293 33.8206 190.971 33.4095C191.649 32.9984 192.412 32.6885 193.261 32.4799C194.118 32.2632 195.003 32.1072 195.917 32.012C197.019 31.9009 197.912 31.8016 198.598 31.714C199.283 31.6183 199.781 31.4737 200.091 31.2802C200.41 31.0786 200.57 30.7676 200.57 30.347L200.571 30.2742C200.572 29.3603 200.301 28.6521 199.755 28.1496C199.209 27.6471 198.423 27.3948 197.395 27.3927C196.31 27.3906 195.449 27.6235 194.812 28.0913C194.182 28.5591 193.757 29.1123 193.536 29.7508L189.401 29.1603C189.729 28.0287 190.27 27.0835 191.022 26.3247C191.774 25.5579 192.693 24.9854 193.778 24.6075C194.864 24.2214 196.064 24.0297 197.377 24.0322C198.283 24.034 199.184 24.141 200.081 24.353C200.978 24.5651 201.797 24.9145 202.538 25.4012C203.28 25.8798 203.874 26.5321 204.321 27.3579C204.776 28.1837 205.002 29.2154 205 30.4528L204.975 42.9241L200.717 42.9157L200.722 40.3559L200.575 40.3556C200.305 40.8727 199.924 41.3572 199.434 41.8092C198.952 42.253 198.343 42.6117 197.609 42.8853C196.882 43.1507 196.029 43.2825 195.05 43.2806ZM196.207 40.0558C197.096 40.0576 197.867 39.8852 198.521 39.5387C199.174 39.1842 199.677 38.7161 200.029 38.1345C200.389 37.5528 200.57 36.9183 200.571 36.2309L200.575 34.035C200.436 34.148 200.2 34.2527 199.865 34.3491C199.538 34.4455 199.171 34.5297 198.763 34.6016C198.355 34.6736 197.951 34.7375 197.551 34.7934C197.151 34.8492 196.805 34.897 196.511 34.9369C195.85 35.0245 195.258 35.169 194.736 35.3701C194.213 35.5713 193.801 35.8535 193.498 36.2169C193.196 36.5722 193.044 37.0329 193.043 37.599C193.041 38.4078 193.337 39.019 193.932 39.4326C194.527 39.8463 195.285 40.054 196.207 40.0558Z" fill="white"/>
</svg>
