<svg width="117" height="32" viewBox="0 0 117 32" fill="none" xmlns="http://www.w3.org/2000/svg">
<path d="M2.54704 11.4449C2.54704 6.4136 6.61768 2.3349 11.6391 2.3349H20.7311C25.7525 2.3349 29.8231 6.4136 29.8231 11.4449V20.555C29.8231 25.5863 25.7525 29.665 20.7311 29.665H11.6391C6.61768 29.665 2.54704 25.5863 2.54704 20.555V11.4449Z" fill="white"/>
<path fill-rule="evenodd" clip-rule="evenodd" d="M12.7846 0L19.7118 0.0138204C21.3565 0.0113581 22.9855 0.336701 24.5036 0.970849C26.0217 1.605 27.3987 2.5353 28.5547 3.70767C29.7107 4.88005 30.6224 6.27105 31.2369 7.79976C31.8513 9.32847 32.1562 10.9643 32.1338 12.6122L32.12 19.5532C32.1134 22.8609 30.7958 26.0304 28.4568 28.3647C26.1179 30.6989 22.9494 32.0066 19.6482 32L12.7211 31.9862C9.42475 31.9639 6.27051 30.6387 3.94426 28.2985C1.61802 25.9584 0.307871 22.7926 0.298828 19.4897L0.312621 12.5487C0.314659 9.23023 1.62767 6.04751 3.96469 3.6961C6.30171 1.3447 9.47272 0.0158419 12.7846 0ZM22.8547 14.1994L26.4074 14.2065L26.399 18.4373L22.8039 18.4301L25.1783 22.5553L21.5197 24.6634L19.1454 20.5298L15.2913 27.1062L11.6581 24.9666L15.4952 18.4155L6.02426 18.3966L6.03266 14.1658L15.4951 14.1847L11.397 7.05713L15.0471 4.94899L19.179 12.1361L21.6207 7.96956L25.2624 10.1093L22.8547 14.1994Z" fill="#005949"/>
<path d="M47.2651 23.3322L47.2947 8.42491L49.9899 8.43029L49.9648 21.0738L56.5174 21.0869L56.5129 23.3507L47.2651 23.3322Z" fill="white"/>
<path d="M65.8572 18.6671L65.8701 12.1888L68.4999 12.1941L68.4776 23.3745L65.9278 23.3694L65.9317 21.3823L65.8155 21.3821C65.5624 22.0075 65.1473 22.5187 64.5702 22.9154C63.9979 23.3122 63.2929 23.5098 62.455 23.5081C61.7237 23.5066 61.0775 23.3428 60.5164 23.0165C59.9601 22.6854 59.5251 22.2066 59.2116 21.58C58.898 20.9485 58.7422 20.1863 58.7439 19.2934L58.7581 12.1746L61.3878 12.1799L61.3745 18.8911C61.3731 19.5996 61.5657 20.1628 61.9523 20.5809C62.3389 20.999 62.847 21.2087 63.4766 21.21C63.8641 21.2108 64.2396 21.1169 64.6032 20.9283C64.9668 20.7398 65.2652 20.459 65.4984 20.0858C65.7365 19.7077 65.8561 19.2348 65.8572 18.6671Z" fill="white"/>
<path d="M73.8247 16.8341L73.8117 23.3852L71.1819 23.3799L71.2041 12.1995L73.7176 12.2045L73.7139 14.1043L73.8446 14.1045C74.1025 13.4791 74.5128 12.9825 75.0753 12.6148C75.6427 12.2471 76.3428 12.0641 77.1759 12.0658C77.9459 12.0673 78.6163 12.2337 79.1872 12.5648C79.7628 12.8959 80.2074 13.3748 80.521 14.0014C80.8394 14.628 80.9953 15.3878 80.9887 16.2806L80.9745 23.3995L78.3447 23.3942L78.3581 16.683C78.3596 15.9357 78.167 15.3506 77.7804 14.9276C77.3986 14.5047 76.8687 14.2925 76.1907 14.2912C75.7306 14.2903 75.3212 14.3914 74.9624 14.5945C74.6085 14.7927 74.3294 15.0809 74.1253 15.459C73.9259 15.8371 73.8257 16.2955 73.8247 16.8341Z" fill="white"/>
<path d="M88.5147 23.6329C87.425 23.6307 86.4811 23.3886 85.683 22.9066C84.8848 22.4246 84.2662 21.7513 83.8272 20.8866C83.3931 20.022 83.1771 19.0122 83.1794 17.8573C83.1817 16.7024 83.4017 15.691 83.8393 14.8233C84.2817 13.9555 84.903 13.2822 85.703 12.8034C86.5031 12.3246 87.448 12.0863 88.5376 12.0885C89.6273 12.0906 90.5713 12.3327 91.3694 12.8147C92.1675 13.2967 92.7837 13.9725 93.2178 14.842C93.6568 15.7115 93.8752 16.7237 93.8729 17.8786C93.8706 19.0335 93.6482 20.0425 93.2058 20.9053C92.7682 21.7682 92.1494 22.4391 91.3493 22.9179C90.5493 23.3967 89.6044 23.6351 88.5147 23.6329ZM88.5334 21.522C89.1243 21.5232 89.6186 21.3616 90.0164 21.0373C90.4142 20.7081 90.7104 20.2671 90.9053 19.7143C91.1049 19.1615 91.2055 18.5454 91.2068 17.866C91.2082 17.1818 91.1101 16.5629 90.9126 16.0093C90.72 15.4508 90.4255 15.0062 90.029 14.6755C89.6325 14.3447 89.1389 14.1787 88.548 14.1775C87.9426 14.1763 87.4386 14.3403 87.036 14.6695C86.6382 14.9987 86.3395 15.4421 86.1398 15.9998C85.945 16.5526 85.8469 17.1711 85.8455 17.8553C85.8442 18.5347 85.9398 19.1512 86.1325 19.7048C86.3299 20.2584 86.6269 20.7005 87.0234 21.0313C87.4247 21.3572 87.928 21.5208 88.5334 21.522Z" fill="white"/>
<path d="M105.704 12.2683L101.708 23.4408L98.8018 23.435L94.8503 12.2466L97.6544 12.2522L100.202 20.5626L100.319 20.5629L102.907 12.2627L105.704 12.2683Z" fill="white"/>
<path d="M110.392 23.6838C109.685 23.6824 109.048 23.555 108.482 23.3015C107.921 23.0432 107.476 22.6638 107.148 22.1633C106.824 21.6628 106.663 21.0462 106.665 20.3135C106.666 19.6826 106.783 19.1612 107.016 18.7492C107.25 18.3372 107.568 18.0078 107.97 17.7612C108.373 17.5145 108.826 17.3286 109.33 17.2034C109.838 17.0734 110.364 16.9798 110.907 16.9227C111.561 16.856 112.091 16.7964 112.498 16.7439C112.905 16.6864 113.2 16.5997 113.385 16.4836C113.574 16.3626 113.669 16.176 113.669 15.9237L113.669 15.88C113.67 15.3316 113.509 14.9067 113.185 14.6052C112.861 14.3037 112.394 14.1523 111.784 14.1511C111.14 14.1498 110.629 14.2895 110.25 14.5702C109.877 14.8509 109.624 15.1828 109.493 15.5659L107.038 15.2117C107.233 14.5327 107.554 13.9655 108 13.5103C108.447 13.0502 108.992 12.7067 109.637 12.4799C110.281 12.2483 110.994 12.1333 111.773 12.1348C112.311 12.1359 112.846 12.2 113.378 12.3273C113.911 12.4545 114.397 12.6641 114.837 12.9562C115.278 13.2434 115.63 13.6347 115.896 14.1302C116.166 14.6257 116.3 15.2447 116.299 15.9871L116.284 23.4699L113.756 23.4649L113.759 21.929L113.672 21.9288C113.511 22.2391 113.286 22.5298 112.994 22.801C112.708 23.0673 112.347 23.2825 111.911 23.4466C111.479 23.6059 110.973 23.685 110.392 23.6838ZM111.079 21.749C111.607 21.75 112.064 21.6466 112.452 21.4387C112.84 21.226 113.139 20.9451 113.347 20.5961C113.561 20.2472 113.669 19.8665 113.669 19.454L113.672 18.1365C113.59 18.2043 113.449 18.2671 113.25 18.3249C113.056 18.3827 112.838 18.4333 112.596 18.4764C112.354 18.5196 112.114 18.558 111.877 18.5915C111.639 18.625 111.434 18.6537 111.259 18.6776C110.867 18.7302 110.515 18.8168 110.205 18.9375C109.895 19.0582 109.65 19.2276 109.47 19.4456C109.291 19.6588 109.201 19.9352 109.2 20.2749C109.199 20.7601 109.375 21.1269 109.728 21.375C110.081 21.6232 110.531 21.7479 111.079 21.749Z" fill="white"/>
</svg>
