<svg width="104" height="28" viewBox="0 0 104 28" fill="none" xmlns="http://www.w3.org/2000/svg">
<path d="M1.97731 10.0143C1.97731 5.6119 5.55746 2.04303 9.97379 2.04303H17.9703C22.3866 2.04303 25.9667 5.6119 25.9667 10.0143V17.9856C25.9667 22.388 22.3866 25.9569 17.9703 25.9569H9.97379C5.55745 25.9569 1.97731 22.388 1.97731 17.9856V10.0143Z" fill="white"/>
<path fill-rule="evenodd" clip-rule="evenodd" d="M10.9813 0L17.0738 0.0120928C18.5203 0.00993833 19.953 0.294613 21.2882 0.849493C22.6234 1.40437 23.8345 2.21839 24.8512 3.24421C25.8678 4.27004 26.6698 5.48717 27.2102 6.82479C27.7506 8.16241 28.0187 9.59379 27.999 11.0357L27.9869 17.109C27.9811 20.0033 26.8222 22.7766 24.7651 24.8191C22.708 26.8615 19.9212 28.0057 17.0179 28L10.9254 27.9879C8.02629 27.9684 5.25211 26.8088 3.20617 24.7612C1.16023 22.7136 0.00795365 19.9435 0 17.0535L0.0121312 10.9801C0.0139229 8.07645 1.16872 5.29157 3.22414 3.23409C5.27956 1.17661 8.06848 0.0138617 10.9813 0ZM19.838 12.4245L22.9626 12.4307L22.9552 16.1326L19.7933 16.1263L21.8816 19.7359L18.6638 21.5805L16.5756 17.9636L13.186 23.718L9.99057 21.8457L13.3652 16.1136L5.03554 16.0971L5.04293 12.3951L13.3652 12.4116L9.76086 6.17498L12.9712 4.33036L16.6052 10.6191L18.7527 6.97336L21.9556 8.84559L19.838 12.4245Z" fill="#005949"/>
<path d="M41 20.6774L41.027 7L43.4866 7.00493L43.4637 18.6053L49.4436 18.6173L49.4395 20.6943L41 20.6774Z" fill="black"/>
<path d="M57.9671 16.3972L57.9789 10.4534L60.3788 10.4582L60.3585 20.7162L58.0315 20.7116L58.0351 18.8884L57.929 18.8881C57.6981 19.462 57.3193 19.931 56.7926 20.295C56.2703 20.6591 55.6269 20.8403 54.8623 20.8388C54.1949 20.8374 53.6052 20.6871 53.0931 20.3878C52.5854 20.084 52.1885 19.6447 51.9023 19.0697C51.6162 18.4904 51.4739 17.7911 51.4756 16.9718L51.4885 10.4403L53.8884 10.4452L53.8762 16.6027C53.8749 17.2527 54.0507 17.7695 54.4035 18.1531C54.7563 18.5367 55.22 18.7291 55.7946 18.7303C56.1482 18.731 56.4909 18.6448 56.8227 18.4719C57.1545 18.2989 57.4269 18.0412 57.6397 17.6988C57.8569 17.352 57.9661 16.9181 57.9671 16.3972Z" fill="black"/>
<path d="M65.2382 14.7154L65.2263 20.726L62.8264 20.7212L62.8467 10.4631L65.1405 10.4677L65.1371 12.2108L65.2564 12.211C65.4918 11.6372 65.8662 11.1816 66.3795 10.8442C66.8973 10.5069 67.5363 10.339 68.2965 10.3405C68.9992 10.3419 69.6111 10.4945 70.132 10.7983C70.6573 11.1021 71.0631 11.5415 71.3492 12.1164C71.6398 12.6913 71.7821 13.3884 71.776 14.2076L71.7631 20.7391L69.3632 20.7343L69.3754 14.5768C69.3767 13.8911 69.201 13.3543 68.8482 12.9662C68.4998 12.5782 68.0162 12.3835 67.3974 12.3823C66.9776 12.3815 66.6039 12.4742 66.2765 12.6605C65.9535 12.8424 65.6988 13.1068 65.5125 13.4537C65.3306 13.8007 65.2392 14.2212 65.2382 14.7154Z" fill="black"/>
<path d="M78.6443 20.9533C77.6498 20.9513 76.7884 20.7292 76.06 20.2869C75.3316 19.8447 74.7671 19.2269 74.3665 18.4336C73.9703 17.6403 73.7732 16.7138 73.7753 15.6542C73.7774 14.5945 73.9781 13.6666 74.3775 12.8705C74.7813 12.0743 75.3482 11.4566 76.0784 11.0173C76.8085 10.578 77.6708 10.3593 78.6652 10.3613C79.6597 10.3633 80.5211 10.5854 81.2495 11.0276C81.9779 11.4699 82.5401 12.0899 82.9363 12.8876C83.337 13.6854 83.5362 14.6141 83.5341 15.6737C83.532 16.7334 83.3291 17.6591 82.9253 18.4508C82.526 19.2425 81.9613 19.858 81.2311 20.2973C80.501 20.7366 79.6387 20.9553 78.6443 20.9533ZM78.6614 19.0165C79.2006 19.0176 79.6517 18.8694 80.0147 18.5718C80.3777 18.2698 80.6481 17.8652 80.8259 17.358C81.0081 16.8508 81.0999 16.2855 81.1011 15.6622C81.1023 15.0344 81.0128 14.4666 80.8326 13.9586C80.6569 13.4463 80.3881 13.0384 80.0262 12.7349C79.6644 12.4314 79.2139 12.2791 78.6747 12.278C78.1222 12.2769 77.6623 12.4274 77.2948 12.7294C76.9318 13.0314 76.6592 13.4383 76.477 13.9499C76.2992 14.4571 76.2096 15.0246 76.2084 15.6524C76.2072 16.2757 76.2945 16.8413 76.4702 17.3492C76.6505 17.8571 76.9215 18.2628 77.2833 18.5663C77.6495 18.8654 78.1089 19.0154 78.6614 19.0165Z" fill="black"/>
<path d="M94.3307 10.5263L90.6841 20.7771L88.0322 20.7717L84.4261 10.5064L86.9851 10.5115L89.3103 18.1363L89.4164 18.1365L91.7784 10.5212L94.3307 10.5263Z" fill="black"/>
<path d="M98.6094 21C97.9641 20.9987 97.3831 20.8818 96.8665 20.6492C96.3543 20.4122 95.9483 20.0641 95.6487 19.6049C95.3535 19.1458 95.2065 18.58 95.2079 17.9077C95.209 17.3289 95.316 16.8505 95.5289 16.4725C95.7418 16.0945 96.0319 15.7923 96.3992 15.566C96.7665 15.3396 97.1801 15.1691 97.6399 15.0542C98.1043 14.9349 98.584 14.8491 99.0791 14.7967C99.6759 14.7355 100.16 14.6808 100.531 14.6326C100.903 14.5799 101.172 14.5003 101.341 14.3938C101.513 14.2828 101.6 14.1116 101.6 13.8801L101.6 13.84C101.601 13.3369 101.454 12.947 101.158 12.6704C100.863 12.3938 100.437 12.2549 99.8797 12.2538C99.2918 12.2526 98.8253 12.3808 98.4801 12.6383C98.1392 12.8959 97.9088 13.2004 97.7888 13.5519L95.5486 13.2268C95.7266 12.6039 96.0193 12.0835 96.4268 11.6658C96.8342 11.2437 97.3321 10.9286 97.9203 10.7205C98.5086 10.5079 99.1585 10.4024 99.8701 10.4038C100.361 10.4048 100.849 10.4637 101.335 10.5804C101.821 10.6971 102.265 10.8895 102.666 11.1574C103.068 11.4209 103.39 11.78 103.632 12.2346C103.879 12.6892 104.001 13.2571 104 13.9383L103.986 20.8037L101.679 20.7991L101.682 19.39L101.603 19.3898C101.456 19.6745 101.25 19.9412 100.984 20.19C100.723 20.4343 100.393 20.6318 99.9954 20.7824C99.6018 20.9285 99.1397 21.0011 98.6094 21ZM99.2361 19.2248C99.7178 19.2257 100.136 19.1309 100.49 18.9401C100.844 18.7449 101.116 18.4872 101.307 18.1671C101.502 17.8469 101.6 17.4976 101.6 17.1191L101.603 15.9103C101.528 15.9725 101.399 16.0301 101.218 16.0832C101.041 16.1363 100.842 16.1826 100.621 16.2223C100.4 16.2619 100.181 16.2971 99.9644 16.3278C99.7478 16.3585 99.5599 16.3849 99.4008 16.4068C99.0427 16.4551 98.7221 16.5346 98.439 16.6453C98.1559 16.756 97.9324 16.9114 97.7685 17.1114C97.6046 17.307 97.5223 17.5606 97.5217 17.8723C97.5208 18.3175 97.6814 18.654 98.0036 18.8817C98.3258 19.1094 98.7366 19.2238 99.2361 19.2248Z" fill="black"/>
</svg>
