<svg width="47" height="36" viewBox="0 0 47 36" fill="none" xmlns="http://www.w3.org/2000/svg">
<path fill-rule="evenodd" clip-rule="evenodd" d="M13.9627 4.47883L11.6986 0.556152L5.27649 4.2641L7.54146 8.18592C7.93828 8.87391 7.34391 9.71049 6.56315 9.56018L2.2239 8.72274L0.821289 16.0038L5.15968 16.8404C12.1796 18.194 17.5384 10.6699 13.9636 4.47883H13.9627Z" fill="black"/>
<path fill-rule="evenodd" clip-rule="evenodd" d="M19.6783 4.47863L21.9432 0.555956L28.3645 4.2639L26.1004 8.18572C25.7027 8.87371 26.298 9.7103 27.0779 9.55999L31.4171 8.72254L32.8214 16.0036L28.4822 16.8402C21.4631 18.1938 16.1043 10.6697 19.6783 4.47863Z" fill="black"/>
<path fill-rule="evenodd" clip-rule="evenodd" d="M13.9644 31.5212L11.6995 35.4439L5.27735 31.7368L7.54232 27.8141C7.94 27.1261 7.34477 26.2895 6.56401 26.4399L2.22562 27.2764L0.821289 19.9963L5.16054 19.1597C12.1796 17.806 17.5375 25.3301 13.9644 31.5212Z" fill="black"/>
<path fill-rule="evenodd" clip-rule="evenodd" d="M19.6797 31.5212L21.9429 35.4439L28.365 31.7368L26.1001 27.8141C25.7032 27.1261 26.2976 26.2895 27.0784 26.4399L31.4168 27.2764L32.8211 19.9963L28.4818 19.1597C21.4628 17.806 16.1048 25.3301 19.6779 31.5212H19.6797Z" fill="black"/>
<path d="M38.4639 8.79834V3.56396H41.0518C41.3447 3.55745 41.6247 3.6193 41.8916 3.74951C42.165 3.87972 42.3864 4.07178 42.5557 4.32568C42.7249 4.57959 42.8096 4.89209 42.8096 5.26318C42.8096 5.64079 42.7217 5.96305 42.5459 6.22998C42.3701 6.49691 42.1423 6.69873 41.8623 6.83545C41.5889 6.96566 41.2992 7.03076 40.9932 7.03076H39.1768V6.0835H40.6807C40.863 6.09001 41.0322 6.0249 41.1885 5.88818C41.3512 5.75146 41.4326 5.54313 41.4326 5.26318C41.4326 4.98324 41.3512 4.78792 41.1885 4.67725C41.0322 4.56657 40.8662 4.50798 40.6904 4.50146H39.7529V8.79834H38.4639ZM41.7549 6.35693L42.9951 8.79834H41.5693L40.3975 6.35693H41.7549ZM40.4951 11.9233C39.7139 11.9233 38.9782 11.7769 38.2881 11.4839C37.6045 11.1844 37.0023 10.7743 36.4814 10.2534C35.9606 9.73258 35.5537 9.13037 35.2607 8.44678C34.9678 7.75667 34.8213 7.021 34.8213 6.23975C34.8213 5.4585 34.9678 4.72607 35.2607 4.04248C35.5537 3.35238 35.9606 2.74691 36.4814 2.22607C37.0023 1.70524 37.6045 1.29834 38.2881 1.00537C38.9782 0.705892 39.7139 0.556152 40.4951 0.556152C41.2829 0.556152 42.0186 0.705892 42.7021 1.00537C43.3923 1.29834 43.9977 1.70524 44.5186 2.22607C45.0394 2.74691 45.4463 3.35238 45.7393 4.04248C46.0322 4.72607 46.1787 5.4585 46.1787 6.23975C46.1787 7.021 46.0322 7.75667 45.7393 8.44678C45.4463 9.13037 45.0394 9.73258 44.5186 10.2534C43.9977 10.7743 43.3923 11.1844 42.7021 11.4839C42.0186 11.7769 41.2829 11.9233 40.4951 11.9233ZM40.4951 10.4585C41.2764 10.4585 41.986 10.2697 42.624 9.89209C43.2686 9.51449 43.7796 9.00667 44.1572 8.36865C44.5413 7.73063 44.7301 7.021 44.7236 6.23975C44.7301 5.4585 44.5413 4.74886 44.1572 4.11084C43.7796 3.47282 43.2686 2.96501 42.624 2.5874C41.986 2.20329 41.2764 2.01449 40.4951 2.021C39.7204 2.01449 39.0107 2.20329 38.3662 2.5874C37.7282 2.96501 37.2171 3.47282 36.833 4.11084C36.4554 4.74886 36.2666 5.4585 36.2666 6.23975C36.2666 7.01449 36.4554 7.72412 36.833 8.36865C37.2171 9.00667 37.7282 9.51449 38.3662 9.89209C39.0107 10.2697 39.7204 10.4585 40.4951 10.4585Z" fill="#111111"/>
</svg>
