<svg width="987" height="229" viewBox="0 0 987 229" fill="none" xmlns="http://www.w3.org/2000/svg">
<path d="M45.1172 225H1.6543L80.7598 0.917969H130.689L209.645 225H166.332L106.477 46.9375H104.672L45.1172 225ZM46.6211 137.172H164.678V169.656H46.6211V137.172ZM320.795 154.467V56.8633H360.348V225H321.998V195.072H320.194C316.384 204.497 310.168 212.217 301.545 218.232C292.923 224.248 282.295 227.206 269.662 227.105C258.634 227.105 248.909 224.699 240.487 219.887C232.165 214.974 225.598 207.805 220.785 198.381C216.073 188.856 213.717 177.376 213.717 163.941V56.8633H253.27V157.926C253.27 168.453 256.177 176.875 261.992 183.191C267.908 189.508 275.628 192.616 285.153 192.516C290.968 192.516 296.582 191.112 301.996 188.305C307.511 185.497 312.022 181.286 315.532 175.672C319.041 170.057 320.795 162.989 320.795 154.467ZM527.444 56.8633L467.589 225H423.674L363.969 56.8633H406.229L445.18 181.838H446.985L485.635 56.8633H527.444ZM598.591 228.309C582.148 228.309 567.911 224.699 555.88 217.48C543.849 210.262 534.524 200.135 527.907 187.102C521.39 174.068 518.132 158.928 518.132 141.684C518.132 124.339 521.39 109.149 527.907 96.1152C534.524 82.9811 543.849 72.8047 555.88 65.5859C567.911 58.3672 582.148 54.7578 598.591 54.7578C615.033 54.7578 629.27 58.3672 641.302 65.5859C653.333 72.8047 662.657 82.9811 669.274 96.1152C675.892 109.149 679.2 124.339 679.2 141.684C679.2 158.928 675.892 174.068 669.274 187.102C662.657 200.135 653.333 210.262 641.302 217.48C629.27 224.699 615.033 228.309 598.591 228.309ZM598.591 196.426C607.714 196.426 615.234 194.02 621.149 189.207C627.065 184.294 631.476 177.677 634.384 169.355C637.392 161.034 638.895 151.81 638.895 141.684C638.895 131.357 637.392 122.033 634.384 113.711C631.476 105.389 627.065 98.8223 621.149 94.0098C615.234 89.097 607.714 86.6406 598.591 86.6406C589.668 86.6406 582.198 89.097 576.183 94.0098C570.167 98.8223 565.655 105.389 562.647 113.711C559.74 122.033 558.286 131.357 558.286 141.684C558.286 151.81 559.74 161.034 562.647 169.355C565.655 177.677 570.167 184.294 576.183 189.207C582.198 194.02 589.668 196.426 598.591 196.426ZM688.687 225V56.8633H727.036V85.1367H728.841C731.849 75.3112 737.113 67.7917 744.632 62.5781C752.152 57.2643 760.724 54.6074 770.349 54.6074C772.454 54.6074 774.861 54.7077 777.568 54.9082C780.375 55.1087 782.681 55.3594 784.486 55.6602V92.0547C782.781 91.4531 780.124 90.9518 776.515 90.5508C772.906 90.1497 769.447 89.9492 766.138 89.9492C758.819 89.9492 752.302 91.5033 746.587 94.6113C740.872 97.7194 736.361 101.98 733.052 107.395C729.844 112.809 728.24 119.125 728.24 126.344V225H688.687ZM832.172 228.459C821.444 228.459 811.819 226.554 803.297 222.744C794.774 218.834 788.057 213.119 783.144 205.6C778.231 198.08 775.775 188.806 775.775 177.777C775.775 168.353 777.53 160.533 781.039 154.316C784.548 148.1 789.31 143.137 795.326 139.428C801.442 135.718 808.31 132.911 815.929 131.006C823.549 129.001 831.42 127.597 839.541 126.795C849.466 125.692 857.487 124.74 863.603 123.938C869.719 123.135 874.13 121.832 876.838 120.027C879.645 118.223 881.048 115.415 881.048 111.605V110.854C881.048 102.732 878.642 96.416 873.83 91.9043C869.017 87.3926 861.999 85.1367 852.775 85.1367C843.05 85.1367 835.33 87.2422 829.615 91.4531C824 95.6641 820.19 100.627 818.185 106.342L781.339 101.078C784.247 90.8516 789.06 82.3294 795.777 75.5117C802.494 68.5938 810.666 63.4303 820.291 60.0215C830.016 56.5124 840.744 54.7578 852.474 54.7578C860.495 54.7578 868.516 55.7103 876.537 57.6152C884.558 59.4199 891.927 62.528 898.644 66.9395C905.362 71.3509 910.726 77.2663 914.736 84.6855C918.746 92.1048 920.752 101.379 920.752 112.508V225H882.703V201.84H881.5C879.093 206.452 875.685 210.813 871.273 214.924C866.962 218.934 861.548 222.193 855.031 224.699C848.614 227.206 840.994 228.459 832.172 228.459ZM842.248 199.283C850.269 199.283 857.186 197.729 863.002 194.621C868.817 191.413 873.328 187.202 876.537 181.988C879.745 176.674 881.349 170.91 881.349 164.693V144.992C880.046 145.995 877.94 146.947 875.033 147.85C872.125 148.652 868.817 149.404 865.107 150.105C861.397 150.807 857.738 151.409 854.129 151.91C850.619 152.411 847.561 152.812 844.955 153.113C839.039 153.915 833.726 155.269 829.013 157.174C824.401 158.979 820.742 161.485 818.035 164.693C815.328 167.902 813.974 172.062 813.974 177.176C813.974 184.495 816.631 190.009 821.945 193.719C827.259 197.428 834.026 199.283 842.248 199.283Z" fill="#0D0D0D"/>
<path d="M951.673 91.7V67.715H963.535C964.878 67.715 966.157 68.0183 967.37 68.625C968.605 69.21 969.602 70.0875 970.36 71.2575C971.14 72.4275 971.53 73.8683 971.53 75.58C971.53 77.2917 971.129 78.7542 970.328 79.9675C969.526 81.1592 968.486 82.0692 967.208 82.6975C965.951 83.3258 964.629 83.64 963.242 83.64H954.955V79.3175H961.813C962.658 79.3175 963.438 79.0033 964.153 78.375C964.868 77.7467 965.225 76.815 965.225 75.58C965.225 74.28 964.868 73.37 964.153 72.85C963.438 72.33 962.69 72.07 961.91 72.07H957.587V91.7H951.673ZM966.72 80.5525L972.375 91.7H965.875L960.513 80.5525H966.72ZM961 106C957.403 106 954.034 105.328 950.892 103.985C947.751 102.642 944.988 100.778 942.605 98.395C940.222 96.0117 938.358 93.2492 937.015 90.1075C935.672 86.9658 935 83.5967 935 80C935 76.4033 935.672 73.0342 937.015 69.8925C938.358 66.7508 940.222 63.9883 942.605 61.605C944.988 59.2217 947.751 57.3583 950.892 56.015C954.034 54.6717 957.403 54 961 54C964.597 54 967.966 54.6717 971.107 56.015C974.249 57.3583 977.012 59.2217 979.395 61.605C981.778 63.9883 983.642 66.7508 984.985 69.8925C986.328 73.0342 987 76.4033 987 80C987 83.5967 986.328 86.9658 984.985 90.1075C983.642 93.2492 981.778 96.0117 979.395 98.395C977.012 100.778 974.249 102.642 971.107 103.985C967.966 105.328 964.597 106 961 106ZM961 99.3375C964.553 99.3375 967.793 98.4708 970.718 96.7375C973.643 95.0042 975.972 92.675 977.705 89.75C979.46 86.8033 980.338 83.5533 980.338 80C980.338 76.4467 979.46 73.2075 977.705 70.2825C975.972 67.3358 973.643 64.9958 970.718 63.2625C967.793 61.5292 964.553 60.6625 961 60.6625C957.425 60.6625 954.175 61.5292 951.25 63.2625C948.325 64.9958 945.985 67.3358 944.23 70.2825C942.497 73.2075 941.63 76.4467 941.63 80C941.63 83.5533 942.497 86.7925 944.23 89.7175C945.985 92.6425 948.325 94.9825 951.25 96.7375C954.175 98.4708 957.425 99.3375 961 99.3375Z" fill="#0D0D0D"/>
</svg>
