<svg width="155" height="26" viewBox="0 0 155 26" fill="none" xmlns="http://www.w3.org/2000/svg">
<path d="M16 0.0703964H34.1068C33.3504 0.651266 32.7227 1.08692 32.1585 1.60728C30.2933 3.33022 29.1724 5.50243 28.3525 7.85162C28.3041 8.07973 28.1681 8.27973 27.9738 8.40869C27.7795 8.53766 27.5424 8.5853 27.3133 8.54141C26.4904 8.48241 23.2291 8.40829 22.5575 8.52779C22.3723 8.56802 22.179 8.54512 22.0084 8.46275C21.9327 8.4196 21.868 8.35955 21.8193 8.28728C19.9133 5.57807 17.9922 2.87944 16 0.0703964Z" fill="black"/>
<path d="M39.9799 19.4129C39.635 19.4129 39.4112 19.357 39.5745 18.95C40.2114 17.3663 40.8422 15.7855 42.0387 14.5013C44.4302 11.9297 47.4374 11.1734 50.8122 11.4411C51.2479 11.4744 51.2161 11.7104 51.086 12.0129C50.1038 14.294 49.1241 16.5761 48.1469 18.8593C47.9684 19.2753 47.7127 19.4644 47.2242 19.4553C46.0412 19.419 41.2112 19.4023 39.9799 19.4129Z" fill="#25CA2A"/>
<path d="M34.051 25.1408C32.0331 22.2969 30.0863 19.5439 28.1289 16.8059C28.0587 16.7193 28.0151 16.6142 28.0033 16.5034C27.9914 16.3925 28.0119 16.2806 28.0623 16.1812C29.4797 12.8245 30.5628 9.31815 32.2585 6.09312C34.225 2.34772 37.5377 0.326781 41.7112 0.130132C46.3612 -0.0892066 51.0293 0.0439093 55.6899 0.0060923C56.295 0.0060923 56.2027 0.231482 56.0302 0.629317C55.1332 2.68051 54.2559 4.73624 53.371 6.79198C53.3014 6.95232 53.2197 7.11115 53.1592 7.27452C52.6449 8.56938 52.6464 8.57391 51.229 8.56938C49.2398 8.56938 47.2461 8.50282 45.3205 9.14419C43.2617 9.82793 41.5267 10.8656 40.1622 12.3208C39.0701 13.4795 38.5164 14.5793 37.8932 15.9104C36.8404 18.1098 35.4775 21.2124 34.051 25.1408Z" fill="black"/>
<path d="M65.8354 18.5704V6.2224H74.7094V8.2204H68.1754V11.5324H74.0614V13.5304H68.1754V18.5704H65.8354ZM76.6961 7.6444V5.5564H78.8921V7.6444H76.6961ZM76.6961 18.5704V9.1024H78.8921V18.5704H76.6961ZM80.5833 18.5704V17.5444L85.3713 10.9024H80.8893V9.1024H88.5753V10.1104L83.7693 16.7704H88.7733V18.5704H80.5833ZM93.0715 18.7864C92.4835 18.7864 92.0215 18.6724 91.6855 18.4444C91.3495 18.2044 91.1095 17.9044 90.9655 17.5444C90.8335 17.1724 90.7675 16.7944 90.7675 16.4104V10.9024H89.6335V9.1024H90.8215L91.2175 6.4564H92.9635V9.1024H94.6015V10.9024H92.9635V16.1944C92.9635 16.4464 93.0295 16.6444 93.1615 16.7884C93.2935 16.9204 93.4915 16.9864 93.7555 16.9864H94.6015V18.4984C94.4815 18.5464 94.3315 18.5884 94.1515 18.6244C93.9835 18.6724 93.8035 18.7084 93.6115 18.7324C93.4195 18.7684 93.2395 18.7864 93.0715 18.7864ZM96.3197 7.6444V5.5564H98.5157V7.6444H96.3197ZM96.3197 18.5704V9.1024H98.5157V18.5704H96.3197ZM105.157 18.7864C104.125 18.7864 103.261 18.6124 102.565 18.2644C101.869 17.9044 101.347 17.3584 100.999 16.6264C100.651 15.8944 100.477 14.9644 100.477 13.8364C100.477 12.6964 100.651 11.7664 100.999 11.0464C101.347 10.3144 101.869 9.7744 102.565 9.4264C103.261 9.0664 104.125 8.8864 105.157 8.8864C106.201 8.8864 107.065 9.0664 107.749 9.4264C108.445 9.7744 108.967 10.3144 109.315 11.0464C109.663 11.7664 109.837 12.6964 109.837 13.8364C109.837 14.9644 109.663 15.8944 109.315 16.6264C108.967 17.3584 108.445 17.9044 107.749 18.2644C107.065 18.6124 106.201 18.7864 105.157 18.7864ZM105.157 16.9864C105.733 16.9864 106.195 16.8784 106.543 16.6624C106.903 16.4344 107.161 16.0984 107.317 15.6544C107.485 15.1984 107.569 14.6344 107.569 13.9624V13.7104C107.569 13.0384 107.485 12.4804 107.317 12.0364C107.161 11.5804 106.903 11.2444 106.543 11.0284C106.195 10.8004 105.733 10.6864 105.157 10.6864C104.581 10.6864 104.113 10.8004 103.753 11.0284C103.405 11.2444 103.147 11.5804 102.979 12.0364C102.823 12.4804 102.745 13.0384 102.745 13.7104V13.9624C102.745 14.6344 102.823 15.1984 102.979 15.6544C103.147 16.0984 103.405 16.4344 103.753 16.6624C104.113 16.8784 104.581 16.9864 105.157 16.9864ZM111.793 18.5704V9.1024H113.629L113.809 10.3624H113.935C114.151 10.0744 114.403 9.8224 114.691 9.6064C114.991 9.3784 115.327 9.2044 115.699 9.0844C116.083 8.9524 116.503 8.8864 116.959 8.8864C117.559 8.8864 118.087 8.9944 118.543 9.2104C119.011 9.4264 119.377 9.7744 119.641 10.2544C119.905 10.7344 120.037 11.3764 120.037 12.1804V18.5704H117.823V12.5764C117.823 12.2404 117.781 11.9644 117.697 11.7484C117.625 11.5204 117.511 11.3404 117.355 11.2084C117.211 11.0644 117.031 10.9624 116.815 10.9024C116.599 10.8424 116.359 10.8124 116.095 10.8124C115.699 10.8124 115.339 10.9084 115.015 11.1004C114.703 11.2924 114.451 11.5564 114.259 11.8924C114.079 12.2284 113.989 12.6184 113.989 13.0624V18.5704H111.793ZM124.824 18.7864C124.56 18.7864 124.254 18.7504 123.906 18.6784C123.57 18.6184 123.24 18.4984 122.916 18.3184C122.604 18.1384 122.346 17.8744 122.142 17.5264C121.938 17.1664 121.836 16.6984 121.836 16.1224C121.836 15.4744 121.98 14.9404 122.268 14.5204C122.556 14.0884 122.958 13.7524 123.474 13.5124C124.002 13.2604 124.626 13.0864 125.346 12.9904C126.078 12.8824 126.876 12.8284 127.74 12.8284V12.0544C127.74 11.7784 127.698 11.5324 127.614 11.3164C127.53 11.1004 127.374 10.9324 127.146 10.8124C126.93 10.6804 126.6 10.6144 126.156 10.6144C125.712 10.6144 125.364 10.6684 125.112 10.7764C124.86 10.8844 124.686 11.0164 124.59 11.1724C124.494 11.3284 124.446 11.4904 124.446 11.6584V11.9104H122.322C122.31 11.8504 122.304 11.7904 122.304 11.7304C122.304 11.6704 122.304 11.5984 122.304 11.5144C122.304 10.9744 122.466 10.5064 122.79 10.1104C123.114 9.7144 123.564 9.4144 124.14 9.2104C124.716 8.9944 125.382 8.8864 126.138 8.8864C127.002 8.8864 127.71 9.0064 128.262 9.2464C128.826 9.4864 129.246 9.8284 129.522 10.2724C129.798 10.7164 129.936 11.2564 129.936 11.8924V16.3564C129.936 16.5844 130.002 16.7464 130.134 16.8424C130.266 16.9384 130.41 16.9864 130.566 16.9864H131.142V18.4984C131.022 18.5464 130.848 18.6004 130.62 18.6604C130.392 18.7324 130.11 18.7684 129.774 18.7684C129.462 18.7684 129.18 18.7144 128.928 18.6064C128.688 18.5104 128.484 18.3664 128.316 18.1744C128.148 17.9824 128.028 17.7544 127.956 17.4904H127.848C127.644 17.7424 127.398 17.9704 127.11 18.1744C126.834 18.3664 126.504 18.5164 126.12 18.6244C125.748 18.7324 125.316 18.7864 124.824 18.7864ZM125.49 16.9864C125.85 16.9864 126.168 16.9324 126.444 16.8244C126.732 16.7164 126.966 16.5664 127.146 16.3744C127.338 16.1824 127.482 15.9484 127.578 15.6724C127.686 15.3964 127.74 15.0964 127.74 14.7724V14.3404C127.08 14.3404 126.468 14.3824 125.904 14.4664C125.352 14.5504 124.908 14.7064 124.572 14.9344C124.248 15.1624 124.086 15.4864 124.086 15.9064C124.086 16.1224 124.134 16.3144 124.23 16.4824C124.338 16.6384 124.494 16.7644 124.698 16.8604C124.914 16.9444 125.178 16.9864 125.49 16.9864ZM132.486 18.5704V5.5564H134.682V18.5704H132.486Z" fill="black"/>
</svg>
