<svg width="167" height="37" viewBox="0 0 167 37" fill="none" xmlns="http://www.w3.org/2000/svg">
<path d="M0 0.221436H26.2467C25.1504 1.06042 24.2404 1.68965 23.4225 2.44124C20.7189 4.92977 19.0941 8.06721 17.9057 11.4603C17.8354 11.7897 17.6382 12.0786 17.3566 12.2649C17.075 12.4511 16.7313 12.52 16.3993 12.4566C15.2064 12.3713 10.479 12.2643 9.50539 12.4369C9.23698 12.495 8.95679 12.4619 8.70944 12.3429C8.5997 12.2806 8.5059 12.1939 8.43535 12.0895C5.67254 8.17645 2.8878 4.27869 0 0.221436Z" fill="black"/>
<path d="M34.7604 28.1596C34.2605 28.1596 33.936 28.0788 34.1728 27.491C35.0959 25.2035 36.0103 22.9203 37.7447 21.0654C41.2114 17.3512 45.5705 16.2588 50.4624 16.6455C51.0939 16.6935 51.0478 17.0344 50.8593 17.4713C49.4355 20.7661 48.0153 24.0623 46.5988 27.3599C46.3401 27.9608 45.9695 28.2339 45.2613 28.2208C43.5466 28.1683 36.5453 28.1443 34.7604 28.1596Z" fill="#14D80F"/>
<path d="M25.7712 36.4429C22.8462 32.3206 20.0241 28.3298 17.1868 24.361C17.0851 24.2355 17.0218 24.0832 17.0047 23.9225C16.9876 23.7618 17.0173 23.5996 17.0903 23.4555C19.1449 18.5898 20.7149 13.5071 23.1729 8.83229C26.0234 3.40314 30.8254 0.473685 36.8751 0.188633C43.6155 -0.12931 50.3822 0.0636488 57.1379 0.0088311C58.015 0.0088311 57.8812 0.335545 57.6313 0.912227C56.331 3.88554 55.0592 6.86543 53.7765 9.84532C53.6756 10.0777 53.5572 10.308 53.4695 10.5448C52.724 12.4218 52.7262 12.4283 50.6716 12.4218C47.7882 12.4218 44.8982 12.3253 42.1069 13.255C39.1226 14.2461 36.6076 15.7503 34.6298 17.8597C33.0466 19.5393 32.2441 21.1334 31.3407 23.063C29.8146 26.2512 27.839 30.7484 25.7712 36.4429Z" fill="black"/>
<path d="M71.6087 26.2214V9.75743H83.4407V12.4214H74.7287V16.8374H82.5767V19.5014H74.7287V26.2214H71.6087ZM86.4697 11.6534V8.86943H89.3977V11.6534H86.4697ZM86.4697 26.2214V13.5974H89.3977V26.2214H86.4697ZM92.0325 26.2214V24.8534L98.4165 15.9974H92.4405V13.5974H102.689V14.9414L96.2805 23.8214H102.953V26.2214H92.0325ZM109.063 26.5094C108.279 26.5094 107.663 26.3574 107.215 26.0534C106.767 25.7334 106.447 25.3334 106.255 24.8534C106.079 24.3574 105.991 23.8534 105.991 23.3414V15.9974H104.479V13.5974H106.063L106.591 10.0694H108.919V13.5974H111.103V15.9974H108.919V23.0534C108.919 23.3894 109.007 23.6534 109.183 23.8454C109.359 24.0214 109.623 24.1094 109.975 24.1094H111.103V26.1254C110.943 26.1894 110.743 26.2454 110.503 26.2934C110.279 26.3574 110.039 26.4054 109.783 26.4374C109.527 26.4854 109.287 26.5094 109.063 26.5094ZM113.774 11.6534V8.86943H116.702V11.6534H113.774ZM113.774 26.2214V13.5974H116.702V26.2214H113.774ZM125.937 26.5094C124.561 26.5094 123.409 26.2774 122.481 25.8134C121.553 25.3334 120.857 24.6054 120.393 23.6294C119.929 22.6534 119.697 21.4134 119.697 19.9094C119.697 18.3894 119.929 17.1494 120.393 16.1894C120.857 15.2134 121.553 14.4934 122.481 14.0294C123.409 13.5494 124.561 13.3094 125.937 13.3094C127.329 13.3094 128.481 13.5494 129.393 14.0294C130.321 14.4934 131.017 15.2134 131.481 16.1894C131.945 17.1494 132.177 18.3894 132.177 19.9094C132.177 21.4134 131.945 22.6534 131.481 23.6294C131.017 24.6054 130.321 25.3334 129.393 25.8134C128.481 26.2774 127.329 26.5094 125.937 26.5094ZM125.937 24.1094C126.705 24.1094 127.321 23.9654 127.785 23.6774C128.265 23.3734 128.609 22.9254 128.817 22.3334C129.041 21.7254 129.153 20.9734 129.153 20.0774V19.7414C129.153 18.8454 129.041 18.1014 128.817 17.5094C128.609 16.9014 128.265 16.4534 127.785 16.1654C127.321 15.8614 126.705 15.7094 125.937 15.7094C125.169 15.7094 124.545 15.8614 124.065 16.1654C123.601 16.4534 123.257 16.9014 123.033 17.5094C122.825 18.1014 122.721 18.8454 122.721 19.7414V20.0774C122.721 20.9734 122.825 21.7254 123.033 22.3334C123.257 22.9254 123.601 23.3734 124.065 23.6774C124.545 23.9654 125.169 24.1094 125.937 24.1094ZM135.165 26.2214V13.5974H137.613L137.853 15.2774H138.021C138.309 14.8934 138.645 14.5574 139.029 14.2694C139.429 13.9654 139.877 13.7334 140.373 13.5734C140.885 13.3974 141.445 13.3094 142.053 13.3094C142.853 13.3094 143.557 13.4534 144.165 13.7414C144.789 14.0294 145.277 14.4934 145.629 15.1334C145.981 15.7734 146.157 16.6294 146.157 17.7014V26.2214H143.205V18.2294C143.205 17.7814 143.149 17.4134 143.037 17.1254C142.941 16.8214 142.789 16.5814 142.581 16.4054C142.389 16.2134 142.149 16.0774 141.861 15.9974C141.573 15.9174 141.253 15.8774 140.901 15.8774C140.373 15.8774 139.893 16.0054 139.461 16.2614C139.045 16.5174 138.709 16.8694 138.453 17.3174C138.213 17.7654 138.093 18.2854 138.093 18.8774V26.2214H135.165ZM152.921 26.5094C152.569 26.5094 152.161 26.4614 151.697 26.3654C151.249 26.2854 150.809 26.1254 150.377 25.8854C149.961 25.6454 149.617 25.2934 149.345 24.8294C149.073 24.3494 148.937 23.7254 148.937 22.9574C148.937 22.0934 149.129 21.3814 149.513 20.8214C149.897 20.2454 150.433 19.7974 151.121 19.4774C151.825 19.1414 152.657 18.9094 153.617 18.7814C154.593 18.6374 155.657 18.5654 156.809 18.5654V17.5334C156.809 17.1654 156.753 16.8374 156.641 16.5494C156.529 16.2614 156.321 16.0374 156.017 15.8774C155.729 15.7014 155.289 15.6134 154.697 15.6134C154.105 15.6134 153.641 15.6854 153.305 15.8294C152.969 15.9734 152.737 16.1494 152.609 16.3574C152.481 16.5654 152.417 16.7814 152.417 17.0054V17.3414H149.585C149.569 17.2614 149.561 17.1814 149.561 17.1014C149.561 17.0214 149.561 16.9254 149.561 16.8134C149.561 16.0934 149.777 15.4694 150.209 14.9414C150.641 14.4134 151.241 14.0134 152.009 13.7414C152.777 13.4534 153.665 13.3094 154.673 13.3094C155.825 13.3094 156.769 13.4694 157.505 13.7894C158.257 14.1094 158.817 14.5654 159.185 15.1574C159.553 15.7494 159.737 16.4694 159.737 17.3174V23.2694C159.737 23.5734 159.825 23.7894 160.001 23.9174C160.177 24.0454 160.369 24.1094 160.577 24.1094H161.345V26.1254C161.185 26.1894 160.953 26.2614 160.649 26.3414C160.345 26.4374 159.969 26.4854 159.521 26.4854C159.105 26.4854 158.729 26.4134 158.393 26.2694C158.073 26.1414 157.801 25.9494 157.577 25.6934C157.353 25.4374 157.193 25.1334 157.097 24.7814H156.953C156.681 25.1174 156.353 25.4214 155.969 25.6934C155.601 25.9494 155.161 26.1494 154.649 26.2934C154.153 26.4374 153.577 26.5094 152.921 26.5094ZM153.809 24.1094C154.289 24.1094 154.713 24.0374 155.081 23.8934C155.465 23.7494 155.777 23.5494 156.017 23.2934C156.273 23.0374 156.465 22.7254 156.593 22.3574C156.737 21.9894 156.809 21.5894 156.809 21.1574V20.5814C155.929 20.5814 155.113 20.6374 154.361 20.7494C153.625 20.8614 153.033 21.0694 152.585 21.3734C152.153 21.6774 151.937 22.1094 151.937 22.6694C151.937 22.9574 152.001 23.2134 152.129 23.4374C152.273 23.6454 152.481 23.8134 152.753 23.9414C153.041 24.0534 153.393 24.1094 153.809 24.1094ZM163.517 26.2214V8.86943H166.445V26.2214H163.517Z" fill="black"/>
</svg>
