<svg width="136" height="40" viewBox="0 0 136 40" fill="none" xmlns="http://www.w3.org/2000/svg">
<path d="M44.8398 13.7925C44.8398 13.0826 44.7419 12.5607 44.5464 12.2266C44.3508 11.8786 43.9597 11.7047 43.373 11.7047H42.954V11.2871H44.8398C45.3566 11.2871 45.7407 11.3567 45.9922 11.4959C46.2576 11.6212 46.4462 11.8578 46.558 12.2057C46.6697 12.5537 46.7256 13.0826 46.7256 13.7925V24.2315H54.164V25.0666H44.8398V13.7925Z" fill="white"/>
<path d="M58.9403 25.2751C57.9904 25.2751 57.1662 25.0524 56.4678 24.607C55.7693 24.1477 55.2385 23.5284 54.8753 22.7489C54.5122 21.9695 54.3305 21.1065 54.3305 20.16C54.3305 19.2136 54.5122 18.3506 54.8753 17.5711C55.2385 16.7917 55.7693 16.1793 56.4678 15.7339C57.1662 15.2746 57.9904 15.0449 58.9403 15.0449C59.8902 15.0449 60.7143 15.2746 61.4128 15.7339C62.1113 16.1793 62.6421 16.7917 63.0053 17.5711C63.3685 18.3506 63.5501 19.2136 63.5501 20.16C63.5501 21.1065 63.3685 21.9695 63.0053 22.7489C62.6421 23.5284 62.1113 24.1477 61.4128 24.607C60.7143 25.0524 59.8902 25.2751 58.9403 25.2751ZM58.9403 24.44C59.4572 24.44 59.9111 24.2521 60.3022 23.8764C60.7074 23.5005 61.0147 22.9855 61.2242 22.3314C61.4477 21.6772 61.5595 20.9534 61.5595 20.16C61.5595 19.3666 61.4477 18.6429 61.2242 17.9888C61.0147 17.3346 60.7074 16.8195 60.3022 16.4438C59.9111 16.0679 59.4572 15.88 58.9403 15.88C58.4235 15.88 57.9625 16.0679 57.5573 16.4438C57.1662 16.8195 56.8589 17.3346 56.6354 17.9888C56.4259 18.6429 56.3211 19.3666 56.3211 20.16C56.3211 20.9534 56.4259 21.6772 56.6354 22.3314C56.8589 22.9855 57.1662 23.5005 57.5573 23.8764C57.9625 24.2521 58.4235 24.44 58.9403 24.44Z" fill="white"/>
<path d="M69.0247 29.242C67.6138 29.242 66.4893 28.9845 65.6511 28.4695C64.8269 27.9545 64.4148 27.1333 64.4148 26.0059C64.4148 25.3657 64.6314 24.8088 65.0644 24.3356C65.4974 23.8624 66.0492 23.5145 66.7198 23.2918C66.161 22.9855 65.8816 22.5679 65.8816 22.039C65.8816 21.7607 65.9445 21.5449 66.0702 21.3919C66.1959 21.2387 66.3775 21.0717 66.615 20.8908C66.168 20.6681 65.7908 20.3201 65.4835 19.8469C65.1901 19.3737 65.0435 18.8169 65.0435 18.1766C65.0435 16.0888 66.3705 15.0449 69.0247 15.0449H72.901V15.5669L71.539 15.7756V15.88C71.9721 16.1027 72.3214 16.4159 72.5867 16.8195C72.8661 17.2092 73.0058 17.6617 73.0058 18.1766C73.0058 20.2644 71.6787 21.3084 69.0247 21.3084C67.5579 21.3084 66.8245 21.5519 66.8245 22.039C66.8245 22.5262 67.5579 22.7698 69.0247 22.7698C70.3797 22.7698 71.4832 23.0412 72.3353 23.584C73.2013 24.1129 73.6344 24.9202 73.6344 26.0059C73.6344 27.1333 73.2153 27.9545 72.3772 28.4695C71.553 28.9845 70.4355 29.242 69.0247 29.242ZM69.0247 20.5776C69.6532 20.5776 70.1561 20.3897 70.5333 20.0139C70.9244 19.6242 71.12 19.0118 71.12 18.1766C71.12 17.3833 70.9244 16.7848 70.5333 16.3811C70.1561 15.9775 69.6532 15.7756 69.0247 15.7756C68.396 15.7756 67.8862 15.9706 67.4951 16.3603C67.1179 16.736 66.9293 17.3415 66.9293 18.1766C66.9293 19.0118 67.1179 19.6242 67.4951 20.0139C67.8862 20.3897 68.396 20.5776 69.0247 20.5776ZM69.0247 28.4069C69.8628 28.4069 70.5263 28.205 71.0152 27.8014C71.5041 27.4117 71.7486 26.8132 71.7486 26.0059C71.7486 24.614 70.9105 23.8137 69.2342 23.6049L68.0818 23.5005C67.509 23.7232 67.069 24.0364 66.7617 24.44C66.4544 24.8437 66.3006 25.3657 66.3006 26.0059C66.3006 26.8132 66.5451 27.4117 67.0341 27.8014C67.523 28.205 68.1865 28.4069 69.0247 28.4069Z" fill="white"/>
<path d="M79.1072 25.2751C78.1573 25.2751 77.3331 25.0524 76.6347 24.607C75.9363 24.1477 75.4054 23.5284 75.0422 22.7489C74.679 21.9695 74.4974 21.1065 74.4974 20.16C74.4974 19.2136 74.679 18.3506 75.0422 17.5711C75.4054 16.7917 75.9363 16.1793 76.6347 15.7339C77.3331 15.2746 78.1573 15.0449 79.1072 15.0449C80.0571 15.0449 80.8813 15.2746 81.5797 15.7339C82.2784 16.1793 82.8093 16.7917 83.1722 17.5711C83.5351 18.3506 83.717 19.2136 83.717 20.16C83.717 21.1065 83.5351 21.9695 83.1722 22.7489C82.8093 23.5284 82.2784 24.1477 81.5797 24.607C80.8813 25.0524 80.0571 25.2751 79.1072 25.2751ZM79.1072 24.44C79.6241 24.44 80.078 24.2521 80.4692 23.8764C80.8743 23.5005 81.1816 22.9855 81.3911 22.3314C81.6147 21.6772 81.7264 20.9534 81.7264 20.16C81.7264 19.3666 81.6147 18.6429 81.3911 17.9888C81.1816 17.3346 80.8743 16.8195 80.4692 16.4438C80.078 16.0679 79.6241 15.88 79.1072 15.88C78.5903 15.88 78.1294 16.0679 77.7242 16.4438C77.3331 16.8195 77.0258 17.3346 76.8023 17.9888C76.5927 18.6429 76.488 19.3666 76.488 20.16C76.488 20.9534 76.5927 21.6772 76.8023 22.3314C77.0258 22.9855 77.3331 23.5005 77.7242 23.8764C78.1294 24.2521 78.5903 24.44 79.1072 24.44Z" fill="white"/>
<path d="M86.6566 14.0013C86.3346 14.0013 86.0552 13.869 85.8176 13.6046C85.5948 13.3401 85.4826 13.027 85.4826 12.6651C85.4826 12.3728 85.5669 12.1431 85.7341 11.9761C85.916 11.8091 86.1535 11.7256 86.4468 11.7256C86.768 11.7256 87.04 11.8578 87.2637 12.1222C87.5013 12.3867 87.62 12.6999 87.62 13.0617C87.62 13.3541 87.5291 13.5837 87.3472 13.7507C87.1801 13.9177 86.9499 14.0013 86.6566 14.0013ZM85.8602 17.7593C85.8602 17.0495 85.7619 16.5275 85.5669 16.1935C85.3711 15.8455 84.9795 15.6715 84.3929 15.6715H83.9743V15.254H85.8602C86.3764 15.254 86.7606 15.3235 87.0121 15.4627C87.2776 15.588 87.466 15.8246 87.5783 16.1726C87.6897 16.5205 87.7454 17.0495 87.7454 17.7593V25.0666H85.8602V17.7593Z" fill="white"/>
<path d="M90.3876 17.759C90.3876 17.0492 90.2901 16.5273 90.0943 16.1932C89.8993 15.8452 89.5077 15.6713 88.9211 15.6713H88.5024V15.2537H90.3876C90.9185 15.2537 91.3166 15.3302 91.5821 15.4834C91.8614 15.6226 92.0573 15.8592 92.1687 16.1932H92.2735C92.5251 15.8731 92.8814 15.6017 93.3427 15.379C93.8031 15.1563 94.3897 15.0449 95.1025 15.0449C96.3036 15.0449 97.2326 15.5321 97.8889 16.5064C98.5459 17.4668 98.8736 18.6847 98.8736 20.16C98.8736 21.6493 98.532 22.8741 97.8471 23.8346C97.1769 24.795 96.1921 25.2751 94.8928 25.2751C94.3619 25.2751 93.8941 25.2195 93.4893 25.1081C93.0838 24.9968 92.6791 24.8437 92.2735 24.6488V29.0332H90.3876V17.759ZM94.2644 24.44C95.1582 24.44 95.8145 24.0503 96.2339 23.2709C96.6665 22.4915 96.8836 21.4545 96.8836 20.16C96.8836 18.8795 96.6813 17.8496 96.2757 17.0701C95.871 16.2768 95.2696 15.88 94.4741 15.88C93.5377 15.88 92.8044 16.2976 92.2735 17.1328V23.8137C92.693 24.0085 93.056 24.1617 93.3632 24.273C93.6704 24.3844 93.9711 24.44 94.2644 24.44Z" fill="white"/>
<path d="M104.01 25.2751C102.403 25.2751 101.32 24.9968 100.761 24.44C100.524 24.2035 100.378 23.939 100.321 23.6466C100.266 23.3404 100.238 22.8741 100.238 22.2479H100.657C100.783 22.9438 101.083 23.4866 101.558 23.8764C102.047 24.2521 102.724 24.44 103.59 24.44C104.359 24.44 104.931 24.3078 105.308 24.0434C105.7 23.7789 105.895 23.4239 105.895 22.9786C105.895 22.575 105.742 22.227 105.434 21.9346C105.141 21.6424 104.666 21.364 104.01 21.0995L102.752 20.5776C101.914 20.2435 101.286 19.8538 100.866 19.4084C100.447 18.963 100.238 18.4132 100.238 17.759C100.238 16.9101 100.559 16.2489 101.202 15.7756C101.844 15.2885 102.675 15.0449 103.695 15.0449C105.232 15.0449 106.279 15.3233 106.838 15.88C107.075 16.1167 107.222 16.3811 107.278 16.6734C107.334 16.9657 107.362 17.4319 107.362 18.0723H106.943C106.831 17.3763 106.538 16.8404 106.063 16.4646C105.588 16.0749 104.939 15.88 104.115 15.88C103.457 15.88 102.941 16.0192 102.564 16.2976C102.201 16.5621 102.019 16.9101 102.019 17.3415C102.019 18.0652 102.578 18.6568 103.695 19.1161L104.953 19.6381C105.902 20.0278 106.594 20.4454 107.027 20.8908C107.46 21.3222 107.676 21.879 107.676 22.561C107.676 23.4101 107.334 24.0781 106.649 24.5653C105.965 25.0386 105.085 25.2751 104.01 25.2751Z" fill="white"/>
<path d="M113.026 25.2753C111.978 25.2753 111.119 24.9969 110.448 24.4402C109.791 23.8835 109.464 22.9092 109.464 21.5173V17.7592C109.464 17.0494 109.365 16.5275 109.17 16.1934C108.975 15.8454 108.584 15.6715 107.996 15.6715H107.787V15.2539H109.464C109.981 15.2539 110.364 15.3235 110.616 15.4626C110.881 15.5879 111.069 15.8245 111.182 16.1725C111.293 16.5204 111.349 17.0494 111.349 17.7592V21.5173C111.349 22.4916 111.566 23.2084 111.998 23.6677C112.446 24.1131 112.997 24.3358 113.654 24.3358C114.394 24.3358 115.093 23.967 115.749 23.2293V15.2539H117.635V25.0666H116.587L115.854 24.2315H115.749C115.456 24.5237 115.072 24.7742 114.597 24.983C114.136 25.1779 113.612 25.2753 113.026 25.2753Z" fill="white"/>
<path d="M120.341 17.759C120.341 17.0492 120.244 16.5273 120.048 16.1932C119.853 15.8452 119.461 15.6713 118.875 15.6713H118.456V15.2537H120.341C120.858 15.2537 121.25 15.3233 121.515 15.4625C121.795 15.6017 121.997 15.8105 122.122 16.0888H122.227C122.52 15.7965 122.898 15.5529 123.359 15.3581C123.834 15.1493 124.365 15.0449 124.951 15.0449C125.538 15.0449 126.041 15.1563 126.46 15.379C126.879 15.5878 127.214 15.9635 127.466 16.5064C127.829 16.047 128.29 15.6921 128.849 15.4416C129.421 15.1772 130.008 15.0449 130.608 15.0449C131.503 15.0449 132.215 15.3233 132.746 15.88C133.277 16.4368 133.542 17.4111 133.542 18.803V25.0664H131.656V18.803C131.656 17.8008 131.517 17.084 131.238 16.6525C130.958 16.2071 130.539 15.9844 129.98 15.9844C129.589 15.9844 129.177 16.1306 128.744 16.4229C128.311 16.7012 127.989 17.0075 127.78 17.3415C127.85 17.5503 127.885 18.0374 127.885 18.803V25.0664H125.999V18.803C125.999 17.8008 125.859 17.084 125.58 16.6525C125.3 16.2071 124.882 15.9844 124.323 15.9844C123.582 15.9844 122.884 16.3532 122.227 17.091V25.0664H120.341V17.759Z" fill="white"/>
<path fill-rule="evenodd" clip-rule="evenodd" d="M22.485 2.87571C23.9324 3.55511 25.0554 4.87709 25.4137 6.55676L26.5911 12.0762C26.9939 13.9638 27.0285 15.8908 26.7138 17.7578C26.7922 17.77 26.8712 17.7802 26.9505 17.7885C27.3231 16.1792 27.4307 14.505 27.2542 12.8313L26.6622 7.21947C26.4424 5.13538 24.9989 3.47458 23.1179 2.87129C23.0253 2.86634 22.932 2.86383 22.8381 2.86383C22.7194 2.86383 22.6016 2.86783 22.485 2.87571ZM22.176 2.90587C23.6989 3.52707 24.8969 4.86353 25.2649 6.58828L26.4423 12.1077C26.8409 13.9763 26.8754 15.8837 26.5638 17.7318C26.4987 17.7195 26.4339 17.7058 26.3694 17.6908C26.5867 15.5988 26.3683 13.4646 25.7034 11.4258L23.9534 6.05923C23.5173 4.72176 22.5962 3.67628 21.4473 3.05325C21.6837 2.98727 21.9271 2.93771 22.176 2.90587ZM22.1964 2.75054C22.3074 2.73721 22.4194 2.72729 22.5322 2.72089C22.3201 2.67958 22.1038 2.65139 21.8844 2.63712C21.9897 2.67172 22.0938 2.70956 22.1964 2.75054ZM21.2838 2.63304C21.4882 2.67576 21.689 2.73075 21.8853 2.79734C21.6695 2.83638 21.4583 2.88845 21.2524 2.95268C21.0585 2.85768 20.859 2.7744 20.6546 2.70341C20.77 2.6834 20.8868 2.66714 21.005 2.65476C21.0982 2.64499 21.1912 2.63778 21.2838 2.63304ZM21.2958 2.48067C21.9384 2.45019 22.5624 2.53623 23.1459 2.72099C25.9295 2.87983 28.1377 5.17934 28.1377 7.99275V13.6355C28.1377 15.0614 27.9367 16.4666 27.5504 17.8136H32.1568C35.0837 17.8136 37.4564 20.1778 37.4564 23.0941C37.4564 23.8463 37.2986 24.5617 37.0141 25.2093C36.9104 25.8417 36.6962 26.4318 36.3935 26.9619C36.224 27.5802 35.9491 28.145 35.5923 28.6408C35.3591 29.2375 35.0269 29.7699 34.6207 30.2255C34.3259 30.7955 33.939 31.2912 33.4866 31.7025C33.1334 32.2387 32.6966 32.6912 32.2034 33.0531C31.7961 33.5492 31.3144 33.9537 30.7861 34.262C30.3292 34.7129 29.8078 35.0649 29.2502 35.3166C28.7487 35.7172 28.1934 36.013 27.6127 36.2052C27.0715 36.5517 26.488 36.7881 25.89 36.9189C25.3155 37.2071 24.7105 37.3814 24.1021 37.4491C23.5005 37.6759 22.8804 37.7862 22.2682 37.7902C21.6461 37.953 21.0179 37.9982 20.4087 37.9384C19.773 38.0356 19.1435 38.015 18.5438 37.8921C17.9014 37.9225 17.2776 37.8365 16.6942 37.6517C13.9103 37.4931 11.7021 35.1935 11.7021 32.38V27.6752C11.7021 25.9148 12.0083 24.1859 12.5915 22.5592H7.68137C4.75448 22.5592 2.38177 20.195 2.38177 17.2787C2.38177 16.527 2.5394 15.8121 2.8235 15.1647C2.92713 14.5321 3.1413 13.9418 3.44398 13.4114C3.6134 12.7932 3.88826 12.2286 4.2448 11.7328C4.47838 11.1349 4.81143 10.6015 5.21862 10.1452C5.51337 9.5759 5.90001 9.0808 6.35212 8.66994C6.70487 8.13441 7.14123 7.6822 7.63388 7.32059C8.04099 6.82446 8.52261 6.41996 9.05072 6.11151C9.50779 5.66036 10.0293 5.30817 10.5871 5.0564C11.0891 4.65529 11.6449 4.35934 12.2262 4.16708C12.7673 3.82067 13.3509 3.58436 13.9488 3.45373C14.5233 3.1655 15.1285 2.99121 15.737 2.92354C16.3386 2.69676 16.9587 2.58647 17.5709 2.58254C18.193 2.41962 18.8213 2.37451 19.4306 2.43437C20.0665 2.33714 20.6961 2.35769 21.2958 2.48067ZM20.0323 2.52867C20.2521 2.52 20.4702 2.5255 20.6855 2.54449C20.5739 2.56262 20.4636 2.58416 20.3547 2.60898C20.2482 2.57891 20.1407 2.55211 20.0323 2.52867ZM18.8306 2.56138C18.6145 2.56491 18.3969 2.58214 18.1793 2.61365C18.2895 2.62568 18.3993 2.64113 18.5083 2.65996C18.614 2.62394 18.7215 2.59103 18.8306 2.56138ZM18.8166 2.72263C18.9291 2.69073 19.0435 2.66241 19.1597 2.6378C19.2515 2.61837 19.3431 2.60152 19.4346 2.58717C19.6425 2.60836 19.8481 2.64214 20.0502 2.68794C19.8397 2.74923 19.6351 2.82299 19.4372 2.9083C19.2345 2.834 19.0272 2.77196 18.8166 2.72263ZM18.2138 2.77019C18.0079 2.74569 17.7999 2.7335 17.5909 2.73408C17.5013 2.75789 17.4118 2.78422 17.3225 2.81311C17.2097 2.84965 17.099 2.88972 16.9904 2.93313C17.2051 2.96026 17.4178 3.00039 17.6272 3.05319C17.8151 2.94774 18.0109 2.85307 18.2138 2.77019ZM17.8389 3.11118C18.0563 2.99769 18.284 2.89883 18.5207 2.81613C18.7641 2.86006 19.0038 2.92134 19.2378 2.99921C19.0033 3.11205 18.7789 3.2414 18.5661 3.38561C18.3304 3.27644 18.0873 3.18477 17.8389 3.11118ZM17.4384 3.16436C17.1975 3.11126 16.9527 3.07527 16.706 3.05694C16.4791 3.16386 16.2631 3.28591 16.0586 3.42144C16.3135 3.46876 16.565 3.53463 16.8109 3.61867C17.0075 3.45307 17.217 3.30103 17.4384 3.16436ZM16.9768 3.67846C17.1867 3.50768 17.4113 3.35259 17.649 3.21542C17.9131 3.2853 18.1716 3.37602 18.4219 3.48684C18.1867 3.65793 17.9667 3.84763 17.7637 4.05352C17.511 3.90636 17.2477 3.78119 16.9768 3.67846ZM16.8434 3.79083C16.6182 3.98715 16.4113 4.2021 16.2247 4.43272C16.5151 4.57387 16.7948 4.74282 17.0597 4.93935C17.2342 4.66396 17.4338 4.40516 17.6557 4.16639C17.3951 4.01712 17.1232 3.89175 16.8434 3.79083ZM16.6781 3.73436C16.4621 3.92901 16.2632 4.14057 16.0831 4.36644C15.8162 4.24638 15.5411 4.14929 15.2609 4.07532C15.4517 3.88364 15.6588 3.70605 15.8808 3.54488C16.1508 3.58689 16.4176 3.65019 16.6781 3.73436ZM15.8421 3.38581C16.0179 3.26134 16.2027 3.1468 16.3959 3.04323C16.1886 3.0403 15.9805 3.04985 15.7728 3.07217C15.6861 3.1052 15.5999 3.14071 15.5142 3.17875C15.4058 3.22686 15.2998 3.27825 15.1964 3.33275C15.4126 3.33736 15.6284 3.35512 15.8421 3.38581ZM14.9265 3.48549C15.1737 3.47803 15.4209 3.48832 15.666 3.51604C15.4602 3.67499 15.2677 3.84799 15.0896 4.03313C14.8364 3.97517 14.5794 3.93587 14.321 3.91534C14.5101 3.75929 14.7122 3.61543 14.9265 3.48549ZM14.8818 3.33531C14.9776 3.27817 15.0758 3.22372 15.1765 3.17211C14.9657 3.22034 14.7567 3.28225 14.5503 3.35817C14.6606 3.34708 14.7712 3.33947 14.8818 3.33531ZM14 3.59781C14.2042 3.55397 14.4102 3.52282 14.6166 3.50415C14.4354 3.62724 14.2638 3.76038 14.102 3.90245C13.8862 3.89418 13.6698 3.89898 13.4542 3.9169C13.5513 3.85196 13.6512 3.78984 13.754 3.73072C13.8353 3.68396 13.9173 3.63967 14 3.59781ZM13.4174 3.75928C13.2131 3.82916 13.0116 3.91248 12.8144 4.00943C12.9229 3.98692 13.0321 3.96785 13.1416 3.9522C13.2309 3.88542 13.3228 3.82106 13.4174 3.75928ZM12.8956 4.14771C12.7283 4.28903 12.5715 4.43936 12.4254 4.59754C12.2098 4.61181 11.9952 4.63912 11.7826 4.67943C11.8723 4.60472 11.9652 4.53254 12.0612 4.46303C12.1373 4.40801 12.2143 4.35534 12.2922 4.30505C12.4907 4.24019 12.6922 4.18778 12.8956 4.14771ZM13.2018 4.0969C13.0023 4.24848 12.8164 4.41263 12.6446 4.58755C12.9038 4.58105 13.1635 4.59337 13.4215 4.62463C13.5792 4.42194 13.7525 4.22983 13.9405 4.0503C13.6939 4.04825 13.447 4.06374 13.2018 4.0969ZM14.1571 4.05663C13.9532 4.24004 13.7659 4.43823 13.5962 4.64875C13.8826 4.69312 14.1663 4.761 14.4442 4.85258C14.5997 4.60919 14.7753 4.37808 14.9697 4.16201C14.7018 4.10547 14.43 4.07028 14.1571 4.05663ZM15.14 4.20096C14.9366 4.41965 14.7535 4.65497 14.5921 4.90373C14.8957 5.01388 15.1917 5.15279 15.4758 5.32068C15.6205 5.02865 15.7918 4.75049 15.9875 4.48994C15.7126 4.36859 15.429 4.2722 15.14 4.20096ZM16.1288 4.55493C15.9278 4.81913 15.7527 5.1023 15.6062 5.40023C15.856 5.5578 16.096 5.73842 16.3232 5.94223L16.5069 6.10702C16.6271 5.74306 16.7863 5.39533 16.98 5.06926C16.7106 4.86828 16.4253 4.69676 16.1288 4.55493ZM17.1013 5.16266C16.9064 5.49371 16.7479 5.84756 16.6308 6.21821L17.6139 7.10017C17.6803 6.71127 17.7895 6.33686 17.9363 5.9819L17.7242 5.74716C17.5298 5.53208 17.3213 5.3372 17.1013 5.16266ZM18.0496 6.10728C17.9092 6.46094 17.8072 6.83386 17.7485 7.22097L20.5317 9.71794C22.7671 11.7234 24.3402 14.3252 25.088 17.1823C25.1018 17.1903 25.1157 17.1983 25.1296 17.2062C24.618 14.5225 23.3784 12.0042 21.5136 9.94055L18.0496 6.10728ZM25.3017 17.299C24.7994 14.5429 23.5383 11.9546 21.6266 9.83908L18.1141 5.95217C18.2695 5.59571 18.4642 5.26027 18.6929 4.95132C18.8934 5.14787 19.0804 5.36347 19.2512 5.59771L22.5799 10.1628C24.1315 12.2906 25.0824 14.7655 25.3717 17.3341C25.3482 17.3226 25.3248 17.3109 25.3017 17.299ZM25.165 17.3988C25.1565 17.3943 25.148 17.3897 25.1396 17.3851C25.1568 17.455 25.1736 17.525 25.1899 17.5952C25.1932 17.5978 25.1965 17.6005 25.1997 17.6031C25.1886 17.5349 25.177 17.4668 25.165 17.3988ZM25.3749 17.7374C25.362 17.653 25.3485 17.5687 25.3343 17.4846C25.3529 17.4937 25.3718 17.5026 25.3905 17.5114C25.3991 17.596 25.4068 17.6807 25.414 17.7655C25.4009 17.7562 25.3878 17.7468 25.3749 17.7374ZM24.8997 17.0671C24.1438 14.2988 22.6029 11.7801 20.43 9.83059L17.7242 7.4032C17.702 7.59665 17.6906 7.79337 17.6906 7.99275V8.45206L19.4304 9.71149C21.9805 11.5576 23.8762 14.1308 24.8893 17.0604C24.8928 17.0626 24.8963 17.0649 24.8997 17.0671ZM24.5871 16.6736C23.5514 13.9543 21.7383 11.5697 19.3409 9.83418L17.6906 8.63941V9.44945L18.3344 9.81982C21.101 11.4113 23.2774 13.8157 24.5871 16.6736ZM17.5385 9.36194V8.52929L16.3953 7.70174C16.3935 7.89649 16.4028 8.09337 16.4237 8.29174L16.4719 8.74839L17.5385 9.36194ZM16.4916 8.93476L17.5385 9.53704V10.1707C17.4447 10.1268 17.3503 10.0837 17.2554 10.0416L16.5765 9.74047L16.4916 8.93476ZM16.309 8.65467L16.2724 8.30757C16.247 8.06694 16.2383 7.82841 16.2453 7.59311L15.1527 6.80216C15.0891 7.17712 15.0672 7.56298 15.0905 7.95371L16.309 8.65467ZM15.1048 8.13698L16.3287 8.84104L16.416 9.66929L15.2907 9.1701L15.195 8.72104C15.1533 8.52586 15.1234 8.33092 15.1048 8.13698ZM14.9336 7.86346C14.9175 7.46934 14.9462 7.08056 15.0157 6.70298L14.7594 6.51743C14.5242 6.34721 14.2795 6.1997 14.0277 6.07449C13.9061 6.43864 13.8249 6.81752 13.7877 7.20424L14.9336 7.86346ZM13.7744 7.37163L14.9442 8.04457C14.9619 8.27941 14.9956 8.51582 15.0461 8.75255L15.1189 9.09386L13.8333 8.52349C13.7691 8.13729 13.7505 7.7512 13.7744 7.37163ZM13.6433 7.12116C13.685 6.74032 13.7681 6.36729 13.8895 6.0083C13.5841 5.86756 13.2693 5.75891 12.9497 5.68165C12.8082 5.98165 12.696 6.29485 12.6147 6.61658C12.8923 6.71898 13.165 6.84601 13.4299 6.99843L13.6433 7.12116ZM12.5796 6.76531C12.8431 6.86364 13.1021 6.98488 13.3539 7.12972L13.6278 7.28728C13.5981 7.67008 13.6105 8.05977 13.6678 8.4501L12.4593 7.91397C12.4557 7.52547 12.4968 7.14017 12.5796 6.76531ZM12.4707 6.56578C12.5513 6.25023 12.6609 5.9427 12.7978 5.64737C12.5037 5.58565 12.2062 5.55016 11.9088 5.54035C11.7555 5.79636 11.6254 6.06445 11.5194 6.3412C11.8394 6.38599 12.1578 6.46049 12.4707 6.56578ZM11.4661 6.48696C11.7921 6.53049 12.1166 6.60574 12.4351 6.71388C12.3521 7.08358 12.3085 7.46326 12.3069 7.84638L12.0819 7.74654C11.8024 7.62255 11.5179 7.52462 11.2311 7.45168C11.2782 7.12325 11.3569 6.80006 11.4661 6.48696ZM11.3641 6.3218C11.4655 6.05154 11.589 5.78912 11.7341 5.53754C11.4601 5.53774 11.1868 5.55967 10.9169 5.60289C10.7558 5.82452 10.614 6.05715 10.4919 6.29818C10.7814 6.28221 11.0731 6.28981 11.3641 6.3218ZM10.4159 6.45491C10.7128 6.43366 11.0125 6.43795 11.3115 6.46869C11.2063 6.77667 11.1295 7.09393 11.0825 7.41617C10.7602 7.34403 10.4357 7.30309 10.1127 7.29188C10.1891 7.00564 10.2904 6.72547 10.4159 6.45491ZM10.3159 6.31082C10.4279 6.07992 10.5573 5.85614 10.7038 5.6416C10.4619 5.69074 10.2235 5.75712 9.99051 5.84044C9.82698 6.03001 9.67951 6.22902 9.5481 6.43564C9.80027 6.37553 10.057 6.33374 10.3159 6.31082ZM9.43602 6.62052C9.69991 6.5494 9.96945 6.49909 10.2419 6.47032C10.124 6.73562 10.0287 7.00946 9.95626 7.28876C9.66345 7.28727 9.37253 7.3101 9.08635 7.35615C9.18237 7.10378 9.29896 6.85769 9.43602 6.62052ZM9.33574 6.49089C9.44552 6.30596 9.56751 6.12649 9.70163 5.95365C9.51098 6.03502 9.32476 6.12812 9.14411 6.23276C9.07857 6.29791 9.01442 6.36516 8.95175 6.4345C8.87228 6.52249 8.79641 6.61247 8.72407 6.70426C8.92356 6.62076 9.12789 6.54953 9.33574 6.49089ZM8.53981 6.95325C8.76274 6.84615 8.99279 6.75531 9.22801 6.68126C9.10487 6.90983 8.99976 7.1458 8.91267 7.38705C8.65763 7.43681 8.40685 7.50508 8.16242 7.59108C8.27142 7.37198 8.39718 7.15876 8.53981 6.95325ZM8.43765 6.83419C8.50188 6.74321 8.56931 6.65373 8.64001 6.5659C8.46747 6.69526 8.30181 6.83648 8.14445 6.98935C8.2407 6.93452 8.33844 6.88278 8.43765 6.83419ZM7.73948 7.43146C7.90811 7.30863 8.08347 7.1967 8.26437 7.09596C8.1492 7.28175 8.04676 7.47287 7.95699 7.66814C7.75655 7.74806 7.56096 7.84012 7.37141 7.94386C7.43362 7.84513 7.4996 7.74783 7.56939 7.65211C7.62444 7.57662 7.68116 7.50307 7.73948 7.43146ZM7.27314 7.81528C7.11524 7.96174 6.9655 8.11925 6.82515 8.28749C6.915 8.223 7.00674 8.16144 7.1002 8.10287C7.15446 8.0058 7.21209 7.90989 7.27314 7.81528ZM6.95531 8.38121C6.78605 8.50014 6.6235 8.62961 6.46875 8.76921C6.41812 8.84667 6.36927 8.92602 6.32231 9.007C6.26308 9.10929 6.20777 9.21272 6.15635 9.31712C6.33392 9.19427 6.51872 9.08243 6.70961 8.98218C6.7784 8.77867 6.86024 8.57794 6.95531 8.38121ZM6.64394 9.19067C6.4295 9.31174 6.22359 9.44806 6.02806 9.59876C5.93124 9.82953 5.85259 10.0643 5.79166 10.3014C6.01268 10.1668 6.24363 10.0481 6.48264 9.94667C6.51752 9.69255 6.57117 9.43982 6.64394 9.19067ZM6.64608 9.88047C6.6874 9.61361 6.75014 9.34872 6.83472 9.08823C7.07783 8.96414 7.33077 8.85925 7.59109 8.77467C7.53116 9.05867 7.49501 9.34627 7.48245 9.63451C7.19593 9.69369 6.91627 9.77623 6.64608 9.88047ZM6.46166 10.1211C6.21165 10.2323 5.97109 10.363 5.74234 10.5117C5.68554 10.7795 5.65093 11.0495 5.63783 11.3192C5.89561 11.1874 6.16507 11.0762 6.44381 10.9876C6.42605 10.6996 6.43185 10.4098 6.46166 10.1211ZM6.59358 10.9423C6.57743 10.6466 6.58685 10.349 6.62238 10.053C6.89801 9.94137 7.1842 9.8532 7.47796 9.79043C7.47339 10.1157 7.49883 10.441 7.55404 10.762C7.2253 10.7926 6.90407 10.8536 6.59358 10.9423ZM6.4557 11.1431C6.17013 11.2361 5.89476 11.3536 5.63236 11.4932C5.62806 11.7913 5.64992 12.0883 5.697 12.3808C5.99648 12.2602 6.30955 12.1661 6.63327 12.1015C6.5447 11.788 6.48528 11.4671 6.4557 11.1431ZM6.7835 12.0736C6.6924 11.7546 6.63243 11.4274 6.60438 11.0971C6.91987 11.0048 7.24695 10.942 7.58202 10.9117C7.65699 11.2831 7.77213 11.6476 7.92711 11.9982H7.68137C7.37533 11.9982 7.07535 12.0241 6.7835 12.0736ZM6.6768 12.2474C6.34676 12.3125 6.02806 12.409 5.72397 12.5336C5.99537 13.9462 6.85823 15.2377 8.20645 16.0133L13.1108 18.8347C13.4594 19.0352 13.7783 19.2766 14.0619 19.5517C14.1184 19.4627 14.1757 19.3742 14.234 19.2863C13.9486 18.8943 13.6009 18.5455 13.2004 18.2556L8.61871 14.9388C7.66116 14.2456 7.00497 13.2926 6.6768 12.2474ZM14.3241 19.1523C14.0357 18.7658 13.688 18.4212 13.2897 18.133L8.70818 14.8162C7.78356 14.1468 7.14826 13.2282 6.82766 12.22C7.10533 12.1738 7.39053 12.1498 7.68137 12.1498H7.99703C8.28772 12.7546 8.69974 13.314 9.23096 13.7906L13.4395 17.5663C13.8724 17.9548 14.224 18.4163 14.4817 18.9246C14.4285 19.0001 14.3759 19.0759 14.3241 19.1523ZM14.3278 19.42C14.2751 19.5001 14.2231 19.5808 14.172 19.6619C14.1971 19.6879 14.2218 19.7141 14.2463 19.7406C14.2899 19.6593 14.3342 19.5783 14.3792 19.4978C14.3624 19.4717 14.3452 19.4458 14.3278 19.42ZM14.4634 19.3492C14.4487 19.3272 14.4338 19.3054 14.4186 19.2837C14.4643 19.2158 14.5106 19.1483 14.5574 19.0812C14.5667 19.1013 14.5758 19.1215 14.5848 19.1417C14.5437 19.2106 14.5032 19.2797 14.4634 19.3492ZM14.471 19.6456C14.4315 19.7173 14.3926 19.7892 14.3542 19.8615C14.3714 19.8815 14.3886 19.9015 14.4055 19.9219C14.4379 19.8486 14.4709 19.7756 14.5045 19.7028C14.4934 19.6837 14.4823 19.6646 14.471 19.6456ZM14.5826 19.5361C14.5739 19.5218 14.5651 19.5074 14.5563 19.4932C14.5898 19.4341 14.6237 19.3752 14.6581 19.3165C14.6627 19.3282 14.6673 19.34 14.6718 19.3517C14.6416 19.413 14.6119 19.4744 14.5826 19.5361ZM14.5957 19.869C14.5676 19.9309 14.5401 19.993 14.513 20.0553C14.5232 20.0686 14.5333 20.0818 14.5434 20.095C14.5661 20.0306 14.5893 19.9663 14.6129 19.9023C14.6072 19.8912 14.6015 19.8801 14.5957 19.869ZM14.6842 19.7124C14.6813 19.7069 14.6782 19.7015 14.6752 19.696C14.6977 19.6477 14.7206 19.5995 14.7437 19.5514L14.7452 19.556C14.7246 19.608 14.7043 19.6601 14.6842 19.7124ZM14.7054 20.0934C14.6874 20.1437 14.6697 20.1939 14.6524 20.2444C14.656 20.2495 14.6596 20.2548 14.6632 20.2599C14.6777 20.2059 14.6924 20.1519 14.7074 20.0979C14.7068 20.0964 14.7061 20.0949 14.7054 20.0934ZM14.6121 20.4561C14.6053 20.4456 14.5984 20.4352 14.5914 20.4247C14.57 20.4894 14.549 20.5541 14.5286 20.619C14.5402 20.6311 14.5518 20.6432 14.5632 20.6554C14.579 20.589 14.5954 20.5225 14.6121 20.4561ZM14.6873 20.7926C14.6992 20.7406 14.7116 20.6886 14.7242 20.6366C14.7242 20.6366 14.7258 20.6394 14.7267 20.6409C14.7173 20.6962 14.7083 20.7516 14.6996 20.8069C14.6955 20.8022 14.6914 20.7974 14.6873 20.7926ZM14.5216 20.8346C14.5069 20.8182 14.4919 20.8019 14.477 20.7857C14.4532 20.8641 14.4301 20.9427 14.4076 21.0214C14.4287 21.0374 14.4497 21.0535 14.4704 21.0699C14.4869 20.9914 14.5039 20.913 14.5216 20.8346ZM14.6034 21.1783C14.617 21.1115 14.6311 21.0449 14.6456 20.9783C14.6535 20.988 14.6615 20.9977 14.6695 21.0074C14.6597 21.0752 14.6505 21.143 14.6416 21.2108C14.6289 21.1999 14.6162 21.189 14.6034 21.1783ZM14.4365 21.237C14.4124 21.2174 14.3881 21.1981 14.3636 21.179C14.3382 21.2716 14.3138 21.3643 14.2903 21.4572C14.3222 21.4741 14.3539 21.4914 14.3854 21.509C14.4015 21.4183 14.4185 21.3277 14.4365 21.237ZM14.5254 21.5908C14.5395 21.5102 14.5542 21.4298 14.5696 21.3495C14.5862 21.364 14.6026 21.3787 14.619 21.3935C14.6097 21.473 14.601 21.5527 14.5929 21.6324C14.5705 21.6183 14.548 21.6045 14.5254 21.5908ZM14.3578 21.668C14.3231 21.6479 14.288 21.6283 14.2527 21.6092C14.2265 21.7173 14.2016 21.8257 14.1778 21.9343C14.2217 21.949 14.2654 21.9643 14.3088 21.9803C14.3241 21.8761 14.3404 21.772 14.3578 21.668ZM14.4544 22.0364C14.4681 21.9415 14.4826 21.8468 14.4981 21.7521C14.5245 21.7686 14.5506 21.7852 14.5767 21.8022C14.5684 21.8941 14.5609 21.9861 14.5543 22.0781C14.5212 22.0638 14.4879 22.0499 14.4544 22.0364ZM14.2872 22.134C14.2404 22.1165 14.1933 22.0997 14.146 22.0836C14.1197 22.2097 14.0952 22.3361 14.0722 22.4627C14.1293 22.4714 14.1863 22.4811 14.243 22.4918C14.2562 22.3725 14.271 22.2531 14.2872 22.134ZM14.3926 22.5226C14.4049 22.4121 14.4183 22.3018 14.433 22.1915C14.4701 22.2068 14.5069 22.2227 14.5436 22.239C14.5373 22.3442 14.5319 22.4495 14.5277 22.5547C14.4828 22.5433 14.4378 22.5326 14.3926 22.5226ZM14.2268 22.6431C14.1668 22.6316 14.1065 22.6212 14.0459 22.6121C13.6395 24.9909 13.8089 27.4548 14.5711 29.7921L16.0302 34.2667C16.4708 35.6177 17.4208 36.662 18.5995 37.257C18.8606 37.1721 19.1126 37.067 19.3535 36.9435C18.5179 36.4064 17.8243 35.629 17.3896 34.6562L15.469 30.3582C14.3782 27.917 13.9619 25.2561 14.2268 22.6431ZM19.5074 36.8612C18.6639 36.3383 17.9631 35.567 17.5286 34.5946L15.608 30.2966C14.5304 27.8847 14.1175 25.2562 14.3766 22.6744C14.4253 22.6855 14.4739 22.6972 14.5223 22.7098C14.4388 25.509 15.1323 28.3013 16.5605 30.7659L18.9213 34.8405C19.2723 35.446 19.7253 35.9562 20.2465 36.3618C20.0158 36.5486 19.7687 36.7159 19.5074 36.8612ZM19.5033 37.0363C19.2765 37.1575 19.0398 37.2628 18.7949 37.3506C19.0194 37.4523 19.2512 37.5382 19.4887 37.6072C19.7329 37.5497 19.9695 37.4751 20.1978 37.3849C19.9584 37.2859 19.7262 37.1694 19.5033 37.0363ZM20.3975 37.301C20.1423 37.2041 19.8946 37.0869 19.6573 36.9507C19.9092 36.8051 20.1478 36.6394 20.3712 36.4559C20.6071 36.6285 20.8559 36.7804 21.1145 36.9107C20.8879 37.0586 20.6483 37.1894 20.3975 37.301ZM20.4022 37.4646C20.2043 37.5499 19.9997 37.6236 19.7892 37.6849C19.9913 37.7307 20.1969 37.7644 20.4047 37.7856C20.4963 37.7712 20.5881 37.7543 20.6799 37.7349C20.796 37.7103 20.9102 37.682 21.0226 37.6502C20.8121 37.6009 20.6049 37.5388 20.4022 37.4646ZM21.3187 37.5567C21.0752 37.5128 20.8356 37.4516 20.6017 37.3737C20.8361 37.2609 21.0604 37.1316 21.2733 36.9874C21.509 37.0966 21.7521 37.1881 22.0005 37.2617C21.783 37.3752 21.5554 37.474 21.3187 37.5567ZM21.331 37.7128C21.2254 37.7488 21.1181 37.7817 21.009 37.8113C21.225 37.8077 21.4423 37.7905 21.6597 37.7591C21.5495 37.7471 21.4399 37.7317 21.331 37.7128ZM22.2481 37.6387C22.0393 37.6392 21.8314 37.6271 21.6257 37.6026C21.8286 37.5197 22.0243 37.4251 22.2122 37.3197C22.4215 37.3724 22.634 37.4125 22.8486 37.4396C22.74 37.483 22.6292 37.5231 22.5164 37.5596C22.4271 37.5885 22.3378 37.6148 22.2481 37.6387ZM22.8518 37.6013C23.0663 37.5753 23.2806 37.5355 23.4937 37.4815C23.3828 37.481 23.2721 37.4771 23.1618 37.4698C23.0605 37.5166 22.9571 37.5605 22.8518 37.6013ZM23.4432 37.3295C23.6505 37.3324 23.8586 37.3228 24.0663 37.3005C24.1529 37.2675 24.239 37.232 24.3247 37.1939C24.4331 37.1459 24.539 37.0945 24.6424 37.0401C24.4261 37.0354 24.2105 37.0177 23.9967 36.9871C23.8209 37.1114 23.6362 37.2259 23.4432 37.3295ZM24.1729 36.8568C24.4179 36.8845 24.6651 36.8948 24.9123 36.8872C25.1267 36.7573 25.3287 36.6135 25.5177 36.4575C25.2594 36.437 25.0024 36.3977 24.7491 36.3398C24.571 36.525 24.3787 36.6979 24.1729 36.8568ZM24.5778 36.2977C24.387 36.4893 24.18 36.6668 23.958 36.828C23.6881 36.786 23.4216 36.7228 23.161 36.6388C23.377 36.4441 23.5759 36.2327 23.7561 36.0069C24.0228 36.1268 24.2977 36.2238 24.5778 36.2977ZM24.869 36.2109C25.137 36.2674 25.4088 36.3025 25.6817 36.3161C25.8855 36.1328 26.0728 35.9347 26.2424 35.7242C25.9561 35.6799 25.6724 35.6121 25.3945 35.5206C25.239 35.7639 25.0634 35.9949 24.869 36.2109ZM25.2467 35.4695C25.0853 35.7182 24.9021 35.9534 24.6987 36.1721C24.4099 36.1009 24.1264 36.0046 23.8517 35.8834C24.0473 35.623 24.2186 35.345 24.3633 35.053C24.6473 35.2207 24.9431 35.3595 25.2467 35.4695ZM25.4766 35.3878C25.7627 35.4797 26.0547 35.5459 26.3495 35.5867C26.5288 35.3481 26.6863 35.095 26.8208 34.8308C26.5073 34.753 26.1984 34.6458 25.8983 34.5086C25.7851 34.8139 25.6439 35.1084 25.4766 35.3878ZM25.7604 34.4431C25.6458 34.7545 25.5014 35.0544 25.3293 35.3379C25.0196 35.2279 24.7179 35.0872 24.429 34.9156C24.5875 34.5712 24.7094 34.2089 24.7908 33.8345L24.9892 33.9781C25.2368 34.1574 25.4949 34.3122 25.7604 34.4431ZM25.9492 34.365C26.2546 34.5056 26.5695 34.6142 26.8891 34.6914C27.0305 34.3914 27.1427 34.0782 27.224 33.7565C26.9463 33.654 26.6735 33.527 26.4084 33.3745L26.1956 33.2521C26.1539 33.633 26.0707 34.0059 25.9492 34.365ZM26.0512 33.169C26.014 33.5557 25.9327 33.9347 25.811 34.2988C25.559 34.1735 25.314 34.0259 25.0786 33.8555L24.8238 33.6709C24.8934 33.2933 24.9222 32.9045 24.9061 32.5103L26.0512 33.169ZM26.2112 33.0859L26.4845 33.2432C26.7364 33.3881 26.9955 33.5094 27.2592 33.6077C27.3421 33.233 27.3831 32.8477 27.3795 32.4592L26.1712 31.9232C26.2286 32.3135 26.2408 32.7032 26.2112 33.0859ZM26.0057 31.8498C26.07 32.236 26.0885 32.6221 26.0646 33.0016L24.8955 32.3291C24.8778 32.0939 24.8441 31.8573 24.7935 31.6202L24.7209 31.2798L26.0057 31.8498ZM26.1418 31.7442L27.3752 32.2914C27.3592 31.9114 27.3003 31.5294 27.1959 31.152L25.858 30.7188L25.966 31.0499C26.0411 31.2804 26.0995 31.5122 26.1418 31.7442ZM25.6792 30.661L25.8212 31.0968C25.8833 31.2868 25.9335 31.4778 25.9724 31.669L24.6818 31.0965L24.508 30.2818C24.5144 30.2839 24.5209 30.2859 24.5274 30.2881L25.6792 30.661ZM25.7999 30.5406L27.1437 30.9757C27.085 30.7896 27.015 30.6049 26.9334 30.4224L26.7464 30.0036L25.5619 29.7527C25.5551 29.7513 25.5483 29.7499 25.5415 29.7484L25.7999 30.5406ZM25.3692 29.7107L25.621 30.4828L24.5744 30.1439C24.54 30.1327 24.5056 30.1215 24.4714 30.1101L24.3279 29.4372C24.6706 29.5402 25.0179 29.6315 25.3692 29.7107ZM25.4871 29.5815C25.5225 29.5893 25.558 29.597 25.5936 29.6045L26.6698 29.8324L26.3384 29.0908C25.9806 29.0486 25.6255 28.994 25.2738 28.9272L25.4871 29.5815ZM25.1029 28.8939L25.3144 29.5426C24.9694 29.4627 24.6283 29.371 24.2917 29.2678L24.165 28.6739C24.4746 28.7568 24.7874 28.8303 25.1029 28.8939ZM25.2201 28.7625C25.5657 28.8301 25.9146 28.8859 26.2663 28.9294L25.9879 28.3062C25.6673 28.2757 25.3484 28.2353 25.0317 28.185L25.2201 28.7625ZM24.8627 28.1572L25.0488 28.7281C24.7395 28.6638 24.4329 28.5901 24.1294 28.5071L24.0189 27.9889C24.2981 28.0528 24.5795 28.109 24.8627 28.1572ZM24.9789 28.0229C25.2894 28.0739 25.6022 28.1152 25.9167 28.1469L25.0129 26.1243C24.6104 25.2236 24.4989 24.2281 24.6819 23.2728C24.6745 23.2819 24.667 23.2909 24.6595 23.3001C24.2122 24.3339 24.1556 25.4983 24.5069 26.5754L24.9789 28.0229ZM24.8989 23.0028C24.6341 24.0168 24.72 25.0961 25.1519 26.0627L26.0906 28.1634C26.4414 28.1946 26.7943 28.2137 27.1486 28.2204L25.6078 25.5613C25.139 24.7522 24.9211 23.8313 24.9691 22.9125C24.9458 22.9427 24.9224 22.9727 24.8989 23.0028ZM25.139 22.6883C25.0397 23.6543 25.2461 24.6339 25.7396 25.4855L27.3256 28.2227C27.362 28.2229 27.3985 28.2231 27.435 28.2231H28.5346L26.1403 24.9394C25.6251 24.2329 25.3177 23.4063 25.24 22.5508C25.2066 22.5969 25.1729 22.6427 25.139 22.6883ZM25.3787 22.3567C25.4246 23.2489 25.7283 24.1165 26.2634 24.8503L28.7227 28.2231H30.1355C30.022 28.0642 29.8982 27.9101 29.7641 27.7617L26.6045 24.2654C26.0637 23.6668 25.6878 22.9481 25.5016 22.179C25.4612 22.2385 25.4201 22.2978 25.3787 22.3567ZM25.6184 22.0053C25.7855 22.8021 26.1615 23.5486 26.7176 24.1639L29.8772 27.6603C30.0398 27.8403 30.1877 28.0284 30.321 28.2231H31.6713C31.3909 27.6607 31.0015 27.1406 30.5048 26.6948L26.9958 23.5468C26.4503 23.0573 26.0297 22.4552 25.758 21.7903C25.712 21.8623 25.6655 21.9339 25.6184 22.0053ZM25.6898 21.6137C25.653 21.6723 25.6158 21.7307 25.5783 21.7889C25.5777 21.7848 25.577 21.7807 25.5764 21.7766C25.6114 21.7136 25.646 21.6503 25.6802 21.5868C25.6834 21.5958 25.6865 21.6047 25.6898 21.6137ZM25.8584 21.6306C26.1193 22.3151 26.5414 22.935 27.0977 23.4341L30.6066 26.5822C31.1379 27.0588 31.5499 27.6182 31.8405 28.2231H32.1568C32.4475 28.2231 32.7327 28.199 33.0103 28.1529C32.6897 27.1446 32.0544 26.226 31.1298 25.5567L27.3098 22.7912C26.7809 22.4085 26.3413 21.9265 26.0113 21.3787C25.9612 21.4631 25.9102 21.5471 25.8584 21.6306ZM25.924 21.2275C25.8809 21.301 25.8371 21.3742 25.7928 21.4471C25.7878 21.432 25.7828 21.417 25.778 21.4019C25.8174 21.3259 25.8562 21.2498 25.8944 21.1733C25.9041 21.1914 25.914 21.2095 25.924 21.2275ZM26.0992 21.2286C26.4232 21.789 26.864 22.2812 27.3992 22.6686L31.2192 25.434C32.1768 26.1272 32.833 27.0802 33.1611 28.1255C33.4913 28.0604 33.8102 27.9639 34.1144 27.8392C33.8429 26.4266 32.9801 25.1352 31.632 24.3597L27.5428 22.0072C27.0522 21.725 26.6205 21.3619 26.2631 20.9379C26.2096 21.0353 26.1549 21.1322 26.0992 21.2286ZM26.1594 20.8106C26.1116 20.8985 26.0628 20.986 26.0132 21.073C26.0011 21.0502 25.9892 21.0272 25.9775 21.004C26.0202 20.9156 26.0621 20.8268 26.1031 20.7375C26.1217 20.7621 26.1404 20.7864 26.1594 20.8106ZM26.3411 20.7941C26.6946 21.2246 27.126 21.5925 27.6188 21.876L31.708 24.2284C33.0856 25.0208 33.971 26.3365 34.2574 27.7779C34.5317 27.6557 34.7932 27.5101 35.0396 27.3438C34.8766 25.5528 33.7714 23.9003 32.0055 23.1169L27.6919 21.2032C27.2614 21.0123 26.8654 20.7613 26.5142 20.4609C26.4579 20.5726 26.4001 20.6837 26.3411 20.7941ZM26.3964 20.3567C26.3448 20.4597 26.2921 20.5622 26.2381 20.6641C26.2167 20.636 26.1956 20.6077 26.1748 20.5792C26.2201 20.4776 26.2642 20.3756 26.3072 20.2732C26.3366 20.3014 26.3663 20.3293 26.3964 20.3567ZM26.584 20.3206C26.9314 20.6227 27.3249 20.8745 27.7538 21.0648L32.0674 22.9784C33.857 23.7724 34.9876 25.4333 35.1825 27.2438C35.4039 27.0833 35.6118 26.9057 35.8045 26.7129C35.802 24.5531 34.4196 22.5455 32.2463 21.8419L27.7556 20.3881C27.4066 20.2751 27.0747 20.1237 26.765 19.9386C26.7065 20.0667 26.6462 20.1941 26.584 20.3206ZM26.6348 19.8578C26.5803 19.9775 26.5242 20.0966 26.4665 20.2148C26.4337 20.1844 26.4014 20.1534 26.3697 20.122C26.4169 20.0062 26.4626 19.8897 26.5069 19.7727C26.5491 19.8017 26.5917 19.8301 26.6348 19.8578ZM26.8279 19.7992C27.1322 19.9829 27.4589 20.1326 27.8027 20.2439L32.2934 21.6978C34.4785 22.4052 35.887 24.393 35.9542 26.5567C36.1208 26.3754 36.2744 26.1823 36.4137 25.9785C36.6222 23.4451 34.9141 21.0915 32.3526 20.549L27.734 19.5708C27.4877 19.5187 27.2476 19.4477 27.0154 19.3592C26.9552 19.5069 26.8927 19.6536 26.8279 19.7992ZM26.8742 19.3029C26.8175 19.442 26.7587 19.5804 26.6977 19.7178C26.6518 19.6879 26.6064 19.6573 26.5616 19.6259C26.6101 19.4935 26.6568 19.3605 26.7017 19.2268C26.7587 19.2533 26.8162 19.2787 26.8742 19.3029ZM27.072 19.2185C27.2962 19.3037 27.528 19.3721 27.7656 19.4225L32.3842 20.4007C34.9291 20.9397 36.6558 23.2152 36.5807 25.7178C36.6869 25.5404 36.7826 25.3561 36.8671 25.1659C36.8816 25.0744 36.8939 24.9821 36.9038 24.889C37.2009 22.0718 35.1499 19.5481 32.3226 19.252L27.6267 18.7602C27.5046 18.7474 27.3835 18.73 27.2636 18.7082C27.2028 18.8794 27.1389 19.0496 27.072 19.2185ZM27.1128 18.6783C27.0549 18.8406 26.9942 19.0019 26.9308 19.1621C26.8697 19.1366 26.8093 19.1099 26.7496 19.0818C26.7987 18.9302 26.8455 18.7778 26.8899 18.6246C26.9636 18.6442 27.0379 18.6621 27.1128 18.6783ZM27.3142 18.5632C27.4228 18.5824 27.5322 18.5979 27.6426 18.6094L32.3385 19.1012C35.1474 19.3954 37.2121 21.8252 37.0784 24.6012C37.2252 24.1247 37.3042 23.6186 37.3042 23.0941C37.3042 20.2615 34.9996 17.9652 32.1568 17.9652H27.5061C27.4463 18.1659 27.3823 18.3653 27.3142 18.5632ZM27.3475 17.9644C27.29 18.1556 27.2286 18.3455 27.1635 18.534C27.0855 18.5175 27.0081 18.4992 26.9314 18.4788C26.9802 18.3038 27.0259 18.128 27.0684 17.9513C27.1611 17.9583 27.2542 17.9628 27.3475 17.9644ZM27.3922 17.8135C27.7824 16.4672 27.9855 15.0618 27.9855 13.6355V7.99275C27.9855 5.45794 26.1401 3.35262 23.7149 2.93794C25.3777 3.68405 26.6091 5.26618 26.8135 7.20362L27.4055 12.8155C27.5831 14.4988 27.4759 16.1827 27.1036 17.8019C27.1993 17.8087 27.2956 17.8126 27.3922 17.8135ZM26.9153 17.9372C26.8391 17.929 26.7632 17.9189 26.6878 17.9072C26.6598 18.064 26.6292 18.2205 26.5962 18.3764C26.6586 18.398 26.7215 18.4184 26.785 18.4375C26.8313 18.2715 26.8747 18.1047 26.9153 17.9372ZM26.7435 18.5833C26.6832 18.5653 26.6233 18.546 26.5638 18.5256C26.5333 18.6632 26.5007 18.8004 26.4663 18.937C26.5143 18.9637 26.5627 18.9894 26.6115 19.0143C26.6576 18.8713 26.7016 18.7277 26.7435 18.5833ZM26.5637 19.1601C26.5178 19.137 26.4724 19.1133 26.4273 19.0887C26.3956 19.2098 26.3623 19.3304 26.3275 19.4508C26.3624 19.4787 26.3978 19.5061 26.4336 19.533C26.4786 19.4093 26.522 19.285 26.5637 19.1601ZM26.3788 19.6815C26.3459 19.6572 26.3134 19.6326 26.2812 19.6076C26.2492 19.7139 26.216 19.8198 26.1817 19.9255C26.2054 19.9517 26.2293 19.9777 26.2536 20.0034C26.2966 19.8966 26.3383 19.7892 26.3788 19.6815ZM26.1907 20.1574C26.1693 20.1352 26.148 20.113 26.127 20.0905C26.0956 20.1833 26.0633 20.276 26.0302 20.3683C26.0442 20.3901 26.0585 20.4118 26.073 20.4334C26.1131 20.3418 26.1524 20.2498 26.1907 20.1574ZM26.0004 20.5963C25.9885 20.5794 25.9768 20.5624 25.9652 20.5454C25.9353 20.6254 25.9047 20.7051 25.8734 20.7847C25.8799 20.7992 25.8865 20.8138 25.893 20.8283C25.9295 20.7512 25.9653 20.6739 26.0004 20.5963ZM25.808 21.0047C25.8039 20.9961 25.7997 20.9875 25.7956 20.9788C25.7682 21.0456 25.7405 21.1122 25.7122 21.1787C25.7133 21.1828 25.7143 21.1868 25.7154 21.1908C25.7468 21.129 25.7777 21.0669 25.808 21.0047ZM25.7891 20.5813C25.8138 20.5166 25.8379 20.4517 25.8617 20.3867C25.8565 20.3784 25.8515 20.3702 25.8464 20.3619C25.8262 20.4312 25.8056 20.5002 25.7845 20.5692C25.786 20.5732 25.7876 20.5773 25.7891 20.5813ZM25.9034 20.1607C25.9114 20.1746 25.9195 20.1885 25.9277 20.2023C25.9558 20.122 25.9833 20.0415 26.01 19.9607C25.9964 19.945 25.9829 19.9293 25.9694 19.9135C25.9481 19.9961 25.9262 20.0784 25.9034 20.1607ZM25.8499 19.7664C25.8331 19.8335 25.8159 19.9003 25.7982 19.9672C25.7963 19.9634 25.7944 19.9596 25.7925 19.9558C25.8062 19.8852 25.8195 19.8144 25.8322 19.7437C25.8381 19.7512 25.844 19.7588 25.8499 19.7664ZM26.0155 19.7307C26.0319 19.7509 26.0484 19.7712 26.0651 19.7912C26.0954 19.6959 26.1249 19.6003 26.1532 19.5045C26.1295 19.4847 26.1059 19.4647 26.0826 19.4445C26.0611 19.54 26.0388 19.6354 26.0155 19.7307ZM25.9526 19.3276C25.9345 19.4106 25.9157 19.4935 25.8961 19.5762C25.8867 19.5634 25.8773 19.5505 25.8679 19.5376C25.8819 19.4535 25.8951 19.3693 25.9076 19.285C25.9226 19.2993 25.9376 19.3135 25.9526 19.3276ZM26.1197 19.2747C26.1461 19.2983 26.1727 19.3218 26.1996 19.3449C26.2311 19.234 26.2614 19.1228 26.2904 19.0113C26.2551 18.9906 26.2201 18.9695 26.1853 18.9478C26.1647 19.057 26.1428 19.1659 26.1197 19.2747ZM26.0473 18.8587C26.0291 18.957 26.0098 19.0552 25.9897 19.1532C25.971 19.1351 25.9525 19.1169 25.9341 19.0984C25.9474 19.0012 25.9596 18.9038 25.971 18.8064C25.9962 18.8241 26.0217 18.8415 26.0473 18.8587ZM26.2149 18.7871C26.2527 18.8112 26.2908 18.8349 26.3294 18.8579C26.3611 18.7303 26.3911 18.6021 26.4196 18.4736C26.3715 18.4554 26.3237 18.4365 26.2763 18.4167C26.2573 18.5404 26.2369 18.6638 26.2149 18.7871ZM26.1319 18.3539C26.1148 18.4678 26.0964 18.5815 26.0767 18.6951C26.0475 18.6749 26.0187 18.6545 25.99 18.6337C26.0016 18.5232 26.0119 18.4126 26.0211 18.3019C26.0578 18.3197 26.0947 18.337 26.1319 18.3539ZM26.2991 18.2619C26.3497 18.2833 26.4005 18.3039 26.4518 18.3237C26.4827 18.1766 26.5114 18.0291 26.5379 17.8813C26.4759 17.8695 26.4142 17.8566 26.3529 17.8425C26.3369 17.9825 26.319 18.1223 26.2991 18.2619ZM26.2039 17.8058C26.1892 17.9366 26.1728 18.0671 26.1546 18.1975C26.114 18.1785 26.0737 18.159 26.0336 18.1389C26.0425 18.0141 26.0499 17.8892 26.0557 17.7642C26.1049 17.7788 26.1543 17.7927 26.2039 17.8058ZM26.2203 17.6533C26.4316 15.5892 26.2147 13.484 25.5587 11.4726L23.8088 6.10608C23.3682 4.75514 22.4184 3.71091 21.2398 3.11587C20.9787 3.20079 20.7267 3.30595 20.4858 3.42949C21.3213 3.96665 22.0146 4.74387 22.4493 5.71647L24.7527 10.8714C25.7075 13.0083 26.1456 15.3136 26.0623 17.6077C26.1146 17.6238 26.1674 17.639 26.2203 17.6533ZM25.9117 17.5588C25.9871 15.3019 25.553 13.0352 24.6137 10.933L22.3103 5.77813C21.8758 4.80592 21.1751 4.03469 20.3318 3.51176C20.0706 3.65712 19.8234 3.82451 19.5928 4.01139C20.1136 4.41686 20.5666 4.92685 20.9173 5.53223L23.7489 10.419C25.0133 12.6011 25.7019 15.0401 25.7852 17.5132C25.8271 17.529 25.8693 17.5441 25.9117 17.5588ZM25.9056 17.7168C25.8668 17.7039 25.8282 17.6904 25.7899 17.6766C25.7924 17.7876 25.7937 17.8987 25.7938 18.0098C25.8244 18.0275 25.8553 18.0448 25.8865 18.0619C25.8942 17.9469 25.9005 17.8319 25.9056 17.7168ZM25.8744 18.2276C25.8471 18.2132 25.8199 18.1985 25.793 18.1836C25.7919 18.2816 25.7899 18.3797 25.787 18.4777C25.8072 18.4941 25.8275 18.5104 25.848 18.5264C25.8578 18.4269 25.8666 18.3272 25.8744 18.2276ZM25.8295 18.7037C25.813 18.6913 25.7965 18.6788 25.7802 18.6661C25.7765 18.7513 25.7722 18.8366 25.7672 18.9218C25.7778 18.9337 25.7885 18.9455 25.7993 18.9573C25.8101 18.8729 25.8202 18.7883 25.8295 18.7037ZM25.7732 19.1512C25.7666 19.1444 25.76 19.1375 25.7533 19.1304C25.7481 19.2021 25.7423 19.2738 25.736 19.3454C25.7383 19.349 25.7406 19.3525 25.743 19.3561C25.7536 19.2878 25.7636 19.2196 25.7732 19.1512ZM25.6239 18.7543C25.6272 18.6852 25.6301 18.6161 25.6325 18.547C25.6251 18.5408 25.6176 18.5345 25.6103 18.5283C25.6126 18.6002 25.6144 18.6722 25.6157 18.7442C25.6184 18.7477 25.6211 18.751 25.6239 18.7543ZM25.6022 18.3193C25.614 18.33 25.6261 18.3407 25.638 18.3514C25.6399 18.2663 25.6411 18.1812 25.6415 18.0961C25.6237 18.0855 25.6059 18.0747 25.5883 18.0637C25.5936 18.1489 25.5982 18.234 25.6022 18.3193ZM25.429 17.9607C25.4338 18.0296 25.4381 18.0986 25.4421 18.1676C25.439 18.1646 25.4359 18.1615 25.4329 18.1584C25.4241 18.087 25.4147 18.0157 25.4049 17.9443C25.4129 17.9499 25.4209 17.9552 25.429 17.9607ZM25.5753 17.8757C25.5972 17.8899 25.6192 17.9041 25.6412 17.9179C25.6406 17.8179 25.6389 17.7179 25.6362 17.6179C25.6075 17.6064 25.5789 17.5946 25.5504 17.5825C25.5596 17.6801 25.5679 17.7779 25.5753 17.8757ZM25.533 17.4096C25.5654 17.4241 25.598 17.4381 25.6308 17.4518C25.5383 15.0261 24.8576 12.6357 23.6171 10.4948L20.7855 5.60803C20.4392 5.01014 19.9901 4.50805 19.4735 4.11107C19.2217 4.32789 18.9913 4.56862 18.7858 4.8297C18.9974 5.03565 19.1945 5.26211 19.3743 5.50861L22.703 10.0737C24.2888 12.2484 25.2534 14.7821 25.533 17.4096ZM18.6749 4.72491C18.8774 4.4692 19.103 4.23258 19.3488 4.01823C19.1053 3.84267 18.848 3.68969 18.5804 3.56019C18.3357 3.732 18.1074 3.92425 17.8977 4.13418C18.1716 4.30478 18.4321 4.50191 18.6749 4.72491ZM18.582 4.8458C18.3352 4.61791 18.0695 4.41765 17.7895 4.24574C17.5619 4.48758 17.358 4.75098 17.181 5.03203C17.4129 5.21476 17.6326 5.41938 17.8372 5.64573L18.0025 5.82867C18.1603 5.47921 18.3552 5.14992 18.582 4.8458ZM18.7248 3.46234C18.9834 3.5927 19.2321 3.74459 19.4681 3.91723C19.6914 3.73365 19.9301 3.56794 20.182 3.42231C19.9447 3.28605 19.6971 3.16891 19.4418 3.07191C19.191 3.18356 18.9514 3.31438 18.7248 3.46234ZM19.6415 2.98801C19.8809 3.08707 20.1131 3.20355 20.336 3.33665C20.5628 3.2154 20.7995 3.11012 21.0445 3.02232C20.82 2.92052 20.5881 2.83463 20.3506 2.76558C20.1065 2.82318 19.8698 2.8978 19.6415 2.98801ZM24.1949 16.21C22.8797 13.612 20.8257 11.4281 18.2583 9.95108L17.6906 9.62455V10.2429C20.4154 11.5553 22.6729 13.6383 24.1949 16.21ZM23.7558 15.789C22.2729 13.4921 20.1809 11.6259 17.6906 10.4115V10.9423C20.1027 12.0109 22.1912 13.6833 23.7558 15.789ZM17.5385 10.8758V10.3383C17.4243 10.2842 17.3094 10.2315 17.1936 10.1801L16.5949 9.91459L16.6598 10.5296C16.957 10.6362 17.25 10.7517 17.5385 10.8758ZM16.6774 10.6973C16.9687 10.8033 17.2558 10.918 17.5385 11.0411V11.5103C17.2732 11.4079 17.0047 11.3127 16.7332 11.225L16.6774 10.6973ZM16.5009 10.4736L16.4344 9.84333L15.3298 9.35337L15.4989 10.1459L16.2054 10.3746C16.3043 10.4067 16.4028 10.4397 16.5009 10.4736ZM15.5355 10.3171L16.1584 10.5188C16.2791 10.5579 16.3991 10.5983 16.5185 10.6404L16.5749 11.1748C16.2749 11.0814 15.9713 10.997 15.6645 10.9219L15.5355 10.3171ZM15.3319 10.0918L15.158 9.27712L13.8668 8.70431C13.9056 8.89533 13.9558 9.0861 14.0177 9.2759L14.1601 9.71239L15.3319 10.0918ZM14.2181 9.89067L15.3683 10.263L15.5006 10.8828C15.3995 10.8592 15.2982 10.8366 15.1965 10.8152L14.4694 10.6611L14.2181 9.89067ZM13.9812 9.65451L13.873 9.32276C13.7979 9.09255 13.7396 8.86088 13.6973 8.62912L12.4637 8.08183C12.4797 8.46186 12.5387 8.8439 12.6431 9.22129L13.9812 9.65451ZM12.6953 9.39761L14.0393 9.83272L14.2976 10.6247L13.0927 10.3695L12.9054 9.95035C12.8239 9.76806 12.754 9.58349 12.6953 9.39761ZM12.4708 9.16553C12.3728 8.78333 12.3197 8.39704 12.309 8.01321L12.02 7.88503C11.7544 7.7672 11.4841 7.6736 11.2117 7.60326C11.1687 7.98471 11.1683 8.37214 11.2126 8.75818L12.4708 9.16553ZM11.2346 8.92472L12.5189 9.34047C12.5852 9.56659 12.6676 9.79084 12.7664 10.0121L12.9088 10.3306L11.5326 10.0391C11.3891 9.67467 11.2904 9.30088 11.2346 8.92472ZM11.054 8.70684C11.0153 8.32561 11.0189 7.94349 11.0627 7.56715C10.7345 7.49277 10.4038 7.45174 10.075 7.4424C9.99927 7.76516 9.95487 8.09476 9.9425 8.42627C10.2353 8.46896 10.5285 8.53672 10.8195 8.63092L11.054 8.70684ZM9.93914 8.57908C10.2174 8.62063 10.4959 8.68553 10.7724 8.77508L11.0735 8.87255C11.1245 9.25312 11.2178 9.63174 11.3553 10.0016L10.0611 9.72749C9.97658 9.34823 9.93635 8.96284 9.93914 8.57908ZM9.79101 8.40643C9.80396 8.08108 9.84697 7.75758 9.91931 7.44034C9.61872 7.44092 9.32018 7.46787 9.0272 7.51994C8.93069 7.80207 8.85941 8.09122 8.81345 8.38382C9.13584 8.36137 9.46289 8.36823 9.79101 8.40643ZM8.79174 8.53745C9.11978 8.51247 9.45298 8.51884 9.78716 8.55867C9.78298 8.93745 9.81961 9.31786 9.89801 9.69296L9.65714 9.64194C9.35778 9.57851 9.05899 9.54169 8.76323 9.52978C8.7407 9.19876 8.75029 8.86635 8.79174 8.53745ZM8.65754 8.39704C8.70023 8.11172 8.76634 7.82948 8.85573 7.5534C8.58791 7.61038 8.32516 7.68845 8.07031 7.78663C7.95894 8.03673 7.86879 8.29361 7.79974 8.55451C8.07946 8.479 8.36629 8.42602 8.65754 8.39704ZM7.75808 8.72357C8.04397 8.64137 8.33794 8.58349 8.63673 8.55157C8.59806 8.87467 8.58922 9.20088 8.61044 9.52578C8.28027 9.52202 7.95431 9.54921 7.63615 9.60512C7.65111 9.30929 7.6917 9.01427 7.75808 8.72357ZM7.63065 9.76023C7.6239 10.0916 7.64923 10.4232 7.70636 10.75C8.00182 10.7311 8.30288 10.7366 8.60724 10.7685L8.85179 10.7941C8.73447 10.4293 8.6582 10.0548 8.62256 9.67761C8.28608 9.67288 7.95417 9.70121 7.63065 9.76023ZM8.77585 9.68202C8.81337 10.0641 8.89382 10.4431 9.0177 10.8115L10.3335 10.9493C10.1579 10.5957 10.0253 10.2289 9.9348 9.85574L9.62552 9.79018C9.34107 9.72994 9.05711 9.69443 8.77585 9.68202ZM10.1004 9.89076C10.1954 10.2591 10.3327 10.6206 10.5136 10.9681L11.9131 11.1147L11.7381 10.8127C11.6166 10.6031 11.5112 10.3886 11.4215 10.1706L10.1004 9.89076ZM11.6029 10.209C11.6808 10.3878 11.7697 10.5641 11.8699 10.737L12.1001 11.1343L13.3252 11.2626L12.9852 10.5018L11.6029 10.209ZM13.1692 10.5407L13.4999 11.2809L14.2394 11.3583C14.3426 11.3691 14.4456 11.381 14.5484 11.3939L14.3518 10.7912L13.1692 10.5407ZM14.5237 10.8276L14.7154 11.4157C15.0286 11.4584 15.3394 11.5108 15.6477 11.5724L15.5355 11.0468C15.4125 11.0175 15.2889 10.9897 15.1649 10.9634L14.5237 10.8276ZM15.6996 11.0868L15.8103 11.6058C16.0897 11.6648 16.3668 11.7316 16.6414 11.8058L16.5922 11.3391C16.298 11.2462 16.0005 11.1619 15.6996 11.0868ZM16.7505 11.3901L16.7989 11.8493C17.0477 11.9194 17.2943 11.9957 17.5385 12.0781V11.673C17.279 11.5717 17.0162 11.4773 16.7505 11.3901ZM17.6906 11.7335V12.1303C19.5502 12.7795 21.2697 13.7828 22.7507 15.0868C21.3106 13.6405 19.589 12.4988 17.6906 11.7335ZM22.1995 14.8192C20.8529 13.7239 19.3271 12.8688 17.6906 12.2911V12.6277C19.3005 13.1042 20.825 13.8436 22.1995 14.8192ZM17.5385 12.5836V12.2383C17.2999 12.1569 17.0591 12.0814 16.8162 12.0118L16.8578 12.4065C17.0862 12.4603 17.3131 12.5194 17.5385 12.5836ZM16.8746 12.5663C17.0974 12.6197 17.3187 12.678 17.5385 12.7413V13.6355C17.5385 14.6621 17.1975 15.6537 16.5782 16.46C16.9536 15.6704 17.1088 14.7868 17.0156 13.9036L16.8746 12.5663ZM16.701 12.3704L16.6584 11.9676C16.3897 11.8938 16.1185 11.8273 15.845 11.7682L15.9413 12.2198C16.1961 12.2637 16.4494 12.3139 16.701 12.3704ZM15.9754 12.3797C16.2244 12.4235 16.4719 12.4735 16.7178 12.5297L16.8643 13.9194C16.9721 14.9406 16.7369 15.9624 16.2053 16.8289C16.496 16.0045 16.5578 15.1093 16.3723 14.2405L15.9754 12.3797ZM15.7801 12.193L15.6822 11.734C15.3798 11.6722 15.0749 11.6195 14.7678 11.5761L14.9323 12.0806C15.2164 12.1103 15.4991 12.1477 15.7801 12.193ZM14.9838 12.2386C15.2621 12.2688 15.5389 12.3068 15.814 12.3521L16.2236 14.272C16.4368 15.2718 16.3123 16.3077 15.8792 17.2218C15.8778 17.2232 15.8764 17.2248 15.875 17.2263C16.0755 16.3784 16.0423 15.4846 15.7677 14.6425L14.9838 12.2386ZM14.7671 12.0643L14.6004 11.5533C14.4751 11.537 14.3495 11.5223 14.2235 11.509L13.5714 11.4408L13.8238 12.0057C14.1396 12.0156 14.4541 12.0352 14.7671 12.0643ZM13.8926 12.1597C14.2025 12.1708 14.5112 12.1916 14.8183 12.2215L15.623 14.6894C15.9187 15.596 15.9254 16.5645 15.6534 17.4649C15.6364 17.4835 15.6195 17.5022 15.6026 17.521C15.6824 16.7024 15.5504 15.8697 15.2088 15.1053L13.8926 12.1597ZM13.6553 12.0014L13.3967 11.4225L12.1941 11.2966L12.6007 11.9982H13.3445C13.4483 11.9982 13.5518 11.9992 13.6553 12.0014ZM12.6886 12.1498H13.3445C13.4711 12.1498 13.5975 12.1513 13.7238 12.1545L15.0699 15.1669C15.4306 15.9744 15.55 16.8606 15.4251 17.7216C15.3973 17.7536 15.3697 17.7856 15.3423 17.8178C15.3094 17.0526 15.0929 16.2992 14.7015 15.6237L12.6886 12.1498ZM12.425 11.9982L12.0072 11.277L10.6014 11.1298C10.6977 11.2995 10.8046 11.4656 10.9224 11.6271L11.193 11.9982H12.425ZM11.3036 12.1498H12.5129L14.5697 15.6995C14.9776 16.4034 15.1893 17.1948 15.1945 17.9935C15.1586 18.0368 15.123 18.0803 15.0876 18.1239C14.9568 17.4328 14.674 16.7721 14.2512 16.1922L11.3036 12.1498ZM11.0049 11.9982L10.7994 11.7162C10.6565 11.5203 10.5291 11.3179 10.417 11.1104L9.07382 10.9698C9.20695 11.3262 9.38154 11.6714 9.59783 11.9982H11.0049ZM9.70212 12.1498H11.1155L14.1281 16.2813C14.564 16.8792 14.8464 17.566 14.9608 18.2826C14.9185 18.3364 14.8763 18.3905 14.8347 18.4448C14.6261 17.8445 14.2979 17.2857 13.8629 16.8044L10.0736 12.611C9.93947 12.4626 9.81567 12.3086 9.70212 12.1498ZM9.41669 11.9982C9.20499 11.6649 9.03466 11.3139 8.90546 10.9521L8.59135 10.9192C8.30206 10.889 8.01593 10.8832 7.73492 10.9001C7.81225 11.2761 7.93204 11.6447 8.09387 11.9982H9.41669ZM8.16634 12.1498H9.51664C9.64993 12.3444 9.7979 12.5325 9.96052 12.7125L13.7498 16.9059C14.1945 17.3978 14.5239 17.9735 14.7236 18.5917C14.6755 18.656 14.6279 18.7206 14.581 18.7856C14.3186 18.2886 13.9682 17.8367 13.5413 17.4537L9.33279 13.6779C8.83598 13.2323 8.44666 12.7121 8.16634 12.1498ZM14.6583 18.9385C14.6655 18.9536 14.6728 18.9688 14.6799 18.984C14.7156 18.9257 14.7517 18.8677 14.7881 18.8098C14.7848 18.7975 14.7815 18.7854 14.7781 18.7732C14.7377 18.8281 14.6978 18.8832 14.6583 18.9385ZM14.892 18.6205C14.8939 18.6266 14.8957 18.6327 14.8976 18.6388C14.9281 18.5917 14.959 18.5448 14.9901 18.498C14.9899 18.4963 14.9897 18.4946 14.9895 18.4928C14.9568 18.5352 14.9243 18.5778 14.892 18.6205ZM14.8387 19.0159C14.8106 19.0614 14.7829 19.107 14.7553 19.1527C14.7578 19.1586 14.7603 19.1644 14.7627 19.1703C14.7881 19.1204 14.8138 19.0706 14.8398 19.021C14.8394 19.0192 14.8391 19.0176 14.8387 19.0159ZM14.7997 21.1752C14.7927 21.2282 14.7859 21.2814 14.7793 21.3344C14.7839 21.3387 14.7885 21.3429 14.793 21.3472C14.7959 21.2912 14.7991 21.2351 14.8026 21.179C14.8016 21.1777 14.8007 21.1765 14.7997 21.1752ZM14.7841 21.5498C14.7752 21.541 14.7663 21.5321 14.7574 21.5234C14.7499 21.591 14.743 21.6587 14.7365 21.7263C14.7503 21.7357 14.764 21.7451 14.7778 21.7547C14.7794 21.6863 14.7815 21.6181 14.7841 21.5498ZM14.9277 21.8632C14.9286 21.8098 14.9298 21.7565 14.9313 21.7031L14.9345 21.7065C14.9369 21.7625 14.9396 21.8185 14.9426 21.8744C14.9377 21.8707 14.9327 21.8669 14.9277 21.8632ZM14.7744 21.9385C14.7567 21.9256 14.7388 21.9128 14.7208 21.9001C14.7139 21.9816 14.7077 22.0632 14.7022 22.1447C14.726 22.156 14.7499 22.1674 14.7735 22.1791C14.7732 22.0989 14.7735 22.0188 14.7744 21.9385ZM14.9262 22.2574C14.9255 22.1894 14.9253 22.1214 14.9257 22.0534C14.9355 22.0611 14.9453 22.069 14.955 22.0768C14.9596 22.145 14.9647 22.2132 14.9702 22.2814C14.9556 22.2733 14.9409 22.2654 14.9262 22.2574ZM14.7752 22.3496C14.7476 22.3355 14.7199 22.3216 14.6919 22.3081C14.6865 22.4038 14.6819 22.4996 14.6783 22.5953C14.713 22.6053 14.7475 22.6156 14.7819 22.6263C14.7788 22.5341 14.7766 22.4419 14.7752 22.3496ZM14.9359 22.6771C14.9329 22.5955 14.9305 22.5137 14.9288 22.4319C14.948 22.4427 14.9671 22.4535 14.9862 22.4646C14.9937 22.5444 15.0018 22.6242 15.0105 22.7038C14.9857 22.6948 14.9608 22.6859 14.9359 22.6771ZM14.7881 22.7874C14.75 22.7751 14.7118 22.7632 14.6732 22.7518C14.5979 25.5105 15.2847 28.261 16.6922 30.6902L19.0531 34.7646C19.3997 35.3628 19.8489 35.865 20.3658 36.2621C20.6174 36.0454 20.8477 35.8048 21.0532 35.5439C20.8413 35.3378 20.6438 35.111 20.4638 34.8641L17.6884 31.0579C15.9154 28.6263 14.9189 25.7459 14.7881 22.7874ZM21.1461 35.4224C20.9452 35.2255 20.7579 35.0096 20.587 34.7751L17.8115 30.9688C16.0681 28.5779 15.0831 25.7486 14.9429 22.8406C14.972 22.8512 15.001 22.8621 15.03 22.8733C15.4035 25.9628 16.723 28.8869 18.8409 31.2307L21.7249 34.4221C21.5695 34.7783 21.3748 35.1136 21.1461 35.4224ZM21.1641 35.6487C20.9617 35.9042 20.7361 36.1407 20.4905 36.3549C20.734 36.5304 20.9914 36.6834 21.259 36.8128C21.5035 36.6411 21.7317 36.449 21.9415 36.2392C21.6675 36.0687 21.407 35.8717 21.1641 35.6487ZM22.0497 36.1277C21.7697 35.9558 21.504 35.7557 21.257 35.5278C21.4839 35.2239 21.6786 34.8948 21.8365 34.5456L22.0004 34.727C22.2054 34.9538 22.4256 35.1588 22.6582 35.3419C22.4811 35.6228 22.2773 35.8859 22.0497 36.1277ZM22.0754 36.3199C21.8726 36.5256 21.6526 36.7152 21.4175 36.8862C21.6677 36.997 21.9263 37.0876 22.1904 37.1575C22.428 37.0204 22.6525 36.8654 22.8623 36.6947C22.5915 36.5921 22.3282 36.4669 22.0754 36.3199ZM22.9958 36.5824C22.716 36.4815 22.4441 36.3561 22.1835 36.207C22.4053 35.9684 22.6049 35.7097 22.7794 35.4345C23.0443 35.6308 23.324 35.7997 23.6144 35.9407C23.4278 36.1712 23.2209 36.3861 22.9958 36.5824ZM23.7103 35.8185C23.9113 35.5544 24.0864 35.2713 24.233 34.9735C23.9825 34.8157 23.742 34.6348 23.5144 34.4306L23.3324 34.2673C23.2121 34.6311 23.0529 34.9787 22.8591 35.3046C23.1285 35.5055 23.4138 35.6768 23.7103 35.8185ZM22.7377 35.2112C22.9328 34.8803 23.0913 34.5266 23.2085 34.1561L22.2255 33.2743C22.159 33.6632 22.0497 34.0375 21.9028 34.3924L22.1134 34.6255C22.3083 34.8411 22.5173 35.0364 22.7377 35.2112ZM21.7895 34.2671C21.93 33.9135 22.0322 33.5406 22.0909 33.1535L20.0054 31.2824C17.5497 29.0792 15.8931 26.1563 15.2522 22.9657C15.232 22.9567 15.2118 22.9478 15.1914 22.9391C15.5748 25.9668 16.8764 28.8301 18.954 31.1292L21.7895 34.2671ZM15.1706 22.7659C15.186 22.7722 15.2016 22.7787 15.217 22.7852C15.2044 22.718 15.1922 22.6508 15.1805 22.5834C15.1699 22.5766 15.1592 22.5698 15.1486 22.563C15.1555 22.6308 15.1628 22.6983 15.1706 22.7659ZM15.1307 22.3736C15.1361 22.3769 15.1415 22.3801 15.147 22.3834C15.1381 22.3281 15.1295 22.2727 15.1212 22.2172C15.1212 22.2172 15.1187 22.215 15.1175 22.2139C15.1216 22.2672 15.126 22.3204 15.1307 22.3736ZM15.3564 22.7028C15.3661 22.7553 15.3761 22.8078 15.3863 22.8602C15.3922 22.8629 15.398 22.8657 15.4038 22.8684C15.3891 22.8143 15.3748 22.7601 15.3608 22.7059C15.3593 22.7049 15.3578 22.7038 15.3564 22.7028ZM15.458 23.0637C15.4467 23.058 15.4354 23.0523 15.424 23.0467C16.0744 26.1623 17.7044 29.0141 20.1072 31.1698L22.1152 32.9713C22.1376 32.7773 22.1491 32.58 22.1491 32.38V31.9221L21.1691 31.2127C18.3893 29.2003 16.3872 26.3239 15.458 23.0637ZM22.1491 31.7347L21.2586 31.09C18.5469 29.1269 16.5826 26.3334 15.6456 23.1641C15.6471 23.165 15.6487 23.1659 15.6502 23.1668C16.8615 26.4027 19.1486 29.1448 22.1491 30.9228V31.7347ZM22.3012 32.0322V32.38C22.3012 32.6225 22.2848 32.8611 22.253 33.095L23.2565 33.9952C23.3591 33.6289 23.4216 33.2473 23.4394 32.8562L22.3012 32.0322ZM23.4445 32.6725L22.3012 31.8448V31.0117C22.3072 31.0152 22.3133 31.0187 22.3192 31.0221L23.3681 31.6255L23.4161 32.081C23.4371 32.2798 23.4464 32.4772 23.4445 32.6725ZM23.586 32.9623C23.5606 33.356 23.4912 33.7397 23.3822 34.1081L23.6162 34.3179C23.8325 34.512 24.0609 34.6845 24.2984 34.8354C24.4578 34.4859 24.5783 34.1176 24.656 33.7369L23.586 32.9623ZM24.6868 33.5718L23.5945 32.7811C23.6016 32.5453 23.5929 32.3063 23.5674 32.0651L23.5309 31.7192L24.7492 32.42C24.7725 32.8108 24.7504 33.1968 24.6868 33.5718ZM24.735 32.2367C24.7164 32.0424 24.6864 31.8472 24.6447 31.6517L24.5491 31.2036L23.4427 30.7127C23.4364 30.7099 23.4302 30.7072 23.4239 30.7044L23.5113 31.5328L24.735 32.2367ZM23.3484 31.4391L23.2632 30.6317C22.9359 30.4815 22.6151 30.3202 22.3012 30.1484V30.8362C22.3325 30.8545 22.3639 30.8727 22.3953 30.8908L23.3484 31.4391ZM22.1491 30.746V30.064C19.4782 28.5622 17.3221 26.292 15.9644 23.5512C17.1897 26.5367 19.3524 29.0662 22.1491 30.746ZM16.3403 23.9472C17.6784 26.4282 19.6907 28.4889 22.1491 29.8896V29.2896C19.7819 28.0513 17.7754 26.2108 16.3403 23.9472ZM22.3012 29.3681V29.9752C22.609 30.1459 22.9237 30.3064 23.2447 30.4561L23.1732 29.7778C22.8777 29.6501 22.5869 29.5135 22.3012 29.3681ZM23.1549 29.6044C22.8655 29.4775 22.5809 29.3418 22.3012 29.1976V28.6678C22.5612 28.7883 22.8248 28.9015 23.0919 29.0074L23.1549 29.6044ZM23.3333 29.8459L23.4055 30.5299C23.4385 30.5448 23.4715 30.5596 23.5046 30.5743L24.51 31.0203L24.3406 30.2263C23.9994 30.1109 23.6635 29.984 23.3333 29.8459ZM24.3038 30.0535C23.9689 29.938 23.6392 29.8112 23.3151 29.6735L23.2514 29.0696C23.5507 29.1845 23.8542 29.29 24.1614 29.3862L24.3038 30.0535ZM24.125 29.2157L23.9998 28.6286C23.7231 28.5511 23.4491 28.4659 23.178 28.3733L23.2335 28.9001C23.5268 29.0144 23.824 29.1196 24.125 29.2157ZM23.074 28.8369L23.0191 28.318C22.7774 28.2324 22.538 28.1408 22.3012 28.0432V28.5005C22.5553 28.6197 22.8129 28.7318 23.074 28.8369ZM22.1491 28.4281V27.9797C20.3008 27.1952 18.6162 26.0508 17.2 24.6028C18.5672 26.2129 20.2551 27.5142 22.1491 28.4281ZM17.6775 24.8611C18.9841 26.1082 20.5001 27.1065 22.1491 27.8148V27.6752C22.1491 27.5952 22.1511 27.5153 22.1551 27.4357C20.5353 26.8406 19.0194 25.9728 17.6775 24.8611ZM22.3049 27.4899C22.3024 27.5515 22.3012 27.6133 22.3012 27.6752V27.8791C22.5322 27.9753 22.7657 28.0659 23.0015 28.1507L22.9545 27.7046C22.7363 27.6379 22.5197 27.5663 22.3049 27.4899ZM22.9372 27.5406C22.7279 27.4756 22.52 27.406 22.3139 27.3321C22.3907 26.2986 22.8124 25.3187 23.5133 24.5501C23.0279 25.411 22.8176 26.4068 22.9226 27.402L22.9372 27.5406ZM23.1125 27.7521L23.1605 28.2068C23.4255 28.2988 23.6935 28.3836 23.964 28.4609L23.8551 27.9505C23.6057 27.8905 23.3581 27.8243 23.1125 27.7521ZM23.8201 27.7859C23.5767 27.7262 23.335 27.6604 23.0953 27.5888L23.0739 27.3861C22.9524 26.2344 23.267 25.0819 23.9512 24.1523C23.5589 25.059 23.4542 26.0711 23.663 27.0497L23.8201 27.7859ZM23.9839 27.8252C24.2572 27.889 24.5324 27.9454 24.8095 27.9941L24.3622 26.6223C24.052 25.6711 24.0498 24.6539 24.3446 23.7117C23.7621 24.7072 23.5703 25.8858 23.8118 27.0182L23.9839 27.8252ZM23.8607 16.3941C22.1092 14.7027 19.9886 13.4736 17.6906 12.7859V13.6355C17.6906 14.9082 17.1832 16.1287 16.28 17.0286C16.2584 17.0503 16.2368 17.0719 16.2152 17.0936C16.1382 17.2072 16.056 17.3177 15.9688 17.425C15.9494 17.449 15.93 17.4729 15.9108 17.4969C15.8461 17.6176 15.7761 17.736 15.7007 17.8517C15.6837 17.8779 15.6667 17.904 15.6498 17.9303C15.5983 18.0567 15.5412 18.1814 15.4785 18.3039C15.4645 18.3313 15.4506 18.3587 15.4367 18.3862C15.3987 18.5177 15.3549 18.648 15.3053 18.7767C15.2943 18.8055 15.2832 18.8343 15.2723 18.8631C15.2483 18.9978 15.2184 19.1319 15.1826 19.265C15.1745 19.2951 15.1665 19.3251 15.1587 19.3552C15.1489 19.4913 15.1333 19.6276 15.1116 19.7635C15.1067 19.7941 15.102 19.8248 15.0973 19.8555C15.1018 19.992 15.1006 20.129 15.0934 20.2664C15.0917 20.297 15.0903 20.3277 15.0888 20.3583C15.1077 20.4939 15.1209 20.6308 15.1282 20.7686C15.1298 20.7989 15.1315 20.8291 15.1332 20.8593C15.1664 20.9926 15.194 21.1277 15.2157 21.2645C15.2204 21.2943 15.2253 21.3242 15.2302 21.3541C15.2772 21.4832 15.3188 21.6148 15.3547 21.7484C15.3628 21.7781 15.3708 21.8078 15.379 21.8375C15.439 21.9605 15.4939 22.0865 15.5435 22.2152C15.5547 22.2443 15.566 22.2733 15.5773 22.3023C15.6497 22.4181 15.7173 22.5374 15.7799 22.6598C15.7939 22.687 15.8078 22.7141 15.8219 22.7411C15.9064 22.8493 15.9866 22.9615 16.0622 23.0774C16.0789 23.1029 16.0957 23.1285 16.1125 23.1539C16.2079 23.2527 16.2994 23.3558 16.3867 23.4632C16.4059 23.4868 16.4251 23.5103 16.4444 23.5339C16.5499 23.6222 16.6518 23.7153 16.75 23.8131C18.2994 25.357 20.1507 26.5309 22.1656 27.2779C22.2595 26.1508 22.7509 25.0879 23.5596 24.282C23.7508 24.0916 23.9364 23.8965 24.1162 23.6971C24.2341 23.5473 24.3488 23.3956 24.4606 23.242C24.5618 23.0814 24.6597 22.9191 24.7545 22.7553C24.8393 22.583 24.9207 22.4094 24.9986 22.2346C25.0644 22.0556 25.1267 21.8756 25.1854 21.6948C25.2319 21.5105 25.2749 21.3256 25.3142 21.1403C25.3413 20.9514 25.3647 20.7623 25.3845 20.5732C25.3916 20.3813 25.395 20.1896 25.3949 19.9983C25.3819 19.807 25.3651 19.6162 25.3448 19.4262C25.3119 19.2381 25.2754 19.0511 25.2355 18.865C25.1834 18.6828 25.128 18.5019 25.0692 18.3225C24.9983 18.1463 24.924 17.9719 24.8467 17.7992C24.7563 17.6288 24.6627 17.4604 24.566 17.2941C24.4594 17.1359 24.3498 16.9799 24.2376 16.8263C24.1144 16.6797 23.9888 16.5355 23.8607 16.3941ZM16.7512 24.2952C18.1327 26.318 19.9871 27.9726 22.1491 29.1181V28.5964C20.0522 27.5969 18.2024 26.1286 16.7512 24.2952ZM23.2699 15.4094C21.7811 13.5627 19.8707 12.0859 17.6906 11.1083V11.57C19.8151 12.4166 21.7226 13.729 23.2699 15.4094ZM23.0282 36.7544C23.274 36.8384 23.5254 36.9041 23.7801 36.9514C23.5758 37.0869 23.3598 37.2089 23.1331 37.3157C22.8864 37.2975 22.6417 37.2615 22.401 37.2085C22.6223 37.0719 22.8318 36.92 23.0282 36.7544ZM7.63026 8.60333C7.38191 8.67933 7.13978 8.77329 6.90582 8.88414C6.99122 8.655 7.09394 8.42986 7.21429 8.21067C7.42463 8.081 7.64378 7.96677 7.86983 7.86869C7.77139 8.10879 7.69157 8.35435 7.63026 8.60333ZM36.7381 25.7503C36.6822 25.8458 36.6235 25.9392 36.562 26.0308C36.552 26.1415 36.5384 26.2526 36.5212 26.3639C36.6059 26.1659 36.6785 25.9611 36.7381 25.7503ZM36.2519 26.9034C36.2759 26.8141 36.2978 26.7237 36.3173 26.6321C36.342 26.5166 36.3625 26.4011 36.379 26.2859C36.2482 26.4575 36.107 26.621 35.9564 26.7752C35.9541 26.99 35.9385 27.2063 35.9091 27.4228C36.0333 27.2574 36.1478 27.084 36.2519 26.9034ZM35.7156 27.6646C35.7622 27.4191 35.79 27.1732 35.8002 26.9288C35.6121 27.1063 35.411 27.2701 35.1984 27.4188C35.2174 27.6745 35.2176 27.9327 35.1984 28.1914C35.3829 28.0286 35.5559 27.8526 35.7156 27.6646ZM35.1778 28.409C35.3435 28.2713 35.5009 28.1237 35.6489 27.9668C35.6204 28.0797 35.5878 28.1924 35.5512 28.3048C35.5221 28.3938 35.4909 28.4815 35.4576 28.5679C35.3354 28.7363 35.2035 28.8966 35.0628 29.0478C35.1148 28.8357 35.153 28.6224 35.1778 28.409ZM35.0333 28.3312C35.0616 28.059 35.0677 27.7869 35.0524 27.5175C34.8099 27.6754 34.5535 27.8141 34.2855 27.9313C34.3334 28.2158 34.358 28.5046 34.3587 28.7948C34.5958 28.6581 34.8213 28.503 35.0333 28.3312ZM34.3561 28.9704C34.5832 28.8446 34.8006 28.7025 35.0063 28.5455C34.9706 28.7874 34.9171 29.029 34.8452 29.2684C34.6664 29.4388 34.4758 29.596 34.2751 29.7388C34.3213 29.4835 34.3481 29.2268 34.3561 28.9704ZM34.206 28.8793C34.2103 28.5813 34.1884 28.2844 34.1413 27.9919C33.8417 28.1126 33.5285 28.2067 33.2046 28.2714C33.2932 28.5849 33.3527 28.9058 33.3823 29.2297C33.6679 29.1366 33.9435 29.0191 34.206 28.8793ZM33.3941 29.3853C33.673 29.2966 33.9426 29.1852 34.2006 29.0534C34.1874 29.3229 34.1529 29.5929 34.0962 29.8606C33.8673 30.0095 33.6265 30.1403 33.3763 30.2516C33.4061 29.963 33.4119 29.6732 33.3941 29.3853ZM33.2336 29.2757C33.2055 28.9455 33.1456 28.6183 33.0545 28.2992C32.7626 28.3488 32.4627 28.3747 32.1568 28.3747H31.9105C32.0654 28.7253 32.1806 29.0898 32.2556 29.4612C32.5908 29.4308 32.918 29.3681 33.2336 29.2757ZM32.2835 29.6108C32.6125 29.5802 32.9338 29.5192 33.2444 29.4304C33.2605 29.7262 33.2511 30.0238 33.2156 30.3198C32.9399 30.4314 32.6535 30.5197 32.3596 30.5824C32.3642 30.2571 32.3387 29.9318 32.2835 29.6108ZM32.1027 29.4727C32.0254 29.0967 31.9056 28.7281 31.7437 28.3747H30.421C30.6328 28.708 30.803 29.059 30.9322 29.4207L31.2465 29.4536C31.5356 29.4839 31.8217 29.4897 32.1027 29.4727ZM30.9858 29.5788L31.2306 29.6044C31.5349 29.6362 31.8359 29.6418 32.1312 29.6228C32.1883 29.9497 32.2136 30.2813 32.2069 30.6127C31.8834 30.6717 31.5515 30.7 31.215 30.6952C31.1795 30.3181 31.1032 29.9436 30.9858 29.5788ZM30.7639 29.4031C30.6307 29.0467 30.4562 28.7015 30.2398 28.3747H28.8332L29.0388 28.6566C29.1817 28.8525 29.3091 29.0549 29.4212 29.2624L30.7639 29.4031ZM29.5047 29.4237L30.82 29.5614C30.9438 29.9298 31.0243 30.3088 31.0617 30.6908C30.7806 30.6784 30.4966 30.6429 30.2122 30.5827L29.9034 30.5173C29.8128 30.1441 29.6804 29.7772 29.5047 29.4237ZM29.2367 29.2432C29.1405 29.0734 29.0335 28.9072 28.9156 28.7456L28.6451 28.3747H27.435C27.4278 28.3747 27.4208 28.3747 27.4137 28.3746L27.8317 29.096L29.2367 29.2432ZM27.9257 29.2583L29.3245 29.4048C29.5054 29.7523 29.6428 30.1139 29.7378 30.4822L28.4173 30.2025C28.3276 29.9844 28.222 29.7698 28.1005 29.5599L27.9257 29.2583ZM27.6446 29.0764L27.2373 28.3734C26.877 28.3687 26.5181 28.3514 26.1613 28.3216L26.4421 28.9501C26.4782 28.9541 26.5143 28.958 26.5506 28.9619L27.6446 29.0764ZM26.5138 29.1104C26.5207 29.1112 26.5277 29.1119 26.5347 29.1126L27.7387 29.2387L27.9687 29.6357C28.069 29.8087 28.158 29.9851 28.2359 30.1641L26.8538 29.8713L26.5138 29.1104ZM26.9303 30.0425L27.0724 30.3607C27.1713 30.582 27.2537 30.8065 27.3201 31.0328L28.6042 31.4486C28.5484 31.0723 28.4497 30.6984 28.3063 30.3339L26.9303 30.0425ZM28.4835 30.3715C28.621 30.7415 28.7143 31.1201 28.7652 31.5007L29.065 31.5978C29.3418 31.6873 29.6205 31.7523 29.8989 31.7939C29.9018 31.41 29.8616 31.0247 29.777 30.6455L28.4835 30.3715ZM29.9402 30.68C30.0186 31.0551 30.0551 31.4354 30.0509 31.8143C30.385 31.8539 30.718 31.8603 31.0458 31.8353C31.0873 31.5065 31.0969 31.1741 31.0744 30.8431C30.7786 30.8312 30.4798 30.7944 30.1805 30.7309L29.9402 30.68ZM31.2272 30.8471C31.2484 31.172 31.2395 31.4982 31.2009 31.8212C31.4997 31.7893 31.7936 31.7314 32.0795 31.6492C32.1459 31.3585 32.1864 31.0635 32.2014 30.7677C31.8833 30.8237 31.5574 30.8508 31.2272 30.8471ZM32.3551 30.7383C32.3426 31.0266 32.3064 31.3142 32.2465 31.5981C32.507 31.5135 32.7601 31.4085 33.0033 31.2842C33.0879 31.0239 33.1506 30.759 33.1919 30.4923C32.9216 30.5966 32.6418 30.6792 32.3551 30.7383ZM33.3553 30.4261C33.3205 30.6801 33.2668 30.9327 33.1942 31.1818C33.4089 31.0606 33.615 30.924 33.8108 30.773C33.9075 30.5424 33.986 30.3078 34.0469 30.071C33.8257 30.2058 33.5945 30.3246 33.3553 30.4261ZM34.2317 29.953C34.1847 30.1626 34.1244 30.3708 34.0505 30.5763C34.2065 30.4401 34.3548 30.2942 34.4943 30.139C34.5362 30.057 34.5763 29.9735 34.6143 29.8885C34.6626 29.7803 34.7069 29.6714 34.7471 29.5619C34.5833 29.7027 34.4112 29.8333 34.2317 29.953ZM34.9792 29.3501C34.9464 29.4562 34.9101 29.5618 34.8702 29.6668C34.9939 29.4911 35.1074 29.3063 35.2094 29.1129C35.1351 29.1945 35.0583 29.2736 34.9792 29.3501ZM34.1904 30.6554C34.1076 30.729 34.0226 30.8001 33.9356 30.8682C33.8917 30.9707 33.8443 31.0723 33.7935 31.173C33.9355 31.0105 34.0682 30.8378 34.1904 30.6554ZM33.3699 31.6032C33.4204 31.5259 33.4692 31.4468 33.5161 31.3659C33.5755 31.2633 33.631 31.1595 33.6825 31.0547C33.5047 31.1778 33.3197 31.2898 33.1285 31.3903C33.0596 31.594 32.9777 31.795 32.8825 31.9919C33.0521 31.8728 33.2149 31.7431 33.3699 31.6032ZM32.6235 32.1625C32.744 31.9431 32.8469 31.7178 32.9323 31.4883C32.6982 31.5993 32.4558 31.6934 32.2073 31.7695C32.146 32.0185 32.0661 32.2643 31.9676 32.5046C32.1937 32.4064 32.4131 32.2921 32.6235 32.1625ZM31.8804 32.705C32.081 32.6251 32.2767 32.533 32.4664 32.4292C32.4042 32.5279 32.3383 32.6251 32.2685 32.7208C32.2133 32.7966 32.1564 32.8704 32.0978 32.9423C31.9291 33.065 31.7537 33.177 31.5726 33.2777C31.688 33.0917 31.7906 32.9005 31.8804 32.705ZM31.7671 32.5866C31.8786 32.3363 31.9688 32.0793 32.0378 31.8183C31.7581 31.8938 31.4713 31.9468 31.18 31.9758C31.1373 32.2611 31.0712 32.5435 30.9818 32.8197C31.2496 32.7627 31.5123 32.6847 31.7671 32.5866ZM30.9248 32.986C31.1799 32.9363 31.4306 32.8681 31.675 32.7821C31.5659 33.0013 31.4401 33.2147 31.2972 33.4203C31.0744 33.5272 30.8445 33.618 30.6093 33.692C30.7325 33.4633 30.8377 33.2273 30.9248 32.986ZM30.8103 32.853C30.9069 32.5708 30.9782 32.2817 31.0241 31.989C30.7019 32.0115 30.375 32.0046 30.0471 31.9664C30.0341 32.2918 29.9911 32.6153 29.9188 32.9326C30.2192 32.932 30.5175 32.905 30.8103 32.853ZM29.8818 33.0841C30.1744 33.0856 30.4651 33.0628 30.7512 33.0169C30.6551 33.2693 30.5384 33.5155 30.4013 33.7527C30.1377 33.8237 29.8684 33.8739 29.5961 33.9026C29.714 33.6373 29.8094 33.3635 29.8818 33.0841ZM29.7631 32.9305C29.8388 32.6077 29.8833 32.2782 29.8956 31.9466C29.6025 31.904 29.3091 31.8361 29.0181 31.7419L28.7846 31.6664C28.8233 32.0475 28.8198 32.4296 28.7759 32.8059C29.1039 32.8801 29.4344 32.9211 29.7631 32.9305ZM28.7561 32.9568C29.0782 33.0289 29.4025 33.0698 29.7253 33.081C29.649 33.3672 29.5477 33.6475 29.4221 33.918C29.1254 33.9392 28.8259 33.9349 28.5271 33.9042C28.6323 33.5963 28.709 33.2791 28.7561 32.9568ZM28.6269 32.7698C28.6699 32.3884 28.6704 32.001 28.6261 31.615L27.3682 31.2078C27.4662 31.59 27.5192 31.9762 27.5299 32.36L27.8181 32.4879C28.0839 32.6058 28.3543 32.6994 28.6269 32.7698ZM27.5319 32.5268L27.7563 32.6264C28.0359 32.7504 28.3205 32.8484 28.6074 32.9214C28.5604 33.2498 28.4817 33.5729 28.3725 33.886C28.0466 33.8424 27.722 33.7672 27.4036 33.6592C27.4867 33.2895 27.5303 32.9099 27.5319 32.5268ZM27.368 33.8072C27.2874 34.1228 27.1779 34.4304 27.0409 34.7257C27.3349 34.7873 27.6324 34.8228 27.9298 34.8326C28.0831 34.5766 28.2132 34.3085 28.3191 34.0317C27.9993 33.987 27.6809 33.9125 27.368 33.8072ZM28.4745 34.0512C28.3731 34.3214 28.2495 34.5838 28.1045 34.8353C28.3783 34.8351 28.6513 34.8132 28.9211 34.77C29.0823 34.5484 29.2241 34.3157 29.3461 34.0748C29.0568 34.0907 28.7652 34.0831 28.4745 34.0512ZM29.5221 34.0621C29.4101 34.293 29.2807 34.5167 29.1343 34.7312C29.3758 34.6822 29.6139 34.6159 29.8467 34.5327C30.0103 34.3432 30.1578 34.1441 30.2892 33.9375C30.0372 33.9975 29.7808 34.0392 29.5221 34.0621ZM30.5016 33.8824C30.3917 34.0672 30.2697 34.2468 30.1356 34.4196C30.3261 34.3383 30.5122 34.2453 30.6927 34.1407C30.7585 34.0754 30.8229 34.0079 30.8858 33.9383C30.9651 33.8505 31.0409 33.7608 31.1129 33.6692C30.9135 33.7526 30.7093 33.8237 30.5016 33.8824ZM31.3994 33.5393C31.3351 33.6304 31.2676 33.7199 31.1968 33.8078C31.3695 33.6784 31.5353 33.5371 31.6928 33.3841C31.5966 33.439 31.4987 33.4908 31.3994 33.5393ZM30.2437 34.5381C30.1422 34.5826 30.0395 34.6238 29.9358 34.6618C29.8624 34.7455 29.7859 34.8275 29.7063 34.9075C29.8916 34.7968 30.0711 34.6737 30.2437 34.5381ZM29.1701 35.1862C29.2423 35.1281 29.3133 35.0677 29.383 35.0051C29.4712 34.9261 29.556 34.8446 29.6373 34.7611C29.4303 34.8232 29.2198 34.8727 29.0072 34.9094C28.8786 35.0818 28.7385 35.2475 28.587 35.4054C28.7849 35.3444 28.9796 35.2713 29.1701 35.1862ZM28.2878 35.4879C28.4703 35.3165 28.6378 35.1339 28.7901 34.9422C28.5333 34.9757 28.2738 34.9904 28.014 34.9863C27.8785 35.2042 27.7264 35.4132 27.5583 35.6113C27.8036 35.5876 28.0475 35.5464 28.2878 35.4879ZM27.4132 35.7752C27.6286 35.7609 27.8431 35.7335 28.0557 35.6933C27.9659 35.768 27.873 35.8402 27.7769 35.9097C27.7011 35.9646 27.6243 36.0171 27.5466 36.0672C27.3481 36.1321 27.1466 36.1846 26.9433 36.2247C27.1105 36.0835 27.2672 35.9333 27.4132 35.7752ZM27.3421 35.6277C27.5257 35.4241 27.6911 35.2075 27.8377 34.9805C27.5483 34.9663 27.2591 34.9283 26.9731 34.8663C26.844 35.1245 26.6936 35.3726 26.5229 35.6077C26.7954 35.6359 27.0693 35.6425 27.3421 35.6277ZM26.4172 35.7483C26.6752 35.7795 26.9348 35.7918 27.1939 35.7852C27.0223 35.9601 26.8365 36.1241 26.637 36.2757C26.3919 36.3089 26.1449 36.3244 25.8983 36.3224C26.0864 36.1429 26.2595 35.9509 26.4172 35.7483ZM25.7369 36.4703C25.575 36.6124 25.4034 36.7455 25.2223 36.8686C25.4286 36.8499 25.6345 36.8187 25.8388 36.7748C25.9214 36.733 26.0034 36.6887 26.0846 36.6419C26.1875 36.5828 26.2874 36.5207 26.3846 36.4557C26.1689 36.4737 25.9526 36.4785 25.7369 36.4703ZM26.6973 36.4203C26.608 36.4871 26.5161 36.5514 26.4215 36.6132C26.6258 36.5433 26.8271 36.46 27.0243 36.3631C26.9158 36.3856 26.8067 36.4046 26.6973 36.4203ZM25.2883 37.0145C25.1779 37.0256 25.0675 37.0333 24.9571 37.0375C24.8613 37.0945 24.7631 37.1489 24.6627 37.2005C24.8732 37.1522 25.0821 37.0903 25.2883 37.0145ZM28.1091 35.8458C28.1966 35.7746 28.2812 35.7011 28.3629 35.6255C28.47 35.5986 28.5763 35.5683 28.6817 35.5347C28.4961 35.6514 28.3048 35.7552 28.1091 35.8458ZM32.5641 32.5586C32.6254 32.4637 32.6833 32.3676 32.7377 32.2703C32.8314 32.2115 32.9234 32.1498 33.0135 32.0851C32.8728 32.2539 32.7226 32.4117 32.5641 32.5586ZM35.7821 28.0594C35.8108 27.9504 35.836 27.8413 35.8575 27.7321C35.9284 27.6474 35.9967 27.5605 36.0623 27.4713C35.9808 27.6749 35.887 27.8712 35.7821 28.0594ZM19.8068 37.8441C19.6985 37.8206 19.591 37.7939 19.4847 37.7638C19.3759 37.7886 19.2657 37.8101 19.1542 37.8282C19.3693 37.8472 19.5872 37.8527 19.8068 37.8441ZM18.556 37.7397C18.6485 37.7349 18.7416 37.7277 18.8349 37.7179C18.9528 37.7056 19.0694 37.6894 19.1845 37.6694C18.9803 37.5984 18.7807 37.5152 18.5869 37.4202C18.3812 37.4844 18.1701 37.5364 17.9545 37.5754C18.1507 37.6419 18.3515 37.697 18.556 37.7397ZM17.6637 37.4668C17.9125 37.4351 18.1557 37.3855 18.392 37.3197C17.2428 36.6966 16.3217 35.6511 15.8855 34.3135L14.4264 29.839C13.6571 27.4798 13.4856 24.9929 13.8951 22.5917C13.8211 22.5829 13.7468 22.5759 13.6723 22.5707C13.1594 24.7214 13.1229 26.9789 13.593 29.1824L14.5748 33.7845C14.9427 35.5092 16.1408 36.8457 17.6637 37.4668ZM13.5179 22.5624C13.0059 24.7267 12.9714 26.9974 13.4443 29.2139L14.4259 33.816C14.7843 35.4957 15.9073 36.8176 17.3547 37.497C17.2381 37.5049 17.1204 37.5089 17.0016 37.5089C16.9078 37.5089 16.8147 37.5064 16.7221 37.5015C14.841 36.8983 13.3975 35.2374 13.1776 33.1532L12.684 28.4742C12.4722 26.4656 12.6697 24.4563 13.243 22.5592H13.3445C13.4025 22.5592 13.4602 22.5603 13.5179 22.5624ZM13.7087 22.4214C13.7798 22.4267 13.8508 22.4336 13.9213 22.4421C13.9458 22.3068 13.9722 22.1717 14.0004 22.0369C13.942 22.0192 13.8831 22.0026 13.8239 21.9872C13.7834 22.1313 13.7449 22.2761 13.7087 22.4214ZM13.676 21.9512C13.633 22.1042 13.5925 22.2579 13.5543 22.4121C13.4846 22.4091 13.4146 22.4076 13.3445 22.4076H13.2897C13.3423 22.2398 13.3979 22.073 13.4565 21.9071C13.5301 21.9201 13.6034 21.9348 13.676 21.9512ZM13.8657 21.8414C13.9216 21.856 13.977 21.8716 14.0322 21.8881C14.058 21.7708 14.0852 21.6536 14.1138 21.5368C14.0692 21.5145 14.0242 21.493 13.9788 21.4721C13.9395 21.5948 13.9018 21.7179 13.8657 21.8414ZM13.8389 21.4104C13.7967 21.5415 13.7564 21.6731 13.7178 21.8052C13.6484 21.7895 13.5786 21.7751 13.5083 21.7623C13.5596 21.6217 13.6129 21.4817 13.6684 21.3425C13.7258 21.3641 13.7826 21.3868 13.8389 21.4104ZM14.0262 21.3269C14.0682 21.3461 14.11 21.3659 14.1515 21.3862C14.1775 21.2841 14.2047 21.1823 14.2329 21.0807C14.2004 21.0572 14.1678 21.0342 14.1347 21.0115C14.0974 21.1162 14.0612 21.2215 14.0262 21.3269ZM14.0041 20.925C13.9634 21.0382 13.9242 21.1518 13.8863 21.2658C13.833 21.2436 13.7793 21.2223 13.7253 21.2019C13.7742 21.0828 13.8246 20.9643 13.8765 20.8464C13.9195 20.872 13.962 20.8982 14.0041 20.925ZM14.1881 20.8642C14.2179 20.8843 14.2476 20.9048 14.2769 20.9256C14.3026 20.8369 14.3291 20.7484 14.3564 20.6601C14.3346 20.6382 14.3124 20.6165 14.2902 20.595C14.2553 20.6845 14.2213 20.7742 14.1881 20.8642ZM14.1705 20.4837C14.1318 20.5818 14.0941 20.6803 14.0574 20.7792C14.0182 20.7545 13.9787 20.7305 13.9388 20.707C13.9847 20.6056 14.0318 20.5048 14.0799 20.4044C14.1105 20.4304 14.1407 20.4569 14.1705 20.4837ZM14.3505 20.4428C14.3697 20.4609 14.3888 20.4791 14.4077 20.4974C14.4323 20.421 14.4575 20.3449 14.4833 20.2689C14.4703 20.2511 14.4573 20.2334 14.4442 20.2158C14.4123 20.2912 14.3811 20.3669 14.3505 20.4428ZM14.3374 20.0783C14.301 20.1632 14.2654 20.2485 14.2306 20.3339C14.2035 20.3101 14.1761 20.2867 14.1485 20.2635C14.1909 20.1775 14.2341 20.0917 14.2782 20.0065C14.2982 20.0303 14.3179 20.0542 14.3374 20.0783ZM14.1709 19.8832C14.144 19.8535 14.1167 19.824 14.089 19.7949C14.0306 19.8897 13.9733 19.9851 13.917 20.0811C13.9543 20.1086 13.991 20.1367 14.0274 20.1653C14.0743 20.0708 14.122 19.9768 14.1709 19.8832ZM13.9592 20.3048C13.9201 20.2737 13.8805 20.2432 13.8404 20.2133C13.7763 20.3252 13.7137 20.4379 13.6526 20.5512C13.7043 20.5771 13.7554 20.604 13.806 20.6317C13.8558 20.5221 13.9068 20.4132 13.9592 20.3048ZM13.7438 20.7705C13.6903 20.741 13.636 20.7126 13.5812 20.6852C13.5115 20.8179 13.4438 20.9514 13.3781 21.086C13.4466 21.106 13.5146 21.1276 13.5821 21.1505C13.6342 21.0232 13.6882 20.8966 13.7438 20.7705ZM13.5251 21.2913C13.4545 21.2674 13.3832 21.2451 13.3112 21.2246C13.2357 21.3834 13.1628 21.5437 13.0929 21.705L13.1473 21.7107C13.2171 21.718 13.2866 21.7268 13.3557 21.7371C13.4098 21.5877 13.4663 21.4391 13.5251 21.2913ZM13.3037 21.8828C13.2466 21.8746 13.1891 21.8675 13.1315 21.8614L13.0305 21.8509C12.953 22.035 12.8792 22.2206 12.8091 22.4076H13.1304C13.185 22.2317 13.2428 22.0566 13.3037 21.8828ZM13.0842 22.5592H12.7532C12.1639 24.1846 11.8542 25.9139 11.8542 27.6752V32.38C11.8542 34.9149 13.6998 37.0203 16.1253 37.4348C14.4623 36.6888 13.2307 35.1066 13.0263 33.169L12.5327 28.49C12.3204 26.4767 12.5152 24.4625 13.0842 22.5592ZM12.6468 22.4076C12.7182 22.215 12.7935 22.0239 12.8726 21.8343L7.49932 21.2717C4.69083 20.9775 2.62627 18.5484 2.75934 15.7729C2.61278 16.249 2.53391 16.7547 2.53391 17.2787C2.53391 20.1113 4.83851 22.4076 7.68137 22.4076H12.6468ZM2.97059 15.2081C2.95602 15.2992 2.94381 15.3912 2.93402 15.484C2.63686 18.301 4.68793 20.8248 7.51523 21.1209L12.9344 21.6884C13.0072 21.5191 13.083 21.3511 13.1619 21.1845C13.106 21.1704 13.0495 21.1574 12.9928 21.1454L7.45344 19.9721C4.90882 19.4332 3.18214 17.1581 3.25695 14.6559C3.15076 14.8333 3.05503 15.0177 2.97059 15.2081ZM3.4239 14.3951C3.21584 16.9282 4.9239 19.2815 7.48508 19.8239L13.0245 20.9971C13.0931 21.0117 13.1613 21.0276 13.2289 21.045C13.2983 20.9021 13.3701 20.7601 13.4441 20.6194C13.2778 20.5428 13.1061 20.4757 12.9301 20.4188L7.5441 18.675C5.35924 17.9677 3.95078 15.9803 3.88327 13.8169C3.71677 13.9981 3.56316 14.1913 3.4239 14.3951ZM3.88104 13.5983C3.73051 13.7526 3.58936 13.9161 3.45852 14.0877C3.47505 13.9722 3.49562 13.8565 3.52032 13.7407C3.53982 13.6493 3.56163 13.559 3.58571 13.4699C3.68964 13.2894 3.80415 13.1161 3.92831 12.9507C3.8989 13.1672 3.88333 13.3835 3.88104 13.5983ZM4.03292 13.6606C4.03575 15.8201 5.41807 17.8273 7.59112 18.5308L12.9771 20.2746C13.1616 20.3343 13.3413 20.4047 13.5154 20.4852C13.5807 20.364 13.6478 20.2436 13.7163 20.124C13.4751 19.9563 13.2169 19.8105 12.9443 19.6896L7.77081 17.3945C5.98107 16.6006 4.85054 14.9396 4.65559 13.129C4.43401 13.2897 4.2258 13.4676 4.03292 13.6606ZM4.6397 12.9539C4.42685 13.1028 4.22551 13.2669 4.03724 13.4446C4.04734 13.2002 4.07522 12.9544 4.12171 12.7087C4.28173 12.5205 4.45493 12.3441 4.63973 12.1811C4.62054 12.4399 4.62079 12.6982 4.6397 12.9539ZM4.79856 13.029C4.9615 14.8201 6.06669 16.4726 7.83269 17.2561L13.0063 19.5512C13.2837 19.6743 13.5468 19.8223 13.7929 19.9923C13.8537 19.8886 13.9159 19.7856 13.9793 19.6833C13.6988 19.4073 13.382 19.1657 13.0348 18.9659L8.13034 16.1446C6.75274 15.3521 5.86732 14.0364 5.58093 12.5948C5.30659 12.7171 5.04496 12.8627 4.79856 13.029ZM5.5528 12.4414C5.28478 12.5586 5.02837 12.6974 4.78575 12.8553C4.77048 12.5858 4.77657 12.3136 4.80496 12.0414C5.01695 11.8695 5.24257 11.7144 5.47967 11.5778C5.48029 11.868 5.50493 12.1568 5.5528 12.4414ZM5.48223 11.4021C5.49026 11.1457 5.51712 10.8889 5.56336 10.6335C5.36264 10.7762 5.17204 10.9334 4.99327 11.1038C4.92121 11.3433 4.86765 11.585 4.83193 11.827C5.03772 11.67 5.25506 11.5279 5.48223 11.4021ZM4.66045 11.9636C4.6853 11.75 4.72351 11.5366 4.77551 11.3242C4.63442 11.476 4.50212 11.6367 4.37961 11.8057C4.34634 11.8918 4.3152 11.9792 4.28624 12.0681C4.24953 12.1806 4.21695 12.2935 4.18839 12.4066C4.33668 12.2494 4.49437 12.1015 4.66045 11.9636ZM3.97977 12.6414C4.0013 12.5322 4.02639 12.4232 4.05514 12.3143C3.95026 12.5023 3.8566 12.6985 3.77521 12.9019C3.84074 12.8129 3.90897 12.7259 3.97977 12.6414ZM4.62764 11.2606C4.7024 11.1785 4.77963 11.099 4.85919 11.022C4.89215 10.9154 4.92869 10.8092 4.96886 10.7036C4.84437 10.8802 4.73025 11.0661 4.62764 11.2606ZM5.34502 10.2318C5.30263 10.3144 5.26224 10.3987 5.22391 10.4844C5.17569 10.5923 5.13151 10.701 5.0913 10.8103C5.25514 10.6695 5.42733 10.539 5.60679 10.4192C5.65392 10.2094 5.71434 10.0011 5.78837 9.79533C5.63246 9.93116 5.48432 10.0769 5.34502 10.2318ZM5.9033 9.50341C5.94711 9.40121 5.9944 9.29982 6.04521 9.19933C5.90346 9.36145 5.77099 9.53378 5.64898 9.71574C5.73162 9.64218 5.81645 9.57141 5.9033 9.50341ZM3.31634 14.0094C3.29916 14.1208 3.28563 14.232 3.27567 14.3428C3.21409 14.4344 3.1553 14.5281 3.09944 14.6236C3.15907 14.4126 3.2317 14.2077 3.31634 14.0094ZM17.3078 37.6518C17.4206 37.6455 17.5324 37.6355 17.6433 37.6222C17.7459 37.6632 17.8499 37.701 17.9552 37.7356C17.7359 37.7213 17.5197 37.6931 17.3078 37.6518ZM9.59324 5.83525C9.69475 5.7907 9.79757 5.7494 9.90145 5.71138C9.97486 5.62752 10.0515 5.54549 10.131 5.46545C9.94561 5.5762 9.76594 5.69949 9.59324 5.83525ZM10.6672 5.18672C10.5951 5.24476 10.5242 5.30503 10.4545 5.36755C10.3662 5.44675 10.2814 5.5283 10.1999 5.61201C10.4071 5.54974 10.6179 5.50018 10.8308 5.46351C10.9595 5.29099 11.0996 5.12516 11.2512 4.96719C11.053 5.02827 10.858 5.10146 10.6672 5.18672ZM11.4754 4.74712C11.5573 4.6713 11.6421 4.59765 11.7298 4.52628C11.5335 4.61716 11.3417 4.72113 11.1556 4.83825C11.2613 4.8045 11.368 4.77412 11.4754 4.74712ZM11.5504 4.88475C11.3679 5.05627 11.2003 5.23887 11.0479 5.43071C11.3049 5.39723 11.5645 5.38242 11.8245 5.38663C11.9601 5.16863 12.1122 4.95953 12.2804 4.76141C12.0348 4.78506 11.7908 4.82621 11.5504 4.88475ZM12.4964 4.74513C12.3129 4.94877 12.1474 5.16538 12.0008 5.39241C12.2903 5.40668 12.5795 5.44464 12.8655 5.50676C12.9946 5.24853 13.1451 5.00041 13.3158 4.76529C13.0433 4.73696 12.7693 4.73029 12.4964 4.74513ZM13.4891 4.7863C13.3099 5.02495 13.1523 5.27804 13.0179 5.54223C13.3314 5.62012 13.6403 5.72739 13.9405 5.86472C14.0537 5.55926 14.1949 5.26481 14.3621 4.98536C14.0761 4.89334 13.7839 4.82704 13.4891 4.7863ZM14.5095 5.03526C14.3373 5.31891 14.1929 5.61872 14.0784 5.93024C14.3436 6.06097 14.6013 6.21566 14.8488 6.39479L15.0486 6.53938C15.1299 6.16495 15.2517 5.80259 15.4102 5.45818C15.1211 5.28634 14.8193 5.14544 14.5095 5.03526ZM15.5407 5.53843C15.3814 5.88794 15.261 6.25631 15.1835 6.63707L16.2537 7.41188C16.279 7.01824 16.3483 6.63458 16.4571 6.26631L16.2214 6.05489C16.0056 5.86122 15.7777 5.68912 15.5407 5.53843ZM16.5829 6.37921C16.4804 6.74549 16.4181 7.12695 16.4004 7.51799L17.5385 8.34194V7.99275C17.5385 7.75086 17.5548 7.51277 17.5864 7.27952L16.5829 6.37921ZM16.3453 2.89114C16.4562 2.89161 16.5669 2.89556 16.6772 2.90292C16.7785 2.8561 16.8819 2.81221 16.9873 2.77137C16.7728 2.79738 16.5584 2.83716 16.3453 2.89114Z" fill="white"/>
</svg>
