<svg width="105" height="40" viewBox="0 0 105 40" fill="none" xmlns="http://www.w3.org/2000/svg">
<path d="M21.3991 20.2842C21.3991 18.8239 22.2688 17.8066 23.5979 17.8066C24.927 17.8066 25.7966 18.8239 25.7966 20.2842C25.7966 21.7281 24.927 22.7617 23.5979 22.7617C22.2688 22.7617 21.3991 21.7281 21.3991 20.2842Z" fill="white"/>
<path d="M32.6395 17.7412C31.376 17.7412 30.5228 18.7256 30.5228 20.0711C30.5228 21.4329 31.3924 22.4502 32.6395 22.4502C34.0178 22.4502 34.9366 21.4165 34.9366 20.0711C34.9366 18.7421 34.0178 17.7412 32.6395 17.7412Z" fill="white"/>
<path d="M39.9638 20.2842C39.9638 18.8239 40.8335 17.8066 42.1625 17.8066C43.4916 17.8066 44.3612 18.8239 44.3612 20.2842C44.3612 21.7281 43.4916 22.7617 42.1625 22.7617C40.8335 22.7617 39.9638 21.7281 39.9638 20.2842Z" fill="white"/>
<path d="M53.3353 20.3008C53.3353 18.8405 54.2214 17.8232 55.6161 17.8232C57.0108 17.8232 57.8476 18.8569 57.8476 20.3008C57.8476 21.7446 57.0108 22.7619 55.6161 22.7619C54.2214 22.7619 53.3353 21.7611 53.3353 20.3008Z" fill="white"/>
<path fill-rule="evenodd" clip-rule="evenodd" d="M52.5 37.4495C80.3796 37.4495 102.981 29.5193 102.981 19.7369C102.981 9.95456 80.3796 2.02441 52.5 2.02441C24.6203 2.02441 2.01924 9.95456 2.01924 19.7369C2.01924 29.5193 24.6203 37.4495 52.5 37.4495ZM18.1557 24.3532V12.1459H16.1538V24.3532H18.1557ZM19.3809 20.284C19.3809 22.778 21.0546 24.5501 23.5979 24.5501C26.1412 24.5501 27.8149 22.778 27.8149 20.284C27.8149 17.7901 26.1412 16.0181 23.5979 16.0181C21.0546 16.0181 19.3809 17.7901 19.3809 20.284ZM32.2949 24.1891C30.0141 24.1891 28.4881 22.4827 28.4881 20.12C28.4881 17.7409 30.0469 15.9852 32.3605 15.9852C33.5584 15.9852 34.5757 16.4939 35.0679 17.3471L35.1828 16.2478H36.9549V23.943C36.9549 26.6174 35.2813 28.3402 32.6559 28.3402C30.4243 28.3402 28.7999 26.962 28.5374 24.8454H30.5556C30.6704 25.9119 31.5237 26.519 32.7707 26.519C34.1655 26.519 35.0023 25.6329 35.0023 24.3039V22.9257C34.4936 23.7132 33.4763 24.1891 32.2949 24.1891ZM37.9455 20.284C37.9455 22.778 39.6192 24.5501 42.1625 24.5501C44.7059 24.5501 46.3795 22.778 46.3795 20.284C46.3795 17.7901 44.7059 16.0181 42.1625 16.0181C39.6192 16.0181 37.9455 17.7901 37.9455 20.284ZM49.7438 13.3929C49.7438 14.0656 49.2023 14.5906 48.5459 14.5906C47.8732 14.5906 47.3645 14.0656 47.3645 13.3929C47.3645 12.7365 47.8732 12.2115 48.5459 12.2115C49.2023 12.2115 49.7438 12.7365 49.7438 13.3929ZM49.5468 16.2478V24.3532H47.5451V16.2478H49.5468ZM51.3006 28.1105H53.2533V23.2374C53.7619 24.0742 54.8612 24.5664 56.0755 24.5664C58.4711 24.5664 59.8987 22.7288 59.8658 20.202C59.8166 17.6588 58.3563 16.0016 56.0591 16.0016C54.8285 16.0016 53.7127 16.5431 53.2204 17.4784L53.1056 16.2478H51.3006V28.1105ZM63.623 24.5664C61.6868 24.5664 60.4398 23.5327 60.3742 21.9248H62.1955C62.1955 22.6304 62.7041 23.0405 63.5902 23.0405C64.3286 23.0405 64.9357 22.7452 64.9357 22.1053C64.9357 21.6459 64.6075 21.3998 64.0824 21.2521L62.6714 20.8911C61.1125 20.4809 60.5054 19.6113 60.5054 18.5612C60.5054 17.0189 61.8017 16.0016 63.541 16.0016C65.2966 16.0016 66.4945 17.0189 66.5601 18.6269H64.7388C64.7388 17.9214 64.2465 17.4948 63.4918 17.4948C62.7698 17.4948 62.3267 17.8885 62.3267 18.4464C62.3267 18.9715 62.7369 19.1847 63.3441 19.3488L64.7716 19.6934C66.1007 20.0215 66.8226 20.8091 66.8226 21.9741C66.8226 23.5492 65.5264 24.5664 63.623 24.5664ZM70.9751 24.5664C72.0741 24.5664 73.1241 24.0578 73.6001 23.3031L73.7317 24.3532H75.6021V16.2478H73.6001V20.4974C73.6001 21.9576 73.0422 22.778 71.7297 22.778C70.7126 22.778 70.007 22.2858 70.007 20.6122V16.2478H68.0049V21.3177C68.0049 23.2539 69.0551 24.5664 70.9751 24.5664ZM79.3709 19.6934V24.3532H77.3689V16.2478H79.2064L79.3051 17.1666C79.7811 16.4447 80.6344 16.0016 81.5857 16.0016C82.9311 16.0016 83.8173 16.5923 84.2604 17.544C84.6545 16.5923 85.6226 16.0016 86.8532 16.0016C88.8223 16.0016 89.8555 17.1831 89.8555 19.0535V24.3532H87.9193V19.5129C87.9193 18.3644 87.2963 17.7573 86.3282 17.7573C85.3762 17.7573 84.6216 18.3808 84.6216 19.7098V24.3532H82.6686V19.5129C82.6686 18.3644 82.0456 17.7573 81.0936 17.7573C80.1423 17.7573 79.3709 18.3808 79.3709 19.6934Z" fill="white"/>
</svg>
