<svg width="123" height="30" viewBox="0 0 123 30" fill="none" xmlns="http://www.w3.org/2000/svg">
<g clip-path="url(#clip0_6007_789)">
<path d="M36.0782 21.185H44.8288V18.5509H39.1883V8.62891H36.0782V21.185Z" fill="white"/>
<path d="M50.0132 19.4282C48.7656 19.4282 48.1155 18.3395 48.1155 16.7063C48.1155 15.0731 48.7656 13.9668 50.0132 13.9668C51.2608 13.9668 51.9285 15.0731 51.9285 16.7063C51.9285 18.3395 51.2608 19.4282 50.0132 19.4282ZM50.0308 21.4653C52.93 21.4653 54.8278 19.4107 54.8278 16.7063C54.8278 14.0019 52.93 11.9473 50.0308 11.9473C47.149 11.9473 45.2162 14.0019 45.2162 16.7063C45.2162 19.4107 47.149 21.4653 50.0308 21.4653Z" fill="white"/>
<path d="M59.8462 24.2926C61.1816 24.2926 62.3589 23.9941 63.1496 23.2916C63.87 22.6419 64.3444 21.6585 64.3444 20.3063V12.1931H61.6033V13.159H61.5682C61.041 12.4038 60.2327 11.9297 59.0379 11.9297C56.8063 11.9297 55.26 13.7912 55.26 16.4253C55.26 19.1824 57.1402 20.6926 59.1609 20.6926C60.2503 20.6926 60.9356 20.2536 61.4627 19.6565H61.533V20.5521C61.533 21.6409 61.0234 22.2731 59.811 22.2731C58.8622 22.2731 58.3877 21.8692 58.2296 21.3951H55.4533C55.7344 23.2741 57.3686 24.2926 59.8462 24.2926ZM59.8286 18.5677C58.7567 18.5677 58.0539 17.6897 58.0539 16.3375C58.0539 14.9677 58.7567 14.0897 59.8286 14.0897C61.0234 14.0897 61.656 15.1082 61.656 16.3199C61.656 17.5843 61.0762 18.5677 59.8286 18.5677Z" fill="white"/>
<path d="M69.9808 19.4282C68.7332 19.4282 68.0831 18.3395 68.0831 16.7063C68.0831 15.0731 68.7332 13.9668 69.9808 13.9668C71.2283 13.9668 71.8961 15.0731 71.8961 16.7063C71.8961 18.3395 71.2283 19.4282 69.9808 19.4282ZM69.9983 21.4653C72.8976 21.4653 74.795 19.4107 74.795 16.7063C74.795 14.0019 72.8976 11.9473 69.9983 11.9473C67.1166 11.9473 65.1838 14.0019 65.1838 16.7063C65.1838 19.4107 67.1166 21.4653 69.9983 21.4653Z" fill="white"/>
<path d="M75.6318 21.185H78.496V12.1938H75.6318V21.185ZM75.6318 10.947H78.496V8.62891H75.6318V10.947Z" fill="white"/>
<path d="M79.7384 24.1521H82.6025V20.2536H82.6377C83.2 21.0087 84.0258 21.4653 85.1855 21.4653C87.5401 21.4653 89.104 19.6038 89.104 16.6887C89.104 13.9843 87.6455 11.9297 85.2558 11.9297C84.0258 11.9297 83.1473 12.4741 82.5323 13.2819H82.4795V12.1931H79.7384V24.1521ZM84.4475 19.2526C83.2175 19.2526 82.5147 18.2516 82.5147 16.7941C82.5147 15.3365 83.1473 14.2302 84.3948 14.2302C85.6248 14.2302 86.2047 15.2487 86.2047 16.7941C86.2047 18.3219 85.537 19.2526 84.4475 19.2526Z" fill="white"/>
<path d="M93.767 21.4653C96.1216 21.4653 97.8612 20.4468 97.8612 18.4799C97.8612 16.1794 95.9986 15.7755 94.4172 15.5121C93.275 15.3014 92.2559 15.2136 92.2559 14.5814C92.2559 14.0194 92.8006 13.756 93.5034 13.756C94.2942 13.756 94.8389 14.0019 94.9443 14.8097H97.58C97.4394 13.036 96.0689 11.9297 93.521 11.9297C91.3949 11.9297 89.6377 12.9131 89.6377 14.8097C89.6377 16.917 91.307 17.3385 92.8709 17.6019C94.0657 17.8126 95.1552 17.9004 95.1552 18.7082C95.1552 19.2877 94.6104 19.6038 93.7494 19.6038C92.8006 19.6038 92.2032 19.1648 92.0977 18.2692H89.3917C89.4796 20.2536 91.1313 21.4653 93.767 21.4653Z" fill="white"/>
<path d="M101.752 21.448C102.999 21.448 103.79 20.9563 104.44 20.0782H104.493V21.1846H107.234V12.1934H104.37V17.2158C104.37 18.287 103.772 19.0246 102.788 19.0246C101.875 19.0246 101.435 18.4802 101.435 17.4968V12.1934H98.5889V18.0938C98.5889 20.0958 99.6783 21.448 101.752 21.448Z" fill="white"/>
<path d="M108.48 21.1843H111.344V16.1443C111.344 15.0731 111.871 14.318 112.768 14.318C113.629 14.318 114.033 14.8799 114.033 15.8458V21.1843H116.897V16.1443C116.897 15.0731 117.406 14.318 118.32 14.318C119.181 14.318 119.585 14.8799 119.585 15.8458V21.1843H122.449V15.3365C122.449 13.317 121.43 11.9297 119.392 11.9297C118.232 11.9297 117.266 12.4214 116.563 13.5102H116.528C116.071 12.5443 115.175 11.9297 113.998 11.9297C112.697 11.9297 111.836 12.5443 111.274 13.4751H111.221V12.1931H108.48V21.1843Z" fill="white"/>
<path d="M18.6037 1.4469L15.7242 0.675781L13.2975 9.72669L11.1067 1.55547L8.22715 2.32659L10.5942 11.155L4.69849 5.26284L2.59051 7.36956L9.05733 13.8326L1.00393 11.676L0.232361 14.5538L9.03171 16.9101C8.93096 16.4759 8.87766 16.0234 8.87766 15.5585C8.87766 12.2675 11.5471 9.59973 14.8399 9.59973C18.1328 9.59973 20.8022 12.2675 20.8022 15.5585C20.8022 16.0204 20.7496 16.4701 20.6501 16.9018L28.6471 19.0433L29.4186 16.1655L20.5843 13.7997L28.6382 11.643L27.8666 8.76515L19.0326 11.1308L24.9283 5.23865L22.8203 3.13192L16.4432 9.50527L18.6037 1.4469Z" fill="white"/>
<path d="M20.6422 16.9346C20.3954 17.9777 19.8742 18.9148 19.159 19.6656L24.9524 25.4557L27.0604 23.3489L20.6422 16.9346Z" fill="white"/>
<path d="M19.1004 19.7266C18.3766 20.4654 17.462 21.0167 16.4362 21.3008L18.5444 29.1638L21.4239 28.3926L19.1004 19.7266Z" fill="white"/>
<path d="M16.3287 21.3298C15.8528 21.4521 15.354 21.5171 14.8399 21.5171C14.2892 21.5171 13.7559 21.4424 13.2497 21.3027L11.1396 29.1728L14.0191 29.9439L16.3287 21.3298Z" fill="white"/>
<path d="M13.1479 21.2733C12.1378 20.9751 11.2394 20.4167 10.5304 19.6758L4.72272 25.48L6.8307 27.5868L13.1479 21.2733Z" fill="white"/>
<path d="M10.482 19.625C9.7851 18.8793 9.27751 17.9548 9.0359 16.9277L1.01282 19.0762L1.78439 21.9541L10.482 19.625Z" fill="white"/>
</g>
<defs>
<clipPath id="clip0_6007_789">
<rect width="123" height="30" fill="white"/>
</clipPath>
</defs>
</svg>
