<svg width="71" height="34" viewBox="0 0 71 34" fill="none" xmlns="http://www.w3.org/2000/svg">
<path d="M63.84 2.38696C64.4994 3.36976 65.1324 4.58216 64.8211 5.88144C63.7469 5.26832 62.8829 4.26728 62.1978 3.27904C61.5078 2.28416 60.7914 1.22624 60.5459 0C61.9009 0.3456 63.1139 1.30496 63.84 2.38696Z" fill="white"/>
<path d="M5.60047 5.87914C5.29 4.57962 5.92426 3.3677 6.58492 2.38546C7.31217 1.3041 8.52559 0.345617 9.88077 0.000976562C9.63455 1.22698 8.91701 2.2845 8.22635 3.27874C7.54034 4.2665 6.6751 5.2669 5.60047 5.87914Z" fill="white"/>
<path d="M4.65476 8.37203C4.89712 7.34291 4.89175 6.21627 4.66102 5.25099C4.45812 4.40267 4.16289 3.20347 3.1912 2.79883C2.48489 3.92859 2.20097 5.46707 2.61261 6.61987C2.91024 7.45371 3.44551 8.55619 4.5556 8.72683C5.57423 8.96099 6.60425 8.41915 7.41774 7.97179C8.32229 7.47443 9.2083 6.68315 9.74662 5.74243C8.75912 5.24539 7.63451 5.64875 6.78845 6.03531C5.87644 6.45203 5.03864 7.34611 4.65476 8.37203Z" fill="white"/>
<path d="M24.4234 9.36024V4.19336H22.6544V6.07584H20.0009V4.19336H18.2319V9.36024H20.0009V7.4844H22.6544V9.36024H24.4234Z" fill="white"/>
<path d="M30.2893 4.19336H32.2431L29.4708 7.65552V9.36024H27.6953V7.66208L24.9561 4.19336H26.9692L28.6062 6.26008L30.2893 4.19336Z" fill="white"/>
<path fill-rule="evenodd" clip-rule="evenodd" d="M38.404 4.63432C38.7538 4.9108 38.9518 5.37816 38.9518 6.05608C38.9518 6.60896 38.8132 7.0236 38.5492 7.31328C38.1927 7.72136 37.6053 7.9056 36.8397 7.91224C36.602 7.9188 34.569 7.91224 34.569 7.91224V9.36024H32.7935V4.19336H36.8133C37.5261 4.19336 38.0674 4.33816 38.404 4.63432ZM37.0904 6.4576C37.1433 6.36544 37.1697 6.24696 37.1697 6.0824C37.1697 5.91128 37.1367 5.76648 37.0773 5.68752C36.965 5.52296 36.7538 5.44392 36.4106 5.44392H34.5559V6.70768H36.3974C36.7671 6.70768 36.9849 6.62216 37.0904 6.4576Z" fill="white"/>
<path d="M45.1167 8.07672V9.36024H39.6582V4.19336H45.071V5.48344H41.4007V6.14824H44.9651V7.40536H41.4007V8.07672H45.1167Z" fill="white"/>
<path fill-rule="evenodd" clip-rule="evenodd" d="M51.7444 4.71992C51.9826 4.96344 52.0941 5.29912 52.0941 5.76648C52.0941 6.168 51.9955 6.51024 51.8302 6.74064C51.6457 6.99072 51.3617 7.20136 51.0119 7.254L52.5763 9.36024H50.6092L49.3223 7.53704H47.7186V9.36024H45.9561V4.19336H50.0813C50.8996 4.19336 51.4347 4.3908 51.7444 4.71992ZM50.3187 6.20088C50.3653 6.12192 50.3781 6.01656 50.3781 5.93104C50.3781 5.83232 50.3653 5.72696 50.3187 5.66112C50.2265 5.49 50.042 5.44392 49.7644 5.44392H47.725V6.3852H49.7973C50.0813 6.3852 50.253 6.33256 50.3187 6.20088Z" fill="white"/>
<path d="M44.1719 15.8417C44.1719 14.6606 43.4195 14.0399 41.6644 13.8502C41.3792 13.8157 40.5405 13.7295 40.0131 13.6864C38.6558 13.5398 38.2495 13.4623 38.2495 13.1174C38.2495 12.8071 38.5694 12.6605 39.7884 12.6605C40.6529 12.6605 41.1371 12.8243 41.3272 13.0743C41.4224 13.195 41.457 13.2898 41.4656 13.3847H43.9555C43.9295 13.1777 43.8431 12.8846 43.7047 12.6261C43.2552 11.7639 42.1745 11.0742 39.8489 11.0742C37.2293 11.0742 35.7942 11.9967 35.7942 13.2037C35.7942 14.3675 36.6068 15.0485 38.8028 15.2469C39.0511 15.2681 39.5843 15.3183 40.0209 15.3594L40.0479 15.362L40.0528 15.3625L40.0547 15.3626L40.2898 15.3848C41.4396 15.5055 41.7509 15.583 41.7509 15.9452C41.7509 16.2813 41.4483 16.4624 40.1774 16.4624C39.1919 16.4624 38.6126 16.3158 38.4051 16.0658C38.3187 15.9624 38.2581 15.8072 38.2409 15.7037H35.751C35.7769 15.8761 35.8201 16.1521 35.9152 16.3762C36.3389 17.3245 37.4455 18.0487 40.0131 18.0487C42.7711 18.0487 44.1719 17.2728 44.1719 15.8417Z" fill="white"/>
<path fill-rule="evenodd" clip-rule="evenodd" d="M26.5203 17.2557C26.7797 16.9539 26.9093 16.4969 26.9093 16.0314C26.9093 15.6349 26.8056 15.2555 26.5894 15.0055C26.3301 14.6693 25.8718 14.4279 25.3877 14.3676C25.7163 14.3245 26.0275 14.1521 26.209 13.9279C26.4338 13.6606 26.5375 13.2985 26.5375 12.8589C26.5375 12.4192 26.4079 12.0313 26.1139 11.7381C25.7854 11.4019 25.1889 11.1777 24.2552 11.1777H18.3936V17.9453H24.4194C25.3791 17.9453 26.1226 17.7384 26.5203 17.2557ZM24.1341 13.2641C24.1341 13.4279 24.0822 13.5658 23.9958 13.6606C23.8748 13.7727 23.65 13.8158 23.356 13.8158H20.6587V12.7123H23.2955C23.624 12.7123 23.8488 12.7554 23.9698 12.8675C24.0822 12.9623 24.1341 13.1002 24.1341 13.2641ZM24.3935 16.2297C24.2552 16.359 24.0131 16.4108 23.6067 16.4108H20.6587V15.2814H23.6327C24.0131 15.2814 24.2379 15.3331 24.3675 15.4452C24.4713 15.5486 24.5145 15.678 24.5145 15.8504C24.5145 16.0142 24.4799 16.1435 24.3935 16.2297Z" fill="white"/>
<path d="M35.0501 16.2642V17.9453H27.9004V11.1777H34.9896V12.8675H30.1827V13.7382H34.8513V15.3849H30.1827V16.2642H35.0501Z" fill="white"/>
<path d="M52.5843 12.8761V11.1777H44.4839V12.8761H47.3455V17.9453H49.7138V12.8761H52.5843Z" fill="white"/>
<path d="M52.3789 23.9339H51.9979L51.9706 23.568C51.8543 23.7532 51.608 23.9755 51.0881 23.9755C50.2096 23.9755 49.8013 23.4475 49.8013 22.0994C49.8013 21.0571 50.0612 20.2188 51.1338 20.2188C52.0636 20.2188 52.3468 20.8256 52.3605 21.4788H51.896C51.8823 21.0526 51.6914 20.6588 51.1435 20.6588C50.484 20.6588 50.2931 21.0526 50.2931 22.1134C50.2931 23.2205 50.5305 23.568 51.1531 23.568C51.5895 23.568 51.8446 23.3271 51.9289 23.0399V22.3496H50.9902V21.928H52.3741V22.9936C52.3741 23.3119 52.3773 23.6516 52.3781 23.8224L52.3789 23.9037V23.9339Z" fill="white"/>
<path fill-rule="evenodd" clip-rule="evenodd" d="M18.4814 23.0115H19.7821L20.0515 23.9334H20.5439L19.4662 20.2646H18.867L17.7148 23.9334H18.2026L18.4814 23.0115ZM19.6659 22.5993H18.6068C18.6068 22.5993 19.0667 21.117 19.076 21.0846C19.0806 21.0614 19.155 20.7325 19.155 20.7325L19.2064 20.9758L19.2293 21.0846C19.2339 21.1077 19.6659 22.5993 19.6659 22.5993Z" fill="white"/>
<path d="M24.0699 20.2646H24.5159L23.6472 23.9334H23.0944C23.0944 23.9334 22.4766 21.0799 22.4766 20.9595C22.4719 21.0799 21.8401 23.9334 21.8401 23.9334H21.2874L20.4187 20.2646H20.9204C20.9204 20.2646 21.5939 23.1691 21.5939 23.2849C21.5939 23.1691 22.2118 20.2646 22.2118 20.2646H22.7646C22.7646 20.2646 23.3824 23.1737 23.3824 23.2849C23.3824 23.1737 24.0699 20.2646 24.0699 20.2646Z" fill="white"/>
<path fill-rule="evenodd" clip-rule="evenodd" d="M26.4234 23.0115H25.1227L24.844 23.9334H24.3562L25.5083 20.2646H26.1075L27.1853 23.9334H26.6929L26.4234 23.0115ZM25.2482 22.5993H26.3073C26.3073 22.5993 25.8753 21.1077 25.8706 21.0846L25.8355 20.9176L25.7963 20.7325C25.7963 20.7325 25.722 21.0614 25.7173 21.0846C25.708 21.117 25.2482 22.5993 25.2482 22.5993Z" fill="white"/>
<path fill-rule="evenodd" clip-rule="evenodd" d="M28.9755 20.2646C29.5422 20.2646 29.8488 20.5287 29.8488 21.2976C29.8488 21.9508 29.6026 22.1685 29.3471 22.2426L30.0532 23.9334H29.5422L28.8872 22.3353H27.9954V23.9334H27.5308V20.2646H28.9755ZM28.9058 21.9183C29.2728 21.9183 29.361 21.7284 29.361 21.3115C29.361 20.839 29.2217 20.6954 28.8826 20.6954H27.9999V21.9183H28.9058Z" fill="white"/>
<path fill-rule="evenodd" clip-rule="evenodd" d="M32.9417 22.0388C32.9417 22.905 32.8767 23.2571 32.6909 23.5211C32.5051 23.7759 32.2125 23.9334 31.7386 23.9334H30.4751V20.2646H31.7061C32.1707 20.2646 32.533 20.4036 32.7003 20.6538C32.8861 20.9224 32.9417 21.2559 32.9417 22.0388ZM31.6411 23.4979C31.9245 23.4979 32.1614 23.4239 32.2821 23.2617C32.4122 23.0857 32.4494 22.729 32.4494 22.0388C32.4494 21.4598 32.4168 21.1494 32.2821 20.9502C32.1567 20.7788 31.9152 20.7047 31.6318 20.7047H30.9443V23.4979H31.6411Z" fill="white"/>
<path d="M37.8427 20.2646H38.2886L37.4199 23.9334H36.8671C36.8671 23.9334 36.2493 21.0799 36.2493 20.9595C36.2446 21.0799 35.6129 23.9334 35.6129 23.9334H35.0601L34.1914 20.2646H34.6931C34.6931 20.2646 35.3666 23.1691 35.3666 23.2849C35.3666 23.1691 35.9845 20.2646 35.9845 20.2646H36.5373C36.5373 20.2646 37.1551 23.1737 37.1551 23.2849C37.1551 23.1737 37.8427 20.2646 37.8427 20.2646Z" fill="white"/>
<path d="M39.1101 20.2646V23.9334H38.627V20.2646H39.1101Z" fill="white"/>
<path d="M42.1343 20.2646V23.9334H41.6001L40.2297 21.0891V23.9334H39.7791V20.2646H40.3412L41.679 23.0671V20.2646H42.1343Z" fill="white"/>
<path d="M45.1466 20.2646V23.9334H44.6123L43.2421 21.0891V23.9334H42.7915V20.2646H43.3536L44.6917 23.0671V20.2646H45.1466Z" fill="white"/>
<path d="M46.2867 20.2646V23.9334H45.8037V20.2646H46.2867Z" fill="white"/>
<path d="M49.311 20.2646V23.9334H48.7767L47.4064 21.0891V23.9334H46.9556V20.2646H47.518L48.8561 23.0671V20.2646H49.311Z" fill="white"/>
<path d="M23.7111 31.164L23.1788 29.5303L22.6464 31.164H20.9238L22.3174 32.1738L21.7851 33.8076L23.1788 32.7978L24.5725 33.8076L24.0401 32.1738L25.4338 31.164H23.7111Z" fill="white"/>
<path d="M29.8674 31.165L29.3242 29.5312L28.781 31.165H27.0232L28.4454 32.1747L27.9021 33.8085L29.3242 32.7988L30.7464 33.8085L30.2032 32.1747L31.6253 31.165H29.8674Z" fill="white"/>
<path d="M35.9646 31.165L35.4214 29.5312L34.8782 31.165H33.1204L34.5424 32.1747L33.9992 33.8085L35.4214 32.7988L36.8435 33.8085L36.3003 32.1747L37.7224 31.165H35.9646Z" fill="white"/>
<path d="M42.0615 31.165L41.5183 29.5312L40.9751 31.165H39.2173L40.6394 32.1747L40.0962 33.8085L41.5183 32.7988L42.9404 33.8085L42.3972 32.1747L43.8194 31.165H42.0615Z" fill="white"/>
<path d="M48.1957 31.165L47.6638 29.5312L47.1311 31.165H45.4087L46.8022 32.1747L46.2703 33.8085L47.6638 32.7988L49.0574 33.8085L48.5247 32.1747L49.919 31.165H48.1957Z" fill="white"/>
<path d="M1.51826 11.1489C2.01919 11.911 2.79434 12.8655 3.92456 12.8383C4.95234 12.8895 5.84028 12.1901 6.53953 11.6063C7.29261 10.9776 7.97236 10.0582 8.25933 9.06416C7.20813 8.7592 6.2017 9.32416 5.45118 9.85704C4.66745 10.4136 4.06471 11.4322 3.93523 12.478C3.92552 11.4302 3.64112 10.3481 3.18263 9.47632C2.76345 8.67936 2.17933 7.60208 1.13719 7.38672C0.726593 8.6268 0.857601 10.1441 1.51826 11.1489Z" fill="white"/>
<path d="M4.25882 16.9429C3.20987 17.1182 2.18667 16.4773 1.52216 15.7235C0.666626 14.7529 0.15759 13.4509 0.261402 12.1475C1.339 12.1747 2.15514 13.1036 2.75836 13.806C3.40803 14.5625 3.94033 15.5578 4.19568 16.5845C4.08337 15.5613 4.42786 14.4564 5.06734 13.7737C5.6846 13.1147 6.54927 12.3964 7.62511 12.5117C7.60192 13.5492 7.08037 14.5377 6.54246 15.278C6.04104 15.9679 5.26863 16.8213 4.25882 16.9429Z" fill="white"/>
<path d="M2.32102 20.3906C3.2871 21.0178 4.4588 21.6386 5.69019 21.1688C6.7004 20.8124 7.34268 19.7984 7.73772 18.8677C8.15618 17.8815 8.43568 16.7444 8.24218 15.665C7.13209 15.7633 6.21158 16.5553 5.72268 17.5221C5.21156 18.5328 5.11352 19.7358 5.50615 20.7955C4.92604 19.7054 4.07765 18.8233 3.17896 18.0082C2.36201 17.2674 1.18526 16.4869 0 16.6337C0.225515 18.0949 1.11971 19.6108 2.32102 20.3906Z" fill="white"/>
<path d="M8.17862 25.1184C9.1293 24.5517 9.51189 23.3592 9.66825 22.3374C9.83681 21.2354 9.82959 20.02 9.37062 18.9746C8.26767 19.2818 7.51058 20.2717 7.26059 21.356C6.99649 22.5015 7.21935 23.7224 7.8618 24.6977C7.0078 23.7207 5.8722 22.914 4.78394 22.3483C3.73273 21.8019 2.4431 21.1428 1.18066 21.5408C1.78942 23.0224 3.09165 24.4017 4.53491 24.9723C5.65262 25.414 7.01237 25.8509 8.17862 25.1184Z" fill="white"/>
<path d="M12.6858 25.5023C12.8253 26.566 12.8214 27.9151 11.9932 28.7338C10.9583 29.7901 9.35665 29.5863 8.12133 29.3539C6.4629 29.0417 4.59604 27.9137 3.59546 26.4119C4.81746 25.7409 6.31199 26.1701 7.5218 26.5176L7.59087 26.5373C8.94132 26.9248 10.3804 27.5488 11.584 28.4014C10.6235 27.536 9.92368 26.2657 9.88943 24.9854C9.85862 23.8403 10.3571 22.6152 11.4297 22.0693C12.1785 23.0494 12.5292 24.3077 12.6858 25.5023Z" fill="white"/>
<path d="M17.4923 31.7457C18.1021 30.588 17.4979 29.2293 17.0164 28.2251C16.4471 27.0379 15.6693 25.8279 14.5562 24.959C13.4873 25.8775 13.589 27.1919 13.9067 28.3341C14.2846 29.6923 15.5946 30.85 16.9511 31.5098C15.3801 30.9255 13.6643 30.5749 12.0318 30.4714L11.8665 30.4607C10.555 30.3755 8.84776 30.2647 7.80273 31.2217C9.38279 32.5611 11.6271 33.3339 13.6052 33.2938C14.9307 33.2669 16.7495 33.1105 17.4923 31.7457Z" fill="white"/>
<path d="M65.7646 8.37609C65.3819 7.34945 64.5444 6.45425 63.633 6.03673C62.7866 5.64953 61.6626 5.24545 60.675 5.74161C61.2126 6.68273 62.0975 7.47465 63.0016 7.97273C63.8143 8.42057 64.8436 8.96313 65.8625 8.72993C66.9728 8.56033 67.5095 7.45809 67.8079 6.62425C68.2211 5.47201 67.9387 3.93321 67.2335 2.80273C66.2612 3.20681 65.9644 4.40569 65.7614 5.25393C65.5295 6.21945 65.5231 7.34649 65.7646 8.37609Z" fill="white"/>
<path d="M64.9663 9.86002C65.7493 10.4168 66.3502 11.4348 66.4793 12.4799C66.4906 11.4327 66.7762 10.3516 67.2351 9.48074C67.6547 8.68402 68.2403 7.60722 69.2824 7.39258C69.6916 8.63306 69.5592 10.1503 68.8974 11.1545C68.3967 11.9152 67.6218 12.8678 66.4938 12.8423C65.4645 12.8947 64.5756 12.1935 63.876 11.6086C63.1235 10.9792 62.4448 10.0593 62.1592 9.06514C63.2101 8.76082 64.2162 9.32658 64.9663 9.86002Z" fill="white"/>
<path d="M66.2146 16.5912C66.3294 15.5672 65.986 14.46 65.3458 13.7759C64.7297 13.1164 63.8656 12.3975 62.7898 12.512C62.8115 13.5495 63.3321 14.5384 63.8696 15.2792C64.3702 15.9692 65.1412 16.8225 66.1505 16.9455C67.1998 17.1227 68.2243 16.4821 68.8902 15.7284C69.7462 14.7585 70.2564 13.4569 70.1545 12.1533C69.0763 12.1799 68.2596 13.108 67.6555 13.81C67.0041 14.5669 66.4706 15.5633 66.2146 16.5912Z" fill="white"/>
<path d="M64.6872 17.524C65.1974 18.5353 65.2945 19.7386 64.9006 20.7979C65.4814 19.7079 66.331 18.8264 67.2304 18.0119C68.0479 17.2716 69.2256 16.4922 70.4105 16.6398C70.1843 18.1009 69.2882 19.6162 68.0864 20.395C67.1205 21.0206 65.95 21.6402 64.7201 21.1722C63.7084 20.8165 63.0658 19.8004 62.6711 18.8681C62.2531 17.8816 61.9748 16.7443 62.1697 15.665C63.2792 15.7642 64.1994 16.5569 64.6872 17.524Z" fill="white"/>
<path d="M62.5427 24.6966C63.1845 23.7222 63.4084 22.5025 63.146 21.3576C62.8973 20.2731 62.1408 19.2826 61.0377 18.9746C60.578 20.0196 60.57 21.2348 60.7368 22.3371C60.8925 23.3569 61.2727 24.547 62.2178 25.1158C63.3851 25.854 64.7481 25.4174 65.8673 24.9758C67.3113 24.4063 68.615 23.0279 69.2247 21.5467C67.9628 21.1479 66.6727 21.806 65.621 22.3516C64.5331 22.9161 63.3971 23.7212 62.5427 24.6966Z" fill="white"/>
<path d="M57.7164 25.4986C57.576 26.562 57.5784 27.911 58.4064 28.7305C59.4397 29.7876 61.0418 29.5849 62.2773 29.3533C63.9364 29.0423 65.804 27.9156 66.806 26.4146C65.585 25.7429 64.0896 26.1708 62.8798 26.5173L62.81 26.5371C61.4598 26.9234 60.0205 27.5461 58.8163 28.3974C59.7774 27.5327 60.4778 26.2635 60.5131 24.9837C60.5452 23.8386 60.0478 22.6131 58.976 22.0664C58.2259 23.0459 57.8745 24.3041 57.7164 25.4986Z" fill="white"/>
<path d="M56.7898 33.2904C55.4645 33.2625 53.6458 33.1048 52.9045 31.7394L52.894 31.7207C52.302 30.5665 52.9037 29.2176 53.3834 28.2192C53.9538 27.0324 54.7328 25.8231 55.8464 24.9551C56.915 25.8744 56.8115 27.1886 56.493 28.3305C56.1135 29.6884 54.8026 30.8454 53.4452 31.504C55.0168 30.921 56.7329 30.5716 58.3655 30.4692L58.5315 30.4587C59.8432 30.3745 61.5504 30.2651 62.5942 31.2227C61.0129 32.5608 58.7682 33.332 56.7898 33.2904Z" fill="white"/>
</svg>
