<svg width="463" height="402" viewBox="0 0 463 402" fill="none" xmlns="http://www.w3.org/2000/svg">
<path d="M86.9117 196.578C34.9895 196.578 -5.1965e-05 156.67 -5.71343e-05 97.5398C-6.17861e-05 44.3297 40.2148 3.6961e-05 94.6835 3.21993e-05C154.344 2.69835e-05 198.429 53.2102 198.429 134.487C198.429 319.225 76.5273 393.119 -3.05176e-05 402L-3.7623e-05 320.723C51.889 310.381 110.227 252.748 112.84 189.159C110.227 190.621 99.8757 196.578 86.9117 196.578ZM351.45 196.578C299.594 196.578 264.571 156.67 264.571 97.5398C264.571 44.3296 304.786 1.38315e-05 359.255 9.06968e-06C418.916 3.85396e-06 463 53.2102 463 134.487C463 319.225 341.099 393.119 264.571 402L264.571 320.723C316.46 310.381 374.798 252.748 377.411 189.159C374.798 190.621 364.447 196.578 351.45 196.578Z" fill="white" fill-opacity="0.06"/>
</svg>
