<svg width="77" height="24" viewBox="0 0 77 24" fill="none" xmlns="http://www.w3.org/2000/svg">
<path d="M9.86986 0.294162C10.5691 -0.0980539 11.4309 -0.0980539 12.1301 0.294162L20.8708 5.19683C21.5695 5.58877 22 6.31283 22 7.09639V16.9036C22 17.6872 21.5695 18.4112 20.8708 18.8032L12.1301 23.7058C11.4309 24.0981 10.5691 24.0981 9.86986 23.7058L1.12924 18.8032C0.430468 18.4112 0 17.6872 0 16.9036V7.09639C0 6.31283 0.430468 5.58877 1.12924 5.19683L9.86986 0.294162ZM7.98067 5.83015C7.57721 5.83015 7.2044 6.03912 7.00256 6.37832L3.98385 11.4513C3.78184 11.7908 3.78183 12.2092 3.98385 12.5487L7.00256 17.6217C7.2044 17.9609 7.57721 18.1698 7.98067 18.1698H14.0195C14.4229 18.1698 14.7957 17.9609 14.9976 17.6217L18.0163 12.5487C18.2183 12.2092 18.2183 11.7908 18.0163 11.4513L14.9976 6.37832C14.7957 6.03912 14.4229 5.83015 14.0195 5.83015H7.98067Z" fill="black"/>
<path d="M30 16.97V7.03H36.86V8.822H30.952L32.128 7.604V12.154L30.952 11.23H36.608V12.994H30.952L32.128 12.07V16.97H30Z" fill="black"/>
<path d="M38.2995 16.97V9.466H40.3995V16.97H38.2995ZM38.2575 8.542V6.862H40.4275V8.542H38.2575Z" fill="black"/>
<path d="M42.4727 16.97V9.466H44.3627L44.4327 11.272L44.2367 11.188C44.3394 10.7867 44.4934 10.446 44.6987 10.166C44.9134 9.886 45.17 9.67133 45.4687 9.522C45.7674 9.37267 46.094 9.298 46.4487 9.298C47.074 9.298 47.578 9.48 47.9607 9.844C48.3527 10.208 48.6047 10.698 48.7167 11.314L48.4507 11.328C48.5347 10.8893 48.6794 10.5207 48.8847 10.222C49.0994 9.914 49.3607 9.68533 49.6687 9.536C49.9767 9.37733 50.322 9.298 50.7047 9.298C51.2274 9.298 51.6754 9.40533 52.0487 9.62C52.422 9.83467 52.7114 10.1567 52.9167 10.586C53.122 11.006 53.2247 11.524 53.2247 12.14V16.97H51.1247V12.728C51.1247 12.14 51.036 11.7013 50.8587 11.412C50.6814 11.1133 50.392 10.964 49.9907 10.964C49.7387 10.964 49.524 11.034 49.3467 11.174C49.1694 11.314 49.0294 11.5193 48.9267 11.79C48.8334 12.0513 48.7867 12.3733 48.7867 12.756V16.97H46.8967V12.756C46.8967 12.1773 46.8127 11.734 46.6447 11.426C46.4767 11.118 46.1874 10.964 45.7767 10.964C45.5247 10.964 45.3054 11.034 45.1187 11.174C44.9414 11.314 44.806 11.5193 44.7127 11.79C44.6194 12.0607 44.5727 12.3827 44.5727 12.756V16.97H42.4727Z" fill="black"/>
<path d="M58.4424 17.138C57.6771 17.138 57.0098 16.9793 56.4404 16.662C55.8711 16.3353 55.4278 15.878 55.1104 15.29C54.7931 14.702 54.6344 14.0113 54.6344 13.218C54.6344 12.4247 54.7931 11.7387 55.1104 11.16C55.4278 10.572 55.8711 10.1147 56.4404 9.788C57.0098 9.46133 57.6771 9.298 58.4424 9.298C59.2078 9.298 59.8751 9.46133 60.4444 9.788C61.0138 10.1147 61.4571 10.572 61.7744 11.16C62.0918 11.7387 62.2504 12.4247 62.2504 13.218C62.2504 14.0113 62.0918 14.702 61.7744 15.29C61.4571 15.878 61.0138 16.3353 60.4444 16.662C59.8751 16.9793 59.2078 17.138 58.4424 17.138ZM58.4424 15.528C58.9651 15.528 59.3711 15.3273 59.6604 14.926C59.9498 14.5153 60.0944 13.946 60.0944 13.218C60.0944 12.49 59.9498 11.9253 59.6604 11.524C59.3711 11.1133 58.9651 10.908 58.4424 10.908C57.9198 10.908 57.5138 11.1133 57.2244 11.524C56.9351 11.9253 56.7904 12.49 56.7904 13.218C56.7904 13.946 56.9351 14.5153 57.2244 14.926C57.5138 15.3273 57.9198 15.528 58.4424 15.528Z" fill="black"/>
<path d="M67.1 17.138C66.3347 17.138 65.6673 16.9793 65.098 16.662C64.5287 16.3353 64.0853 15.878 63.768 15.29C63.4507 14.702 63.292 14.0113 63.292 13.218C63.292 12.4247 63.4507 11.7387 63.768 11.16C64.0853 10.572 64.5287 10.1147 65.098 9.788C65.6673 9.46133 66.3347 9.298 67.1 9.298C67.8653 9.298 68.5327 9.46133 69.102 9.788C69.6713 10.1147 70.1147 10.572 70.432 11.16C70.7493 11.7387 70.908 12.4247 70.908 13.218C70.908 14.0113 70.7493 14.702 70.432 15.29C70.1147 15.878 69.6713 16.3353 69.102 16.662C68.5327 16.9793 67.8653 17.138 67.1 17.138ZM67.1 15.528C67.6227 15.528 68.0287 15.3273 68.318 14.926C68.6073 14.5153 68.752 13.946 68.752 13.218C68.752 12.49 68.6073 11.9253 68.318 11.524C68.0287 11.1133 67.6227 10.908 67.1 10.908C66.5773 10.908 66.1713 11.1133 65.882 11.524C65.5927 11.9253 65.448 12.49 65.448 13.218C65.448 13.946 65.5927 14.5153 65.882 14.926C66.1713 15.3273 66.5773 15.528 67.1 15.528Z" fill="black"/>
<path d="M72.3556 16.97V9.466H74.3436L74.4136 11.65L74.2596 11.608C74.3809 10.852 74.5956 10.306 74.9036 9.97C75.2116 9.634 75.6362 9.466 76.1776 9.466H76.8636V11.202H76.1776C75.7856 11.202 75.4636 11.2533 75.2116 11.356C74.9596 11.4587 74.7682 11.622 74.6376 11.846C74.5162 12.07 74.4556 12.3733 74.4556 12.756V16.97H72.3556Z" fill="black"/>
</svg>
