<svg width="140" height="49" viewBox="0 0 140 49" fill="none" xmlns="http://www.w3.org/2000/svg">
<g filter="url(#filter0_di_5183_7144)">
<rect width="48" height="48" rx="12" fill="#151515" shape-rendering="crispEdges"/>
<rect x="0.5" y="0.5" width="47" height="47" rx="11.5" stroke="#222222" stroke-opacity="0.1" shape-rendering="crispEdges"/>
<rect x="6.75" y="6.75" width="34.5" height="34.5" rx="7.25" fill="#1D78EF"/>
<rect x="6.75" y="6.75" width="34.5" height="34.5" rx="7.25" stroke="url(#paint0_linear_5183_7144)" stroke-width="1.5"/>
<path d="M23.0753 14.2451C23.6475 13.9183 24.3525 13.9183 24.9247 14.2451L32.0761 18.3307C32.6478 18.6573 33 19.2607 33 19.9137V28.0863C33 28.7393 32.6478 29.3427 32.0761 29.6693L24.9247 33.7549C24.3525 34.0817 23.6475 34.0817 23.0753 33.7549L15.9239 29.6693C15.3522 29.3427 15 28.7393 15 28.0863V19.9137C15 19.2607 15.3522 18.6573 15.9239 18.3307L23.0753 14.2451ZM21.5296 18.8585C21.1995 18.8585 20.8945 19.0326 20.7294 19.3153L18.2595 23.5428C18.0942 23.8257 18.0942 24.1743 18.2595 24.4572L20.7294 28.6847C20.8945 28.9674 21.1995 29.1415 21.5296 29.1415H26.4705C26.8006 29.1415 27.1056 28.9674 27.2707 28.6847L29.7406 24.4572C29.9059 24.1743 29.9059 23.8257 29.7406 23.5428L27.2707 19.3153C27.1056 19.0326 26.8006 18.8585 26.4705 18.8585H21.5296Z" fill="white"/>
</g>
<path d="M58 32.7057V15.2943H70.0034V18.4332H59.6658L61.7235 16.2997V24.2698L59.6658 22.6512H69.5624V25.7411H59.6658L61.7235 24.1226V32.7057H58Z" fill="white"/>
<path d="M72.5221 32.7057V19.5613H76.1966V32.7057H72.5221ZM72.4486 17.9428V15H76.2456V17.9428H72.4486Z" fill="white"/>
<path d="M79.8242 32.7057V19.5613H83.1313L83.2537 22.7248L82.9108 22.5777C83.0904 21.8747 83.3599 21.2779 83.7192 20.7875C84.0948 20.297 84.5439 19.921 85.0665 19.6594C85.5891 19.3978 86.1607 19.267 86.7813 19.267C87.8754 19.267 88.7573 19.5858 89.4269 20.2234C90.1128 20.861 90.5537 21.7193 90.7497 22.7984L90.2843 22.8229C90.4312 22.0545 90.6844 21.4087 91.0437 20.8856C91.4193 20.346 91.8766 19.9455 92.4155 19.6839C92.9544 19.406 93.5587 19.267 94.2282 19.267C95.1428 19.267 95.9267 19.455 96.5799 19.8311C97.2332 20.2071 97.7394 20.7711 98.0987 21.5232C98.458 22.2589 98.6376 23.1662 98.6376 24.2452V32.7057H94.9631V25.2752C94.9631 24.2452 94.808 23.4768 94.4977 22.97C94.1874 22.4469 93.6811 22.1853 92.9789 22.1853C92.538 22.1853 92.1623 22.3079 91.8521 22.5531C91.5418 22.7984 91.2968 23.158 91.1172 23.6322C90.9538 24.0899 90.8722 24.654 90.8722 25.3243V32.7057H87.5651V25.3243C87.5651 24.3106 87.4182 23.5341 87.1242 22.9946C86.8302 22.455 86.324 22.1853 85.6054 22.1853C85.1645 22.1853 84.7807 22.3079 84.4541 22.5531C84.1438 22.7984 83.907 23.158 83.7437 23.6322C83.5804 24.1063 83.4987 24.6703 83.4987 25.3243V32.7057H79.8242Z" fill="white"/>
<path d="M107.767 33C106.428 33 105.261 32.7221 104.264 32.1662C103.268 31.594 102.492 30.7929 101.937 29.7629C101.382 28.733 101.104 27.5232 101.104 26.1335C101.104 24.7439 101.382 23.5422 101.937 22.5286C102.492 21.4986 103.268 20.6975 104.264 20.1253C105.261 19.5531 106.428 19.267 107.767 19.267C109.107 19.267 110.274 19.5531 111.27 20.1253C112.267 20.6975 113.042 21.4986 113.598 22.5286C114.153 23.5422 114.43 24.7439 114.43 26.1335C114.43 27.5232 114.153 28.733 113.598 29.7629C113.042 30.7929 112.267 31.594 111.27 32.1662C110.274 32.7221 109.107 33 107.767 33ZM107.767 30.1798C108.682 30.1798 109.392 29.8283 109.899 29.1253C110.405 28.406 110.658 27.4087 110.658 26.1335C110.658 24.8583 110.405 23.8692 109.899 23.1662C109.392 22.4469 108.682 22.0872 107.767 22.0872C106.853 22.0872 106.142 22.4469 105.636 23.1662C105.13 23.8692 104.877 24.8583 104.877 26.1335C104.877 27.4087 105.13 28.406 105.636 29.1253C106.142 29.8283 106.853 30.1798 107.767 30.1798Z" fill="white"/>
<path d="M122.916 33C121.577 33 120.409 32.7221 119.413 32.1662C118.417 31.594 117.641 30.7929 117.086 29.7629C116.531 28.733 116.253 27.5232 116.253 26.1335C116.253 24.7439 116.531 23.5422 117.086 22.5286C117.641 21.4986 118.417 20.6975 119.413 20.1253C120.409 19.5531 121.577 19.267 122.916 19.267C124.255 19.267 125.423 19.5531 126.419 20.1253C127.415 20.6975 128.191 21.4986 128.746 22.5286C129.302 23.5422 129.579 24.7439 129.579 26.1335C129.579 27.5232 129.302 28.733 128.746 29.7629C128.191 30.7929 127.415 31.594 126.419 32.1662C125.423 32.7221 124.255 33 122.916 33ZM122.916 30.1798C123.831 30.1798 124.541 29.8283 125.047 29.1253C125.554 28.406 125.807 27.4087 125.807 26.1335C125.807 24.8583 125.554 23.8692 125.047 23.1662C124.541 22.4469 123.831 22.0872 122.916 22.0872C122.002 22.0872 121.291 22.4469 120.785 23.1662C120.279 23.8692 120.025 24.8583 120.025 26.1335C120.025 27.4087 120.279 28.406 120.785 29.1253C121.291 29.8283 122.002 30.1798 122.916 30.1798Z" fill="white"/>
<path d="M132.112 32.7057V19.5613H135.591L135.713 23.3869L135.444 23.3134C135.656 21.9891 136.032 21.0327 136.57 20.4441C137.109 19.8556 137.852 19.5613 138.8 19.5613H140V22.6022H138.8C138.114 22.6022 137.55 22.6921 137.109 22.8719C136.668 23.0518 136.334 23.3379 136.105 23.7302C135.893 24.1226 135.787 24.654 135.787 25.3243V32.7057H132.112Z" fill="white"/>
<defs>
<filter id="filter0_di_5183_7144" x="0" y="0" width="48" height="48.5" filterUnits="userSpaceOnUse" color-interpolation-filters="sRGB">
<feFlood flood-opacity="0" result="BackgroundImageFix"/>
<feColorMatrix in="SourceAlpha" type="matrix" values="0 0 0 0 0 0 0 0 0 0 0 0 0 0 0 0 0 0 127 0" result="hardAlpha"/>
<feOffset dy="0.5"/>
<feComposite in2="hardAlpha" operator="out"/>
<feColorMatrix type="matrix" values="0 0 0 0 0 0 0 0 0 0 0 0 0 0 0 0 0 0 1 0"/>
<feBlend mode="normal" in2="BackgroundImageFix" result="effect1_dropShadow_5183_7144"/>
<feBlend mode="normal" in="SourceGraphic" in2="effect1_dropShadow_5183_7144" result="shape"/>
<feColorMatrix in="SourceAlpha" type="matrix" values="0 0 0 0 0 0 0 0 0 0 0 0 0 0 0 0 0 0 127 0" result="hardAlpha"/>
<feOffset dy="1.5"/>
<feComposite in2="hardAlpha" operator="arithmetic" k2="-1" k3="1"/>
<feColorMatrix type="matrix" values="0 0 0 0 0.2 0 0 0 0 0.2 0 0 0 0 0.2 0 0 0 0.25 0"/>
<feBlend mode="normal" in2="shape" result="effect2_innerShadow_5183_7144"/>
</filter>
<linearGradient id="paint0_linear_5183_7144" x1="11.625" y1="4.3125" x2="28.5" y2="34.6875" gradientUnits="userSpaceOnUse">
<stop stop-color="#1B50B2"/>
<stop offset="1" stop-color="#1D78EF"/>
</linearGradient>
</defs>
</svg>
