<svg width="132" height="28" viewBox="0 0 132 28" fill="none" xmlns="http://www.w3.org/2000/svg">
<path d="M45.9981 16.1042C45.9981 17.3579 45.6727 18.3155 45.0225 18.9775C44.372 19.6396 43.4493 19.9706 42.2541 19.9706C41.0763 19.9706 40.162 19.6396 39.512 18.9775C38.8615 18.3155 38.5364 17.3579 38.5364 16.1042V4.66394H34.8451V16.0777C34.8451 17.6492 35.1702 18.9775 35.8207 20.0632C36.4708 21.1489 37.3541 21.9658 38.4705 22.5128C39.5865 23.0602 40.8304 23.3339 42.2013 23.3339C43.5896 23.3339 44.8511 23.0604 45.9849 22.5128C47.1187 21.9658 48.0238 21.1489 48.7006 20.0632C49.3771 18.9775 49.7158 17.6492 49.7158 16.0777V4.66394H45.9981V16.1042Z" fill="#222222"/>
<path d="M61.3686 8.2656C60.4545 8.2656 59.6154 8.44676 58.8507 8.80838C58.0861 9.17042 57.4573 9.6691 56.9654 10.3047V8.47742H53.2742V23.1483H56.9654V15.045C56.9654 13.8797 57.2597 12.9839 57.8488 12.3571C58.4374 11.7307 59.2415 11.417 60.2612 11.417C61.2631 11.417 62.0543 11.7307 62.6343 12.3571C63.2143 12.984 63.5044 13.8797 63.5044 15.045V23.1483H67.1956V14.5417C67.1956 12.5647 66.6593 11.0242 65.5873 9.92054C64.5148 8.81734 63.1088 8.2656 61.3686 8.2656Z" fill="#222222"/>
<path d="M72.5747 2.38656C71.9242 2.38656 71.3835 2.59432 70.9531 3.009C70.5222 3.42396 70.3071 3.94042 70.3071 4.5581C70.3071 5.17578 70.5222 5.69266 70.9531 6.10734C71.3837 6.5223 71.9242 6.72964 72.5747 6.72964C73.2253 6.72964 73.7653 6.5223 74.1963 6.10734C74.6268 5.69266 74.8422 5.17634 74.8422 4.5581C74.8422 3.93986 74.6268 3.42396 74.1963 3.009C73.7653 2.59446 73.2249 2.38656 72.5747 2.38656Z" fill="#222222"/>
<path d="M74.395 8.47738H70.7038V23.1483H74.395V8.47738Z" fill="#222222"/>
<path d="M84.2822 11.3905C85.0203 11.3905 85.6399 11.5718 86.141 11.9334C86.6421 12.2955 86.9978 12.794 87.2089 13.4296H91.1903C90.7856 11.7877 89.9905 10.5124 88.8039 9.603C87.6174 8.69384 86.1188 8.23926 84.3086 8.23926C82.9021 8.23926 81.6543 8.55286 80.5646 9.17936C79.4744 9.80614 78.622 10.6887 78.0069 11.8275C77.3915 12.9661 77.0841 14.2948 77.0841 15.813C77.0841 17.3311 77.3915 18.6597 78.0069 19.7985C78.622 20.9373 79.4744 21.8202 80.5646 22.4467C81.6543 23.0737 82.9021 23.3868 84.3086 23.3868C86.1014 23.3868 87.5952 22.9194 88.7909 21.9833C89.9861 21.0479 90.7856 19.7853 91.1903 18.1965H87.2089C86.7515 19.5384 85.7761 20.209 84.2824 20.209C83.2276 20.209 82.3925 19.825 81.7775 19.0569C81.162 18.289 80.8546 17.2078 80.8546 15.813C80.8546 14.4008 81.162 13.3105 81.7775 12.5424C82.3925 11.7744 83.2275 11.3905 84.2822 11.3905Z" fill="#222222"/>
<path d="M104.319 9.17919C103.176 8.55269 101.902 8.23909 100.496 8.23909C99.0897 8.23909 97.8148 8.55269 96.6727 9.17919C95.5298 9.80597 94.6292 10.6932 93.9702 11.8405C93.311 12.9883 92.9814 14.3124 92.9814 15.8128C92.9814 17.3132 93.3019 18.6376 93.9437 19.785C94.585 20.9329 95.4685 21.8199 96.5935 22.4464C97.7183 23.0734 98.9838 23.3865 100.39 23.3865C101.814 23.3865 103.102 23.0734 104.253 22.4464C105.404 21.8199 106.318 20.9329 106.995 19.785C107.672 18.6376 108.01 17.3135 108.01 15.8128C108.01 14.3122 107.681 12.9883 107.021 11.8405C106.362 10.6932 105.461 9.80597 104.319 9.17919ZM103.686 18.1962C103.334 18.8496 102.864 19.3396 102.275 19.6659C101.686 19.9928 101.058 20.1558 100.39 20.1558C99.3355 20.1558 98.4609 19.781 97.7666 19.0303C97.072 18.28 96.7251 17.2076 96.7251 15.8128C96.7251 14.418 97.0811 13.3457 97.7931 12.5953C98.505 11.8452 99.3883 11.4699 100.443 11.4699C101.497 11.4699 102.389 11.8452 103.119 12.5953C103.848 13.3459 104.213 14.4184 104.213 15.8128C104.213 16.7489 104.037 17.5432 103.686 18.1962Z" fill="#222222"/>
<path d="M112.599 2.38656C111.948 2.38656 111.408 2.59432 110.977 3.009C110.546 3.42396 110.331 3.94042 110.331 4.5581C110.331 5.17578 110.546 5.69266 110.977 6.10734C111.408 6.5223 111.948 6.72964 112.599 6.72964C113.249 6.72964 113.789 6.5223 114.22 6.10734C114.651 5.69266 114.866 5.17634 114.866 4.5581C114.866 3.93986 114.651 3.42396 114.22 3.009C113.789 2.59446 113.249 2.38656 112.599 2.38656Z" fill="#222222"/>
<path d="M114.417 8.47738H110.726V23.1483H114.417V8.47738Z" fill="#222222"/>
<path d="M130.392 9.92066C129.319 8.81746 127.913 8.26558 126.173 8.26558C125.259 8.26558 124.42 8.44674 123.655 8.80836C122.891 9.1704 122.262 9.66908 121.77 10.3047V8.4774H118.079V23.1483H121.77V15.0449C121.77 13.8797 122.064 12.9839 122.653 12.3571C123.242 11.7307 124.046 11.417 125.066 11.417C126.068 11.417 126.859 11.7307 127.439 12.3571C128.019 12.984 128.309 13.8797 128.309 15.0449V23.1483H132V14.5416C132 12.5647 131.464 11.0243 130.392 9.92066Z" fill="#222222"/>
<path d="M13.939 0C10.3348 0 7.05021 1.37396 4.57576 3.6288L11.0142 6.61332C11.5635 6.86798 12.1615 6.99986 12.7666 6.99986H19.5146C20.2845 6.99986 20.9085 7.62664 20.9085 8.39986V19.5999C20.9085 20.3731 20.2845 20.9999 19.5146 20.9999H8.3634C7.59355 20.9999 6.9695 20.3731 6.9695 19.5999V12.8223C6.9695 12.2146 6.8382 11.6141 6.58465 11.0622L3.61299 4.59592C1.36797 7.08106 0 10.38 0 14C0 21.7321 6.24063 28 13.939 28C21.6374 28 27.878 21.7321 27.878 14C27.878 6.26794 21.6374 0 13.939 0Z" fill="#222222"/>
</svg>
