<svg width="121" height="28" viewBox="0 0 121 28" fill="none" xmlns="http://www.w3.org/2000/svg">
<g clip-path="url(#clip0_5313_2674)">
<path d="M48.0349 19.7407V23.1171H33.9609V20.4518L42.4405 10.9072H33.9609V7.53198H47.7886V10.325L39.6234 19.7407H48.0349Z" fill="#222222"/>
<path d="M64.2525 13.0554V23.1214H60.0772V20.9727H59.9857C59.4626 21.801 57.9274 23.2748 54.8851 23.2748C51.8427 23.2748 49.7246 21.5562 49.7246 18.7937C49.7246 15.7863 51.9976 13.4854 58.5408 13.4854H60.0772V13.025C60.0772 11.3368 59.0334 10.3245 57.3433 10.3245C55.6838 10.3245 54.6704 11.2138 54.5473 12.5645H50.4307C50.4916 9.06631 53.3182 7.13208 57.3433 7.13208C61.7977 7.13208 64.2525 9.3135 64.2525 13.0554ZM60.0772 17.2285V16.1237H58.5725C55.0387 16.1237 54.0254 17.198 54.0254 18.4867C54.0254 19.6231 54.9472 20.3261 56.3945 20.3261C58.4493 20.3261 60.0772 18.9471 60.0772 17.2285Z" fill="#222222"/>
<path d="M82.6897 13.5469V23.122H78.3572V14.469C78.3572 12.2899 77.2818 10.9391 75.5929 10.9391C73.4114 10.9391 71.9055 12.4433 71.9055 15.2047V23.1232H67.5742V7.53222H71.9055V10.4166C72.8895 8.17657 74.671 7.13623 76.9135 7.13623C80.6314 7.13272 82.6897 9.74176 82.6897 13.5469Z" fill="#222222"/>
<path d="M91.1382 10.9074V17.3216C91.1382 18.9173 92.0906 19.7819 93.6575 19.7819C94.3025 19.7819 95.1012 19.6893 96.2072 19.1059V22.7576C95.2232 23.2801 93.9953 23.4336 92.9808 23.4336C89.264 23.4336 86.8058 21.2545 86.8058 17.9402V10.9109H84.0098V7.53219H84.0719C85.9485 7.53219 86.8058 6.76483 86.8058 4.95479V2.87061H91.1382V7.53571H96.5145V10.9074H91.1382Z" fill="#222222"/>
<path d="M100.61 0H100.751C101.429 0 102.08 0.269079 102.559 0.748042C103.039 1.227 103.308 1.87662 103.308 2.55397V2.55397C103.308 2.88931 103.242 3.22136 103.113 3.53116C102.985 3.84096 102.797 4.12243 102.559 4.35949C102.322 4.59656 102.04 4.78457 101.73 4.91279C101.419 5.04101 101.087 5.10693 100.751 5.10678H100.61C100.275 5.10693 99.9423 5.04101 99.6321 4.91279C99.3219 4.78457 99.0401 4.59656 98.8027 4.35949C98.5652 4.12243 98.3769 3.84096 98.2484 3.53116C98.1199 3.22136 98.0537 2.88931 98.0537 2.55397V2.55397C98.0537 1.87662 98.3231 1.227 98.8026 0.748042C99.2821 0.269079 99.9324 0 100.61 0V0ZM98.5146 7.53188H102.839V23.1217H98.5111L98.5146 7.53188Z" fill="#222222"/>
<path d="M113.379 23.5197C108.403 23.5197 105.3 20.1749 105.3 15.2954C105.3 10.4768 108.403 7.13208 113.379 7.13208C117.589 7.13208 120.507 9.55718 120.937 13.4584H116.667C116.36 11.6789 115.254 10.5132 113.318 10.5132C110.891 10.5132 109.477 12.4462 109.477 15.3001C109.477 18.154 110.891 20.0871 113.318 20.0871C115.346 20.0871 116.452 18.8604 116.76 16.9239H120.998C120.665 20.9118 117.742 23.5197 113.379 23.5197Z" fill="#222222"/>
<path d="M22.8517 4.9662C23.2431 5.36555 23.5384 5.84863 23.7152 6.37887C23.8921 6.9091 23.9458 7.47258 23.8723 8.02663C23.7989 8.58068 23.6002 9.11076 23.2913 9.57674C22.9823 10.0427 22.5713 10.4324 22.0893 10.7162C18.6147 12.7567 14.5602 13.5871 10.562 13.0769C6.56392 12.5667 2.84854 10.7449 -0.000976562 7.89741L5.1419 2.65356C6.84479 4.35415 9.06258 5.44491 11.4503 5.75615C13.838 6.0674 16.2617 5.58168 18.3445 4.37457C19.0535 3.95726 19.8816 3.78827 20.6976 3.89438C21.5137 4.00049 22.2709 4.37563 22.8493 4.96034L22.8517 4.9662Z" fill="#222222"/>
<path d="M22.8294 4.94265C22.1401 4.25449 21.2055 3.86792 20.231 3.86792C19.2565 3.86792 18.3219 4.25449 17.6326 4.94265L2.03391 20.5242C1.345 21.2127 0.958008 22.1463 0.958008 23.1198C0.958008 24.0932 1.345 25.0269 2.03391 25.7154V25.7154C2.37505 26.0564 2.78011 26.3269 3.22596 26.5115C3.67181 26.6961 4.1497 26.7911 4.63232 26.7911C5.11494 26.7911 5.59284 26.6961 6.03868 26.5115C6.48453 26.3269 6.8896 26.0564 7.23073 25.7154L22.8294 10.1338C23.1708 9.79301 23.4416 9.38839 23.6264 8.94303C23.8112 8.49767 23.9063 8.0203 23.9063 7.53821C23.9063 7.05612 23.8112 6.57875 23.6264 6.13339C23.4416 5.68803 23.1708 5.28341 22.8294 4.94265Z" fill="#222222"/>
<path d="M2.01444 25.6862C1.62297 25.287 1.32759 24.8041 1.15066 24.274C0.973733 23.7439 0.919904 23.1805 0.99325 22.6266C1.0666 22.0726 1.2652 21.5426 1.574 21.0767C1.88281 20.6108 2.29372 20.2211 2.7756 19.9374C6.25044 17.8972 10.305 17.0669 14.3031 17.5768C18.3013 18.0868 22.0169 19.908 24.8671 22.7549L19.7219 28C18.019 26.2994 15.8012 25.2086 13.4135 24.8974C11.0258 24.5861 8.60204 25.0718 6.51929 26.279C5.80949 26.6952 4.98094 26.8629 4.16492 26.7555C3.34891 26.6481 2.5921 26.2718 2.01444 25.6862V25.6862Z" fill="#222222"/>
</g>
<defs>
<clipPath id="clip0_5313_2674">
<rect width="121" height="28" fill="white"/>
</clipPath>
</defs>
</svg>
