<svg width="24" height="20" viewBox="0 0 24 20" fill="none" xmlns="http://www.w3.org/2000/svg">
<g clip-path="url(#clip0_869_5125)">
<path d="M18.3158 19.7959C21.4665 19.7317 24 17.1546 24 13.9864C24 12.4456 23.3883 10.968 22.2995 9.87845L12.6316 0.204102V6.21737C12.6316 7.22302 13.0308 8.18753 13.7415 8.89866L16.0063 11.165L16.0125 11.171L19.8099 14.971C19.9332 15.0943 19.9332 15.2944 19.8099 15.4178C19.6866 15.5412 19.4866 15.5412 19.3633 15.4178L18.0544 14.108H5.94563L4.63668 15.4178C4.51335 15.5412 4.31341 15.5412 4.19009 15.4178C4.06676 15.2944 4.06676 15.0943 4.19008 14.971L7.98754 11.171L7.99371 11.165L10.2585 8.89866C10.9692 8.18753 11.3684 7.22302 11.3684 6.21737V0.204102L1.70045 9.87845C0.611667 10.968 0 12.4456 0 13.9864C0 17.1546 2.53348 19.7317 5.68423 19.7959H18.3158Z" fill="#999999"/>
</g>
<defs>
<clipPath id="clip0_869_5125">
<rect width="24" height="19.5918" fill="white" transform="translate(0 0.204102)"/>
</clipPath>
</defs>
</svg>
