<svg width="56" height="56" viewBox="0 0 56 56" fill="none" xmlns="http://www.w3.org/2000/svg">
<rect width="56" height="56" rx="4" fill="#1F1F1F"/>
<g clip-path="url(#clip0_869_727)">
<path d="M35.519 32.4411C35.519 33.6495 34.5426 34.6302 33.3299 34.6302C32.1171 34.6302 31.1407 35.611 31.1407 36.8194C31.1407 38.0278 30.1644 39.0085 28.9516 39.0085H24.5733C23.3649 39.0085 22.3841 38.0278 22.3841 36.8194C22.3841 35.611 21.4078 34.6302 20.195 34.6302C18.9822 34.6302 18.0059 33.6495 18.0059 32.4411V19.3062C18.0059 18.0978 18.9866 17.1171 20.195 17.1171C21.4034 17.1171 22.3841 18.0978 22.3841 19.3062V32.4411C22.3841 33.6495 23.3649 34.6302 24.5733 34.6302H28.9516C30.1644 34.6302 31.1407 33.6495 31.1407 32.4411C31.1407 31.2327 32.1214 30.2519 33.3299 30.2519C34.5383 30.2519 35.519 31.2327 35.519 32.4411Z" fill="#1A79FF"/>
<path d="M36.7624 23.55C36.7624 24.7584 35.7817 25.7391 34.5733 25.7391C33.3649 25.7391 32.3841 24.7584 32.3841 23.55C32.3841 22.3416 31.4034 21.3608 30.195 21.3608C28.9866 21.3608 28.0059 20.3801 28.0059 19.1717C28.0059 17.9633 28.9866 16.9825 30.195 16.9825C31.4034 16.9825 32.3841 17.9633 32.3841 19.1717C32.3841 20.3801 33.3649 21.3608 34.5733 21.3608C35.7817 21.3608 36.7624 22.3416 36.7624 23.55Z" fill="#1A79FF"/>
</g>
<defs>
<clipPath id="clip0_869_727">
<rect width="20" height="22.0359" fill="white" transform="translate(18 16.982)"/>
</clipPath>
</defs>
</svg>
