<svg width="24" height="20" viewBox="0 0 24 20" fill="none" xmlns="http://www.w3.org/2000/svg">
<g clip-path="url(#clip0_3056_1020)">
<path d="M5.85742 0.588135L10.7205 4.7429C11.0092 4.98956 11.1757 5.35152 11.1757 5.73275V8.86399L6.31253 4.70924C6.02382 4.46258 5.85742 4.10061 5.85742 3.71936V0.588135Z" fill="#999999"/>
<path d="M5.85742 19.4118L10.7205 15.2571C11.0092 15.0104 11.1757 14.6485 11.1757 14.2672V11.136L6.31253 15.2908C6.02382 15.5374 5.85742 15.8994 5.85742 16.2806V19.4118Z" fill="#999999"/>
<path d="M0.0546875 4.96997L4.85168 9.04534C5.08425 9.24294 5.37874 9.35132 5.68307 9.35132H9.55163L4.76646 5.27688C4.53372 5.07871 4.23877 4.96997 3.93396 4.96997H0.0546875Z" fill="#999999"/>
<path d="M0.0546875 15.03L4.82218 10.957C5.05516 10.758 5.35074 10.6487 5.65629 10.6487H9.56316L4.76617 14.724C4.5336 14.9216 4.23909 15.03 3.93477 15.03H0.0546875Z" fill="#999999"/>
<path d="M17.7831 0.588135L12.9199 4.7429C12.6312 4.98956 12.4648 5.35152 12.4648 5.73275V8.86399L17.3279 4.70924C17.6167 4.46258 17.7831 4.10061 17.7831 3.71936V0.588135Z" fill="#999999"/>
<path d="M17.7831 19.4118L12.9199 15.2571C12.6312 15.0104 12.4648 14.6485 12.4648 14.2672V11.136L17.3279 15.2908C17.6167 15.5374 17.7831 15.8994 17.7831 16.2806V19.4118Z" fill="#999999"/>
<path d="M23.5849 4.96997L18.7879 9.04534C18.5553 9.24294 18.2608 9.35132 17.9565 9.35132H14.0879L18.8731 5.27688C19.1058 5.07871 19.4008 4.96997 19.7056 4.96997H23.5849Z" fill="#999999"/>
<path d="M23.5846 15.03L18.8172 10.957C18.5842 10.758 18.2885 10.6487 17.983 10.6487H14.0762L18.8731 14.724C19.1057 14.9216 19.4002 15.03 19.7045 15.03H23.5846Z" fill="#999999"/>
</g>
<defs>
<clipPath id="clip0_3056_1020">
<rect width="24" height="18.8235" fill="white" transform="translate(0 0.588135)"/>
</clipPath>
</defs>
</svg>
