<svg width="24" height="28" viewBox="0 0 24 28" fill="none" xmlns="http://www.w3.org/2000/svg">
<g clip-path="url(#clip0_869_5129)">
<path fill-rule="evenodd" clip-rule="evenodd" d="M0 10.6667V21.3334H3.33333C3.68351 21.3334 4.03027 21.4024 4.35384 21.5364C4.67733 21.6704 4.97135 21.8668 5.21891 22.1145C5.46655 22.3621 5.66301 22.6561 5.79704 22.9796C5.93099 23.3031 6 23.6499 6 24.0001V27.3334H14L24 17.3334V6.66675H20.6667C20.3165 6.66675 19.9697 6.59778 19.6461 6.46377C19.3227 6.32975 19.0287 6.13332 18.7811 5.8857C18.5335 5.63808 18.337 5.34409 18.2029 5.02057C18.069 4.69704 18 4.35028 18 4.00008V0.666748H10L0 10.6667ZM11.3333 20.6667H6.66667V13.3334L12.6667 7.33341H17.3333V14.6667L11.3333 20.6667Z" fill="#999999"/>
</g>
<defs>
<clipPath id="clip0_869_5129">
<rect width="24" height="26.6667" fill="white" transform="translate(0 0.666748)"/>
</clipPath>
</defs>
</svg>
