<svg width="40" height="40" viewBox="0 0 40 40" fill="none" xmlns="http://www.w3.org/2000/svg">
<rect width="40" height="40" rx="8" fill="#FF5700"/>
<path d="M12.5 29H14C14.83 29 15.5 28.33 15.5 27.5V26C15.5 25.17 14.83 24.5 14 24.5H12.5C11.67 24.5 11 25.17 11 26V27.5C11 28.33 11.67 29 12.5 29Z" fill="white"/>
<path d="M17 24.5H18.5C19.33 24.5 20 23.83 20 23V21.5C20 20.67 19.33 20 18.5 20H17C16.17 20 15.5 20.67 15.5 21.5V23C15.5 23.83 16.17 24.5 17 24.5Z" fill="white"/>
<path d="M26 15.5H27.5C28.33 15.5 29 14.83 29 14V12.5C29 11.67 28.33 11 27.5 11H26C25.17 11 24.5 11.67 24.5 12.5V14C24.5 14.83 25.17 15.5 26 15.5Z" fill="white"/>
<path d="M12.5 20H14C14.83 20 15.5 19.33 15.5 18.5V17C15.5 16.17 14.83 15.5 14 15.5H12.5C11.67 15.5 11 16.17 11 17V18.5C11 19.33 11.67 20 12.5 20Z" fill="white"/>
<path d="M17 15.5H18.5C19.33 15.5 20 14.83 20 14V12.5C20 11.67 19.33 11 18.5 11H17C16.17 11 15.5 11.67 15.5 12.5V14C15.5 14.83 16.17 15.5 17 15.5Z" fill="white"/>
<path d="M21.5 29H23C23.83 29 24.5 28.33 24.5 27.5V26C24.5 25.17 23.83 24.5 23 24.5H21.5C20.67 24.5 20 25.17 20 26V27.5C20 28.33 20.67 29 21.5 29Z" fill="white"/>
<path d="M21.5 20H23C23.83 20 24.5 19.33 24.5 18.5V17C24.5 16.17 23.83 15.5 23 15.5H21.5C20.67 15.5 20 16.17 20 17V18.5C20 19.33 20.67 20 21.5 20Z" fill="white"/>
<path d="M26 24.5H27.5C28.33 24.5 29 23.83 29 23V21.5C29 20.67 28.33 20 27.5 20H26C25.17 20 24.5 20.67 24.5 21.5V23C24.5 23.83 25.17 24.5 26 24.5Z" fill="white"/>
<path d="M24.5 21.5C24.5 20.67 23.83 20 23 20C23.83 20 24.5 19.33 24.5 18.5C24.5 19.33 25.17 20 26 20C25.17 20 24.5 20.67 24.5 21.5Z" fill="white"/>
<path d="M20 17C20 16.17 19.33 15.5 18.5 15.5C19.33 15.5 20 14.83 20 14C20 14.83 20.67 15.5 21.5 15.5C20.67 15.5 20 16.17 20 17Z" fill="white"/>
<path d="M20 26C20 25.17 19.33 24.5 18.5 24.5C19.33 24.5 20 23.83 20 23C20 23.83 20.67 24.5 21.5 24.5C20.67 24.5 20 25.17 20 26Z" fill="white"/>
<path d="M15.5 21.5C15.5 20.67 14.83 20 14 20C14.83 20 15.5 19.33 15.5 18.5C15.5 19.33 16.17 20 17 20C16.17 20 15.5 20.67 15.5 21.5Z" fill="white"/>
<path d="M15.5 26C15.5 25.17 14.83 24.5 14 24.5C14.83 24.5 15.5 23.83 15.5 23C15.5 23.83 16.17 24.5 17 24.5C16.17 24.5 15.5 25.17 15.5 26Z" fill="white"/>
<path d="M24.5 17C24.5 16.17 23.83 15.5 23 15.5C23.83 15.5 24.5 14.83 24.5 14C24.5 14.83 25.17 15.5 26 15.5C25.17 15.5 24.5 16.17 24.5 17Z" fill="white"/>
<path d="M15.5 17C15.5 16.17 14.83 15.5 14 15.5C14.83 15.5 15.5 14.83 15.5 14C15.5 14.83 16.17 15.5 17 15.5C16.17 15.5 15.5 16.17 15.5 17Z" fill="white"/>
<path d="M24.5 26C24.5 25.17 23.83 24.5 23 24.5C23.83 24.5 24.5 23.83 24.5 23C24.5 23.83 25.17 24.5 26 24.5C25.17 24.5 24.5 25.17 24.5 26Z" fill="white"/>
</svg>
