<svg width="56" height="56" viewBox="0 0 56 56" fill="none" xmlns="http://www.w3.org/2000/svg">
<path fill-rule="evenodd" clip-rule="evenodd" d="M6.16104 11.8152C6.05814 8.83274 8.41274 6.08073 11.5926 6.07838L44.4406 6.0542C47.6204 6.05194 49.9708 8.80049 49.8634 11.7831C49.7602 14.6483 49.8886 18.3596 50.832 21.3849C51.7782 24.4197 53.3804 26.3413 56 26.5859L55.9979 29.3733C53.378 29.6218 51.7728 31.5457 50.822 34.5819C49.8741 37.6086 49.7401 41.3201 49.839 44.1851C49.9419 47.1676 47.5873 49.9196 44.4074 49.9219L11.5595 49.9461C8.37964 49.9484 6.02923 47.1998 6.13659 44.2172C6.2398 41.3521 6.11136 37.6408 5.16805 34.6154C4.22187 31.5806 2.61965 29.659 0 29.4145L0.00213264 26.627C2.62207 26.3785 4.22726 24.4546 5.17805 21.4185C6.12589 18.3917 6.25991 14.6802 6.16104 11.8152Z" fill="url(#paint0_linear_518_649)"/>
<path fill-rule="evenodd" clip-rule="evenodd" d="M11.5924 6.17961C8.47685 6.18196 6.16234 8.88017 6.26341 11.8116C6.36241 14.68 6.22895 18.405 5.27593 21.4482C4.33102 24.4655 2.73013 26.4277 0.10448 26.7183L0.102614 29.323C2.72775 29.6098 4.32571 31.5697 5.26601 34.5855C6.21443 37.6272 6.34236 41.3521 6.23906 44.2207C6.13348 47.1523 8.44388 49.847 11.5595 49.8448L44.4076 49.8207C47.5232 49.8183 49.8377 47.1201 49.7365 44.1888C49.6376 41.3203 49.7711 37.5952 50.7241 34.5521C51.669 31.5348 53.2699 29.5726 55.8955 29.2821L55.8974 26.6773C53.2723 26.3905 51.6743 24.4306 50.734 21.4149C49.7856 18.373 49.6577 14.6482 49.761 11.7796C49.8666 8.84803 47.5561 6.15324 44.4405 6.15546L11.5924 6.17961ZM56 26.5859C53.3804 26.3413 51.7782 24.4197 50.832 21.3849C49.8886 18.3596 49.7602 14.6483 49.8634 11.7831C49.9708 8.80049 47.6204 6.05194 44.4406 6.0542L11.5926 6.07838C8.41274 6.08073 6.05814 8.83274 6.16104 11.8152C6.25991 14.6802 6.12589 18.3917 5.17805 21.4185C4.22726 24.4546 2.62207 26.3785 0.00213264 26.627L0 29.4145C2.61965 29.659 4.22187 31.5806 5.16805 34.6154C6.11136 37.6408 6.2398 41.3521 6.13659 44.2172C6.02923 47.1998 8.37964 49.9484 11.5595 49.9461L44.4074 49.9219C47.5873 49.9196 49.9419 47.1676 49.839 44.1851C49.7401 41.3201 49.8741 37.6086 50.822 34.5819C51.7728 31.5457 53.378 29.6218 55.9979 29.3733L56 26.5859Z" fill="black" fill-opacity="0.15"/>
<g filter="url(#filter0_d_518_649)">
<path d="M29.5405 40.035C34.6378 40.0313 37.7114 37.4995 37.7146 33.3273C37.7169 30.1736 35.5269 27.8919 32.2729 27.533L32.273 27.4016C34.6642 27.0056 36.5421 24.7539 36.544 22.2408C36.5467 18.66 33.7591 16.3296 29.5086 16.3327L20.1498 16.3396C20.0954 16.3396 20.0433 16.361 20.0048 16.3991C19.9664 16.4371 19.9448 16.4887 19.9447 16.5424L19.9271 39.8393C19.9271 39.866 19.9324 39.8923 19.9427 39.9169C19.9529 39.9415 19.968 39.9639 19.987 39.9827C20.0061 40.0015 20.0287 40.0164 20.0535 40.0266C20.0784 40.0367 20.105 40.0419 20.1319 40.0419L29.5405 40.035ZM23.6618 19.3429L28.6097 19.3393C31.2995 19.3373 32.8261 20.5517 32.8245 22.7527C32.8227 25.1016 31.0451 26.417 27.824 26.4193L23.6564 26.4224L23.6618 19.3429ZM23.6484 37.0335L23.6543 29.2312L28.569 29.2276C32.0889 29.225 33.9144 30.5377 33.9125 33.1002C33.9105 35.6625 32.1329 37.0272 28.779 37.0297L23.6484 37.0335Z" fill="url(#paint1_linear_518_649)"/>
<path fill-rule="evenodd" clip-rule="evenodd" d="M19.894 16.5423C19.8941 16.4751 19.9211 16.4106 19.9692 16.363C20.0172 16.3155 20.0824 16.2887 20.1503 16.2886L29.5091 16.2817C31.6435 16.2802 33.4158 16.8645 34.6549 17.9038C35.895 18.9438 36.5972 20.4361 36.5958 22.2406C36.594 24.762 34.7216 27.0242 32.3248 27.4441L32.3247 27.4876C35.5776 27.8654 37.7687 30.1602 37.7664 33.3271C37.7648 35.4264 36.9901 37.1174 35.5711 38.2831C34.1533 39.4478 32.0977 40.0836 29.541 40.0855L20.1325 40.0924C20.0988 40.0924 20.0655 40.0859 20.0344 40.0731C20.0034 40.0604 19.9751 40.0418 19.9514 40.0183C19.9276 39.9947 19.9087 39.9668 19.8959 39.9361C19.883 39.9053 19.8764 39.8724 19.8765 39.8391L19.894 16.5423ZM20.1503 16.39C20.1095 16.3901 20.0704 16.4061 20.0416 16.4347C20.0128 16.4632 19.9965 16.5019 19.9965 16.5422L19.9789 39.8391C19.9789 39.8794 19.9951 39.9181 20.0239 39.9465C20.0527 39.975 20.0918 39.991 20.1325 39.991L29.5411 39.9841C32.0818 39.9822 34.1117 39.3503 35.5057 38.2051C36.8986 37.0609 37.6623 35.3999 37.6639 33.3271C37.6663 30.2011 35.4979 27.9395 32.2677 27.5831L32.2222 27.5781L32.2223 27.3585L32.2652 27.3514C34.6304 26.9597 36.4915 24.7303 36.4934 22.2406C36.4947 20.4642 35.8044 19.0009 34.5886 17.9812C33.372 16.9609 31.6252 16.3816 29.5091 16.3831L20.1503 16.39ZM23.6112 19.292L28.6103 19.2883C29.9621 19.2874 31.0293 19.5919 31.7593 20.1803C32.4909 20.77 32.8771 21.6394 32.8763 22.7525C32.8753 23.941 32.4242 24.873 31.5625 25.5064C30.7031 26.1381 29.441 26.4686 27.8245 26.4698L23.6058 26.4729L23.6112 19.292ZM23.7135 19.3933L23.7083 26.3714L27.8246 26.3684C29.4292 26.3672 30.6664 26.0389 31.5015 25.4251C32.3342 24.813 32.7729 23.9128 32.7738 22.7525C32.7746 21.6645 32.3982 20.8262 31.6946 20.2589C30.9892 19.6904 29.9482 19.3888 28.6102 19.3897L23.7135 19.3933ZM23.6037 29.1803L28.5696 29.1767C30.3347 29.1754 31.6836 29.5036 32.5923 30.1608C33.5038 30.8201 33.9652 31.8053 33.9643 33.0999C33.9633 34.3937 33.5133 35.3916 32.6346 36.0647C31.7582 36.736 30.4623 37.0789 28.7795 37.0801L23.5978 37.0839L23.6037 29.1803ZM23.7061 29.2816L23.7003 36.9825L28.7796 36.9788C30.4507 36.9775 31.7206 36.6368 32.572 35.9846C33.4211 35.3342 33.8608 34.3684 33.8619 33.0999C33.8627 31.8321 33.4125 30.8798 32.5318 30.2427C31.6482 29.6036 30.3245 29.2767 28.5696 29.278L23.7061 29.2816Z" fill="white"/>
</g>
<defs>
<filter id="filter0_d_518_649" x="11.096" y="9.69636" width="35.4512" height="41.3716" filterUnits="userSpaceOnUse" color-interpolation-filters="sRGB">
<feFlood flood-opacity="0" result="BackgroundImageFix"/>
<feColorMatrix in="SourceAlpha" type="matrix" values="0 0 0 0 0 0 0 0 0 0 0 0 0 0 0 0 0 0 127 0" result="hardAlpha"/>
<feOffset dy="2.19513"/>
<feGaussianBlur stdDeviation="4.39026"/>
<feColorMatrix type="matrix" values="0 0 0 0 0 0 0 0 0 0 0 0 0 0 0 0 0 0 0.15 0"/>
<feBlend mode="normal" in2="BackgroundImageFix" result="effect1_dropShadow_518_649"/>
<feBlend mode="normal" in="SourceGraphic" in2="effect1_dropShadow_518_649" result="shape"/>
</filter>
<linearGradient id="paint0_linear_518_649" x1="8.33756" y1="7.2417" x2="56.58" y2="46.2095" gradientUnits="userSpaceOnUse">
<stop stop-color="#9013FE"/>
<stop offset="0.995" stop-color="#6610F2"/>
</linearGradient>
<linearGradient id="paint1_linear_518_649" x1="21.5846" y1="17.8545" x2="32.6164" y2="36.276" gradientUnits="userSpaceOnUse">
<stop stop-color="white"/>
<stop offset="1" stop-color="#F1E5FC"/>
</linearGradient>
</defs>
</svg>
