<svg width="56" height="56" viewBox="0 0 56 56" fill="none" xmlns="http://www.w3.org/2000/svg">
<path d="M0.848633 48.869L27.121 7.21191H43.428V13.0077L20.7794 48.869" fill="#FBBC04"/>
<path d="M43.4281 48.869H27.1211V7.21191H43.4281V48.869Z" fill="#1A73E8"/>
<path d="M55.205 37.0969C55.205 43.599 49.9324 48.8695 43.4277 48.8695V25.3242C49.9324 25.3242 55.205 30.5947 55.205 37.0969Z" fill="#34A853"/>
<path d="M43.4277 48.8695C36.923 48.8695 31.6504 43.599 31.6504 37.0969C31.6504 30.5947 36.923 25.3242 43.4277 25.3242V48.8695Z" fill="#0D652D"/>
<path d="M52.4872 16.2678C52.4872 21.2685 48.4322 25.3237 43.4277 25.3237V7.21191C48.4322 7.21191 52.4872 11.2671 52.4872 16.2678Z" fill="#1A73E8"/>
<path d="M43.4276 25.3237C38.4232 25.3237 34.3682 21.2685 34.3682 16.2678C34.3682 11.2671 38.4232 7.21191 43.4276 7.21191V25.3237Z" fill="#174EA6"/>
<path d="M1.75391 15.3622C1.75391 10.8614 5.40486 7.21191 9.9074 7.21191C14.4099 7.21191 18.0609 10.8614 18.0609 15.3622C18.0609 19.863 14.4099 23.5125 9.9074 23.5125C5.40486 23.5125 1.75391 19.863 1.75391 15.3622Z" fill="#EA4335"/>
</svg>
