<svg width="52" height="52" viewBox="0 0 52 52" fill="none" xmlns="http://www.w3.org/2000/svg">
<rect width="52" height="52" rx="26" fill="black"/>
<path d="M6.60438 26.3685C6.78331 25.3239 7.16602 24.3947 7.75252 23.5811C8.34896 22.7574 9.08953 22.1196 9.97425 21.6676C10.859 21.2055 11.8182 20.9745 12.8521 20.9745C14.1046 20.9745 15.1086 21.2808 15.8641 21.8936C16.3638 22.2936 16.7152 22.7942 16.9183 23.3954C17.1032 23.9425 16.6279 24.4399 16.0504 24.4399H15.0112C14.5919 24.4399 14.2415 24.1471 13.9344 23.8617C13.8442 23.7779 13.7418 23.7044 13.6274 23.6414C13.3093 23.4505 12.9167 23.3551 12.4495 23.3551C11.6244 23.3551 10.9136 23.6313 10.3172 24.1838C9.7307 24.7262 9.35793 25.4545 9.19888 26.3685C9.14918 26.6699 9.12433 26.931 9.12433 27.152C9.12433 27.8953 9.33805 28.4679 9.7655 28.8697C10.1929 29.2715 10.7993 29.4724 11.5846 29.4724C12.2208 29.4724 12.7825 29.3117 13.2696 28.9902C13.3359 28.9451 13.4004 28.8975 13.4632 28.8473C14.0427 28.3846 13.5786 27.589 12.837 27.589H12.338C11.7562 27.589 11.3136 27.0667 11.409 26.4928C11.4845 26.0386 11.8775 25.7056 12.338 25.7056H15.8974C16.5184 25.7056 16.9892 26.2655 16.8826 26.8773L16.6919 27.9716C16.6769 28.0577 16.6511 28.1416 16.6124 28.22C16.3177 28.8179 15.9092 29.376 15.3869 29.8943C14.8402 30.4467 14.1891 30.8937 13.4336 31.2352C12.6781 31.5768 11.863 31.7475 10.9882 31.7475C10.0836 31.7475 9.28835 31.5718 8.60244 31.2202C7.92648 30.8586 7.4046 30.3563 7.03679 29.7135C6.67893 29.0706 6.5 28.3223 6.5 27.4684C6.5 27.1771 6.53479 26.8105 6.60438 26.3685Z" fill="url(#paint0_linear_518_676)"/>
<path d="M20.87 31.7777C19.7367 31.7777 18.8122 31.5316 18.0965 31.0394C17.3907 30.5371 17.0378 29.829 17.0378 28.9149C17.0378 28.6826 17.2435 28.5081 17.4757 28.5081H18.7494C19.2737 28.5081 19.6301 29.0309 19.9902 29.4121C20.199 29.6331 20.5171 29.7436 20.9445 29.7436C21.3322 29.7436 21.6354 29.6582 21.8541 29.4875C22.0827 29.3167 22.197 29.0756 22.197 28.7642C22.197 28.4428 22.0529 28.1816 21.7646 27.9807C21.4863 27.7798 21.0489 27.5538 20.4524 27.3027C19.8759 27.0616 19.4037 26.8356 19.0359 26.6247C18.678 26.4037 18.3649 26.1074 18.0965 25.7357C17.8281 25.3641 17.6939 24.897 17.6939 24.3345C17.684 23.6414 17.853 23.0387 18.2009 22.5264C18.5488 22.0141 19.0309 21.6224 19.6473 21.3512C20.2636 21.0799 20.9694 20.9443 21.7646 20.9443C22.4803 20.9443 23.1165 21.0599 23.6732 21.2909C24.2299 21.5119 24.6623 21.8383 24.9705 22.2703C25.2786 22.6921 25.4327 23.1944 25.4327 23.777C25.4327 23.9674 25.2762 24.1085 25.0858 24.1085H22.8858C22.7934 24.1085 22.7189 24.0201 22.7189 23.9276C22.7189 23.6464 22.6195 23.4204 22.4207 23.2496C22.2318 23.0688 21.9684 22.9784 21.6304 22.9784C21.2725 22.9784 20.9793 23.0688 20.7507 23.2496C20.532 23.4204 20.4226 23.6564 20.4226 23.9578C20.4226 24.2591 20.5618 24.5153 20.8401 24.7262C21.1185 24.9271 21.5509 25.1632 22.1374 25.4344C22.7239 25.7056 23.201 25.9567 23.5688 26.1877C23.9466 26.4188 24.2696 26.7301 24.538 27.1219C24.8064 27.5036 24.9406 27.9757 24.9406 28.5382C24.9406 29.161 24.7766 29.7185 24.4486 30.2107C24.1205 30.7029 23.6484 31.0896 23.032 31.3709C22.4157 31.6421 21.695 31.7777 20.87 31.7777Z" fill="url(#paint1_linear_518_676)"/>
<path d="M32.1513 30.2251C32.1125 29.9824 31.9032 29.8039 31.6575 29.8039H28.4834C28.2956 29.8039 28.1236 29.9091 28.0381 30.0764L27.5015 31.1271C27.3306 31.4616 26.9866 31.6722 26.6109 31.6722H26.22C25.4652 31.6722 24.9825 30.868 25.3375 30.2019L29.9081 21.6247C30.0818 21.2987 30.4211 21.095 30.7906 21.095H32.3093C32.7921 21.095 33.2059 21.4399 33.2929 21.9147L34.8648 30.4919C34.9774 31.1062 34.5057 31.6722 33.8812 31.6722H33.2353C32.7439 31.6722 32.3253 31.3151 32.2478 30.8298L32.1513 30.2251ZM31.7858 27.8451L31.4801 25.8864L31.1745 23.9276L29.1764 27.8451H31.7858Z" fill="url(#paint2_linear_518_676)"/>
<path d="M44.7181 24.5002C44.6187 25.1129 44.3851 25.6754 44.0173 26.1877C43.6495 26.69 43.1475 27.0968 42.5113 27.4082C41.8851 27.7196 41.1445 27.8753 40.2896 27.8753H39.5478C39.0627 27.8753 38.6475 28.2235 38.5631 28.7012L38.184 30.8462C38.0996 31.324 37.6844 31.6722 37.1993 31.6722H36.6782C36.0571 31.6722 35.5862 31.1119 35.6932 30.5L37.1925 21.9228C37.2762 21.4442 37.6917 21.095 38.1776 21.095H41.4676C42.561 21.095 43.3861 21.3411 43.9428 21.8333C44.4994 22.3155 44.7778 22.9734 44.7778 23.8071C44.7778 24.0582 44.7579 24.2893 44.7181 24.5002ZM40.4387 25.8563C41.393 25.8563 41.9546 25.4042 42.1236 24.5002C42.1435 24.3395 42.1535 24.224 42.1535 24.1537C42.1535 23.8322 42.0491 23.5861 41.8403 23.4154C41.6415 23.2346 41.3334 23.1441 40.9158 23.1441H39.5291L39.0669 25.8563H40.4387Z" fill="url(#paint3_linear_518_676)"/>
<defs>
<linearGradient id="paint0_linear_518_676" x1="4.03329" y1="26.3988" x2="57.718" y2="30.0883" gradientUnits="userSpaceOnUse">
<stop stop-color="#29D859"/>
<stop offset="0.955025" stop-color="#CDDA3B"/>
</linearGradient>
<linearGradient id="paint1_linear_518_676" x1="4.03329" y1="26.3988" x2="57.718" y2="30.0883" gradientUnits="userSpaceOnUse">
<stop stop-color="#29D859"/>
<stop offset="0.955025" stop-color="#CDDA3B"/>
</linearGradient>
<linearGradient id="paint2_linear_518_676" x1="4.03329" y1="26.3988" x2="57.718" y2="30.0883" gradientUnits="userSpaceOnUse">
<stop stop-color="#29D859"/>
<stop offset="0.955025" stop-color="#CDDA3B"/>
</linearGradient>
<linearGradient id="paint3_linear_518_676" x1="4.03329" y1="26.3988" x2="57.718" y2="30.0883" gradientUnits="userSpaceOnUse">
<stop stop-color="#29D859"/>
<stop offset="0.955025" stop-color="#CDDA3B"/>
</linearGradient>
</defs>
</svg>
