<svg width="52" height="52" viewBox="0 0 52 52" fill="none" xmlns="http://www.w3.org/2000/svg">
<path d="M3.88388 0C3.40593 0 3.04985 0.389494 3.0923 0.865419L7.12141 46.0588C7.16386 46.5348 7.5752 47.0289 8.03589 47.1568L25.1334 51.904C25.594 52.0319 26.3475 52.0319 26.8082 51.9043L43.9577 47.1492C44.4183 47.0215 44.8302 46.5275 44.8725 46.0515L48.9083 0.865419C48.9511 0.389494 48.5946 0 48.1166 0H3.88388ZM40.3278 10.3649C40.2897 10.7895 40.2239 11.5265 40.1814 12.0025L40.0753 13.1883C40.0325 13.6641 39.9717 14.3447 39.9396 14.7004C39.9076 15.0563 39.8772 15.3475 39.8716 15.3475C39.8663 15.3475 39.4707 15.3475 38.9928 15.3475H26.8692C26.3913 15.3475 25.9963 15.3475 25.9911 15.3475C25.9859 15.3475 25.5906 15.3475 25.1126 15.3475H18.7275C18.2496 15.3475 17.8935 15.737 17.9359 16.2129L18.3084 20.376C18.3508 20.8518 18.7768 21.2414 19.2546 21.2414H25.1127C25.5907 21.2414 25.9859 21.2414 25.9912 21.2414C25.9965 21.2414 26.3915 21.2414 26.8693 21.2414H36.9385C37.4165 21.2414 38.156 21.2414 38.582 21.2414C39.0076 21.2414 39.3246 21.5889 39.286 22.0134C39.2472 22.4379 39.181 23.1752 39.1387 23.651L37.9411 37.0726C37.8984 37.5486 37.8443 38.1566 37.8211 38.424C37.7973 38.6911 37.4012 39.0141 36.9406 39.1419L26.8378 41.9432C26.3772 42.0708 25.9946 42.1764 25.9874 42.178C25.9803 42.1796 25.5978 42.0762 25.137 41.9485L15.0233 39.1421C14.5627 39.0143 14.1512 38.5203 14.1089 38.0443L13.4578 30.7374C13.4154 30.2613 13.7719 29.8718 14.2498 29.8718H15.1728C15.6508 29.8718 16.4328 29.8718 16.9107 29.8718H18.2871C18.765 29.8718 19.1906 30.2613 19.2333 30.7374L19.4886 33.5978C19.5311 34.0738 19.9431 34.5651 20.4046 34.6897L25.1354 35.9672C25.5965 36.0919 25.9758 36.1938 25.9779 36.1938C25.9801 36.1938 26.3591 36.0917 26.8205 35.967L31.5597 34.6864C32.0209 34.5618 32.4334 34.0704 32.4761 33.5945L32.99 27.8636C33.0328 27.3876 32.6767 26.9981 32.1988 26.9981H26.8693C26.3914 26.9981 25.9964 26.9981 25.9912 26.9981C25.986 26.9981 25.5907 26.9981 25.1127 26.9981H13.9922C13.5142 26.9981 13.0886 26.6085 13.0462 26.1327L11.7852 12.0026C11.7427 11.5266 11.6769 10.7898 11.6388 10.365C11.6012 9.94049 11.961 9.59304 12.439 9.59304H25.1127C25.5907 9.59304 25.9859 9.59304 25.9912 9.59304C25.9965 9.59304 26.3915 9.59304 26.8693 9.59304H39.5278C40.0056 9.59284 40.3656 9.94018 40.3278 10.3649Z" fill="#DD512A"/>
</svg>
