<svg width="52" height="52" viewBox="0 0 52 52" fill="none" xmlns="http://www.w3.org/2000/svg">
<g clip-path="url(#clip0_518_740)">
<path d="M20.5938 1.48828C23.3816 -1.8293 28.6184 -1.8293 31.4062 1.48828C32.6358 2.95128 34.6637 3.59331 36.5801 3.09766C40.8151 2.00249 45.1051 4.93413 45.3369 9.26074C45.4363 11.1116 46.6636 12.7604 48.5098 13.4404C52.638 14.9609 54.3129 19.8035 51.8604 23.4297C50.802 24.9945 50.802 27.0055 51.8604 28.5703C54.3129 32.1965 52.638 37.0391 48.5098 38.5596C46.6636 39.2396 45.4363 40.8884 45.3369 42.7393C45.1051 47.0659 40.8151 49.9975 36.5801 48.9023C34.6637 48.4067 32.6358 49.0487 31.4062 50.5117C28.6184 53.8293 23.3816 53.8293 20.5938 50.5117C19.3642 49.0487 17.3363 48.4067 15.4199 48.9023C11.1849 49.9975 6.89492 47.0659 6.66309 42.7393C6.56374 40.8884 5.3364 39.2396 3.49023 38.5596C-0.638034 37.0391 -2.31291 32.1965 0.139648 28.5703C1.19802 27.0055 1.19802 24.9945 0.139648 23.4297C-2.31291 19.8035 -0.638035 14.9609 3.49023 13.4404C5.3364 12.7604 6.56374 11.1116 6.66309 9.26074C6.89492 4.93414 11.1849 2.00249 15.4199 3.09766C17.3363 3.59331 19.3642 2.95127 20.5938 1.48828Z" fill="#D9D9D9"/>
<path d="M20.5938 1.48828C23.3816 -1.8293 28.6184 -1.8293 31.4062 1.48828C32.6358 2.95128 34.6637 3.59331 36.5801 3.09766C40.8151 2.00249 45.1051 4.93413 45.3369 9.26074C45.4363 11.1116 46.6636 12.7604 48.5098 13.4404C52.638 14.9609 54.3129 19.8035 51.8604 23.4297C50.802 24.9945 50.802 27.0055 51.8604 28.5703C54.3129 32.1965 52.638 37.0391 48.5098 38.5596C46.6636 39.2396 45.4363 40.8884 45.3369 42.7393C45.1051 47.0659 40.8151 49.9975 36.5801 48.9023C34.6637 48.4067 32.6358 49.0487 31.4062 50.5117C28.6184 53.8293 23.3816 53.8293 20.5938 50.5117C19.3642 49.0487 17.3363 48.4067 15.4199 48.9023C11.1849 49.9975 6.89492 47.0659 6.66309 42.7393C6.56374 40.8884 5.3364 39.2396 3.49023 38.5596C-0.638034 37.0391 -2.31291 32.1965 0.139648 28.5703C1.19802 27.0055 1.19802 24.9945 0.139648 23.4297C-2.31291 19.8035 -0.638035 14.9609 3.49023 13.4404C5.3364 12.7604 6.56374 11.1116 6.66309 9.26074C6.89492 4.93414 11.1849 2.00249 15.4199 3.09766C17.3363 3.59331 19.3642 2.95127 20.5938 1.48828Z" fill="url(#paint0_linear_518_740)"/>
<path d="M20.5938 1.48828C23.3816 -1.8293 28.6184 -1.8293 31.4062 1.48828C32.6358 2.95128 34.6637 3.59331 36.5801 3.09766C40.8151 2.00249 45.1051 4.93413 45.3369 9.26074C45.4363 11.1116 46.6636 12.7604 48.5098 13.4404C52.638 14.9609 54.3129 19.8035 51.8604 23.4297C50.802 24.9945 50.802 27.0055 51.8604 28.5703C54.3129 32.1965 52.638 37.0391 48.5098 38.5596C46.6636 39.2396 45.4363 40.8884 45.3369 42.7393C45.1051 47.0659 40.8151 49.9975 36.5801 48.9023C34.6637 48.4067 32.6358 49.0487 31.4062 50.5117C28.6184 53.8293 23.3816 53.8293 20.5938 50.5117C19.3642 49.0487 17.3363 48.4067 15.4199 48.9023C11.1849 49.9975 6.89492 47.0659 6.66309 42.7393C6.56374 40.8884 5.3364 39.2396 3.49023 38.5596C-0.638034 37.0391 -2.31291 32.1965 0.139648 28.5703C1.19802 27.0055 1.19802 24.9945 0.139648 23.4297C-2.31291 19.8035 -0.638035 14.9609 3.49023 13.4404C5.3364 12.7604 6.56374 11.1116 6.66309 9.26074C6.89492 4.93414 11.1849 2.00249 15.4199 3.09766C17.3363 3.59331 19.3642 2.95127 20.5938 1.48828Z" stroke="url(#paint1_linear_518_740)" stroke-width="2"/>
<path d="M14.6931 26.7734C14.5456 26.5398 14.4718 26.423 14.4305 26.2428C14.3995 26.1075 14.3995 25.8941 14.4305 25.7588C14.4718 25.5786 14.5456 25.4618 14.6931 25.2282C15.9123 23.2977 19.5413 18.4175 25.0717 18.4175C30.6021 18.4175 34.2312 23.2977 35.4504 25.2282C35.5979 25.4618 35.6717 25.5786 35.713 25.7588C35.744 25.8941 35.744 26.1075 35.713 26.2428C35.6717 26.423 35.5979 26.5398 35.4504 26.7734C34.2312 28.7039 30.6021 33.5841 25.0717 33.5841C19.5413 33.5841 15.9123 28.7039 14.6931 26.7734Z" stroke="white" stroke-width="1.5" stroke-linecap="round" stroke-linejoin="round"/>
<path d="M25.0717 29.2508C26.8667 29.2508 28.3217 27.7957 28.3217 26.0008C28.3217 24.2059 26.8667 22.7508 25.0717 22.7508C23.2768 22.7508 21.8217 24.2059 21.8217 26.0008C21.8217 27.7957 23.2768 29.2508 25.0717 29.2508Z" stroke="white" stroke-width="1.5" stroke-linecap="round" stroke-linejoin="round"/>
</g>
<defs>
<linearGradient id="paint0_linear_518_740" x1="56.5526" y1="-3.3904" x2="-2.18444" y2="57.6702" gradientUnits="userSpaceOnUse">
<stop offset="0.0997135" stop-color="#FD640F"/>
<stop offset="0.895777" stop-color="#FE2D71"/>
</linearGradient>
<linearGradient id="paint1_linear_518_740" x1="56.5526" y1="-3.3904" x2="-2.18444" y2="57.6702" gradientUnits="userSpaceOnUse">
<stop offset="0.0997135" stop-color="#FD640F"/>
<stop offset="0.895777" stop-color="#FE2D71"/>
</linearGradient>
<clipPath id="clip0_518_740">
<rect width="52" height="52" fill="white"/>
</clipPath>
</defs>
</svg>
