<svg width="52" height="52" viewBox="0 0 52 52" fill="none" xmlns="http://www.w3.org/2000/svg">
<path d="M43.875 3.25H8.125C5.43725 3.25 3.25 5.43725 3.25 8.125V43.875C3.25 46.5628 5.43725 48.75 8.125 48.75H43.875C46.5628 48.75 48.75 46.5628 48.75 43.875V8.125C48.75 5.43725 46.5628 3.25 43.875 3.25ZM8.125 6.5H43.875C44.772 6.5 45.5 7.22963 45.5 8.125V13H6.5V8.125C6.5 7.22963 7.228 6.5 8.125 6.5ZM43.875 45.5H8.125C7.228 45.5 6.5 44.7704 6.5 43.875V16.25H45.5V43.875C45.5 44.7704 44.772 45.5 43.875 45.5Z" fill="#03474D"/>
<path d="M34.125 11.375C35.0225 11.375 35.75 10.6475 35.75 9.75C35.75 8.85254 35.0225 8.125 34.125 8.125C33.2275 8.125 32.5 8.85254 32.5 9.75C32.5 10.6475 33.2275 11.375 34.125 11.375Z" fill="#3CACB6"/>
<path d="M40.625 11.375C41.5225 11.375 42.25 10.6475 42.25 9.75C42.25 8.85254 41.5225 8.125 40.625 8.125C39.7275 8.125 39 8.85254 39 9.75C39 10.6475 39.7275 11.375 40.625 11.375Z" fill="#3CACB6"/>
<path d="M26 22.75C17.0398 22.75 9.75 30.0398 9.75 39C9.75 39.897 10.4764 40.625 11.375 40.625C12.2736 40.625 13 39.897 13 39C13 31.8321 18.8321 26 26 26C33.1679 26 39 31.8321 39 39C39 39.897 39.7264 40.625 40.625 40.625C41.5236 40.625 42.25 39.897 42.25 39C42.25 30.0398 34.9602 22.75 26 22.75Z" fill="#3CACB6"/>
<path d="M26.0004 34.1249C25.7112 34.1249 25.4365 34.1753 25.17 34.2468L22.2743 31.351C21.6389 30.7157 20.6119 30.7157 19.9765 31.351C19.3412 31.9864 19.3412 33.0134 19.9765 33.6488L22.8723 36.5445C22.8008 36.811 22.7504 37.0873 22.7504 37.3749C22.7504 39.1673 24.208 40.6249 26.0004 40.6249C27.7928 40.6249 29.2504 39.1673 29.2504 37.3749C29.2504 35.5825 27.7928 34.1249 26.0004 34.1249Z" fill="#3CACB6"/>
</svg>
