<svg width="56" height="56" viewBox="0 0 56 56" fill="none" xmlns="http://www.w3.org/2000/svg">
<path fill-rule="evenodd" clip-rule="evenodd" d="M21.9855 14.1428C19.3357 14.8613 16.432 19.8129 14.7644 26.4568C13.9899 29.543 13.7737 31.4279 13.8578 34.3653L13.9182 36.4707L12.4035 37.1819C11.5705 37.5731 10.8429 37.8921 10.7868 37.8909C10.7288 37.8897 10.719 37.3238 10.764 36.5831C10.8463 35.2278 10.8344 35.1423 10.2649 32.9666C10.1328 32.4618 10.0247 31.9793 10.0247 31.8947C10.0247 31.81 10.2996 31.4135 10.6357 31.0137C11.6857 29.7647 11.8683 29.4324 11.8683 28.7713C11.8683 28.3081 11.8122 28.1272 11.6091 27.9356C10.9875 27.3491 9.84148 27.2688 8.89225 27.7452C8.23119 28.077 7.78757 28.595 5.17654 32.0838C3.6665 34.1015 2.79931 35.0544 1.38272 36.2529C0.235292 37.2235 0 37.5655 0 38.2627C0 39.0496 0.257418 39.2815 1.13118 39.2815H1.80156L1.99296 39.8932C2.2339 40.6629 2.93205 41.373 3.80247 41.7338C4.36235 41.9659 4.63751 41.9969 6.16461 41.9999C7.99821 42.0036 8.83648 41.8705 10.6415 41.2888C11.7719 40.9245 13.6092 40.1198 14.2701 39.6992C14.5455 39.524 14.7851 39.3976 14.8028 39.4182C14.8204 39.4387 14.9265 39.6383 15.0385 39.8618C15.7453 41.2711 16.5808 41.9508 17.6064 41.9508C18.3066 41.9508 19.8704 41.4659 20.9647 40.9095C21.3449 40.7163 21.6782 40.5581 21.7055 40.5581C21.7327 40.5581 21.8637 40.7438 21.9967 40.9707C22.166 41.2597 22.4325 41.4727 22.8869 41.6823C23.4713 41.9518 23.6338 41.9753 24.529 41.921C25.8589 41.8402 27.7306 41.1276 29.135 40.1672C29.4741 39.9354 29.7693 39.7457 29.7911 39.7457C29.8127 39.7457 30.0922 40.0244 30.412 40.3649C31.4751 41.4972 32.8022 42.0113 34.4414 41.926C36.1268 41.8381 37.7964 40.9812 39.5354 39.3112L40.4125 38.469L40.47 39.4866C40.5642 41.1476 41.15 41.9494 42.2703 41.9504C42.8793 41.9509 43.3554 41.6847 43.7179 41.1408C43.8678 40.916 44.9851 38.9694 46.2008 36.8147C47.4166 34.6602 48.5823 32.7147 48.7913 32.4915C49.3499 31.8949 49.893 31.9631 49.893 32.6298C49.893 32.7271 49.5431 33.1858 49.1152 33.6491C48.2525 34.5835 47.5654 35.6735 47.0647 36.9022C46.7776 37.6064 46.7329 37.8692 46.7289 38.8752C46.7236 40.1984 46.9383 40.7825 47.6162 41.2901C48.8196 42.1913 51.123 42.1585 53.1778 41.2109C54.4568 40.6212 56 39.2898 56 38.7761C56 38.5502 55.3681 35.8656 55.2199 35.4623C55.1225 35.1971 55.0988 35.2113 54.5513 35.8679C53.5752 37.038 52.3881 38.2534 51.9406 38.541C51.446 38.8589 50.8644 38.8973 50.4948 38.6365C50.2905 38.4925 50.2387 38.3429 50.2387 37.8978C50.2387 37.0994 50.8116 36.026 52.1329 34.3489C52.7367 33.5827 53.4644 32.4962 53.7509 31.9337C54.2181 31.016 54.2716 30.8299 54.2716 30.1199C54.2716 29.2309 54.0602 28.597 53.5983 28.1012C53.2389 27.7153 52.6519 27.4433 52.1783 27.4433C51.5427 27.4433 50.3291 27.8261 49.8243 28.1859C49.5299 28.3957 48.4937 29.5869 47.3405 31.0412C46.2522 32.4136 45.3184 33.5539 45.2653 33.5751C45.0269 33.6708 45.2263 33.2682 45.973 32.1474C47.7954 29.4113 50.0196 24.277 50.8516 20.886C51.7131 17.3738 51.4351 15.1123 50.0593 14.4414C49.5251 14.1809 48.3949 14.1341 47.6461 14.3413C47.0077 14.518 45.7711 15.3704 45.2677 15.9808C42.8012 18.9718 41.411 24.2479 40.6612 33.4636L40.5254 35.1317L39.8288 35.8817C38.1758 37.6616 35.9926 39.0498 34.8476 39.0489C33.1449 39.0476 32.2128 37.1365 32.6553 34.5541C32.8721 33.2882 33.4091 31.7461 33.8238 31.1987C34.3607 30.4895 35.2277 30.0974 35.5472 30.4194C35.7702 30.6438 35.7689 31.3842 35.5442 32.2532C35.2515 33.3847 35.6301 34.0588 36.5581 34.0588C37.1728 34.0588 37.6075 33.7991 38.0313 33.1787C38.8592 31.9667 39.0537 30.4204 38.5126 29.3531C38.1724 28.6822 37.3628 27.9787 36.5995 27.6911C35.6567 27.3359 34.176 27.3486 33.2799 27.7199C32.6138 27.9958 31.8437 28.5362 31.3628 29.0649C29.8604 30.7169 28.705 34.0806 28.8364 36.4195L28.894 37.4455L28.1878 37.9696C26.7074 39.0682 25.8124 39.3109 25.4894 38.7012C25.3766 38.4883 25.3521 38.0863 25.3973 37.1924C25.462 35.9079 25.7411 34.6914 26.7814 31.1573C27.3993 29.0579 27.5271 28.1927 27.2702 27.8496C27.1241 27.6545 26.9618 27.6174 26.2519 27.6178C24.7763 27.6184 23.7553 28.2428 23.5704 29.2577C23.5253 29.5046 23.1604 30.9077 22.7593 32.3759C22.3582 33.844 21.9623 35.4053 21.8795 35.8454C21.7385 36.5946 21.6955 36.6701 21.206 37.0302C20.3404 37.6672 19.2821 38.1585 18.7526 38.1691C18.3022 38.1782 18.2557 38.1489 18.058 37.7308C17.7126 37.0001 17.6876 36.3071 17.9691 35.2716C18.2158 34.3641 18.6205 33.5334 20.4069 30.2668C22.5715 26.3089 23.8245 23.5176 24.4113 21.3468C24.9131 19.49 25.0329 18.6094 24.9873 17.114C24.9512 15.9359 24.9088 15.702 24.6251 15.1201C24.1237 14.0916 23.2997 13.7865 21.9855 14.1428ZM48.2798 18.059C48.2798 18.666 47.9656 19.737 47.1612 21.8725C46.8125 22.798 46.014 25.096 45.3867 26.9791C44.7594 28.8622 44.1661 30.5596 44.0682 30.7511L43.8902 31.0992L43.9489 30.635C43.9812 30.3797 44.0652 29.6746 44.1357 29.0682C44.6787 24.3982 45.4063 21.3895 46.5675 19.0139C46.9776 18.1748 47.5711 17.5783 47.9958 17.5783C48.252 17.5783 48.2798 17.6254 48.2798 18.059ZM21.8922 18.6518C21.8901 20.4662 20.604 24.142 18.5724 28.1397C17.8331 29.5945 17.6765 29.8504 17.5833 29.7566C17.507 29.6797 17.8405 26.7972 18.0322 25.8765C18.4626 23.8095 19.2306 21.4222 19.892 20.0955C20.2572 19.3627 21.1445 18.0849 21.3443 18.0037C21.8144 17.813 21.893 17.906 21.8922 18.6518ZM26.5597 21.181C25.8813 21.3162 25.5544 21.4635 25.1252 21.8272C24.0212 22.7629 24.0583 24.6941 25.1952 25.4703C25.562 25.7208 25.7711 25.7654 26.7236 25.7966C27.797 25.8316 27.8444 25.8221 28.4609 25.4484C29.359 24.9038 29.6397 24.3273 29.5908 23.1272C29.5581 22.3244 29.5208 22.1993 29.2185 21.8816C28.6673 21.302 27.498 20.9939 26.5597 21.181ZM7.31376 34.5132C7.45722 34.9682 7.41447 37.8229 7.25673 38.3345C7.05312 38.9943 6.51098 39.4164 5.78528 39.4801C5.1497 39.5361 4.77671 39.3556 3.97911 38.6067L3.44585 38.1059L5.25155 36.1984C6.24481 35.1493 7.09933 34.2909 7.1506 34.2909C7.20176 34.2909 7.27528 34.3909 7.31376 34.5132Z" fill="#3596E0"/>
</svg>
