<svg width="52" height="52" viewBox="0 0 52 52" fill="none" xmlns="http://www.w3.org/2000/svg">
<g clip-path="url(#clip0_518_666)">
<path d="M39.6446 3.86377C47.0591 8.44379 51.9999 16.6449 51.9999 25.9999C51.9999 40.3594 40.3593 51.9999 25.9999 51.9999C22.8685 51.9999 19.8664 51.4464 17.087 50.4309L16.79 50.3204L17.2736 50.1651L17.8951 49.9612L18.2018 49.8588L18.5057 49.756L19.1053 49.5495L19.6939 49.3416L20.2716 49.1323L20.8382 48.9216L21.1174 48.8158L21.6677 48.603C22.2487 48.3753 22.811 48.1452 23.3547 47.9126L23.7589 47.7376L24.2543 47.5177C24.472 47.4196 24.6865 47.321 24.8978 47.2221L25.2122 47.0733L25.6748 46.8488L25.902 46.736L26.1264 46.6228L26.5671 46.3953C30.2662 44.4549 32.7795 42.347 34.1138 40.0359C36.941 35.139 34.4719 29.9061 27.3838 24.5712L26.8069 24.1387L26.4565 23.87L26.1163 23.6033L25.7863 23.3387L25.4664 23.0761L25.3103 22.9456L25.1566 22.8155L24.8569 22.5569L24.6386 22.3643L24.426 22.1728L24.1513 21.9192L23.8865 21.6676L23.6315 21.4179L23.5078 21.2938L23.3865 21.1702L23.1513 20.9244C20.3493 17.9458 19.7236 15.3959 20.9957 13.1926C21.6431 12.0712 22.7656 10.9687 24.3611 9.89496L24.5549 9.76625L24.8599 9.56994C24.9979 9.48284 25.139 9.39594 25.2832 9.30924L25.5019 9.17935L25.8389 8.98509L26.1864 8.79153L26.454 8.64684L26.7276 8.50256L27.1017 8.31084C27.3862 8.16733 27.6796 8.02446 27.982 7.88226L28.2874 7.74027L28.7038 7.55166L28.916 7.45765L29.3483 7.27026L29.5685 7.17688L30.0167 6.99074L30.2447 6.89798L30.7088 6.71313L30.9448 6.62102L31.4247 6.43748L31.9153 6.25482L32.1645 6.16383L32.6708 5.98254L33.1878 5.80218L33.7153 5.62276L33.983 5.5334L34.5263 5.35541L35.0802 5.17839L35.6447 5.00237L36.2197 4.82734L36.8052 4.65332L37.552 4.43725L38.3152 4.22281L39.2528 3.96768L39.6446 3.86377Z" fill="url(#paint0_linear_518_666)"/>
<path d="M26 0C29.1619 0 32.1919 0.564397 34.9948 1.59794L35.2943 1.71047L35.1044 1.76795L34.1783 2.0534L33.8751 2.1493L33.2768 2.3422L32.6894 2.53661L32.113 2.73253L31.5474 2.92998L30.9927 3.12897L30.7195 3.22905L30.0482 3.48097L29.394 3.73535L28.8829 3.94066L28.6314 4.04391L28.1366 4.25164C23.08 6.40655 19.766 8.82277 18.1813 11.5677C15.4153 16.3585 17.9241 21.523 25.0129 26.8564L25.5897 27.2889L25.94 27.5578L26.28 27.8248L26.4462 27.9575L26.7709 28.2216L27.0077 28.4185L27.2388 28.6142L27.5381 28.8736L27.684 29.0026L27.9681 29.2591C28.1232 29.4012 28.2736 29.5423 28.4194 29.6826L28.6346 29.8925L28.9445 30.2049L29.2389 30.5144C32.0289 33.5137 32.6252 36.1146 31.2994 38.4109C30.4415 39.8968 28.8037 41.3595 26.3896 42.7795L26.168 42.9084L25.8088 43.1119L25.4389 43.3147C25.2305 43.4273 25.0171 43.5395 24.7988 43.6514L24.4675 43.8191L24.0603 44.0197L23.6423 44.2197L23.2137 44.4189L22.9954 44.5183L22.5508 44.7165L22.0955 44.914L21.6295 45.1108L21.3925 45.2089L20.9105 45.4046L20.6655 45.5021L20.4179 45.5995L19.9146 45.7936L19.4006 45.987L18.876 46.1795L18.3408 46.3713L17.7949 46.5622L17.5179 46.6573L16.956 46.847L16.6711 46.9415L16.0932 47.1298L15.5047 47.3173L14.7542 47.5504L13.987 47.7821L13.3613 47.9665L12.488 48.2176C4.99981 43.6538 0 35.4108 0 26C0 11.6406 11.6406 0 26 0Z" fill="url(#paint1_linear_518_666)"/>
</g>
<defs>
<linearGradient id="paint0_linear_518_666" x1="1777.28" y1="3.86377" x2="1777.28" y2="4817.48" gradientUnits="userSpaceOnUse">
<stop stop-color="#0080FF"/>
<stop offset="1" stop-color="#00B7FF"/>
</linearGradient>
<linearGradient id="paint1_linear_518_666" x1="1764.71" y1="0" x2="1764.71" y2="4821.76" gradientUnits="userSpaceOnUse">
<stop stop-color="#00B7FF"/>
<stop offset="1" stop-color="#0080FF"/>
</linearGradient>
<clipPath id="clip0_518_666">
<rect width="52" height="52" fill="white"/>
</clipPath>
</defs>
</svg>
