<svg width="52" height="52" viewBox="0 0 52 52" fill="none" xmlns="http://www.w3.org/2000/svg">
<g clip-path="url(#clip0_518_728)">
<path d="M46 0H6C2.68629 0 0 2.68629 0 6V46C0 49.3137 2.68629 52 6 52H46C49.3137 52 52 49.3137 52 46V6C52 2.68629 49.3137 0 46 0Z" fill="#282828"/>
<path d="M13.2135 25.4029L25.4124 13.1308C28.4751 10.0514 33.4386 10.0514 36.4995 13.1308C37.2325 13.9027 37.1982 15.1517 36.4439 15.9105C35.6779 16.6815 34.4389 16.6815 33.671 15.9105L33.486 15.6957C31.9467 14.383 29.6369 14.4575 28.1839 15.92L15.711 28.4656C14.8895 29.2271 13.6491 29.2271 12.884 28.4574C12.1179 27.6878 12.1179 26.4388 12.884 25.6692C12.9869 25.5667 13.0966 25.4782 13.2135 25.4029ZM40.6013 25.6696C39.8353 24.9 38.5957 24.9 37.8297 25.6696C37.7277 25.7734 37.6383 25.8845 37.5625 26.0023L25.4128 38.2242C23.8817 39.7635 21.3995 39.7635 19.8688 38.2242L19.8133 38.2156C19.0486 37.446 17.8082 37.446 17.0417 38.2156C16.2771 38.9839 16.2771 40.2343 17.0417 41.0025C17.1397 41.1005 17.244 41.1867 17.3541 41.2612C20.4326 44.0883 25.207 44.0065 28.1839 41.012L40.6013 28.4579C41.3659 27.6883 41.3659 26.4393 40.6013 25.6696ZM21.5281 33.7667C21.4121 33.8434 21.3011 33.9315 21.1995 34.0339C20.4335 34.8027 20.4335 36.0526 21.1995 36.8208C21.9646 37.5905 23.2046 37.5905 24.0266 36.8303L36.4995 24.2825C38.0306 22.7432 40.5128 22.7432 42.0421 24.2825C43.575 25.8226 43.575 28.3202 42.0421 29.8595L30.2152 41.8128C31.7477 43.352 34.2285 43.352 35.7592 41.8128L44.815 32.6477C47.8755 29.5683 47.8755 24.5754 44.815 21.4947C41.7546 18.4171 36.7902 18.4171 33.7279 21.4947L21.5281 33.7667ZM19.8684 32.6477L32.2857 20.0936C33.0513 19.323 33.0513 18.074 32.2857 17.3058C31.5211 16.5352 30.2793 16.5352 29.5142 17.3058C29.4113 17.4073 29.3228 17.5197 29.2483 17.6375L17.0973 29.8599C15.5661 31.4001 13.0848 31.4001 11.5546 29.8599C10.0221 28.3207 10.0221 25.8231 11.5546 24.2829L23.3815 12.331C21.8513 10.7904 19.3682 10.7904 17.8375 12.331L8.7817 21.4947C5.7199 24.5754 5.7199 29.5683 8.7817 32.6477C11.8435 35.728 16.8088 35.728 19.8684 32.6477Z" fill="#282828"/>
<path d="M20.7359 10.8784L26.1246 29.2513L31.5146 10.8784H35.4159H44.6721V12.7625L39.8978 22.2651C41.8284 22.8881 43.6542 24.021 44.6455 25.6578C45.6363 27.2977 46.3125 29.2246 46.3125 31.4351C46.3125 34.1687 45.6778 36.464 44.2275 38.3282C42.779 40.1898 40.9486 41.1214 38.6434 41.1214C36.9082 41.1214 35.4227 40.568 34.1331 39.4644C32.8444 38.358 31.9041 36.8626 31.2853 34.9722L34.3358 33.7069C34.7826 34.8503 35.3735 35.7486 36.1061 36.4085C36.8351 37.0666 37.6973 37.393 38.6885 37.393C39.7299 37.393 40.6114 36.8102 41.3291 35.6438C42.0468 34.4743 42.4075 33.0718 42.4075 31.4315C42.4075 29.6192 42.0206 27.6633 41.2542 26.672C40.3627 25.502 38.962 24.3695 37.054 24.3695H34.4883V23.6807L40.7699 14.2507H34.4901L34.1331 14.2801L26.4956 39.547H26.1246L20.5481 20.8383L14.9762 39.5474H14.6033L5.6875 10.8784H9.58795L14.9766 29.2806L18.6175 16.8909L16.8336 10.8784H20.7359Z" fill="white"/>
</g>
<defs>
<clipPath id="clip0_518_728">
<rect width="52" height="52" fill="white"/>
</clipPath>
</defs>
</svg>
