<svg width="28" height="28" viewBox="0 0 28 28" fill="none" xmlns="http://www.w3.org/2000/svg">
<circle cx="17" cy="17" r="11" fill="#F0EEE8"/>
<path d="M16.5 2.68945L13.1089 6.08057L8.05371 7.52637C7.06296 7.79412 6.27863 8.53541 5.95312 9.51416L2.89453 18.9551L3.96973 20.0303L5.04492 21.1055L14.4902 18.0454C15.4637 17.7214 16.2052 16.9361 16.4707 15.9551L17.9165 10.894L21.3105 7.5L16.5 2.68945ZM16.5 4.81055L19.1895 7.5L17.25 9.43945L14.5605 6.75L16.5 4.81055ZM13.2832 7.59375L16.4062 10.7168L15.0249 15.5537C14.8884 16.0577 14.5119 16.4566 14.0229 16.6201L5.76709 19.2935L10.1133 14.9473C10.2393 14.9816 10.3693 14.9993 10.5 15C10.8978 15 11.2794 14.842 11.5607 14.5607C11.842 14.2794 12 13.8978 12 13.5C12 13.1022 11.842 12.7206 11.5607 12.4393C11.2794 12.158 10.8978 12 10.5 12C10.2702 12.0003 10.0436 12.0534 9.83758 12.1552C9.63157 12.257 9.45171 12.4047 9.31185 12.587C9.172 12.7694 9.07591 12.9814 9.03098 13.2067C8.98605 13.4321 8.99349 13.6647 9.05273 13.8867L4.70654 18.2329L7.37842 9.98291C7.54342 9.48716 7.94279 9.11167 8.45654 8.97217L13.2832 7.59375Z" fill="black"/>
</svg>
