<svg width="28" height="28" viewBox="0 0 28 28" fill="none" xmlns="http://www.w3.org/2000/svg">
<circle cx="17" cy="17" r="11" fill="#F0EEE8"/>
<path d="M9.74951 3V8.10352L5.33008 5.55176L3.08008 9.44971L7.49951 12L3.08008 14.5503L5.33008 18.4482L9.74951 15.8965V21H14.2495V15.8965L18.6689 18.4482L20.9189 14.5503L16.4995 12L20.9189 9.44971L18.6689 5.55176L14.2495 8.10352V3H9.74951ZM11.2495 4.5H12.7495V10.7021L18.1196 7.60107L18.8696 8.89893L13.4995 12L18.8696 15.1011L18.1196 16.3989L12.7495 13.2979V19.5H11.2495V13.2979L5.87939 16.3989L5.12939 15.1011L10.4995 12L5.12939 8.89893L5.87939 7.60107L11.2495 10.7021V4.5Z" fill="black"/>
</svg>
