<svg width="165" height="48" viewBox="0 0 165 48" fill="none" xmlns="http://www.w3.org/2000/svg">
<path d="M50.7871 24.0684C49.8729 23.137 49.1528 21.9939 48.7148 20.6387L58.6621 12L68.7715 20.5049C68.3635 21.8514 67.6755 22.9931 66.7939 23.9307C62.7203 19.7758 54.7761 19.8227 50.7871 24.0684ZM48.8262 27.4277C49.239 26.1092 49.9207 24.9905 50.7871 24.0684C54.8672 28.2252 62.8122 28.1655 66.7939 23.9307C67.7228 24.878 68.4504 26.0436 68.8838 27.4277L58.8555 36L48.8262 27.4277Z" fill="#999999"/>
<path d="M74.9336 24.0464C74.9336 22.9988 75.1695 22.063 75.6413 21.2391C76.1234 20.405 76.7747 19.7592 77.5952 19.3014C78.426 18.8336 79.3543 18.5996 80.38 18.5996C81.58 18.5996 82.6313 18.9048 83.5339 19.515C84.4365 20.1253 85.0673 20.9696 85.4263 22.0477H82.9493C82.7031 21.5392 82.3544 21.1577 81.9031 20.9034C81.4621 20.6492 80.9492 20.522 80.3646 20.522C79.7389 20.522 79.1799 20.6695 78.6876 20.9645C78.2055 21.2493 77.826 21.6561 77.5491 22.185C77.2824 22.714 77.1491 23.3344 77.1491 24.0464C77.1491 24.7482 77.2824 25.3687 77.5491 25.9078C77.826 26.4367 78.2055 26.8486 78.6876 27.1436C79.1799 27.4284 79.7389 27.5708 80.3646 27.5708C80.9492 27.5708 81.4621 27.4437 81.9031 27.1894C82.3544 26.9249 82.7031 26.5384 82.9493 26.0298H85.4263C85.0673 27.1182 84.4365 27.9675 83.5339 28.5778C82.6416 29.1779 81.5903 29.478 80.38 29.478C79.3543 29.478 78.426 29.2491 77.5952 28.7914C76.7747 28.3235 76.1234 27.6776 75.6413 26.8537C75.1695 26.0298 74.9336 25.0941 74.9336 24.0464Z" fill="#999999"/>
<path d="M88.6507 22.2461C88.9277 21.7985 89.2866 21.4476 89.7277 21.1933C90.179 20.939 90.6918 20.8119 91.2662 20.8119V23.0547H90.6969C90.02 23.0547 89.5072 23.2124 89.1584 23.5277C88.82 23.843 88.6507 24.3922 88.6507 25.1754V29.3864H86.4968V20.934H88.6507V22.2461Z" fill="#999999"/>
<path d="M95.7325 29.5237C94.9119 29.5237 94.1734 29.3457 93.517 28.9897C92.8606 28.6235 92.3426 28.1099 91.9631 27.4487C91.5939 26.7876 91.4092 26.0248 91.4092 25.1602C91.4092 24.2956 91.599 23.5328 91.9785 22.8716C92.3682 22.2105 92.8965 21.7019 93.5632 21.3459C94.2299 20.9797 94.9735 20.7966 95.794 20.7966C96.6146 20.7966 97.3582 20.9797 98.0249 21.3459C98.6916 21.7019 99.2147 22.2105 99.5942 22.8716C99.9839 23.5328 100.179 24.2956 100.179 25.1602C100.179 26.0248 99.9788 26.7876 99.5788 27.4487C99.189 28.1099 98.6557 28.6235 97.9787 28.9897C97.312 29.3457 96.5633 29.5237 95.7325 29.5237ZM95.7325 27.6624C96.1222 27.6624 96.4864 27.5708 96.8248 27.3877C97.1736 27.1945 97.4505 26.9097 97.6556 26.5333C97.8608 26.157 97.9633 25.6993 97.9633 25.1602C97.9633 24.3566 97.7479 23.7413 97.3172 23.3141C96.8966 22.8767 96.3787 22.658 95.7633 22.658C95.1478 22.658 94.6299 22.8767 94.2093 23.3141C93.7991 23.7413 93.5939 24.3566 93.5939 25.1602C93.5939 25.9637 93.7939 26.5842 94.194 27.0215C94.6042 27.4487 95.1171 27.6624 95.7325 27.6624Z" fill="#999999"/>
<path d="M105.713 20.8119C106.728 20.8119 107.549 21.1323 108.174 21.7731C108.8 22.4037 109.113 23.2886 109.113 24.4278V29.3864H106.959V24.7177C106.959 24.0464 106.79 23.5328 106.451 23.1768C106.113 22.8106 105.651 22.6275 105.067 22.6275C104.472 22.6275 104 22.8106 103.651 23.1768C103.313 23.5328 103.143 24.0464 103.143 24.7177V29.3864H100.99V20.934H103.143V21.9867C103.431 21.6205 103.795 21.3357 104.236 21.1323C104.687 20.9187 105.179 20.8119 105.713 20.8119Z" fill="#999999"/>
<path d="M109.838 25.1297C109.838 24.2753 110.007 23.5175 110.346 22.8564C110.695 22.1952 111.161 21.6866 111.746 21.3306C112.341 20.9746 113.002 20.7966 113.731 20.7966C114.366 20.7966 114.92 20.9238 115.392 21.1781C115.874 21.4324 116.259 21.7528 116.546 22.1393V20.934H118.715V29.3864H116.546V28.1506C116.269 28.5473 115.884 28.8778 115.392 29.1423C114.91 29.3966 114.351 29.5237 113.715 29.5237C112.997 29.5237 112.341 29.3406 111.746 28.9745C111.161 28.6083 110.695 28.0946 110.346 27.4335C110.007 26.7622 109.838 25.9942 109.838 25.1297ZM116.546 25.1602C116.546 24.6414 116.443 24.199 116.238 23.8328C116.033 23.4565 115.756 23.1717 115.408 22.9784C115.059 22.775 114.684 22.6733 114.284 22.6733C113.884 22.6733 113.515 22.7699 113.177 22.9632C112.838 23.1564 112.561 23.4412 112.346 23.8176C112.141 24.1837 112.038 24.6211 112.038 25.1297C112.038 25.6382 112.141 26.0858 112.346 26.4723C112.561 26.8486 112.838 27.1385 113.177 27.342C113.525 27.5454 113.895 27.6471 114.284 27.6471C114.684 27.6471 115.059 27.5505 115.408 27.3572C115.756 27.1538 116.033 26.869 116.238 26.5028C116.443 26.1265 116.546 25.6789 116.546 25.1602Z" fill="#999999"/>
</svg>
