<svg width="161" height="48" viewBox="0 0 161 48" fill="none" xmlns="http://www.w3.org/2000/svg">
<g clip-path="url(#clip0_606_1459)">
<path d="M60.9621 14.2096C60.3222 13.7334 59.5177 13.5921 58.7538 13.8213L53.586 15.3715C52.5214 15.6911 51.8057 16.6523 51.8057 17.7642V28.8095C51.8057 29.6071 52.1726 30.3374 52.8125 30.8129C53.4524 31.2892 54.2578 31.4304 55.0209 31.2014L58.8786 30.0437C58.758 29.6458 58.6969 29.2307 58.6969 28.8095V23.7933C58.6969 22.74 59.081 21.734 59.7804 20.9622C60.2937 20.3937 60.9595 19.9743 61.7037 19.7504L61.9689 19.6746V16.2139C61.9689 15.4163 61.602 14.6859 60.962 14.2096H60.9621Z" fill="#999999"/>
<path d="M70.5823 22.2432V27.2594C70.5823 28.3705 69.8674 29.3326 68.802 29.6513L63.6342 31.2016C63.3948 31.2739 63.151 31.3093 62.9099 31.3093C62.3818 31.3093 61.8651 31.1405 61.4258 30.8132C61.2251 30.6633 61.0511 30.4902 60.9081 30.2964C60.7342 30.0639 60.6041 29.8046 60.5223 29.5264C60.5214 29.5264 60.5206 29.5264 60.5197 29.5272L60.5214 29.5255C60.4551 29.2972 60.4189 29.057 60.4189 28.8097V23.7936C60.4189 23.2785 60.5723 22.7954 60.8428 22.394C61.1132 21.9926 61.5007 21.6722 61.9693 21.4818C62.0443 21.4517 62.1209 21.4241 62.1993 21.4009L62.8315 21.2114L67.3672 19.8505C68.1311 19.6214 68.9356 19.7627 69.5755 20.239C70.2155 20.7153 70.5823 21.4456 70.5823 22.2432H70.5823Z" fill="#999999"/>
<path d="M77.9727 18.1924H75.6631V29.9356H83.2185V27.8767H77.9727V18.1924Z" fill="#999999"/>
<path d="M88.114 20.8398C85.3389 20.8398 83.5127 22.7735 83.5127 25.4948C83.5127 28.2162 85.3389 30.1498 88.114 30.1498C90.889 30.1498 92.7152 28.2162 92.7152 25.4948C92.7152 22.7735 90.889 20.8398 88.114 20.8398V20.8398ZM88.114 28.1983C86.6638 28.1983 85.7149 27.0704 85.7149 25.4948C85.7149 23.9014 86.6637 22.7914 88.114 22.7914C89.5642 22.7914 90.513 23.9014 90.513 25.4948C90.513 27.0704 89.5642 28.1983 88.114 28.1983Z" fill="#999999"/>
<path d="M100.494 22.2907C99.9567 21.3597 98.8467 20.8047 97.5397 20.8047C95.0153 20.8047 93.3145 22.7204 93.3145 25.3165C93.3145 27.8946 94.9795 29.7566 97.4681 29.7566C98.7572 29.7566 99.8672 29.2373 100.422 28.3779V29.8818C100.422 31.332 99.5091 32.2988 97.9873 32.2988C96.6266 32.2988 95.6956 31.6364 95.5702 30.4727H93.3681C93.6546 32.7822 95.427 34.2862 97.8619 34.2862C100.727 34.2862 102.553 32.4062 102.553 29.488V21.0911H100.619L100.494 22.2906L100.494 22.2907ZM97.8441 27.8588C96.4834 27.8588 95.5345 26.7487 95.5345 25.2627C95.5345 23.7946 96.4655 22.7204 97.8441 22.7204C99.348 22.7204 100.351 23.8125 100.351 25.2627C100.351 26.7308 99.348 27.8588 97.8441 27.8588Z" fill="#999999"/>
<path d="M106.095 21.0908H103.911V29.9352H106.095V21.0908Z" fill="#999999"/>
<path d="M105.004 16.6865C104.27 16.6865 103.715 17.2594 103.715 17.9755C103.715 18.7096 104.27 19.2825 105.004 19.2825C105.72 19.2825 106.311 18.7097 106.311 17.9755C106.311 17.2594 105.72 16.6865 105.004 16.6865V16.6865Z" fill="#999999"/>
<path d="M113.417 26.6947C113.167 27.6973 112.361 28.2165 111.394 28.2165C110.034 28.2165 109.192 27.196 109.192 25.4951C109.192 23.7764 110.051 22.7559 111.412 22.7559C112.361 22.7559 113.167 23.2572 113.417 24.2956H115.476C115.244 22.2188 113.65 20.8223 111.43 20.8223C108.834 20.8223 107.008 22.7201 107.008 25.4951C107.008 28.2702 108.762 30.168 111.251 30.168C113.543 30.168 115.226 28.7715 115.494 26.6947H113.417H113.417Z" fill="#999999"/>
</g>
<defs>
<clipPath id="clip0_606_1459">
<rect width="63.6889" height="20.5714" fill="white" transform="translate(51.8057 13.7139)"/>
</clipPath>
</defs>
</svg>
