<svg width="165" height="48" viewBox="0 0 165 48" fill="none" xmlns="http://www.w3.org/2000/svg">
<g clip-path="url(#clip0_606_1456)">
<path d="M73.9655 28.2187V30.6993H63.6367V28.7411L69.8598 21.7288H63.6367V19.249H73.7847V21.301L67.7923 28.2187H73.9655Z" fill="#999999"/>
<path d="M85.8679 23.3069V30.7023H82.8037V29.1237H82.7366C82.3527 29.7323 81.226 30.8151 78.9933 30.8151C76.7605 30.8151 75.2061 29.5524 75.2061 27.5228C75.2061 25.3133 76.8741 23.6228 81.6762 23.6228H82.8037V23.2845C82.8037 22.0442 82.0377 21.3006 80.7974 21.3006C79.5794 21.3006 78.8357 21.9539 78.7454 22.9463H75.7242C75.769 20.3761 77.8433 18.9551 80.7974 18.9551C84.0664 18.9551 85.8679 20.5578 85.8679 23.3069ZM82.8037 26.3728V25.5612H81.6994C79.106 25.5612 78.3623 26.3505 78.3623 27.2973C78.3623 28.1322 79.0389 28.6486 80.101 28.6486C81.609 28.6486 82.8037 27.6355 82.8037 26.3728Z" fill="#999999"/>
<path d="M99.3987 23.6679V30.7027H96.2192V24.3453C96.2192 22.7444 95.4299 21.7519 94.1905 21.7519C92.5895 21.7519 91.4843 22.8571 91.4843 24.8859V30.7035H88.3057V19.2489H91.4843V21.3681C92.2065 19.7223 93.5139 18.958 95.1597 18.958C97.8882 18.9554 99.3987 20.8723 99.3987 23.6679Z" fill="#999999"/>
<path d="M105.6 21.7288V26.4413C105.6 27.6136 106.299 28.2488 107.449 28.2488C107.922 28.2488 108.508 28.1808 109.32 27.7522V30.4351C108.598 30.819 107.696 30.9317 106.952 30.9317C104.224 30.9317 102.42 29.3308 102.42 26.8958V21.7314H100.368V19.2491H100.414C101.791 19.2491 102.42 18.6853 102.42 17.3555V15.8242H105.6V19.2516H109.545V21.7288H105.6Z" fill="#999999"/>
<path d="M112.551 13.7148H112.654C113.152 13.7148 113.629 13.9125 113.981 14.2644C114.333 14.6163 114.531 15.0936 114.531 15.5912V15.5912C114.531 15.8376 114.482 16.0816 114.388 16.3092C114.294 16.5368 114.155 16.7436 113.981 16.9177C113.807 17.0919 113.6 17.23 113.372 17.3242C113.145 17.4184 112.901 17.4669 112.654 17.4668H112.551C112.305 17.4669 112.061 17.4184 111.833 17.3242C111.606 17.23 111.399 17.0919 111.224 16.9177C111.05 16.7436 110.912 16.5368 110.818 16.3092C110.723 16.0816 110.675 15.8376 110.675 15.5912V15.5912C110.675 15.0936 110.873 14.6163 111.224 14.2644C111.576 13.9125 112.054 13.7148 112.551 13.7148V13.7148ZM111.013 19.2485H114.187V30.7022H111.01L111.013 19.2485Z" fill="#999999"/>
<path d="M121.922 30.995C118.27 30.995 115.992 28.5376 115.992 24.9526C115.992 21.4125 118.27 18.9551 121.922 18.9551C125.011 18.9551 127.152 20.7368 127.468 23.603H124.334C124.109 22.2956 123.297 21.4391 121.877 21.4391C120.095 21.4391 119.058 22.8593 119.058 24.9561C119.058 27.0528 120.095 28.473 121.877 28.473C123.365 28.473 124.177 27.5718 124.402 26.1491H127.513C127.269 29.079 125.124 30.995 121.922 30.995Z" fill="#999999"/>
<path d="M55.4842 17.3631C55.7715 17.6565 55.9882 18.0115 56.118 18.401C56.2477 18.7906 56.2872 19.2046 56.2333 19.6116C56.1794 20.0187 56.0335 20.4081 55.8068 20.7505C55.5801 21.0928 55.2785 21.3791 54.9247 21.5876C52.3748 23.0868 49.3992 23.6968 46.465 23.322C43.5308 22.9472 40.8041 21.6087 38.7129 19.5167L42.4872 15.6641C43.7369 16.9135 45.3645 17.7148 47.1168 17.9435C48.8692 18.1722 50.6479 17.8153 52.1764 16.9285C52.6967 16.6219 53.3045 16.4977 53.9034 16.5757C54.5023 16.6536 55.058 16.9293 55.4825 17.3588L55.4842 17.3631Z" fill="#999999"/>
<path d="M55.4682 17.3462C54.9623 16.8407 54.2764 16.5566 53.5612 16.5566C52.846 16.5566 52.1601 16.8407 51.6543 17.3462L40.2066 28.7939C39.701 29.2998 39.417 29.9857 39.417 30.7009C39.417 31.4161 39.701 32.102 40.2066 32.6078V32.6078C40.4569 32.8584 40.7542 33.0571 41.0814 33.1927C41.4086 33.3283 41.7593 33.3981 42.1135 33.3981C42.4677 33.3981 42.8184 33.3283 43.1456 33.1927C43.4728 33.0571 43.7701 32.8584 44.0205 32.6078L55.4682 21.1601C55.7187 20.9098 55.9175 20.6125 56.0531 20.2853C56.1887 19.9581 56.2585 19.6074 56.2585 19.2532C56.2585 18.899 56.1887 18.5483 56.0531 18.2211C55.9175 17.8939 55.7187 17.5966 55.4682 17.3462Z" fill="#999999"/>
<path d="M40.1917 32.5859C39.9044 32.2927 39.6877 31.9379 39.5578 31.5484C39.428 31.159 39.3885 30.7451 39.4423 30.3381C39.4961 29.9311 39.6419 29.5417 39.8685 29.1994C40.0951 28.8571 40.3967 28.5708 40.7504 28.3623C43.3005 26.8634 46.2761 26.2534 49.2103 26.6281C52.1445 27.0027 54.8713 28.3408 56.963 30.4324L53.187 34.2859C51.9373 33.0365 50.3097 32.2351 48.5574 32.0064C46.8051 31.7778 45.0263 32.1346 43.4978 33.0215C42.9769 33.3273 42.3688 33.4505 41.77 33.3716C41.1711 33.2927 40.6157 33.0162 40.1917 32.5859V32.5859Z" fill="#999999"/>
</g>
<defs>
<clipPath id="clip0_606_1456">
<rect width="88.8006" height="20.5714" fill="white" transform="translate(38.7139 13.7148)"/>
</clipPath>
</defs>
</svg>
