<svg width="165" height="48" viewBox="0 0 165 48" fill="none" xmlns="http://www.w3.org/2000/svg">
<g clip-path="url(#clip0_606_1438)">
<path d="M37.8271 17.5391V18.7698L44.8015 22.257L37.8271 25.7441V36.0006L46.0322 31.898V21.6416L37.8271 17.5391Z" fill="#999999"/>
<path d="M27.5693 26.359L35.7744 30.4615V29.2308L28.8001 25.7436L35.7744 22.2564V12L27.5693 16.1025V26.359Z" fill="#999999"/>
<path d="M59.4018 30.4486H54.2363V17.5566H59.0111C61.9628 17.5566 63.3735 18.8805 63.3735 20.9207C63.3735 22.3532 62.5705 23.3514 61.3985 23.7422C62.9177 24.1112 63.9595 25.218 63.9595 26.8241C63.9595 28.951 62.4185 30.4485 59.4017 30.4485L59.4018 30.4486ZM58.7724 19.293H56.3199V23.1562H58.9026C60.5304 23.1562 61.29 22.3749 61.29 21.2029C61.29 20.0092 60.5304 19.293 58.7724 19.293V19.293ZM59.1632 24.7407H56.3199V28.7125H59.1414C60.8994 28.7125 61.8326 28.018 61.8326 26.6506C61.8326 25.4352 60.9861 24.7407 59.1631 24.7407H59.1632Z" fill="#999999"/>
<path d="M69.5804 30.6005C66.7155 30.6005 64.5234 28.5604 64.5234 25.6738C64.5234 22.7872 66.7155 20.7471 69.5804 20.7471C72.467 20.7471 74.6373 22.7872 74.6373 25.6738C74.6373 28.5604 72.467 30.6005 69.5804 30.6005ZM69.5804 22.5268C67.9092 22.5268 66.6287 23.8073 66.6287 25.6738C66.6287 27.5403 67.931 28.8208 69.5804 28.8208C71.2515 28.8208 72.5321 27.5403 72.5321 25.6738C72.5321 23.8073 71.2299 22.5268 69.5804 22.5268V22.5268Z" fill="#999999"/>
<path d="M80.1937 30.6005C77.3288 30.6005 75.1367 28.5604 75.1367 25.6738C75.1367 22.7872 77.3288 20.7471 80.1937 20.7471C83.0802 20.7471 85.2506 22.7872 85.2506 25.6738C85.2506 28.5604 83.0802 30.6005 80.1937 30.6005V30.6005ZM80.1937 22.5268C78.5225 22.5268 77.242 23.8073 77.242 25.6738C77.242 27.5403 78.5441 28.8208 80.1937 28.8208C81.8648 28.8208 83.1453 27.5403 83.1453 25.6738C83.1453 23.8073 81.8432 22.5268 80.1937 22.5268V22.5268Z" fill="#999999"/>
<path d="M91.3487 25.0226L95.4073 30.4485H92.9981L89.8077 26.4551L88.462 27.9092V30.4485H86.4219V16.7969L88.462 16.6885V25.9342H88.5489C88.8744 25.3916 89.3736 24.6971 90.003 23.9158L92.8678 20.8556L95.125 20.9424L91.3486 25.0227L91.3487 25.0226Z" fill="#999999"/>
<path d="M104.108 19.9654C103.392 19.553 102.003 19.2709 100.918 19.2709C99.2251 19.2709 98.2918 19.9003 98.2918 20.9855C98.2918 23.5682 105.063 22.3094 105.063 26.7587C105.063 29.1243 103.349 30.6002 100.05 30.6002C98.4871 30.6002 96.9679 30.2529 96.0781 29.7754L96.2952 27.8004C97.1416 28.2996 98.6826 28.7337 100.115 28.7337C102.025 28.7337 102.915 28.1043 102.915 26.954C102.915 24.2844 96.1216 25.6083 96.1216 21.1591C96.1216 18.9453 97.8796 17.4043 100.875 17.4043C102.177 17.4043 103.631 17.6431 104.521 18.0988L104.109 19.9653L104.108 19.9654Z" fill="#999999"/>
<path d="M111.638 22.6567H108.86V27.2795C108.86 28.3648 109.446 28.8205 110.401 28.8205C110.944 28.8205 111.443 28.6252 111.79 28.3648L111.899 30.101C111.443 30.4265 110.77 30.6002 109.967 30.6002C107.862 30.6002 106.842 29.5151 106.842 27.5183V22.6567H105.496V20.8987H106.842V18.8152L108.86 18.3594V20.8987H111.79L111.638 22.6567H111.638Z" fill="#999999"/>
<path d="M117.41 30.6005C114.546 30.6005 112.354 28.5604 112.354 25.6738C112.354 22.7872 114.546 20.7471 117.41 20.7471C120.297 20.7471 122.467 22.7872 122.467 25.6738C122.467 28.5604 120.297 30.6005 117.41 30.6005ZM117.41 22.5268C115.739 22.5268 114.459 23.8073 114.459 25.6738C114.459 27.5403 115.761 28.8208 117.41 28.8208C119.082 28.8208 120.362 27.5403 120.362 25.6738C120.362 23.8073 119.06 22.5268 117.41 22.5268V22.5268Z" fill="#999999"/>
<path d="M129.153 22.8091C128.936 22.7222 128.502 22.6354 128.177 22.6354C127.243 22.6354 126.354 23.0912 125.681 23.7857V30.4487H123.641V20.9425L125.681 20.8556V22.1361C126.484 21.2245 127.482 20.7471 128.502 20.7471C128.763 20.7471 129.067 20.7905 129.218 20.8556L129.153 22.8089L129.153 22.8091Z" fill="#999999"/>
<path d="M131.539 26.1511C131.756 27.8007 133.058 28.8207 135.077 28.8207C136.162 28.8207 137.421 28.4734 138.18 27.9309L138.267 29.7322C137.529 30.2748 136.097 30.6004 134.946 30.6004C131.496 30.6004 129.412 28.6687 129.412 25.587C129.412 22.6786 131.409 20.7471 134.078 20.7471C136.509 20.7471 138.267 22.3315 138.267 24.849C138.267 25.218 138.245 25.7388 138.18 26.1511H131.539V26.1511ZM131.474 24.9141H136.336C136.357 24.8272 136.357 24.6753 136.357 24.5668C136.357 23.1995 135.446 22.2445 134.078 22.2445C132.646 22.2445 131.626 23.2863 131.474 24.9141Z" fill="#999999"/>
</g>
<defs>
<clipPath id="clip0_606_1438">
<rect width="110.698" height="24" fill="white" transform="translate(27.5713 12)"/>
</clipPath>
</defs>
</svg>
