<svg width="165" height="48" viewBox="0 0 165 48" fill="none" xmlns="http://www.w3.org/2000/svg">
<g clip-path="url(#clip0_606_1441)">
<path d="M88.2762 17.8281L86.2807 24.7151C86.0853 25.4451 85.8716 26.1743 85.6579 27.2776C85.4935 26.4086 85.2857 25.5483 85.0352 24.7001L83.0397 17.8306H80.517L78.4708 24.7001C78.2055 25.5443 77.9975 26.4054 77.8481 27.2776C77.6344 26.1394 77.439 25.4093 77.2428 24.7001L75.303 17.8306H72.8086L76.709 30.8371H78.9331L81.7601 21.8856L84.5363 30.8371H86.743L90.6932 17.8281H88.2762Z" fill="#999999"/>
<path d="M94.4855 21.7793C92.2073 21.7793 90.6417 23.0423 90.6608 24.9289H92.5117C92.4942 24.0217 93.1876 23.4697 94.3799 23.4697C95.4484 23.4697 96.1958 23.9328 96.1958 25.1425V25.3379L93.6865 25.5342C91.711 25.6938 90.4297 26.6151 90.4297 28.3279C90.4297 29.965 91.5505 31.0717 93.4371 31.0717C94.8248 31.0717 95.8749 30.4489 96.2491 29.5409L96.4087 30.8405H98.3127V25.4967C98.3111 23.1687 96.9591 21.7793 94.4855 21.7793ZM96.2116 27.2777C96.2116 28.9149 95.0725 29.4312 94.1471 29.4312C93.1685 29.4312 92.6347 29.0047 92.6347 28.2389C92.6347 27.5272 93.097 27.0998 94.3808 26.9751L96.21 26.8154L96.2116 27.2777Z" fill="#999999"/>
<path d="M106.75 23.2373C106.216 22.3119 105.113 21.7598 103.814 21.7598C101.304 21.7598 99.6133 23.6638 99.6133 26.2446C99.6133 28.8072 101.269 30.658 103.742 30.658C105.024 30.658 106.127 30.1417 106.679 29.2878V30.7844C106.679 32.2253 105.771 33.1865 104.259 33.1865C102.906 33.1865 101.98 32.528 101.856 31.3714H99.6657C99.95 33.6671 101.712 35.162 104.132 35.162C106.979 35.162 108.795 33.2937 108.795 30.3928V22.045H106.873L106.75 23.2373ZM104.116 28.7714C102.764 28.7714 101.821 27.6681 101.821 26.1939C101.821 24.7347 102.745 23.6663 104.116 23.6663C105.613 23.6663 106.611 24.7522 106.611 26.1939C106.606 27.6506 105.609 28.7714 104.115 28.7714H104.116Z" fill="#999999"/>
<path d="M114.274 29.2378C112.957 29.2378 112.138 28.472 112.085 27.0668H118.349V26.4083C118.349 23.6138 116.801 21.7812 114.238 21.7812C111.711 21.7812 109.984 23.6105 109.984 26.4432C109.984 29.2378 111.693 31.0703 114.238 31.0703C116.356 31.0703 118.01 29.8073 118.385 27.9382H116.373C116.16 28.7015 115.323 29.2378 114.274 29.2378ZM114.167 23.578C115.341 23.578 116.178 24.308 116.195 25.6783H112.121C112.138 24.3413 112.974 23.5755 114.167 23.5755V23.578Z" fill="#999999"/>
<path d="M121.909 23.0771L121.785 22.0628H119.789V30.8363H121.965V26.5651C121.965 24.8565 122.872 23.8961 124.439 23.8961H125.291V22.0096C123.96 21.7069 122.443 22.0096 121.909 23.0771Z" fill="#999999"/>
<path d="M60.2716 23.8674L56.7305 27.4086L60.2716 30.9448C61.2103 31.8831 62.4831 32.4102 63.8103 32.4102C65.1375 32.4102 66.4104 31.8831 67.349 30.9448V30.9448C67.8138 30.4802 68.1825 29.9285 68.4341 29.3213C68.6856 28.7141 68.8151 28.0633 68.8151 27.4061C68.8151 26.7489 68.6856 26.0981 68.4341 25.4909C68.1825 24.8838 67.8138 24.3321 67.349 23.8674V23.8674C66.8843 23.4026 66.3327 23.0339 65.7255 22.7824C65.1183 22.5308 64.4675 22.4014 63.8103 22.4014C63.1531 22.4014 62.5023 22.5308 61.8951 22.7824C61.288 23.0339 60.7363 23.4026 60.2716 23.8674Z" fill="#999999"/>
<path d="M51.9387 22.616L55.4774 26.1547L59.0161 22.616C59.4809 22.1514 59.8496 21.5997 60.1011 20.9925C60.3527 20.3854 60.4822 19.7346 60.4822 19.0774C60.4822 18.4201 60.3527 17.7694 60.1011 17.1622C59.8496 16.555 59.4809 16.0033 59.0161 15.5387L55.4774 12L51.9387 15.5387C51.4739 16.0033 51.1052 16.555 50.8537 17.1622C50.6021 17.7694 50.4727 18.4201 50.4727 19.0774C50.4727 19.7346 50.6021 20.3854 50.8537 20.9925C51.1052 21.5997 51.4739 22.1514 51.9387 22.616Z" fill="#999999"/>
<path d="M50.688 23.8672L54.2266 27.4083L50.688 30.947C49.7493 31.8853 48.4765 32.4124 47.1493 32.4124C45.8221 32.4124 44.5492 31.8853 43.6106 30.947V30.947C43.1458 30.4824 42.7771 29.9307 42.5256 29.3235C42.274 28.7164 42.1445 28.0656 42.1445 27.4083C42.1445 26.7511 42.274 26.1003 42.5256 25.4932C42.7771 24.886 43.1458 24.3343 43.6106 23.8697V23.8697C44.0751 23.4047 44.6266 23.0358 45.2337 22.784C45.8408 22.5323 46.4915 22.4026 47.1488 22.4023C47.806 22.4021 48.4568 22.5314 49.0641 22.7827C49.6713 23.034 50.2231 23.4025 50.688 23.8672Z" fill="#999999"/>
<path d="M59.6233 36.0007L55.4777 28.2656L51.332 36.0007H59.6233Z" fill="#999999"/>
</g>
<defs>
<clipPath id="clip0_606_1441">
<rect width="83.1457" height="24" fill="white" transform="translate(42.1426 12)"/>
</clipPath>
</defs>
</svg>
