<svg width="165" height="48" viewBox="0 0 165 48" fill="none" xmlns="http://www.w3.org/2000/svg">
<g clip-path="url(#clip0_606_1453)">
<path d="M73.9664 28.2187V30.6993H63.6377V28.7411L69.8608 21.7288H63.6377V19.249H73.7857V21.301L67.7933 28.2187H73.9664Z" fill="#999999"/>
<path d="M85.8689 23.3069V30.7023H82.8047V29.1237H82.7375C82.3537 29.7323 81.227 30.8151 78.9942 30.8151C76.7615 30.8151 75.207 29.5524 75.207 27.5228C75.207 25.3133 76.8751 23.6228 81.6771 23.6228H82.8047V23.2845C82.8047 22.0442 82.0386 21.3006 80.7983 21.3006C79.5804 21.3006 78.8367 21.9539 78.7463 22.9463H75.7252C75.7699 20.3761 77.8443 18.9551 80.7983 18.9551C84.0674 18.9551 85.8689 20.5578 85.8689 23.3069ZM82.8047 26.3728V25.5612H81.7004C79.107 25.5612 78.3633 26.3505 78.3633 27.2973C78.3633 28.1322 79.0399 28.6486 80.102 28.6486C81.61 28.6486 82.8047 27.6355 82.8047 26.3728Z" fill="#999999"/>
<path d="M99.3997 23.6679V30.7027H96.2202V24.3453C96.2202 22.7444 95.4309 21.7519 94.1914 21.7519C92.5905 21.7519 91.4853 22.8571 91.4853 24.8859V30.7035H88.3066V19.2489H91.4853V21.3681C92.2075 19.7223 93.5149 18.958 95.1606 18.958C97.8891 18.9554 99.3997 20.8723 99.3997 23.6679Z" fill="#999999"/>
<path d="M105.601 21.7288V26.4413C105.601 27.6136 106.3 28.2488 107.449 28.2488C107.923 28.2488 108.509 28.1808 109.321 27.7522V30.4351C108.599 30.819 107.697 30.9317 106.953 30.9317C104.225 30.9317 102.421 29.3308 102.421 26.8958V21.7314H100.369V19.2491H100.415C101.792 19.2491 102.421 18.6853 102.421 17.3555V15.8242H105.601V19.2516H109.546V21.7288H105.601Z" fill="#999999"/>
<path d="M112.552 13.7148H112.655C113.153 13.7148 113.63 13.9125 113.982 14.2644C114.334 14.6163 114.532 15.0936 114.532 15.5912V15.5912C114.532 15.8376 114.483 16.0816 114.389 16.3092C114.295 16.5368 114.156 16.7436 113.982 16.9177C113.808 17.0919 113.601 17.23 113.373 17.3242C113.146 17.4184 112.902 17.4669 112.655 17.4668H112.552C112.306 17.4669 112.062 17.4184 111.834 17.3242C111.607 17.23 111.4 17.0919 111.225 16.9177C111.051 16.7436 110.913 16.5368 110.819 16.3092C110.724 16.0816 110.676 15.8376 110.676 15.5912V15.5912C110.676 15.0936 110.873 14.6163 111.225 14.2644C111.577 13.9125 112.055 13.7148 112.552 13.7148V13.7148ZM111.014 19.2485H114.188V30.7022H111.011L111.014 19.2485Z" fill="#999999"/>
<path d="M121.923 30.995C118.271 30.995 115.993 28.5376 115.993 24.9526C115.993 21.4125 118.271 18.9551 121.923 18.9551C125.012 18.9551 127.153 20.7368 127.469 23.603H124.335C124.11 22.2956 123.298 21.4391 121.878 21.4391C120.096 21.4391 119.059 22.8593 119.059 24.9561C119.059 27.0528 120.096 28.473 121.878 28.473C123.366 28.473 124.178 27.5718 124.403 26.1491H127.514C127.27 29.079 125.125 30.995 121.923 30.995Z" fill="#999999"/>
<path d="M55.4852 17.3631C55.7724 17.6565 55.9892 18.0115 56.1189 18.401C56.2487 18.7906 56.2881 19.2046 56.2342 19.6116C56.1803 20.0187 56.0345 20.4081 55.8078 20.7505C55.5811 21.0928 55.2794 21.3791 54.9257 21.5876C52.3757 23.0868 49.4001 23.6968 46.466 23.322C43.5318 22.9472 40.8051 21.6087 38.7139 19.5167L42.4882 15.6641C43.7379 16.9135 45.3655 17.7148 47.1178 17.9435C48.8701 18.1722 50.6489 17.8153 52.1774 16.9285C52.6977 16.6219 53.3055 16.4977 53.9044 16.5757C54.5032 16.6536 55.059 16.9293 55.4835 17.3588L55.4852 17.3631Z" fill="#999999"/>
<path d="M55.4692 17.3462C54.9633 16.8407 54.2774 16.5566 53.5622 16.5566C52.847 16.5566 52.1611 16.8407 51.6553 17.3462L40.2076 28.7939C39.702 29.2998 39.418 29.9857 39.418 30.7009C39.418 31.4161 39.702 32.102 40.2076 32.6078V32.6078C40.4579 32.8584 40.7552 33.0571 41.0824 33.1927C41.4096 33.3283 41.7603 33.3981 42.1145 33.3981C42.4687 33.3981 42.8194 33.3283 43.1466 33.1927C43.4738 33.0571 43.7711 32.8584 44.0215 32.6078L55.4692 21.1601C55.7197 20.9098 55.9185 20.6125 56.0541 20.2853C56.1897 19.9581 56.2595 19.6074 56.2595 19.2532C56.2595 18.899 56.1897 18.5483 56.0541 18.2211C55.9185 17.8939 55.7197 17.5966 55.4692 17.3462Z" fill="#999999"/>
<path d="M40.1927 32.5859C39.9054 32.2927 39.6886 31.9379 39.5588 31.5484C39.429 31.159 39.3894 30.7451 39.4433 30.3381C39.4971 29.9311 39.6429 29.5417 39.8695 29.1994C40.0961 28.8571 40.3977 28.5708 40.7513 28.3623C43.3015 26.8634 46.277 26.2534 49.2113 26.6281C52.1455 27.0027 54.8723 28.3408 56.964 30.4324L53.188 34.2859C51.9383 33.0365 50.3107 32.2351 48.5583 32.0064C46.806 31.7778 45.0273 32.1346 43.4988 33.0215C42.9779 33.3273 42.3698 33.4505 41.7709 33.3716C41.1721 33.2927 40.6167 33.0162 40.1927 32.5859V32.5859Z" fill="#999999"/>
</g>
<defs>
<clipPath id="clip0_606_1453">
<rect width="88.8006" height="20.5714" fill="white" transform="translate(38.7148 13.7148)"/>
</clipPath>
</defs>
</svg>
