<svg width="165" height="48" viewBox="0 0 165 48" fill="none" xmlns="http://www.w3.org/2000/svg">
<g clip-path="url(#clip0_606_1435)">
<path d="M73.9664 28.2177V30.6983H63.6377V28.7402L69.8608 21.7278H63.6377V19.248H73.7857V21.3L67.7933 28.2177H73.9664Z" fill="#999999"/>
<path d="M85.8689 23.3059V30.7013H82.8047V29.1228H82.7375C82.3537 29.7313 81.227 30.8141 78.9942 30.8141C76.7615 30.8141 75.207 29.5514 75.207 27.5218C75.207 25.3123 76.8751 23.6218 81.6771 23.6218H82.8047V23.2836C82.8047 22.0433 82.0386 21.2996 80.7983 21.2996C79.5804 21.2996 78.8367 21.9529 78.7463 22.9453H75.7252C75.7699 20.3752 77.8443 18.9541 80.7983 18.9541C84.0674 18.9541 85.8689 20.5568 85.8689 23.3059ZM82.8047 26.3719V25.5602H81.7004C79.107 25.5602 78.3633 26.3495 78.3633 27.2963C78.3633 28.1312 79.0399 28.6476 80.102 28.6476C81.61 28.6476 82.8047 27.6346 82.8047 26.3719Z" fill="#999999"/>
<path d="M99.3997 23.6669V30.7017H96.2202V24.3443C96.2202 22.7434 95.4309 21.751 94.1914 21.751C92.5905 21.751 91.4853 22.8561 91.4853 24.8849V30.7025H88.3066V19.248H91.4853V21.3671C92.2075 19.7214 93.5149 18.957 95.1606 18.957C97.8891 18.9545 99.3997 20.8713 99.3997 23.6669Z" fill="#999999"/>
<path d="M105.601 21.7278V26.4403C105.601 27.6126 106.3 28.2479 107.449 28.2479C107.923 28.2479 108.509 28.1799 109.321 27.7512V30.4341C108.599 30.818 107.697 30.9308 106.953 30.9308C104.225 30.9308 102.421 29.3298 102.421 26.8948V21.7304H100.369V19.2481H100.415C101.792 19.2481 102.421 18.6843 102.421 17.3545V15.8232H105.601V19.2507H109.546V21.7278H105.601Z" fill="#999999"/>
<path d="M112.552 13.7139H112.655C113.153 13.7139 113.63 13.9116 113.982 14.2634C114.334 14.6153 114.532 15.0926 114.532 15.5903V15.5903C114.532 15.8366 114.483 16.0806 114.389 16.3082C114.295 16.5358 114.156 16.7426 113.982 16.9168C113.808 17.0909 113.601 17.2291 113.373 17.3233C113.146 17.4175 112.902 17.4659 112.655 17.4658H112.552C112.306 17.4659 112.062 17.4175 111.834 17.3233C111.607 17.2291 111.4 17.0909 111.225 16.9168C111.051 16.7426 110.913 16.5358 110.819 16.3082C110.724 16.0806 110.676 15.8366 110.676 15.5903V15.5903C110.676 15.0926 110.873 14.6153 111.225 14.2634C111.577 13.9116 112.055 13.7139 112.552 13.7139V13.7139ZM111.014 19.2475H114.188V30.7012H111.011L111.014 19.2475Z" fill="#999999"/>
<path d="M121.923 30.994C118.271 30.994 115.993 28.5366 115.993 24.9517C115.993 21.4115 118.271 18.9541 121.923 18.9541C125.012 18.9541 127.153 20.7358 127.469 23.602H124.335C124.11 22.2946 123.298 21.4382 121.878 21.4382C120.096 21.4382 119.059 22.8584 119.059 24.9551C119.059 27.0518 120.096 28.472 121.878 28.472C123.366 28.472 124.178 27.5709 124.403 26.1481H127.514C127.27 29.078 125.125 30.994 121.923 30.994Z" fill="#999999"/>
<path d="M55.4852 17.3622C55.7724 17.6556 55.9892 18.0105 56.1189 18.4C56.2487 18.7896 56.2881 19.2036 56.2342 19.6106C56.1803 20.0177 56.0345 20.4072 55.8078 20.7495C55.5811 21.0918 55.2794 21.3781 54.9257 21.5866C52.3757 23.0858 49.4001 23.6959 46.466 23.321C43.5318 22.9462 40.8051 21.6078 38.7139 19.5157L42.4882 15.6631C43.7379 16.9125 45.3655 17.7139 47.1178 17.9425C48.8701 18.1712 50.6489 17.8144 52.1774 16.9275C52.6977 16.6209 53.3055 16.4967 53.9044 16.5747C54.5032 16.6527 55.059 16.9283 55.4835 17.3579L55.4852 17.3622Z" fill="#999999"/>
<path d="M55.4692 17.3453C54.9633 16.8397 54.2774 16.5557 53.5622 16.5557C52.847 16.5557 52.1611 16.8397 51.6553 17.3453L40.2076 28.793C39.702 29.2988 39.418 29.9847 39.418 30.6999C39.418 31.4151 39.702 32.101 40.2076 32.6068V32.6068C40.4579 32.8574 40.7552 33.0561 41.0824 33.1918C41.4096 33.3274 41.7603 33.3972 42.1145 33.3972C42.4687 33.3972 42.8194 33.3274 43.1466 33.1918C43.4738 33.0561 43.7711 32.8574 44.0215 32.6068L55.4692 21.1591C55.7197 20.9088 55.9185 20.6115 56.0541 20.2843C56.1897 19.9571 56.2595 19.6064 56.2595 19.2522C56.2595 18.898 56.1897 18.5473 56.0541 18.2201C55.9185 17.8929 55.7197 17.5956 55.4692 17.3453Z" fill="#999999"/>
<path d="M40.1927 32.585C39.9054 32.2917 39.6886 31.9369 39.5588 31.5475C39.429 31.158 39.3894 30.7441 39.4433 30.3371C39.4971 29.9301 39.6429 29.5407 39.8695 29.1984C40.0961 28.8561 40.3977 28.5699 40.7513 28.3614C43.3015 26.8625 46.277 26.2525 49.2113 26.6271C52.1455 27.0018 54.8723 28.3398 56.964 30.4314L53.188 34.2849C51.9383 33.0355 50.3107 32.2341 48.5583 32.0055C46.806 31.7768 45.0273 32.1336 43.4988 33.0205C42.9779 33.3263 42.3698 33.4495 41.7709 33.3706C41.1721 33.2917 40.6167 33.0152 40.1927 32.585V32.585Z" fill="#999999"/>
</g>
<defs>
<clipPath id="clip0_606_1435">
<rect width="88.8006" height="20.5714" fill="white" transform="translate(38.7148 13.7139)"/>
</clipPath>
</defs>
</svg>
