<svg width="165" height="48" viewBox="0 0 165 48" fill="none" xmlns="http://www.w3.org/2000/svg">
<g clip-path="url(#clip0_606_1450)">
<path d="M52.3503 27.4287C48.5641 27.4287 45.4932 30.4996 45.4932 34.2858H59.2074C59.2074 30.4996 56.1365 27.4287 52.3503 27.4287H52.3503Z" fill="#999999"/>
<path d="M52.3503 20.571C52.3503 16.7848 49.2793 13.7139 45.4932 13.7139V27.4281C49.2793 27.4281 52.3503 24.3572 52.3503 20.571V20.571Z" fill="#999999"/>
<path d="M59.2077 20.571C62.9939 20.571 66.0649 17.5001 66.0649 13.7139H52.3506C52.3506 17.5001 55.4215 20.571 59.2077 20.571L59.2077 20.571Z" fill="#999999"/>
<path d="M59.207 27.4274C59.207 31.2136 62.278 34.2846 66.0641 34.2846V20.5703C62.278 20.5703 59.207 23.6412 59.207 27.4275V27.4274Z" fill="#999999"/>
<path d="M79.7235 31.5086C78.6197 31.5086 77.6459 31.326 76.8018 30.9602C75.9573 30.5947 75.2494 30.0927 74.6779 29.4545C74.1061 28.8163 73.6708 28.0585 73.3716 27.181C73.0724 26.3036 72.9229 25.3463 72.9229 24.3092C72.9229 23.2591 73.0755 22.2919 73.3815 21.4075C73.6872 20.5234 74.1294 19.7622 74.7077 19.124C75.2861 18.4858 75.9972 17.9873 76.8416 17.6283C77.6857 17.2693 78.653 17.0898 79.7433 17.0898C80.8337 17.0898 81.8006 17.2662 82.6451 17.6183C83.4892 17.9708 84.2006 18.4659 84.779 19.1041C85.3573 19.7423 85.7961 20.5035 86.0952 21.3876C86.3944 22.2719 86.544 23.2391 86.544 24.2893C86.544 25.3263 86.3944 26.287 86.0952 27.171C85.7961 28.0554 85.3574 28.8163 84.779 29.4545C84.2006 30.0927 83.4858 30.5948 82.6351 30.9602C81.7841 31.326 80.8134 31.5086 79.7234 31.5086H79.7235ZM79.7434 19.1639C78.9855 19.1639 78.3306 19.3035 77.779 19.5827C77.2272 19.8619 76.765 20.2343 76.393 20.6995C76.0206 21.1651 75.7448 21.7101 75.5653 22.3348C75.3858 22.9599 75.2961 23.6112 75.2961 24.2893C75.2961 24.9673 75.3858 25.6155 75.5653 26.2337C75.7448 26.852 76.0172 27.4003 76.383 27.879C76.7485 28.3576 77.2106 28.7366 77.769 29.0158C78.3274 29.295 78.9855 29.4346 79.7434 29.4346C80.4878 29.4346 81.1394 29.2984 81.6978 29.0257C82.2562 28.7534 82.718 28.3844 83.0838 27.9189C83.4494 27.4536 83.722 26.9117 83.9015 26.2936C84.081 25.6753 84.1707 25.0141 84.1707 24.3092C84.1707 23.6181 84.081 22.9631 83.9015 22.3448C83.722 21.7266 83.4494 21.1816 83.0838 20.7095C82.718 20.2377 82.2593 19.8619 81.7078 19.5827C81.156 19.3035 80.5013 19.1639 79.7434 19.1639V19.1639Z" fill="#999999"/>
<path d="M88.6367 31.3682V20.8582H90.7706L90.8903 22.354C91.7011 21.2372 92.8049 20.6787 94.2008 20.6787C94.3335 20.6787 94.4632 20.6821 94.5897 20.6887C94.7159 20.6955 94.8322 20.7055 94.9387 20.7186V22.8325C94.7792 22.8325 94.6227 22.8359 94.47 22.8425C94.317 22.8493 94.1675 22.8524 94.0213 22.8524C93.4362 22.8658 92.9476 22.969 92.5555 23.1616C92.1632 23.3545 91.8441 23.6103 91.5982 23.9294C91.352 24.2485 91.176 24.6243 91.0698 25.0562C90.9632 25.4884 90.9103 25.9505 90.9103 26.4422V31.3681H88.6367V31.3682Z" fill="#999999"/>
<path d="M96.416 31.3683V17.2686H98.6895V22.3341C99.0749 21.8024 99.5835 21.3936 100.215 21.1076C100.846 20.8218 101.488 20.6788 102.14 20.6788C102.871 20.6788 103.522 20.8085 104.094 21.0677C104.666 21.327 105.151 21.6928 105.55 22.1646C105.949 22.6367 106.251 23.2016 106.457 23.8597C106.663 24.5178 106.766 25.2592 106.766 26.0833C106.766 26.8412 106.673 27.5492 106.487 28.2072C106.301 28.8654 106.015 29.4406 105.63 29.9323C105.244 30.4243 104.762 30.8099 104.184 31.089C103.605 31.3682 102.924 31.5078 102.14 31.5078C100.637 31.5078 99.4872 31.0227 98.6895 30.052C98.6761 30.2782 98.6661 30.4976 98.6596 30.7101C98.6527 30.923 98.6497 31.1423 98.6497 31.3683H96.416V31.3683ZM101.661 29.5336C102.153 29.5336 102.578 29.4438 102.937 29.2643C103.296 29.0848 103.592 28.8424 103.825 28.5363C104.057 28.2307 104.23 27.8717 104.343 27.4594C104.456 27.0475 104.513 26.6019 104.513 26.1232C104.513 25.6446 104.456 25.1958 104.343 24.7771C104.23 24.3583 104.057 23.9962 103.825 23.6902C103.592 23.3845 103.293 23.1452 102.927 22.9722C102.562 22.7996 102.126 22.713 101.621 22.713C101.103 22.713 100.66 22.8127 100.295 23.0121C99.9291 23.2115 99.6269 23.4742 99.3875 23.7999C99.1482 24.1258 98.9687 24.4947 98.8491 24.9066C98.7294 25.3189 98.6696 25.7312 98.6696 26.1431C98.6696 26.5953 98.7294 27.024 98.8491 27.4294C98.9687 27.8352 99.1482 28.1907 99.3875 28.4964C99.6269 28.8024 99.9325 29.0517 100.305 29.2442C100.677 29.4371 101.129 29.5334 101.661 29.5334V29.5336Z" fill="#999999"/>
<path d="M110.136 16.4912C110.547 16.4912 110.89 16.6177 111.163 16.8701C111.435 17.1228 111.571 17.4684 111.571 17.9072C111.571 18.3328 111.435 18.6718 111.163 18.9243C110.89 19.177 110.547 19.3032 110.136 19.3032C109.697 19.3032 109.344 19.177 109.079 18.9243C108.812 18.6718 108.68 18.3328 108.68 17.9072C108.68 17.4684 108.812 17.1228 109.079 16.8701C109.344 16.6177 109.697 16.4912 110.136 16.4912V16.4912ZM108.979 31.3687V20.8588H111.252V31.3687H108.979V31.3687Z" fill="#999999"/>
<path d="M117.036 20.8586H120.187V22.833H117.036V27.4598C117.036 27.7259 117.052 27.9783 117.086 28.2176C117.119 28.457 117.185 28.6732 117.285 28.8658C117.385 29.0587 117.528 29.2148 117.714 29.3344C117.9 29.4541 118.153 29.5139 118.472 29.5139C119.03 29.5139 119.509 29.3479 119.908 29.0153L120.665 30.7105C120.32 30.9766 119.921 31.1726 119.469 31.2989C119.017 31.4251 118.571 31.4883 118.133 31.4883C116.989 31.4883 116.145 31.1991 115.6 30.6208C115.055 30.0425 114.782 29.1351 114.782 27.8985V22.833H113.127V20.8586H114.782V17.8672H117.036V20.8586H117.036Z" fill="#999999"/>
</g>
<defs>
<clipPath id="clip0_606_1450">
<rect width="75.1716" height="20.5714" fill="white" transform="translate(45.4941 13.7139)"/>
</clipPath>
</defs>
</svg>
