<svg width="165" height="48" viewBox="0 0 165 48" fill="none" xmlns="http://www.w3.org/2000/svg">
<g clip-path="url(#clip0_606_1444)">
<path d="M68.2231 25.5447C68.2231 26.4658 67.9829 27.1694 67.5032 27.6558C67.0231 28.1422 66.3422 28.3853 65.4603 28.3853C64.5912 28.3853 63.9165 28.1422 63.4369 27.6558C62.9569 27.1694 62.717 26.4658 62.717 25.5447V17.1396H59.9932V25.5253C59.9932 26.6799 60.233 27.6558 60.7131 28.4534C61.1928 29.2511 61.8446 29.8512 62.6684 30.2531C63.4919 30.6553 64.4097 30.8564 65.4213 30.8564C66.4458 30.8564 67.3767 30.6554 68.2133 30.2531C69.0499 29.8512 69.7178 29.2511 70.2173 28.4534C70.7164 27.6558 70.9664 26.6799 70.9664 25.5253V17.1396H68.2231V25.5447V25.5447Z" fill="#999999"/>
<path d="M79.5647 19.7862C78.8902 19.7862 78.271 19.9193 77.7067 20.185C77.1425 20.451 76.6785 20.8174 76.3156 21.2843V19.9419H73.5918V30.7205H76.3156V24.767C76.3156 23.9109 76.5327 23.2527 76.9674 22.7922C77.4017 22.3321 77.9951 22.1015 78.7475 22.1015C79.4868 22.1015 80.0707 22.3321 80.4987 22.7922C80.9266 23.2528 81.1407 23.9109 81.1407 24.767V30.7205H83.8645V24.3972C83.8645 22.9448 83.4688 21.8129 82.6777 21.0021C81.8863 20.1916 80.8488 19.7861 79.5647 19.7861V19.7862Z" fill="#999999"/>
<path d="M87.8344 15.4668C87.3544 15.4668 86.9554 15.6194 86.6378 15.9241C86.3198 16.229 86.1611 16.6084 86.1611 17.0622C86.1611 17.516 86.3198 17.8958 86.6378 18.2004C86.9555 18.5053 87.3544 18.6576 87.8344 18.6576C88.3144 18.6576 88.7129 18.5053 89.031 18.2004C89.3487 17.8958 89.5076 17.5164 89.5076 17.0622C89.5076 16.608 89.3487 16.229 89.031 15.9241C88.7129 15.6195 88.3141 15.4668 87.8344 15.4668Z" fill="#999999"/>
<path d="M89.1779 19.9414H86.4541V30.72H89.1779V19.9414Z" fill="#999999"/>
<path d="M96.4736 22.0818C97.0183 22.0818 97.4755 22.215 97.8452 22.4807C98.215 22.7467 98.4775 23.113 98.6332 23.5799H101.571C101.273 22.3736 100.686 21.4367 99.8102 20.7685C98.9347 20.1006 97.8289 19.7666 96.4931 19.7666C95.4553 19.7666 94.5345 19.997 93.7303 20.4573C92.9259 20.9178 92.2969 21.5662 91.843 22.4028C91.3889 23.2394 91.1621 24.2156 91.1621 25.331C91.1621 26.4464 91.3889 27.4225 91.843 28.2591C92.2969 29.0957 92.9259 29.7445 93.7303 30.2048C94.5345 30.6653 95.4553 30.8954 96.4931 30.8954C97.816 30.8954 98.9184 30.552 99.8007 29.8643C100.683 29.177 101.273 28.2494 101.571 27.0821H98.6332C98.2958 28.068 97.576 28.5607 96.4738 28.5607C95.6954 28.5607 95.0792 28.2785 94.6254 27.7143C94.1712 27.1501 93.9444 26.3557 93.9444 25.331C93.9444 24.2934 94.1712 23.4924 94.6254 22.9281C95.0792 22.3638 95.6954 22.0818 96.4738 22.0818H96.4736Z" fill="#999999"/>
<path d="M111.259 20.4573C110.415 19.997 109.475 19.7666 108.438 19.7666C107.4 19.7666 106.459 19.997 105.616 20.4573C104.773 20.9178 104.109 21.5696 103.622 22.4125C103.136 23.2558 102.893 24.2286 102.893 25.331C102.893 26.4333 103.129 27.4063 103.603 28.2493C104.076 29.0927 104.728 29.7444 105.558 30.2046C106.388 30.6652 107.322 30.8953 108.36 30.8953C109.41 30.8953 110.36 30.6652 111.21 30.2046C112.059 29.7444 112.734 29.0927 113.233 28.2493C113.733 27.4063 113.982 26.4335 113.982 25.331C113.982 24.2284 113.739 23.2558 113.253 22.4125C112.766 21.5696 112.101 20.9178 111.259 20.4573V20.4573ZM110.792 27.082C110.532 27.562 110.185 27.922 109.751 28.1618C109.316 28.402 108.852 28.5217 108.36 28.5217C107.581 28.5217 106.936 28.2463 106.424 27.6948C105.911 27.1436 105.655 26.3557 105.655 25.331C105.655 24.3062 105.918 23.5184 106.443 22.9671C106.969 22.416 107.62 22.1402 108.398 22.1402C109.177 22.1402 109.835 22.416 110.373 22.9671C110.911 23.5185 111.181 24.3065 111.181 25.331C111.181 26.0187 111.051 26.6023 110.792 27.082V27.082Z" fill="#999999"/>
<path d="M117.369 15.4668C116.889 15.4668 116.49 15.6194 116.172 15.9241C115.854 16.229 115.695 16.6084 115.695 17.0622C115.695 17.516 115.854 17.8958 116.172 18.2004C116.49 18.5053 116.888 18.6576 117.369 18.6576C117.849 18.6576 118.247 18.5053 118.565 18.2004C118.883 17.8958 119.042 17.5164 119.042 17.0622C119.042 16.608 118.883 16.229 118.565 15.9241C118.247 15.6195 117.848 15.4668 117.369 15.4668Z" fill="#999999"/>
<path d="M118.71 19.9414H115.986V30.72H118.71V19.9414Z" fill="#999999"/>
<path d="M130.498 21.0021C129.707 20.1916 128.669 19.7861 127.385 19.7861C126.71 19.7861 126.091 19.9192 125.527 20.1849C124.963 20.4509 124.499 20.8173 124.136 21.2842V19.9418H121.412V30.7204H124.136V24.7669C124.136 23.9108 124.353 23.2526 124.788 22.7921C125.222 22.332 125.816 22.1014 126.568 22.1014C127.307 22.1014 127.891 22.332 128.319 22.7921C128.747 23.2527 128.961 23.9108 128.961 24.7669V30.7204H131.685V24.3971C131.685 22.9447 131.289 21.8128 130.498 21.002V21.0021Z" fill="#999999"/>
<path d="M44.566 13.7139C41.9064 13.7139 39.4827 14.7233 37.6568 16.3799L42.4077 18.5726C42.8131 18.7597 43.2544 18.8566 43.7009 18.8566H48.6803C49.2484 18.8566 49.7088 19.3171 49.7088 19.8852V28.1138C49.7088 28.6818 49.2484 29.1423 48.6803 29.1423H40.4517C39.8836 29.1423 39.4231 28.6818 39.4231 28.1138V23.1343C39.4231 22.6878 39.3262 22.2467 39.1391 21.8412L36.9463 17.0905C35.2897 18.9163 34.2803 21.34 34.2803 23.9996C34.2803 29.6803 38.8853 34.2853 44.566 34.2853C50.2467 34.2853 54.8517 29.6803 54.8517 23.9996C54.8517 18.3189 50.2467 13.7139 44.566 13.7139Z" fill="#999999"/>
</g>
<defs>
<clipPath id="clip0_606_1444">
<rect width="97.4057" height="20.5714" fill="white" transform="translate(34.2812 13.7139)"/>
</clipPath>
</defs>
</svg>
