<svg width="111" height="32" viewBox="0 0 111 32" fill="none" xmlns="http://www.w3.org/2000/svg">
<g clip-path="url(#clip0_5067_5420)">
<path d="M61.5885 7.77051L58.9245 16.9531C58.6637 17.9265 58.3784 18.8987 58.0932 20.3698C57.8737 19.2111 57.5962 18.0641 57.2618 16.9332L54.5978 7.77383H51.23L48.4983 16.9332C48.1441 18.0587 47.8664 19.2069 47.6669 20.3698C47.3817 18.8522 47.1208 17.8788 46.8588 16.9332L44.2692 7.77383H40.9392L46.1462 25.1158H49.1155L52.8895 13.1805L56.5958 25.1158H59.5417L64.8153 7.77051H61.5885Z" fill="#1D78EF"/>
<path d="M69.8782 13.0391C66.8368 13.0391 64.7467 14.723 64.7722 17.2385H67.2431C67.2198 16.029 68.1455 15.2929 69.7372 15.2929C71.1636 15.2929 72.1615 15.9104 72.1615 17.5234V17.7839L68.8115 18.0455C66.1741 18.2584 64.4636 19.4867 64.4636 21.7705C64.4636 23.9533 65.9599 25.4289 68.4785 25.4289C70.3311 25.4289 71.733 24.5985 72.2325 23.3879L72.4456 25.1207H74.9875V17.9957C74.9853 14.8916 73.1805 13.0391 69.8782 13.0391ZM72.1826 20.3703C72.1826 22.5531 70.6619 23.2416 69.4264 23.2416C68.12 23.2416 67.4073 22.6729 67.4073 21.6518C67.4073 20.7029 68.0245 20.1331 69.7383 19.9668L72.1803 19.7539L72.1826 20.3703Z" fill="#1D78EF"/>
<path d="M86.2508 14.9827C85.5381 13.7488 84.0652 13.0127 82.3313 13.0127C78.9814 13.0127 76.7236 15.5514 76.7236 18.9925C76.7236 22.4093 78.9336 24.877 82.2359 24.877C83.9464 24.877 85.4194 24.1886 86.1564 23.05V25.0455C86.1564 26.9668 84.9443 28.2483 82.9252 28.2483C81.1192 28.2483 79.8838 27.3703 79.7173 25.8282H76.7936C77.1732 28.8891 79.5253 30.8824 82.7565 30.8824C86.5571 30.8824 88.9814 28.3913 88.9814 24.5234V13.3929H86.415L86.2508 14.9827ZM82.7354 22.3616C80.9294 22.3616 79.6707 20.8905 79.6707 18.9249C79.6707 16.9793 80.905 15.5547 82.7354 15.5547C84.7334 15.5547 86.0654 17.0026 86.0654 18.9249C86.0587 20.8672 84.7278 22.3616 82.7332 22.3616H82.7354Z" fill="#1D78EF"/>
<path d="M96.2958 22.984C94.5376 22.984 93.4442 21.963 93.3732 20.0894H101.736V19.2114C101.736 15.4854 99.6691 13.042 96.2481 13.042C92.8748 13.042 90.5693 15.4809 90.5693 19.258C90.5693 22.984 92.8504 25.4274 96.2481 25.4274C99.0753 25.4274 101.284 23.7434 101.784 21.2512H99.0986C98.8133 22.2689 97.6966 22.984 96.2958 22.984ZM96.1526 15.4377C97.7211 15.4377 98.8377 16.4111 98.861 18.238H93.422C93.4442 16.4554 94.5609 15.4344 96.1526 15.4344V15.4377Z" fill="#1D78EF"/>
<path d="M106.489 14.7698L106.322 13.4173H103.658V25.1154H106.563V19.4205C106.563 17.1423 107.774 15.8618 109.866 15.8618H111.003V13.3464C109.227 12.9429 107.202 13.3464 106.489 14.7698Z" fill="#1D78EF"/>
<path d="M24.2023 15.8229L19.4749 20.5445L24.2023 25.2594C25.4554 26.5105 27.1547 27.2133 28.9265 27.2133C30.6983 27.2133 32.3976 26.5105 33.6507 25.2594V25.2594C34.2712 24.6399 34.7634 23.9043 35.0992 23.0948C35.435 22.2852 35.6079 21.4175 35.6079 20.5412C35.6079 19.6649 35.435 18.7972 35.0992 17.9876C34.7634 17.178 34.2712 16.4425 33.6507 15.8229V15.8229C33.0303 15.2032 32.2939 14.7116 31.4833 14.3762C30.6727 14.0408 29.8039 13.8682 28.9265 13.8682C28.0491 13.8682 27.1803 14.0408 26.3697 14.3762C25.5592 14.7116 24.8227 15.2032 24.2023 15.8229Z" fill="#1D78EF"/>
<path d="M13.0778 14.1547L17.802 18.873L22.5261 14.1547C23.1466 13.5352 23.6389 12.7996 23.9747 11.99C24.3105 11.1805 24.4834 10.3128 24.4834 9.43648C24.4834 8.56019 24.3105 7.69248 23.9747 6.88291C23.6389 6.07334 23.1466 5.33778 22.5261 4.71824L17.802 0L13.0778 4.71824C12.4573 5.33778 11.9651 6.07334 11.6293 6.88291C11.2935 7.69248 11.1206 8.56019 11.1206 9.43648C11.1206 10.3128 11.2935 11.1805 11.6293 11.99C11.9651 12.7996 12.4573 13.5352 13.0778 14.1547Z" fill="#1D78EF"/>
<path d="M11.4082 15.8232L16.1324 20.5448L11.4082 25.263C10.1551 26.5141 8.45587 27.2169 6.68407 27.2169C4.91226 27.2169 3.21299 26.5141 1.95991 25.263V25.263C1.3394 24.6435 0.847183 23.9079 0.511359 23.0984C0.175534 22.2888 0.00268555 21.4211 0.00268555 20.5448C0.00268555 19.6685 0.175534 18.8008 0.511359 17.9912C0.847183 17.1817 1.3394 16.4461 1.95991 15.8266V15.8266C2.58001 15.2066 3.31632 14.7147 4.12678 14.3791C4.93725 14.0434 5.80598 13.8704 6.68338 13.8701C7.56077 13.8698 8.42963 14.0421 9.24033 14.3773C10.051 14.7124 10.7877 15.2037 11.4082 15.8232Z" fill="#1D78EF"/>
<path d="M23.337 32.0009L17.8025 21.6875L12.2681 32.0009H23.337Z" fill="#1D78EF"/>
</g>
<defs>
<clipPath id="clip0_5067_5420">
<rect width="111" height="32" fill="white"/>
</clipPath>
</defs>
</svg>
