<svg width="102" height="32" viewBox="0 0 102 32" fill="none" xmlns="http://www.w3.org/2000/svg">
<path d="M102 32H0V0H102V32ZM56.1403 12.4583C55.262 12.4583 54.4399 12.6219 53.6749 12.949C52.9241 13.2618 52.2584 13.6964 51.6776 14.251C51.0969 14.8056 50.6365 15.4666 50.2965 16.2344C49.9707 16.988 49.786 17.8059 49.7435 18.6875C49.701 19.6546 49.8639 20.5226 50.2322 21.2906C50.6005 22.0444 51.1394 22.6414 51.8477 23.0823C52.5701 23.5089 53.4198 23.7229 54.3971 23.7229C55.2754 23.7229 56.0974 23.566 56.8624 23.2531C57.6274 22.9402 58.3008 22.4991 58.8816 21.9302C59.4622 21.3614 59.9227 20.7004 60.2626 19.9469C60.6026 19.1932 60.7863 18.3754 60.8146 17.4938C60.8713 16.4983 60.7083 15.6235 60.3259 14.8698C59.9435 14.1161 59.3912 13.5256 58.6689 13.099C57.9607 12.6724 57.1176 12.4584 56.1403 12.4583ZM72.2075 8.10625L71.1875 13.9948C70.9325 13.5539 70.5499 13.1907 70.0399 12.9063C69.5299 12.6076 68.8707 12.4583 68.0633 12.4583C67.2417 12.4584 66.4764 12.6219 65.7681 12.949C65.0599 13.2618 64.4366 13.7031 63.8984 14.2719C63.3601 14.8407 62.9282 15.5092 62.6024 16.2771C62.2766 17.045 62.0995 17.8771 62.0712 18.7729C62.0145 19.7258 62.1424 20.5729 62.454 21.3125C62.7799 22.0518 63.2545 22.6415 63.8776 23.0823C64.5151 23.5089 65.2661 23.7229 66.1302 23.7229C66.7109 23.7229 67.2206 23.6439 67.6597 23.4875C68.1129 23.3453 68.5098 23.1542 68.8498 22.9125C69.2039 22.6566 69.5013 22.3788 69.7421 22.0802L69.8698 23.4667H72.6962L75.395 8.10625H72.2075ZM81.5614 12.4583C80.6266 12.4583 79.7693 12.622 78.9902 12.949C78.2111 13.2761 77.5596 13.7249 77.0354 14.2938C76.5112 14.8626 76.1352 15.531 75.9086 16.299H78.9902C79.1461 15.8723 79.415 15.5595 79.7975 15.3604C80.1799 15.1613 80.6119 15.0615 81.0934 15.0615C81.5608 15.0615 81.9151 15.1395 82.1559 15.2958C82.4109 15.4381 82.5672 15.6729 82.6239 16C82.6947 16.3129 82.6871 16.7113 82.6021 17.1948H80.0102C78.9619 17.1948 78.0546 17.344 77.2896 17.6427C76.5248 17.9413 75.9299 18.3608 75.5049 18.901C75.0799 19.4273 74.8537 20.0538 74.8253 20.7792C74.7971 21.3336 74.8955 21.8388 75.1221 22.2938C75.3629 22.7346 75.739 23.0826 76.2489 23.3385C76.7589 23.5945 77.4247 23.7229 78.2463 23.7229C78.6428 23.7229 79.018 23.6801 79.3721 23.5948C79.7262 23.5095 80.0596 23.3887 80.3713 23.2323C80.6829 23.0758 80.9595 22.8904 81.2003 22.6771C81.4552 22.4496 81.6817 22.2003 81.8799 21.9302L81.9007 23.4667H84.6846L85.8539 16.8104C86.0239 15.8861 85.9529 15.1035 85.6412 14.4635C85.3437 13.8095 84.8474 13.3121 84.1533 12.9708C83.4592 12.6296 82.5954 12.4584 81.5614 12.4583ZM22.3976 8.53333L14.3645 23.4667H17.7014L19.3969 20.2031H24.9428L25.4792 23.4667H28.8359L26.0738 8.53333H22.3976ZM44.8522 12.4583C44.1156 12.4583 43.4138 12.6218 42.748 12.949C42.0964 13.276 41.53 13.7173 41.0484 14.2719C40.8784 13.8737 40.6445 13.5466 40.347 13.2906C40.0637 13.0204 39.7161 12.8141 39.3052 12.6719C38.8946 12.5298 38.4273 12.4584 37.9034 12.4583C37.1811 12.4583 36.5294 12.6153 35.9486 12.9281C35.3819 13.2268 34.8999 13.6251 34.5032 14.1229L34.4814 12.7146H31.6768L29.8071 23.4667H32.9946L33.9927 17.749C34.0919 17.2086 34.2624 16.7464 34.5032 16.3625C34.744 15.9786 35.0273 15.68 35.353 15.4667C35.693 15.2533 36.069 15.1469 36.4799 15.1469C37.1313 15.147 37.5842 15.3675 37.8391 15.8083C38.094 16.2349 38.1508 16.8389 38.0093 17.6208L36.9893 23.4667H40.1561L41.2186 17.4938C41.3319 17.0102 41.5014 16.5899 41.728 16.2344C41.9547 15.8789 42.2313 15.6088 42.5571 15.424C42.8969 15.2392 43.258 15.1469 43.6403 15.1469C44.2778 15.1469 44.7249 15.3674 44.9799 15.8083C45.2346 16.2349 45.2981 16.8391 45.1708 17.6208L44.1508 23.4667H47.3165L48.379 17.3438C48.5773 16.3057 48.5631 15.4242 48.3365 14.699C48.124 13.9737 47.7281 13.4184 47.1474 13.0344C46.5666 12.6504 45.8013 12.4584 44.8522 12.4583ZM82.1134 19.0719V19.0938C82.0143 19.4064 81.8797 19.6977 81.7098 19.9677C81.5539 20.2237 81.3627 20.4519 81.136 20.651C80.9094 20.85 80.6544 21.0061 80.3713 21.1198C80.0879 21.2336 79.783 21.2906 79.4572 21.2906C79.1033 21.2906 78.8132 21.2125 78.5866 21.0563C78.36 20.8998 78.2605 20.6649 78.2888 20.3521C78.2888 20.0961 78.3599 19.8755 78.5015 19.6906C78.6573 19.4916 78.8696 19.3422 79.1386 19.2427C79.4077 19.129 79.7194 19.0719 80.0735 19.0719H82.1134ZM55.7574 15.2323C56.1399 15.2323 56.4656 15.3245 56.7348 15.5094C57.018 15.6942 57.2302 15.9644 57.3719 16.3198C57.5277 16.6611 57.5922 17.088 57.5638 17.6C57.5214 18.2541 57.3792 18.837 57.1384 19.349C56.8976 19.8467 56.5794 20.2385 56.1828 20.5229C55.7862 20.8073 55.3324 20.9489 54.8225 20.949C54.4542 20.949 54.1284 20.8567 53.8451 20.6719C53.5618 20.487 53.3421 20.2236 53.1862 19.8823C53.0447 19.5269 52.9878 19.1006 53.0161 18.6031C53.0444 17.9347 53.1788 17.3509 53.4197 16.8531C53.6747 16.3412 54.0005 15.9428 54.3971 15.6583C54.8079 15.3739 55.2616 15.2323 55.7574 15.2323ZM68.4244 15.2531C68.8919 15.2531 69.2963 15.353 69.6363 15.5521C69.9762 15.7512 70.231 16.0356 70.401 16.4052C70.571 16.775 70.642 17.2019 70.6137 17.6854C70.5854 18.2827 70.4291 18.8304 70.1458 19.3281C69.8625 19.8115 69.4873 20.2024 69.02 20.501C68.5666 20.7855 68.0562 20.9281 67.4895 20.9281C67.0221 20.9281 66.6251 20.8216 66.2994 20.6083C65.9738 20.3951 65.7264 20.0962 65.5565 19.7125C65.4007 19.3286 65.3296 18.9015 65.3438 18.4323C65.3721 17.8207 65.5208 17.2798 65.7899 16.8104C66.0732 16.327 66.4417 15.9504 66.895 15.6802C67.3482 15.3958 67.8579 15.2532 68.4244 15.2531ZM24.5381 17.749H20.6721L23.6085 12.0958L24.5381 17.749Z" fill="white"/>
</svg>
