<svg width="128" height="128" viewBox="0 0 128 128" fill="none" xmlns="http://www.w3.org/2000/svg">
<rect width="128" height="128" rx="24" fill="#1D78EF"/>
<path d="M60.4041 26.9315C62.629 25.6895 65.371 25.6895 67.5959 26.9315L95.407 42.4566C97.6303 43.6978 99 45.9906 99 48.4719V79.5281C99 82.0094 97.6303 84.3022 95.407 85.5434L67.5959 101.068C65.371 102.311 62.629 102.311 60.4041 101.068L32.593 85.5434C30.3697 84.3022 29 82.0094 29 79.5281V48.4719C29 45.9906 30.3697 43.6978 32.593 42.4566L60.4041 26.9315ZM54.393 44.4622C53.1093 44.4622 51.9231 45.1239 51.2809 46.198L41.6759 62.2625C41.0331 63.3376 41.0331 64.6624 41.6759 65.7375L51.2809 81.802C51.9231 82.8761 53.1093 83.5378 54.393 83.5378H73.6074C74.8911 83.5378 76.0773 82.8761 76.7196 81.802L86.3245 65.7375C86.9673 64.6624 86.9673 63.3376 86.3245 62.2625L76.7196 46.198C76.0773 45.1239 74.8911 44.4622 73.6074 44.4622H54.393Z" fill="white"/>
</svg>
