<svg width="128" height="128" viewBox="0 0 128 128" fill="none" xmlns="http://www.w3.org/2000/svg">
<rect width="128" height="128" rx="24" fill="url(#paint0_linear_5030_1328)"/>
<path d="M32 63.7188C32 57.495 33.2815 51.9836 35.8445 47.1845C38.4829 42.3855 42.0259 38.6737 46.4735 36.0492C50.9965 33.3497 55.9717 32 61.3993 32C66.2992 32 70.5583 32.9748 74.1767 34.9244C77.8704 36.7991 80.8104 39.1611 82.9965 42.0105V33.0123H96V94.9877H82.9965V85.7645C80.8104 88.6889 77.8327 91.1259 74.0636 93.0756C70.2945 95.0252 65.9976 96 61.1731 96C55.821 96 50.9211 94.6503 46.4735 91.9508C42.0259 89.1763 38.4829 85.3521 35.8445 80.478C33.2815 75.529 32 69.9426 32 63.7188ZM82.9965 63.9438C82.9965 59.6696 82.0919 55.9578 80.2827 52.8084C78.5489 49.659 76.2497 47.2595 73.3852 45.6098C70.5206 43.9602 67.4299 43.1353 64.1131 43.1353C60.7962 43.1353 57.7055 43.9602 54.841 45.6098C51.9764 47.1845 49.6396 49.5466 47.8304 52.696C46.0966 55.7704 45.2297 59.4446 45.2297 63.7188C45.2297 67.993 46.0966 71.7422 47.8304 74.9666C49.6396 78.191 51.9764 80.6655 54.841 82.3902C57.7809 84.0398 60.8716 84.8647 64.1131 84.8647C67.4299 84.8647 70.5206 84.0398 73.3852 82.3902C76.2497 80.7405 78.5489 78.3409 80.2827 75.1916C82.0919 71.9672 82.9965 68.2179 82.9965 63.9438Z" fill="#A27B68"/>
<defs>
<linearGradient id="paint0_linear_5030_1328" x1="64" y1="0" x2="64" y2="128" gradientUnits="userSpaceOnUse">
<stop stop-color="#FFE6E6"/>
<stop offset="1" stop-color="#FFECD3"/>
</linearGradient>
</defs>
</svg>
