<svg width="156" height="34" viewBox="0 0 156 34" fill="none" xmlns="http://www.w3.org/2000/svg">
<g clip-path="url(#clip0_4004_5893)">
<path d="M14.4561 7.80566V9.54003L24.2844 14.4542L14.4561 19.3684V33.8219L26.0188 28.0405V13.587L14.4561 7.80566Z" fill="#282828"/>
<path d="M0.000976562 20.2348L11.5637 26.0162V24.2818L1.73534 19.3677L11.5637 14.4535V0L0.000976562 5.78136V20.2348Z" fill="#282828"/>
<path d="M44.8594 25.9984H37.5801V7.83081H44.3088C48.4683 7.83081 50.4564 9.69647 50.4564 12.5715C50.4564 14.5901 49.3247 15.9969 47.6731 16.5475C49.814 17.0675 51.2821 18.6273 51.2821 20.8906C51.2821 23.888 49.1105 25.9982 44.8592 25.9982L44.8594 25.9984ZM43.9724 10.2777H40.5163V15.7218H44.1559C46.4498 15.7218 47.5203 14.6208 47.5203 12.9692C47.5203 11.287 46.4498 10.2777 43.9724 10.2777ZM44.523 17.9546H40.5163V23.5518H44.4924C46.9698 23.5518 48.2848 22.5731 48.2848 20.6461C48.2848 18.9333 47.092 17.9546 44.5229 17.9546H44.523Z" fill="#282828"/>
<path d="M59.2034 26.2123C55.1663 26.2123 52.0771 23.3373 52.0771 19.2695C52.0771 15.2017 55.1663 12.3267 59.2034 12.3267C63.2713 12.3267 66.3297 15.2017 66.3297 19.2695C66.3297 23.3373 63.2713 26.2123 59.2034 26.2123ZM59.2034 14.8347C56.8484 14.8347 55.0439 16.6392 55.0439 19.2695C55.0439 21.8997 56.8791 23.7043 59.2034 23.7043C61.5585 23.7043 63.363 21.8997 63.363 19.2695C63.363 16.6392 61.528 14.8347 59.2034 14.8347Z" fill="#282828"/>
<path d="M74.1595 26.2123C70.1223 26.2123 67.0332 23.3373 67.0332 19.2695C67.0332 15.2017 70.1223 12.3267 74.1595 12.3267C78.2273 12.3267 81.2858 15.2017 81.2858 19.2695C81.2858 23.3373 78.2273 26.2123 74.1595 26.2123ZM74.1595 14.8347C71.8045 14.8347 69.9999 16.6392 69.9999 19.2695C69.9999 21.8997 71.835 23.7043 74.1595 23.7043C76.5145 23.7043 78.3191 21.8997 78.3191 19.2695C78.3191 16.6392 76.484 14.8347 74.1595 14.8347Z" fill="#282828"/>
<path d="M89.8795 18.3518L95.5988 25.998H92.2039L87.7078 20.3704L85.8115 22.4196V25.998H82.9365V6.76003L85.8115 6.60718V19.6363H85.9339C86.3926 18.8717 87.0961 17.893 87.983 16.792L92.0202 12.4795L95.2011 12.6019L89.8793 18.3519L89.8795 18.3518Z" fill="#282828"/>
<path d="M107.86 11.2251C106.851 10.644 104.894 10.2464 103.364 10.2464C100.979 10.2464 99.6635 11.1333 99.6635 12.6626C99.6635 16.3022 109.206 14.5283 109.206 20.7983C109.206 24.132 106.79 26.2118 102.141 26.2118C99.9388 26.2118 97.7979 25.7224 96.5439 25.0496L96.8498 22.2663C98.0426 22.9698 100.214 23.5815 102.233 23.5815C104.924 23.5815 106.178 22.6946 106.178 21.0735C106.178 17.3115 96.6052 19.1772 96.6052 12.9072C96.6052 9.78764 99.0826 7.61597 103.303 7.61597C105.138 7.61597 107.188 7.95246 108.442 8.59467L107.861 11.2249L107.86 11.2251Z" fill="#282828"/>
<path d="M118.471 15.0178H114.556V21.5323C114.556 23.0617 115.382 23.7039 116.728 23.7039C117.492 23.7039 118.196 23.4286 118.685 23.0617L118.838 25.5084C118.196 25.9671 117.248 26.2119 116.116 26.2119C113.149 26.2119 111.712 24.6827 111.712 21.8688V15.0178H109.815V12.5404H111.712V9.60427L114.556 8.96191V12.5404H118.685L118.471 15.0178H118.471Z" fill="#282828"/>
<path d="M126.606 26.2123C122.569 26.2123 119.479 23.3373 119.479 19.2695C119.479 15.2017 122.569 12.3267 126.606 12.3267C130.674 12.3267 133.732 15.2017 133.732 19.2695C133.732 23.3373 130.674 26.2123 126.606 26.2123ZM126.606 14.8347C124.251 14.8347 122.446 16.6392 122.446 19.2695C122.446 21.8997 124.281 23.7043 126.606 23.7043C128.961 23.7043 130.765 21.8997 130.765 19.2695C130.765 16.6392 128.93 14.8347 126.606 14.8347Z" fill="#282828"/>
<path d="M143.154 15.2324C142.848 15.1101 142.237 14.9877 141.778 14.9877C140.463 14.9877 139.209 15.63 138.261 16.6087V25.9983H135.386V12.602L138.261 12.4797V14.2841C139.392 12.9995 140.799 12.3267 142.237 12.3267C142.604 12.3267 143.032 12.3879 143.246 12.4797L143.154 15.2323L143.154 15.2324Z" fill="#282828"/>
<path d="M146.516 19.9422C146.822 22.2667 148.657 23.7041 151.501 23.7041C153.03 23.7041 154.804 23.2148 155.875 22.4502L155.997 24.9887C154.957 25.7533 152.939 26.2121 151.318 26.2121C146.455 26.2121 143.519 23.49 143.519 19.1471C143.519 15.0486 146.332 12.3267 150.094 12.3267C153.52 12.3267 155.997 14.5594 155.997 18.1071C155.997 18.6271 155.967 19.3611 155.875 19.9422H146.516ZM146.424 18.1989H153.275C153.306 18.0765 153.306 17.8624 153.306 17.7095C153.306 15.7826 152.021 14.4369 150.094 14.4369C148.076 14.4369 146.638 15.905 146.424 18.1989Z" fill="#282828"/>
</g>
<defs>
<clipPath id="clip0_4004_5893">
<rect width="155.997" height="33.8211" fill="white" transform="translate(0.00292969)"/>
</clipPath>
</defs>
</svg>
