<svg width="96" height="35" viewBox="0 0 96 35" fill="none" xmlns="http://www.w3.org/2000/svg">
<path d="M2.84277 17.5107C1.58899 16.2226 0.600712 14.6418 -1.85722e-06 12.7676L13.6426 0.82129L27.5068 12.583C26.9473 14.4452 26.003 16.0236 24.7939 17.3203C19.2072 11.575 8.31321 11.6396 2.84277 17.5107ZM0.153319 22.1572C0.719474 20.3337 1.65444 18.7861 2.84277 17.5107C8.43836 23.2596 19.3331 23.1768 24.7939 17.3203C26.0681 18.6306 27.0667 20.2427 27.6611 22.1572L13.9072 34.0117L0.153319 22.1572Z" fill="#282828"/>
<path d="M35.957 17.4804C35.957 16.0315 36.2806 14.7374 36.9276 13.598C37.5887 12.4446 38.482 11.5513 39.6073 10.9183C40.7467 10.2713 42.0197 9.94775 43.4263 9.94775C45.0721 9.94775 46.5139 10.3697 47.7518 11.2137C48.9896 12.0577 49.8547 13.2252 50.347 14.7163H46.95C46.6124 14.013 46.1341 13.4855 45.5152 13.1338C44.9103 12.7821 44.207 12.6063 43.4052 12.6063C42.5472 12.6063 41.7806 12.8103 41.1054 13.2182C40.4442 13.6121 39.9238 14.1747 39.544 14.9062C39.1783 15.6376 38.9954 16.4957 38.9954 17.4804C38.9954 18.4509 39.1783 19.309 39.544 20.0545C39.9238 20.786 40.4442 21.3557 41.1054 21.7636C41.7806 22.1575 42.5472 22.3544 43.4052 22.3544C44.207 22.3544 44.9103 22.1786 45.5152 21.8269C46.1341 21.4612 46.6124 20.9266 46.95 20.2233H50.347C49.8547 21.7284 48.9896 22.903 47.7518 23.747C46.528 24.5769 45.0862 24.9919 43.4263 24.9919C42.0197 24.9919 40.7467 24.6754 39.6073 24.0424C38.482 23.3953 37.5887 22.5021 36.9276 21.3627C36.2806 20.2233 35.957 18.9292 35.957 17.4804Z" fill="#282828"/>
<path d="M54.7691 14.9906C55.1489 14.3717 55.6412 13.8864 56.2461 13.5347C56.865 13.183 57.5683 13.0072 58.356 13.0072V16.1089H57.5753C56.647 16.1089 55.9436 16.3269 55.4654 16.763C55.0012 17.199 54.7691 17.9586 54.7691 19.0417V24.8653H51.8151V13.176H54.7691V14.9906Z" fill="#282828"/>
<path d="M64.4812 25.0552C63.3559 25.0552 62.3431 24.809 61.4429 24.3167C60.5426 23.8103 59.8322 23.0999 59.3118 22.1856C58.8054 21.2713 58.5522 20.2163 58.5522 19.0206C58.5522 17.825 58.8124 16.77 59.3329 15.8557C59.8674 14.9414 60.5918 14.238 61.5062 13.7457C62.4205 13.2393 63.4403 12.9861 64.5656 12.9861C65.6909 12.9861 66.7108 13.2393 67.6251 13.7457C68.5394 14.238 69.2568 14.9414 69.7773 15.8557C70.3118 16.77 70.579 17.825 70.579 19.0206C70.579 20.2163 70.3047 21.2713 69.7561 22.1856C69.2216 23.0999 68.4902 23.8103 67.5618 24.3167C66.6475 24.809 65.6206 25.0552 64.4812 25.0552ZM64.4812 22.481C65.0157 22.481 65.5151 22.3544 65.9793 22.1012C66.4576 21.8339 66.8374 21.4401 67.1187 20.9196C67.4 20.3991 67.5407 19.7662 67.5407 19.0206C67.5407 17.9094 67.2453 17.0584 66.6545 16.4676C66.0778 15.8627 65.3674 15.5603 64.5234 15.5603C63.6794 15.5603 62.9691 15.8627 62.3923 16.4676C61.8297 17.0584 61.5484 17.9094 61.5484 19.0206C61.5484 20.1319 61.8227 20.9899 62.3712 21.5948C62.9339 22.1856 63.6372 22.481 64.4812 22.481Z" fill="#282828"/>
<path d="M78.1685 13.0072C79.5611 13.0072 80.6864 13.4503 81.5445 14.3365C82.4025 15.2086 82.8316 16.4324 82.8316 18.0078V24.8653H79.8776V18.4087C79.8776 17.4804 79.6455 16.77 79.1813 16.2777C78.7171 15.7713 78.0841 15.5181 77.2823 15.5181C76.4665 15.5181 75.8194 15.7713 75.3412 16.2777C74.877 16.77 74.6449 17.4804 74.6449 18.4087V24.8653H71.6909V13.176H74.6449V14.6319C75.0387 14.1255 75.5381 13.7316 76.1429 13.4503C76.7619 13.1549 77.4371 13.0072 78.1685 13.0072Z" fill="#282828"/>
<path d="M83.826 18.9784C83.826 17.7969 84.0581 16.7489 84.5223 15.8346C85.0006 14.9203 85.6406 14.2169 86.4424 13.7246C87.2583 13.2323 88.1656 12.9861 89.1643 12.9861C90.0364 12.9861 90.796 13.1619 91.443 13.5136C92.1042 13.8653 92.6317 14.3084 93.0255 14.8429V13.176H96.0006V24.8653H93.0255V23.1562C92.6457 23.7048 92.1182 24.1619 91.443 24.5277C90.7819 24.8793 90.0153 25.0552 89.1432 25.0552C88.1585 25.0552 87.2583 24.802 86.4424 24.2956C85.6406 23.7892 85.0006 23.0788 84.5223 22.1645C84.0581 21.2361 83.826 20.1741 83.826 18.9784ZM93.0255 19.0206C93.0255 18.3032 92.8849 17.6914 92.6035 17.185C92.3222 16.6645 91.9424 16.2706 91.4641 16.0034C90.9859 15.722 90.4725 15.5814 89.9239 15.5814C89.3753 15.5814 88.8689 15.715 88.4047 15.9823C87.9405 16.2495 87.5607 16.6434 87.2653 17.1639C86.984 17.6703 86.8433 18.2751 86.8433 18.9784C86.8433 19.6818 86.984 20.3007 87.2653 20.8352C87.5607 21.3557 87.9405 21.7566 88.4047 22.0379C88.8829 22.3192 89.3893 22.4599 89.9239 22.4599C90.4725 22.4599 90.9859 22.3263 91.4641 22.059C91.9424 21.7777 92.3222 21.3838 92.6035 20.8774C92.8849 20.3569 93.0255 19.738 93.0255 19.0206Z" fill="#282828"/>
</svg>
