<svg width="120" height="23" viewBox="0 0 120 23" fill="none" xmlns="http://www.w3.org/2000/svg">
<g clip-path="url(#clip0_4004_5898)">
<path d="M30.1814 18.4114L25.2187 3.52445C24.9429 2.69585 24.4598 1.95155 23.8153 1.36228C23.1708 0.773014 22.3863 0.358364 21.5363 0.157732C20.6864 -0.0429002 19.7993 -0.0228472 18.9593 0.21599C18.1193 0.454828 17.3544 0.904513 16.7371 1.5223L15.1317 3.13453L13.5229 1.5223C12.9056 0.904935 12.1407 0.455619 11.3009 0.217032C10.4611 -0.0215552 9.57419 -0.0414916 8.7245 0.159112C7.87481 0.359715 7.0905 0.774195 6.44607 1.3632C5.80164 1.9522 5.31848 2.69617 5.04247 3.52445L0.0797942 18.4114C0.0131019 18.6044 -0.014647 18.8087 -0.00184541 19.0125C0.0109562 19.2163 0.0640536 19.4156 0.154374 19.5988C0.244694 19.7819 0.370442 19.9453 0.524342 20.0796C0.678243 20.2138 0.85724 20.3162 1.05097 20.3808C1.2447 20.4454 1.44932 20.471 1.65299 20.4559C1.85666 20.4409 2.05533 20.3857 2.2375 20.2934C2.41968 20.2011 2.58174 20.0736 2.71431 19.9183C2.84687 19.7629 2.94731 19.5828 3.00982 19.3884L7.97193 4.50093C8.08169 4.1724 8.2735 3.87733 8.52921 3.64369C8.78492 3.41004 9.09605 3.24555 9.43313 3.16581C9.7702 3.08607 10.1221 3.09372 10.4553 3.18802C10.7886 3.28233 11.0923 3.46018 11.3377 3.70471L13.259 5.62999C12.2402 7.44411 10.6496 8.86999 8.73538 9.68512H8.73029C8.45299 9.80443 8.21674 10.0024 8.05074 10.2545C7.88473 10.5067 7.79626 10.8019 7.79626 11.1038C7.79626 11.4057 7.88473 11.7009 8.05074 11.9531C8.21674 12.2052 8.45299 12.4032 8.73029 12.5225C10.9702 13.4778 12.7544 15.2617 13.7099 17.5015C13.8289 17.7794 14.0268 18.0162 14.2791 18.1826C14.5313 18.3491 14.8269 18.4378 15.1292 18.4378C15.4314 18.4378 15.727 18.3491 15.9793 18.1826C16.2316 18.0162 16.4295 17.7794 16.5484 17.5015C17.5036 15.2616 19.2876 13.4776 21.5275 12.5225C21.8049 12.4033 22.0414 12.2053 22.2075 11.9531C22.3736 11.7009 22.4622 11.4055 22.4622 11.1035C22.4622 10.8015 22.3736 10.5061 22.2075 10.2539C22.0414 10.0017 21.8049 9.80379 21.5275 9.68456H21.5241C19.611 8.86876 18.0215 7.44298 17.0033 5.62943L18.9246 3.7081C19.1698 3.46327 19.4735 3.28512 19.8068 3.19054C20.1401 3.09596 20.4921 3.08809 20.8293 3.16767C21.1666 3.24725 21.4779 3.41166 21.7338 3.64528C21.9897 3.8789 22.1816 4.17401 22.2915 4.50262L27.2536 19.3901C27.3864 19.7745 27.6655 20.091 28.0303 20.2709C28.3951 20.4508 28.8161 20.4795 29.2019 20.3508C29.5877 20.2222 29.9072 19.9465 30.091 19.5837C30.2748 19.2209 30.3081 18.8002 30.1836 18.413L30.1814 18.4114ZM16.3749 12.3513C15.9242 12.8022 15.5086 13.287 15.1317 13.8013C14.3749 12.772 13.4665 11.8633 12.4373 11.1063C13.4662 10.351 14.3747 9.44411 15.1317 8.41648C15.8885 9.44512 16.797 10.353 17.8261 11.1092C17.3115 11.4857 16.8264 11.9009 16.3749 12.3513Z" fill="#282828"/>
<path d="M38.5929 17.6276C38.5424 17.5787 38.5025 17.5198 38.4757 17.4548C38.4488 17.3898 38.4357 17.3199 38.437 17.2496V2.76217C38.4311 2.61487 38.483 2.47109 38.5816 2.36152C38.6318 2.30944 38.6924 2.26864 38.7596 2.24184C38.8267 2.21504 38.8988 2.20287 38.971 2.20612H40.7736C41.0554 2.20612 41.2781 2.34702 41.4416 2.62881L45.7363 10.5967L50.0311 2.62881C50.1938 2.34664 50.4163 2.20574 50.6984 2.20612H52.4791C52.553 2.20274 52.6268 2.21482 52.6958 2.24157C52.7648 2.26832 52.8274 2.30916 52.8798 2.36148C52.9321 2.4138 52.9729 2.47646 52.9997 2.54545C53.0264 2.61445 53.0385 2.68825 53.0351 2.76217V17.2496C53.0384 17.3218 53.0262 17.3939 52.9994 17.461C52.9726 17.5281 52.9318 17.5888 52.8797 17.6389C52.7701 17.7375 52.6264 17.7895 52.4791 17.7836H50.5651C50.4949 17.7839 50.4253 17.7703 50.3604 17.7435C50.2954 17.7168 50.2365 17.6775 50.1868 17.6278C50.1372 17.5782 50.0978 17.5192 50.0711 17.4543C50.0444 17.3893 50.0308 17.3198 50.0311 17.2496V7.68191L46.9377 13.5589C46.7746 13.8855 46.5297 14.0487 46.2031 14.0483H45.2684C44.9572 14.0483 44.705 13.8852 44.5118 13.5589L41.4184 7.68191V17.2513C41.4218 17.3914 41.3698 17.5272 41.2738 17.6293C41.2239 17.6818 41.1633 17.7228 41.0961 17.7498C41.0289 17.7767 40.9567 17.7888 40.8844 17.7853H38.9704C38.9 17.7864 38.8302 17.7729 38.7653 17.7458C38.7003 17.7187 38.6416 17.6784 38.5929 17.6276Z" fill="#282828"/>
<path d="M56.2884 16.5821C55.3165 15.6327 54.8009 14.2825 54.7418 12.5315L54.7197 11.9754C54.7197 10.1208 55.2055 8.65942 56.1771 7.59138C57.1487 6.52335 58.4951 5.98915 60.2164 5.98877C61.9818 5.98877 63.3429 6.52297 64.2998 7.59138C65.2567 8.65979 65.7354 10.084 65.7357 11.8641V12.3314C65.7369 12.4017 65.7237 12.4716 65.6969 12.5366C65.67 12.6016 65.6302 12.6604 65.5798 12.7095C65.5272 12.7614 65.4645 12.8021 65.3956 12.8289C65.3267 12.8557 65.253 12.8681 65.1791 12.8654H57.791V13.0434C57.8204 13.8745 58.0465 14.5607 58.4691 15.1021C58.8918 15.6434 59.4741 15.9141 60.2159 15.9141C61.062 15.9141 61.7518 15.573 62.2852 14.8907C62.4192 14.7274 62.5226 14.6274 62.5972 14.5901C62.6718 14.5528 62.7972 14.5336 62.9752 14.5336H64.9339C65.0582 14.5312 65.1798 14.571 65.2786 14.6466C65.326 14.6831 65.364 14.7305 65.3892 14.7848C65.4144 14.8391 65.4261 14.8987 65.4232 14.9585C65.4232 15.3146 65.2119 15.7337 64.7892 16.2159C64.3665 16.6981 63.7618 17.1172 62.9752 17.4732C62.1886 17.8292 61.2762 18.0072 60.2379 18.0072C58.5769 18.0065 57.2604 17.5314 56.2884 16.5821ZM62.6644 10.9741V10.9294C62.6644 10.0543 62.4455 9.35316 62.0078 8.82612C61.57 8.29907 60.9729 8.03536 60.2164 8.03498C59.4599 8.03498 58.8666 8.29869 58.4364 8.82612C58.0061 9.35354 57.791 10.0546 57.791 10.9294V10.9741H62.6644Z" fill="#282828"/>
<path d="M67.2393 17.6278C67.1888 17.5788 67.1489 17.52 67.1221 17.455C67.0952 17.3899 67.0821 17.3201 67.0834 17.2497V6.7683C67.0807 6.69441 67.0931 6.62075 67.1199 6.55185C67.1467 6.48295 67.1874 6.42026 67.2393 6.36765C67.2883 6.31715 67.3471 6.27725 67.4122 6.25042C67.4772 6.22359 67.5471 6.21041 67.6174 6.21168H69.4427C69.5166 6.20848 69.5904 6.22068 69.6593 6.24753C69.7283 6.27437 69.7909 6.31527 69.8432 6.36762C69.8955 6.41997 69.9363 6.48262 69.9631 6.5516C69.9899 6.62058 70.002 6.69438 69.9987 6.7683V7.68207C70.7405 6.70257 71.8087 6.21281 73.2034 6.21281H74.138C74.2095 6.2075 74.2813 6.21767 74.3485 6.24262C74.4157 6.26758 74.4768 6.30673 74.5274 6.35742C74.5781 6.40811 74.6173 6.46914 74.6423 6.53634C74.6672 6.60355 74.6774 6.67534 74.6721 6.74683V8.37148C74.6753 8.51176 74.6233 8.64771 74.5274 8.7501C74.4774 8.80236 74.4168 8.84328 74.3496 8.87009C74.2824 8.8969 74.2103 8.90898 74.138 8.9055H72.38C71.6827 8.9055 71.1338 9.10592 70.7333 9.50677C70.3329 9.90761 70.1326 10.4565 70.1326 11.1535V17.2508C70.1329 17.3211 70.1192 17.3907 70.0924 17.4556C70.0656 17.5205 70.0262 17.5795 69.9765 17.6292C69.9268 17.6788 69.8678 17.7181 69.8029 17.7448C69.7379 17.7716 69.6683 17.7852 69.5981 17.7849H67.6202C67.5493 17.7865 67.4788 17.7734 67.4133 17.7463C67.3477 17.7193 67.2885 17.6789 67.2393 17.6278Z" fill="#282828"/>
<path d="M76.3431 16.649C75.3715 15.7449 74.856 14.4911 74.7965 12.8877L74.7744 11.9977L74.7965 11.1077C74.856 9.50582 75.3715 8.25224 76.3431 7.34696C77.3147 6.44167 78.6167 5.98959 80.2491 5.99072C81.4207 5.99072 82.4109 6.19793 83.2198 6.61233C84.0286 7.02674 84.6295 7.53532 85.0224 8.13809C85.4154 8.73898 85.6267 9.31387 85.6565 9.86277C85.665 9.9328 85.6562 10.0038 85.631 10.0697C85.6058 10.1356 85.5649 10.1943 85.5118 10.2408C85.4076 10.342 85.2677 10.398 85.1225 10.3968H83.1446C82.9815 10.3968 82.8628 10.3633 82.7886 10.2962C82.7144 10.2291 82.6402 10.1069 82.566 9.92945C82.3441 9.36436 82.0512 8.95635 81.6872 8.70545C81.3233 8.45455 80.8598 8.32835 80.2965 8.32684C79.5397 8.32684 78.9499 8.56418 78.5272 9.03886C78.1045 9.51354 77.8785 10.2406 77.8491 11.2201L77.8265 12.0435L77.8491 12.7781C77.938 14.7073 78.754 15.6718 80.2971 15.6714C80.875 15.6714 81.3423 15.549 81.6991 15.3041C82.0559 15.0592 82.345 14.6476 82.5665 14.0694C82.608 13.9354 82.6806 13.8132 82.7784 13.7128C82.8598 13.6374 82.9821 13.5998 83.1452 13.5998H85.123C85.2682 13.5985 85.408 13.6543 85.5124 13.7552C85.5654 13.8018 85.6063 13.8606 85.6315 13.9266C85.6567 13.9926 85.6655 14.0637 85.657 14.1338C85.6277 14.6529 85.4205 15.2129 85.0354 15.8138C84.6504 16.4147 84.0569 16.9302 83.2548 17.3605C82.4539 17.7907 81.4525 18.0058 80.2508 18.0058C78.6169 18.0062 77.3143 17.5539 76.3431 16.649Z" fill="#282828"/>
<path d="M88.0285 16.6712C87.2419 15.7814 86.8488 14.557 86.8491 12.9981V6.74584C86.8459 6.67363 86.8581 6.60155 86.8849 6.53441C86.9117 6.46727 86.9525 6.40662 87.0046 6.35649C87.1071 6.26075 87.2429 6.20884 87.3832 6.21182H89.3847C89.4549 6.2116 89.5245 6.22526 89.5894 6.25202C89.6543 6.27878 89.7132 6.3181 89.7628 6.36773C89.8125 6.41737 89.8518 6.47633 89.8786 6.54122C89.9053 6.60611 89.919 6.67565 89.9188 6.74584V12.8658C89.9188 14.6903 90.7125 15.6028 92.3001 15.6032C93.0716 15.6032 93.6836 15.3583 94.1361 14.8685C94.5885 14.3788 94.8146 13.7112 94.8142 12.8658V6.74584C94.811 6.67359 94.8233 6.60148 94.8502 6.53434C94.8771 6.4672 94.918 6.40657 94.9702 6.35649C95.0724 6.26068 95.2081 6.20875 95.3482 6.21182H97.3289C97.4004 6.2065 97.4722 6.21667 97.5394 6.24163C97.6066 6.26659 97.6676 6.30575 97.7183 6.35644C97.769 6.40713 97.8081 6.46815 97.8331 6.53535C97.8581 6.60256 97.8682 6.67435 97.8629 6.74584V17.2499C97.8663 17.39 97.8143 17.5258 97.7182 17.6279C97.6684 17.6804 97.6078 17.7215 97.5406 17.7484C97.4734 17.7753 97.4012 17.7874 97.3289 17.7839H95.4816C95.4114 17.7841 95.3418 17.7704 95.277 17.7437C95.2121 17.7169 95.1531 17.6776 95.1035 17.628C95.0538 17.5783 95.0145 17.5194 94.9878 17.4545C94.961 17.3896 94.9473 17.3201 94.9476 17.2499V16.3372C94.1316 17.4497 92.9002 18.0061 91.2535 18.0065C89.8901 18.0065 88.8151 17.5614 88.0285 16.6712Z" fill="#282828"/>
<path d="M99.9522 17.6278C99.9017 17.5788 99.8618 17.52 99.835 17.455C99.8081 17.3899 99.795 17.3201 99.7963 17.2497V6.7683C99.7936 6.69441 99.806 6.62075 99.8328 6.55185C99.8596 6.48295 99.9003 6.42026 99.9522 6.36765C100.001 6.31712 100.06 6.2772 100.125 6.25037C100.19 6.22354 100.26 6.21037 100.33 6.21168H102.155C102.229 6.20848 102.303 6.22068 102.372 6.24752C102.441 6.27436 102.503 6.31525 102.556 6.36759C102.608 6.41993 102.649 6.48258 102.676 6.55156C102.703 6.62054 102.715 6.69435 102.712 6.7683V7.68206C103.453 6.70256 104.521 6.21281 105.916 6.21281H106.846C106.918 6.2075 106.99 6.21766 107.057 6.24262C107.124 6.26758 107.185 6.30673 107.236 6.35742C107.287 6.40811 107.326 6.46914 107.351 6.53634C107.376 6.60355 107.386 6.67534 107.38 6.74683V8.37148C107.383 8.51172 107.331 8.64758 107.236 8.7501C107.186 8.80218 107.125 8.84299 107.058 8.86978C106.991 8.89658 106.919 8.90876 106.846 8.9055H105.088C104.391 8.9055 103.842 9.10592 103.441 9.50676C103.041 9.90761 102.84 10.4565 102.84 11.1535V17.2508C102.841 17.3211 102.827 17.3906 102.8 17.4556C102.774 17.5205 102.734 17.5795 102.685 17.6291C102.635 17.6788 102.576 17.7181 102.511 17.7448C102.446 17.7716 102.377 17.7852 102.306 17.7849H100.326C100.256 17.7857 100.187 17.7722 100.123 17.7451C100.058 17.7181 100 17.6782 99.9522 17.6278Z" fill="#282828"/>
<path d="M110.886 21.8781C110.841 21.8397 110.805 21.792 110.78 21.7383C110.755 21.6845 110.742 21.626 110.741 21.5667C110.746 21.4431 110.776 21.3218 110.831 21.2107L112.589 17.0934L108.315 7.01267C108.265 6.91556 108.235 6.80957 108.226 6.70073C108.238 6.57182 108.293 6.45069 108.382 6.35603C108.423 6.30933 108.475 6.27224 108.532 6.24727C108.59 6.2223 108.652 6.21005 108.715 6.21136H110.562C110.83 6.21136 111.022 6.35263 111.141 6.63405L114.101 13.8893L117.105 6.63405C117.253 6.35263 117.46 6.21173 117.727 6.21136H119.529C119.591 6.20963 119.652 6.22058 119.71 6.24352C119.767 6.26645 119.819 6.3009 119.863 6.34472C119.905 6.38485 119.939 6.43324 119.962 6.48688C119.985 6.54053 119.996 6.59831 119.996 6.65665C119.991 6.78019 119.961 6.90143 119.907 7.01267L113.612 21.5888C113.493 21.8709 113.286 22.012 112.99 22.012H111.21C111.089 22.0115 110.972 21.9634 110.886 21.8781Z" fill="#282828"/>
</g>
<defs>
<clipPath id="clip0_4004_5898">
<rect width="120" height="21.9919" fill="white" transform="translate(0 0.0197754)"/>
</clipPath>
</defs>
</svg>
