<svg width="96" height="28" viewBox="0 0 96 28" fill="none" xmlns="http://www.w3.org/2000/svg">
<g clip-path="url(#clip0_4004_5894)">
<path d="M53.2661 6.78467L50.9621 14.7363C50.7365 15.5792 50.4898 16.4211 50.2431 17.6951C50.0532 16.6917 49.8133 15.6984 49.524 14.7191L47.22 6.78754H44.3074L41.9448 14.7191C41.6385 15.6938 41.3983 16.688 41.2258 17.6951C40.9791 16.3808 40.7535 15.5379 40.5269 14.7191L38.2872 6.78754H35.4072L39.9106 21.8048H42.4786L45.7426 11.4695L48.948 21.8048H51.4959L56.0568 6.78467H53.2661Z" fill="#282828"/>
<path d="M60.4348 11.3467C57.8044 11.3467 55.9968 12.8049 56.0188 14.9832H58.1558C58.1356 13.9358 58.9363 13.2984 60.3129 13.2984C61.5465 13.2984 62.4096 13.8331 62.4096 15.2299V15.4555L59.5123 15.682C57.2313 15.8664 55.752 16.93 55.752 18.9076C55.752 20.7979 57.046 22.0756 59.2243 22.0756C60.8265 22.0756 62.039 21.3566 62.471 20.3083L62.6553 21.8088H64.8537V15.6388C64.8518 12.9508 63.2908 11.3467 60.4348 11.3467ZM62.4278 17.6952C62.4278 19.5854 61.1126 20.1816 60.0441 20.1816C58.9142 20.1816 58.2979 19.6891 58.2979 18.8049C58.2979 17.9832 58.8316 17.4897 60.3139 17.3457L62.4259 17.1614L62.4278 17.6952Z" fill="#282828"/>
<path d="M74.5951 13.0301C73.9788 11.9617 72.7049 11.3242 71.2054 11.3242C68.3081 11.3242 66.3555 13.5226 66.3555 16.5025C66.3555 19.4612 68.2668 21.5981 71.1228 21.5981C72.6022 21.5981 73.8761 21.002 74.5135 20.0161V21.7441C74.5135 23.4077 73.4652 24.5175 71.719 24.5175C70.1571 24.5175 69.0886 23.7572 68.9446 22.4218H66.4159C66.7443 25.0724 68.7785 26.7985 71.5731 26.7985C74.8601 26.7985 76.9567 24.6413 76.9567 21.2919V11.6535H74.7372L74.5951 13.0301ZM71.5548 19.4199C69.9929 19.4199 68.9043 18.146 68.9043 16.4439C68.9043 14.7591 69.9718 13.5255 71.5548 13.5255C73.2828 13.5255 74.4348 14.7793 74.4348 16.4439C74.4291 18.1258 73.278 19.4199 71.5529 19.4199H71.5548Z" fill="#282828"/>
<path d="M83.2827 19.9582C81.7621 19.9582 80.8165 19.074 80.755 17.4516H87.9877V16.6913C87.9877 13.4647 86.2001 11.3489 83.2414 11.3489C80.324 11.3489 78.3301 13.4609 78.3301 16.7316C78.3301 19.9582 80.3029 22.074 83.2414 22.074C85.6865 22.074 87.5969 20.6158 88.0289 18.4577H85.7067C85.46 19.339 84.4942 19.9582 83.2827 19.9582ZM83.1589 13.4234C84.5154 13.4234 85.4811 14.2663 85.5013 15.8484H80.7973C80.8165 14.3047 81.7822 13.4206 83.1589 13.4206V13.4234Z" fill="#282828"/>
<path d="M92.0994 12.8451L91.9554 11.6739H89.6514V21.8038H92.1637V16.8723C92.1637 14.8995 93.2111 13.7907 95.0197 13.7907H96.0037V11.6124C94.4677 11.263 92.7157 11.6124 92.0994 12.8451Z" fill="#282828"/>
<path d="M20.9324 13.7577L16.8438 17.8463L20.9324 21.9292C22.0161 23.0125 23.4858 23.6211 25.0182 23.6211C26.5505 23.6211 28.0202 23.0125 29.1039 21.9292C29.6406 21.3927 30.0663 20.7557 30.3567 20.0547C30.6472 19.3537 30.7966 18.6023 30.7966 17.8434C30.7966 17.0846 30.6472 16.3332 30.3567 15.6322C30.0663 14.9311 29.6406 14.2942 29.1039 13.7577C28.5674 13.221 27.9305 12.7953 27.2294 12.5049C26.5284 12.2144 25.777 12.0649 25.0182 12.0649C24.2593 12.0649 23.5079 12.2144 22.8069 12.5049C22.1058 12.7953 21.4689 13.221 20.9324 13.7577Z" fill="#282828"/>
<path d="M11.3109 12.3127L15.3967 16.3985L19.4824 12.3127C20.0191 11.7762 20.4448 11.1392 20.7352 10.4382C21.0257 9.73716 21.1751 8.98577 21.1751 8.22694C21.1751 7.46811 21.0257 6.71672 20.7352 6.01568C20.4448 5.31463 20.0191 4.67767 19.4824 4.14118L15.3967 0.0554199L11.3109 4.14118C10.7742 4.67767 10.3485 5.31463 10.0581 6.01568C9.76765 6.71672 9.61816 7.46811 9.61816 8.22694C9.61816 8.98577 9.76765 9.73716 10.0581 10.4382C10.3485 11.1392 10.7742 11.7762 11.3109 12.3127Z" fill="#282828"/>
<path d="M9.8662 13.7572L13.952 17.8459L9.8662 21.9316C8.78246 23.015 7.31282 23.6235 5.78045 23.6235C4.24807 23.6235 2.77843 23.015 1.69469 21.9316C1.15803 21.3951 0.732329 20.7582 0.441887 20.0571C0.151444 19.3561 0.00195313 18.6047 0.00195312 17.8459C0.00195313 17.087 0.151444 16.3356 0.441887 15.6346C0.732329 14.9335 1.15803 14.2966 1.69469 13.7601C2.23099 13.2233 2.8678 12.7973 3.56874 12.5066C4.26968 12.2159 5.02102 12.0662 5.77985 12.0659C6.53867 12.0657 7.29012 12.2149 7.99127 12.5051C8.69242 12.7953 9.32952 13.2207 9.8662 13.7572Z" fill="#282828"/>
<path d="M20.1825 27.7666L15.3959 18.8357L10.6094 27.7666H20.1825Z" fill="#282828"/>
</g>
<defs>
<clipPath id="clip0_4004_5894">
<rect width="96" height="27.7104" fill="white" transform="translate(0 0.0554199)"/>
</clipPath>
</defs>
</svg>
