<svg width="132" height="32" viewBox="0 0 132 32" fill="none" xmlns="http://www.w3.org/2000/svg">
<g clip-path="url(#clip0_4004_5892)">
<path d="M52.4042 22.1801V25.8675H37.0508V22.9567L46.3012 12.533H37.0508V8.84692H52.1355V11.8971L43.228 22.1801H52.4042Z" fill="#282828"/>
<path d="M70.0966 14.8791V25.8721H65.5418V23.5256H65.442C64.8714 24.4302 63.1965 26.0398 59.8776 26.0398C56.5587 26.0398 54.248 24.1628 54.248 21.1458C54.248 17.8615 56.7276 15.3486 63.8657 15.3486H65.5418V14.8458C65.5418 13.0021 64.4031 11.8967 62.5594 11.8967C60.749 11.8967 59.6435 12.8678 59.5092 14.343H55.0183C55.0848 10.5225 58.1683 8.41016 62.5594 8.41016C67.4187 8.41016 70.0966 10.7925 70.0966 14.8791ZM65.5418 19.4365V18.23H63.9002C60.0453 18.23 58.9398 19.4032 58.9398 20.8106C58.9398 22.0517 59.9455 22.8194 61.5243 22.8194C63.7659 22.8194 65.5418 21.3135 65.5418 19.4365Z" fill="#282828"/>
<path d="M90.2103 15.4157V25.8727H85.484V16.4227C85.484 14.0429 84.3107 12.5677 82.4683 12.5677C80.0885 12.5677 78.4457 14.2105 78.4457 17.2262V25.874H73.7207V8.84701H78.4457V11.997C79.5192 9.55071 81.4627 8.41455 83.909 8.41455C87.9649 8.41072 90.2103 11.2601 90.2103 15.4157Z" fill="#282828"/>
<path d="M99.4269 12.5332V19.5382C99.4269 21.2808 100.466 22.225 102.175 22.225C102.879 22.225 103.75 22.1239 104.957 21.4868V25.4748C103.883 26.0455 102.544 26.2131 101.437 26.2131C97.3823 26.2131 94.7006 23.8333 94.7006 20.2137V12.537H91.6504V8.84705H91.7182C93.7653 8.84705 94.7006 8.00901 94.7006 6.03225V3.7561H99.4269V8.85089H105.292V12.5332H99.4269Z" fill="#282828"/>
<path d="M109.76 0.621094H109.913C110.653 0.621094 111.363 0.914956 111.886 1.43803C112.409 1.96111 112.703 2.67056 112.703 3.4103C112.703 3.77653 112.631 4.13916 112.49 4.47749C112.35 4.81582 112.145 5.12322 111.886 5.38212C111.627 5.64102 111.319 5.84635 110.981 5.98638C110.642 6.12642 110.28 6.1984 109.913 6.19824H109.76C109.394 6.1984 109.031 6.12642 108.693 5.98638C108.354 5.84635 108.047 5.64102 107.788 5.38212C107.529 5.12322 107.323 4.81582 107.183 4.47749C107.043 4.13916 106.971 3.77653 106.971 3.4103C106.971 2.67056 107.265 1.96111 107.788 1.43803C108.311 0.914956 109.02 0.621094 109.76 0.621094ZM107.474 8.84671H112.191V25.8724H107.47L107.474 8.84671Z" fill="#282828"/>
<path d="M123.69 26.3072C118.261 26.3072 114.876 22.6543 114.876 17.3254C114.876 12.063 118.261 8.41016 123.69 8.41016C128.282 8.41016 131.465 11.0586 131.935 15.3192H127.276C126.941 13.3757 125.735 12.1027 123.624 12.1027C120.975 12.1027 119.433 14.2138 119.433 17.3305C119.433 20.4473 120.975 22.5584 123.624 22.5584C125.836 22.5584 127.042 21.2188 127.378 19.1038H132.001C131.638 23.4591 128.45 26.3072 123.69 26.3072Z" fill="#282828"/>
<path d="M24.9321 6.04469C25.3591 6.48082 25.6813 7.0084 25.8742 7.58747C26.0671 8.16654 26.1257 8.78192 26.0456 9.387C25.9655 9.99208 25.7487 10.571 25.4117 11.0799C25.0747 11.5888 24.6263 12.0143 24.1005 12.3242C20.31 14.5527 15.8869 15.4596 11.5253 14.9024C7.16366 14.3453 3.11051 12.3557 0.00195312 9.24588L5.61236 3.51904C7.47006 5.37626 9.88947 6.56748 12.4942 6.9074C15.099 7.24731 17.7431 6.71686 20.0152 5.39856C20.7886 4.94282 21.6921 4.75826 22.5823 4.87414C23.4725 4.99003 24.2986 5.39972 24.9296 6.03829L24.9321 6.04469Z" fill="#282828"/>
<path d="M24.9076 6.01917C24.1556 5.26764 23.136 4.84546 22.0729 4.84546C21.0098 4.84546 19.9902 5.26764 19.2383 6.01917L2.22157 23.0359C1.47003 23.7878 1.04785 24.8074 1.04785 25.8705C1.04785 26.9337 1.47003 27.9533 2.22157 28.7052C2.59371 29.0776 3.0356 29.3731 3.52198 29.5746C4.00836 29.7762 4.5297 29.8799 5.0562 29.8799C5.58269 29.8799 6.10403 29.7762 6.59041 29.5746C7.07679 29.3731 7.51868 29.0776 7.89083 28.7052L24.9076 11.6884C25.28 11.3163 25.5754 10.8744 25.777 10.388C25.9786 9.90164 26.0823 9.3803 26.0823 8.8538C26.0823 8.32731 25.9786 7.80597 25.777 7.31959C25.5754 6.83321 25.28 6.39132 24.9076 6.01917Z" fill="#282828"/>
<path d="M2.2005 28.6731C1.77345 28.2372 1.45121 27.7098 1.2582 27.1309C1.06518 26.552 1.00646 25.9367 1.08648 25.3317C1.16649 24.7267 1.38314 24.1479 1.72002 23.6391C2.0569 23.1302 2.50517 22.7047 3.03086 22.3948C6.82159 20.1667 11.2447 19.26 15.6064 19.8169C19.968 20.3738 24.0214 22.3628 27.1307 25.4719L21.5177 31.2C19.66 29.3428 17.2406 28.1516 14.6358 27.8117C12.0311 27.4718 9.38698 28.0022 7.11488 29.3205C6.34056 29.7751 5.43668 29.9582 4.54648 29.841C3.65629 29.7237 2.83068 29.3127 2.2005 28.6731Z" fill="#282828"/>
</g>
<defs>
<clipPath id="clip0_4004_5892">
<rect width="132" height="30.579" fill="white" transform="translate(0.00292969 0.621094)"/>
</clipPath>
</defs>
</svg>
