<svg width="53" height="36" viewBox="0 0 53 36" fill="none" xmlns="http://www.w3.org/2000/svg">
<rect x="0.917969" y="0.5" width="51.0417" height="35" fill="white"/>
<path d="M11.7852 19.3652C13.1895 19.3652 14.2666 19.9946 14.2666 21.5439V25.2959H12.7275V24.4004C12.3776 25.0062 11.6418 25.4658 10.8164 25.4658C9.6589 25.4658 8.918 24.8353 8.91797 23.7949C8.91797 22.4822 10.2539 22.0129 11.9561 21.791C12.412 21.7321 12.6541 21.5814 12.6543 21.2822C12.6543 20.8392 12.2896 20.6182 11.6309 20.6182C10.9373 20.6183 10.1689 20.9906 9.69336 21.4258L9.15137 20.2852C9.74407 19.8128 10.8364 19.3654 11.7852 19.3652ZM30.5156 19.3652C30.7336 19.3652 30.9995 19.3895 31.2539 19.498L30.9541 21.0215C30.7603 20.8765 30.4672 20.8136 30.25 20.8135C29.6929 20.8135 28.8945 21.2007 28.8945 22.5205V25.2959H27.2461V19.5342H28.7852V20.5029C29.1366 19.7411 29.6684 19.3652 30.5156 19.3652ZM38.8936 19.3652C39.9462 19.3654 40.8173 20.0188 40.8174 21.3135V25.2959H39.1709V21.834C39.1708 21.0715 38.7116 20.7549 38.2764 20.7549C37.7317 20.7549 37.1865 21.2532 37.1865 22.3301V25.2959H35.54V21.8457C35.54 21.0599 35.1076 20.7549 34.6367 20.7549C34.1161 20.7549 33.5586 21.2648 33.5586 22.3301V25.2959H31.9102V19.5342H33.498V20.4062C33.7766 19.85 34.3797 19.3653 35.251 19.3652C36.0494 19.3652 36.7172 19.7353 37.0322 20.377C37.3713 19.8805 38.0224 19.3652 38.8936 19.3652ZM22.3447 16.6543C23.281 16.6544 23.7959 16.9912 23.7959 16.9912L23.2881 18.1523C23.2881 18.1523 22.9651 17.9688 22.5508 17.9688C22.1753 17.9688 21.7403 18.1865 21.7402 18.9482V19.5342H23.2324V20.8047H21.7402V25.2949H20.0938V20.8047H17.5947V25.2949H15.9482V20.8047H14.9922V19.5342H15.9482V19.1104C15.9483 17.2476 17.1464 16.6543 18.1992 16.6543C18.8601 16.6543 19.3471 16.8128 19.6504 16.9912L19.1426 18.1523C18.9052 18.0181 18.6177 17.9688 18.4043 17.9688C18.0296 17.9688 17.5948 18.1866 17.5947 18.9482V19.5342H20.0938V19.1104C20.0938 17.2476 21.2919 16.6543 22.3447 16.6543ZM25.8594 19.5342V25.2949H24.2148V19.5342H25.8594ZM12.6201 22.6846C11.292 22.825 10.5645 23.0481 10.5645 23.6982C10.5646 24.0495 10.7802 24.2617 11.2129 24.2617C12.0322 24.2617 12.6201 23.5543 12.6201 22.6846Z" fill="#060809"/>
<path fill-rule="evenodd" clip-rule="evenodd" d="M33.8137 11.5C29.3664 11.5 25.4024 14.5872 24.2773 18.5567H25.8896C26.8292 15.6005 30.0189 13.006 33.8137 13.006C38.4263 13.006 42.4128 16.5176 42.4128 21.9845C42.4128 23.2119 42.2538 24.3184 41.9527 25.296H43.5169L43.5324 25.2424C43.7885 24.2338 43.9188 23.1382 43.9188 21.9845C43.9188 15.8876 39.4761 11.5 33.8137 11.5Z" fill="#4A4AF4"/>
</svg>
