<svg width="52" height="36" viewBox="0 0 52 36" fill="none" xmlns="http://www.w3.org/2000/svg">
<rect x="0.166504" y="0.5" width="51.0417" height="35" fill="#C2FAE5"/>
<path d="M9.20862 18.1701C9.20862 17.4959 8.70371 17.0222 8.08332 17.0222C7.46294 17.0222 6.95803 17.5041 6.95803 18.1701C6.95803 18.8283 7.46294 19.3176 8.08332 19.3176C8.70446 19.3176 9.20862 18.8444 9.20862 18.1701ZM9.21768 20.1764V19.6548C8.91163 20.0159 8.45578 20.2401 7.91049 20.2401C6.77689 20.2401 5.9165 19.3574 5.9165 18.1701C5.9165 16.9904 6.80972 16.0919 7.93577 16.0919C8.46559 16.0919 8.91201 16.3169 9.21805 16.6694V16.1639H10.2358V20.1764H9.21768ZM15.1785 19.2854C14.8223 19.2854 14.7234 19.1571 14.7234 18.8204V17.0387H15.3774V16.1635H14.7234V15.1847H13.6804V16.1635H12.337V15.9197C12.337 15.5822 12.4698 15.4536 12.8339 15.4536H13.0626V14.6755H12.5607C11.7003 14.6755 11.2951 14.9485 11.2951 15.7828V16.1631H10.7158V17.0387H11.2951V20.176H12.3381V17.0387H13.6815V19.0049C13.6815 19.8235 14.0038 20.1768 14.8476 20.1768H15.3857V19.2858H15.1781L15.1785 19.2854ZM18.9185 17.8086C18.8442 17.2874 18.4053 16.9742 17.8925 16.9742C17.3793 16.9742 16.9574 17.2791 16.8502 17.8086H18.9182H18.9185ZM16.8415 18.4349C16.9163 19.0285 17.3548 19.366 17.9091 19.366C18.3476 19.366 18.6872 19.165 18.8853 18.844H19.9533C19.7046 19.6945 18.9185 20.2401 17.8842 20.2401C16.6351 20.2401 15.7581 19.39 15.7581 18.178C15.7581 16.9664 16.6849 16.0915 17.9099 16.0915C19.1427 16.0915 20.0359 16.9742 20.0359 18.178C20.0359 18.2665 20.028 18.3543 20.0114 18.4349H16.8415ZM26.6666 18.1701C26.6666 17.5199 26.1617 17.0222 25.5413 17.0222C24.9209 17.0222 24.416 17.5041 24.416 18.1701C24.416 18.8283 24.9209 19.3176 25.5413 19.3176C26.1617 19.3176 26.6666 18.8204 26.6666 18.1701ZM23.3895 16.1639H24.4073V16.6855C24.713 16.3161 25.1681 16.0919 25.7145 16.0919C26.8315 16.0919 27.7081 16.9829 27.7081 18.1619C27.7081 19.342 26.8149 20.2409 25.6896 20.2409C25.1681 20.2409 24.7379 20.0399 24.4405 19.7031V21.8275H23.3895V16.1639ZM31.3761 18.1701C31.3761 17.4959 30.8719 17.0222 30.2508 17.0222C29.6304 17.0222 29.1255 17.5041 29.1255 18.1701C29.1255 18.8283 29.6304 19.3176 30.2508 19.3176C30.8719 19.3176 31.3761 18.8444 31.3761 18.1701ZM31.3851 20.1764V19.6548C31.0791 20.0159 30.6232 20.2401 30.0779 20.2401C28.9443 20.2401 28.0839 19.3574 28.0839 18.1701C28.0839 16.9904 28.9772 16.0919 30.1028 16.0919C30.6323 16.0919 31.0791 16.3169 31.3851 16.6694V16.1639H32.4025V20.1764H31.3851ZM21.5556 16.5572C21.5556 16.5572 21.8144 16.0922 22.4488 16.0922C22.7201 16.0922 22.8956 16.1822 22.8956 16.1822V17.206C22.8956 17.206 22.5129 16.9769 22.1612 17.023C21.8095 17.0691 21.5873 17.3822 21.5884 17.8015V20.1771H20.5378V16.1646H21.5556V16.5572ZM37.155 16.1639L34.5859 21.8148H33.5025L34.5112 19.63L32.8055 16.1639H34.0334L35.0312 18.4799L36.055 16.1639H37.155ZM45.3562 16.0727L42.809 14.6473C42.0618 14.2288 41.1271 14.7516 41.1271 15.5893V15.7356C41.1271 15.8676 41.1999 15.9899 41.3177 16.0555L41.7988 16.3247C41.94 16.4042 42.1158 16.3052 42.1158 16.1474V15.7836C42.1158 15.6017 42.3188 15.4877 42.4811 15.5788L44.6872 16.8141C44.8494 16.9049 44.8494 17.1321 44.6872 17.2229L42.4811 18.4578C42.3188 18.5485 42.1162 18.4353 42.1162 18.253V18.0595C42.1162 17.2221 41.1815 16.6982 40.4331 17.1175L37.8859 18.5433C37.7161 18.636 37.5745 18.7723 37.4758 18.938C37.3772 19.1037 37.3251 19.2927 37.3251 19.4853C37.3251 19.6778 37.3772 19.8668 37.4758 20.0325C37.5745 20.1982 37.7161 20.3346 37.8859 20.4273L40.4331 21.8527C41.1807 22.2712 42.1162 21.7484 42.1162 20.9107V20.7644C42.1157 20.699 42.0978 20.635 42.0643 20.5788C42.0307 20.5226 41.9827 20.4762 41.9252 20.4445L41.4445 20.1745C41.3033 20.0954 41.1271 20.1944 41.1271 20.3523V20.716C41.1271 20.8979 40.9241 21.0115 40.7622 20.9204L38.5558 19.6855C38.5189 19.6653 38.4883 19.6357 38.4669 19.5997C38.4455 19.5637 38.4342 19.5227 38.4342 19.4809C38.4342 19.4392 38.4455 19.3981 38.4669 19.3622C38.4883 19.3262 38.5189 19.2966 38.5558 19.2764L40.7622 18.0411C40.9245 17.95 41.1271 18.0636 41.1271 18.2459V18.4394C41.1271 19.2768 42.0615 19.8006 42.809 19.3814L45.3562 17.9556C45.5259 17.863 45.6674 17.7267 45.7659 17.5612C45.8645 17.3956 45.9165 17.2067 45.9165 17.0144C45.9165 16.822 45.8645 16.6331 45.7659 16.4676C45.6674 16.302 45.5259 16.1657 45.3562 16.0731V16.0727Z" fill="black"/>
</svg>
