<svg width="52" height="36" viewBox="0 0 52 36" fill="none" xmlns="http://www.w3.org/2000/svg">
<rect x="0.0415039" y="0.5" width="51.0417" height="35" fill="white"/>
<path fill-rule="evenodd" clip-rule="evenodd" d="M12.2151 13.5269C12.9006 13.5847 13.5861 13.18 14.0145 12.6668C14.4358 12.1391 14.7143 11.4308 14.6429 10.708C14.0359 10.7369 13.2862 11.1128 12.8578 11.6404C12.4651 12.0958 12.1295 12.833 12.2151 13.5269ZM20.3696 22.8367V11.5684H24.5468C26.7031 11.5684 28.2098 13.0718 28.2098 15.2691C28.2098 17.4664 26.6746 18.9842 24.4896 18.9842H22.0976V22.8367H20.3696ZM14.6349 13.6639C14.031 13.6287 13.48 13.8478 13.0349 14.0247C12.7485 14.1385 12.5059 14.2349 12.3214 14.2349C12.1143 14.2349 11.8618 14.1334 11.5782 14.0193C11.2067 13.8699 10.7819 13.6991 10.3364 13.7073C9.31531 13.7217 8.36564 14.3072 7.84439 15.2396C6.77333 17.1044 7.56592 19.8655 8.60127 21.3833C9.10824 22.1351 9.71517 22.959 10.5149 22.9301C10.8667 22.9167 11.1198 22.808 11.3817 22.6955C11.6833 22.566 11.9965 22.4314 12.4856 22.4314C12.9578 22.4314 13.2573 22.5624 13.5449 22.6882C13.8183 22.8079 14.0809 22.9227 14.4707 22.9157C15.2989 22.9012 15.8202 22.164 16.3272 21.4123C16.8743 20.6055 17.1147 19.8181 17.1512 19.6986L17.1554 19.6848C17.1546 19.6839 17.1478 19.6808 17.1359 19.6752C16.953 19.5905 15.5551 18.9427 15.5417 17.2056C15.5283 15.7476 16.6505 15.0088 16.8271 14.8925C16.8379 14.8855 16.8451 14.8807 16.8484 14.8782C16.1344 13.8085 15.0205 13.6928 14.6349 13.6639ZM31.3668 22.9237C32.4521 22.9237 33.4589 22.3671 33.9159 21.4853H33.9516V22.8369H35.5511V17.228C35.5511 15.6018 34.2658 14.5537 32.2879 14.5537C30.4528 14.5537 29.0961 15.6162 29.0462 17.0763H30.6028C30.7313 16.3824 31.3668 15.927 32.2379 15.927C33.2947 15.927 33.8873 16.4257 33.8873 17.3437V17.9653L31.7309 18.0954C29.7245 18.2183 28.6392 19.0495 28.6392 20.4951C28.6392 21.9551 29.7602 22.9237 31.3668 22.9237ZM31.8294 21.5856C30.9083 21.5856 30.3228 21.1375 30.3228 20.4508C30.3228 19.7425 30.8868 19.3305 31.965 19.2655L33.8858 19.1426V19.7786C33.8858 20.8339 33.0004 21.5856 31.8294 21.5856ZM40.8553 23.2778C40.1627 25.251 39.3701 25.9015 37.685 25.9015C37.5564 25.9015 37.128 25.8871 37.0281 25.8582V24.5066C37.1352 24.521 37.3994 24.5355 37.535 24.5355C38.299 24.5355 38.7275 24.2102 38.9917 23.3645L39.1487 22.8658L36.2212 14.6621H38.0277L40.0627 21.319H40.0984L42.1334 14.6621H43.89L40.8553 23.2778ZM22.0962 13.043H24.0884C25.5878 13.043 26.4447 13.8525 26.4447 15.2764C26.4447 16.7003 25.5878 17.5171 24.0812 17.5171H22.0962V13.043Z" fill="black"/>
</svg>
