<svg width="52" height="36" viewBox="0 0 52 36" fill="none" xmlns="http://www.w3.org/2000/svg">
<rect y="0.5" width="51.0417" height="35" fill="white"/>
<path d="M40.1016 21.3813H40.127L42.2559 16.0386H43.752L39.1523 26.7495H37.7334L39.4434 23.0024L36.4258 16.0386H37.9219L40.1016 21.3813ZM32.9004 15.7964C33.9176 15.7964 34.7217 16.0742 35.3115 16.6206C35.9012 17.167 36.1914 17.9305 36.1914 18.8931V23.48H34.875V22.4487H34.8154C34.2428 23.2983 33.4906 23.7231 32.542 23.7231C31.7385 23.7231 31.0542 23.4803 30.5156 22.9946C29.9857 22.5437 29.687 21.8757 29.7041 21.1733C29.7041 20.4016 29.9947 19.7941 30.5674 19.3345C31.14 18.8751 31.9092 18.65 32.8662 18.6499C33.6868 18.6499 34.3538 18.8062 34.8838 19.1011V18.7798C34.8838 18.3028 34.6783 17.8517 34.3193 17.5396C33.9519 17.2103 33.4821 17.0279 32.9951 17.0278C32.2258 17.0278 31.6183 17.358 31.1738 18.0171L29.96 17.2446C30.6095 16.2821 31.5928 15.7965 32.9004 15.7964ZM26.3809 12.605C27.2612 12.5877 28.1163 12.926 28.7402 13.5503C29.988 14.7298 30.0645 16.716 28.8936 17.9907L28.7402 18.147C28.0992 18.7626 27.3124 19.0746 26.3809 19.0747H24.1064V23.48H22.7305V12.605H26.3809ZM33.0791 19.7769C32.5234 19.7769 32.0529 19.9162 31.6768 20.1851C31.3092 20.4539 31.1211 20.7922 31.1211 21.1997C31.1212 21.5638 31.2922 21.9018 31.5742 22.1099C31.8819 22.3526 32.258 22.4827 32.6426 22.4741C33.2239 22.4741 33.7801 22.24 34.1904 21.8237C34.6435 21.3901 34.874 20.8782 34.874 20.2886C34.4466 19.9419 33.8483 19.7682 33.0791 19.7769ZM24.1055 17.7388H26.4141C26.9269 17.756 27.423 17.5481 27.7734 17.1753C28.4916 16.4208 28.4742 15.2065 27.7305 14.478C27.38 14.1312 26.9098 13.94 26.4141 13.9399H24.1055V17.7388Z" fill="#3C4043"/>
<path d="M19.356 18.1207C19.356 17.6957 19.3218 17.2708 19.2534 16.8545H13.4492V19.2567H16.7744C16.6377 20.0286 16.1932 20.7224 15.5435 21.156V22.717H17.5267C18.6892 21.633 19.356 20.0286 19.356 18.1207Z" fill="#4285F4"/>
<path d="M13.4496 24.226C15.1079 24.226 16.5098 23.671 17.527 22.717L15.5438 21.156C14.9882 21.5376 14.2787 21.7544 13.4496 21.7544C11.8425 21.7544 10.4834 20.653 9.99612 19.1787H7.95312V20.7918C8.99599 22.8992 11.1245 24.226 13.4496 24.226Z" fill="#34A853"/>
<path d="M9.99674 19.1786C9.74025 18.4068 9.74025 17.5656 9.99674 16.7851V15.1807H7.95342C7.07282 16.9412 7.07282 19.0225 7.95342 20.783L9.99674 19.1786Z" fill="#FBBC04"/>
<path d="M13.4496 14.2093C14.33 14.192 15.1763 14.5302 15.8088 15.1459L17.5697 13.3594C16.4499 12.3014 14.9797 11.7203 13.4496 11.7377C11.1245 11.7377 8.99599 13.0732 7.95312 15.1806L9.99612 16.7937C10.4834 15.3107 11.8425 14.2093 13.4496 14.2093Z" fill="#EA4335"/>
</svg>
