<svg width="52" height="36" viewBox="0 0 52 36" fill="none" xmlns="http://www.w3.org/2000/svg">
<rect y="0.5" width="51.0417" height="35" fill="white"/>
<path d="M32.5918 7.79199C38.0876 7.79199 42.5427 12.2988 42.543 17.8584C42.543 23.4182 38.0878 27.9258 32.5918 27.9258C30.1277 27.9257 27.8747 27.0173 26.1367 25.5166C24.3987 27.0173 22.1457 27.9258 19.6816 27.9258C14.1857 27.9257 9.73047 23.4181 9.73047 17.8584C9.73071 12.2989 14.1859 7.79208 19.6816 7.79199C22.1455 7.79199 24.3988 8.69976 26.1367 10.2002C27.8746 8.6997 30.1279 7.79203 32.5918 7.79199Z" fill="#ED0006"/>
<path d="M32.5918 7.79199C38.0876 7.79199 42.5427 12.2988 42.543 17.8584C42.543 23.4182 38.0878 27.9258 32.5918 27.9258C30.1277 27.9257 27.8747 27.0173 26.1367 25.5166C28.2752 23.6702 29.6328 20.9255 29.6328 17.8584C29.6327 14.7913 28.2753 12.0465 26.1367 10.2002C27.8746 8.6997 30.1279 7.79203 32.5918 7.79199Z" fill="#F9A000"/>
<path d="M26.1367 10.2002C28.2753 12.0465 29.6327 14.7913 29.6328 17.8584C29.6328 20.9255 28.2752 23.6702 26.1367 25.5166C23.9984 23.6702 22.6406 20.9254 22.6406 17.8584C22.6408 14.7914 23.9982 12.0465 26.1367 10.2002Z" fill="#FF5E00"/>
</svg>
