<svg width="52" height="36" viewBox="0 0 52 36" fill="none" xmlns="http://www.w3.org/2000/svg">
<rect x="0.208496" y="0.5" width="51.0417" height="35" fill="white"/>
<path fill-rule="evenodd" clip-rule="evenodd" d="M14.646 22.7266H12.3774C12.2222 22.7266 12.0901 22.8394 12.0659 22.9926L11.1484 28.81C11.1301 28.9248 11.219 29.0283 11.3355 29.0283H12.4185C12.5738 29.0283 12.7058 28.9154 12.73 28.7619L12.9775 27.1929C13.0014 27.0392 13.1337 26.9266 13.2886 26.9266H14.0068C15.5012 26.9266 16.3636 26.2034 16.589 24.7704C16.6904 24.1435 16.5933 23.6508 16.2996 23.3058C15.9772 22.927 15.4053 22.7266 14.646 22.7266ZM14.9077 24.8513C14.7837 25.6653 14.1617 25.6653 13.5603 25.6653H13.218L13.4581 24.145C13.4724 24.0532 13.552 23.9855 13.6449 23.9855H13.8018C14.2115 23.9855 14.598 23.9855 14.7977 24.219C14.9166 24.3584 14.9532 24.5653 14.9077 24.8513ZM21.4274 24.8252H20.341C20.2485 24.8252 20.1685 24.8929 20.1542 24.9848L20.1062 25.2886L20.0302 25.1786C19.795 24.8372 19.2706 24.7231 18.7472 24.7231C17.5466 24.7231 16.5213 25.6323 16.3216 26.9078C16.2178 27.544 16.3653 28.1523 16.7262 28.5766C17.0573 28.9667 17.5311 29.1293 18.0946 29.1293C19.0618 29.1293 19.5984 28.5073 19.5984 28.5073L19.5499 28.8092C19.5316 28.9246 19.6205 29.0281 19.7362 29.0281H20.7148C20.8705 29.0281 21.0017 28.9153 21.0263 28.7618L21.6135 25.0435C21.6321 24.9291 21.5435 24.8252 21.4274 24.8252ZM19.9131 26.9396C19.8082 27.5603 19.3156 27.9769 18.6874 27.9769C18.372 27.9769 18.1198 27.8757 17.958 27.684C17.7974 27.4936 17.7363 27.2225 17.7874 26.9207C17.8854 26.3053 18.3863 25.8752 19.0049 25.8752C19.3133 25.8752 19.5641 25.9776 19.7293 26.171C19.8948 26.3664 19.9605 26.639 19.9131 26.9396ZM26.1216 24.825H27.2133C27.3662 24.825 27.4554 24.9965 27.3685 25.1219L23.7376 30.363C23.6788 30.4479 23.5819 30.4984 23.4785 30.4984H22.3881C22.2346 30.4984 22.1449 30.3256 22.2338 30.1998L23.3644 28.604L22.162 25.0751C22.1204 24.9524 22.2109 24.825 22.3414 24.825H23.4141C23.5535 24.825 23.6765 24.9165 23.7167 25.0499L24.3548 27.1812L25.8606 24.9633C25.9196 24.8768 26.0175 24.825 26.1216 24.825Z" fill="#253B80"/>
<path fill-rule="evenodd" clip-rule="evenodd" d="M37.96 28.8103L38.8911 22.8865C38.9053 22.7946 38.985 22.7269 39.0776 22.7266H40.1257C40.2415 22.7266 40.3304 22.8303 40.3121 22.9452L39.394 28.7622C39.37 28.9157 39.238 29.0286 39.0825 29.0286H38.1464C38.0306 29.0286 37.9418 28.9251 37.96 28.8103ZM30.8297 22.7269H28.5607C28.4058 22.7269 28.2738 22.8397 28.2495 22.9929L27.332 28.8103C27.3137 28.9251 27.4026 29.0286 27.5185 29.0286H28.6827C28.7909 29.0286 28.8835 28.9497 28.9004 28.8422L29.1607 27.1932C29.1847 27.0396 29.317 26.9269 29.4719 26.9269H30.1897C31.6844 26.9269 32.5467 26.2037 32.7722 24.7707C32.874 24.1438 32.7762 23.6511 32.4827 23.3061C32.1605 22.9274 31.5889 22.7269 30.8297 22.7269ZM31.0914 24.8516C30.9677 25.6656 30.3457 25.6656 29.7439 25.6656H29.4019L29.6424 24.1453C29.6567 24.0535 29.7356 23.9858 29.8288 23.9858H29.9857C30.3951 23.9858 30.7819 23.9858 30.9815 24.2193C31.1006 24.3587 31.1369 24.5656 31.0914 24.8516ZM37.6105 24.8255H36.5249C36.4315 24.8255 36.3523 24.8932 36.3384 24.9851L36.2903 25.2889L36.214 25.1789C35.9788 24.8375 35.4548 24.7234 34.9313 24.7234C33.7307 24.7234 32.7057 25.6326 32.506 26.9082C32.4025 27.5443 32.5494 28.1526 32.9103 28.5769C33.2421 28.967 33.7152 29.1296 34.2787 29.1296C35.246 29.1296 35.7824 28.5076 35.7824 28.5076L35.734 28.8095C35.7157 28.925 35.8046 29.0284 35.9211 29.0284H36.8993C37.0542 29.0284 37.1862 28.9156 37.2104 28.7621L37.7979 25.0438C37.8159 24.9294 37.727 24.8255 37.6105 24.8255ZM36.0963 26.9399C35.992 27.5606 35.4988 27.9772 34.8705 27.9772C34.5557 27.9772 34.303 27.876 34.141 27.6843C33.9805 27.4939 33.9201 27.2228 33.9706 26.921C34.069 26.3056 34.5693 25.8755 35.188 25.8755C35.4965 25.8755 35.7472 25.9779 35.9125 26.1713C36.0786 26.3667 36.1443 26.6394 36.0963 26.9399Z" fill="#179BD7"/>
<path d="M23.0408 20.6456L23.3197 18.8741L22.6985 18.8597H19.7319L21.7936 5.78745C21.7999 5.74798 21.8207 5.71119 21.8511 5.68506C21.8815 5.65893 21.9205 5.64453 21.961 5.64453H26.9631C28.6238 5.64453 29.7697 5.9901 30.3681 6.67215C30.6486 6.99213 30.8273 7.32648 30.9137 7.69445C31.0043 8.08055 31.0059 8.54183 30.9174 9.10444L30.9109 9.14551V9.50599L31.1915 9.66492C31.4278 9.79023 31.6154 9.93368 31.7594 10.0979C31.9995 10.3715 32.1547 10.7192 32.2202 11.1314C32.2879 11.5554 32.2655 12.0599 32.1547 12.631C32.0266 13.288 31.8197 13.8602 31.5403 14.3284C31.2832 14.7599 30.9558 15.1176 30.5671 15.395C30.1959 15.6584 29.7548 15.8584 29.2563 15.9865C28.773 16.1122 28.2222 16.1757 27.618 16.1757H27.2287C26.9504 16.1757 26.6799 16.276 26.4678 16.4557C26.255 16.6392 26.1141 16.8897 26.0709 17.1639L26.0416 17.3234L25.5489 20.4456L25.5264 20.5603C25.5206 20.5967 25.5105 20.6148 25.4956 20.6271C25.4822 20.6381 25.463 20.6456 25.4443 20.6456H23.0408Z" fill="#253B80"/>
<path d="M31.4572 9.1875C31.4423 9.28295 31.4253 9.38054 31.4061 9.48079C30.7463 12.8677 28.4896 14.0377 25.6071 14.0377H24.1396C23.7871 14.0377 23.4901 14.2936 23.4351 14.6413L22.6837 19.4068L22.4709 20.7575C22.4352 20.9858 22.6112 21.1916 22.8415 21.1916H25.4446C25.7528 21.1916 26.0145 20.9676 26.0631 20.6637L26.0887 20.5314L26.5788 17.4213L26.6103 17.2507C26.6582 16.9457 26.9206 16.7217 27.2288 16.7217H27.6181C30.1399 16.7217 32.1142 15.6978 32.6913 12.7349C32.9323 11.4971 32.8075 10.4636 32.1696 9.73677C31.9767 9.51759 31.7372 9.33574 31.4572 9.1875Z" fill="#179BD7"/>
<path d="M30.7671 8.91255C30.6664 8.88322 30.5623 8.85655 30.4556 8.83256C30.3485 8.8091 30.2386 8.7883 30.1256 8.77017C29.7299 8.70618 29.2963 8.67578 28.8318 8.67578H24.9112C24.8146 8.67578 24.723 8.69764 24.6409 8.73711C24.46 8.82402 24.3257 8.99522 24.2932 9.20479L23.459 14.4875L23.4351 14.6416C23.49 14.2939 23.7871 14.0379 24.1395 14.0379H25.6071C28.4895 14.0379 30.7464 12.8673 31.406 9.48103C31.4257 9.38077 31.4422 9.28319 31.4571 9.18773C31.2903 9.09921 31.1094 9.02348 30.9148 8.95894C30.8669 8.94295 30.8173 8.92749 30.7671 8.91255Z" fill="#222D65"/>
<path d="M24.2924 9.20434C24.3249 8.99476 24.4594 8.82358 24.6401 8.73718C24.7228 8.69772 24.814 8.67586 24.9104 8.67586H28.8312C29.2957 8.67586 29.7292 8.70625 30.1248 8.77025C30.238 8.78838 30.3479 8.80918 30.455 8.83264C30.5617 8.85664 30.6656 8.88331 30.7665 8.91263C30.8165 8.92757 30.8661 8.94302 30.9146 8.9585C31.1093 9.02302 31.2901 9.09928 31.457 9.18727C31.6533 7.93567 31.4554 7.08349 30.7788 6.31183C30.0327 5.46233 28.6861 5.09863 26.9631 5.09863H21.9609C21.6089 5.09863 21.3088 5.35459 21.2543 5.70283L19.1709 18.9095C19.1297 19.1707 19.3313 19.4065 19.5947 19.4065H22.683L23.4584 14.487L24.2924 9.20434Z" fill="#253B80"/>
</svg>
