<svg width="52" height="36" viewBox="0 0 52 36" fill="none" xmlns="http://www.w3.org/2000/svg">
<rect x="0.0834961" y="0.5" width="51.0417" height="35" fill="#5A31F4"/>
<path d="M28.8191 16.6313C28.8191 18.8773 27.2445 20.4806 25.0441 20.4806H22.971C22.9481 20.4806 22.9254 20.4851 22.9043 20.4939C22.8832 20.5027 22.864 20.5155 22.8478 20.5318C22.8317 20.548 22.8189 20.5672 22.8102 20.5884C22.8015 20.6096 22.7971 20.6323 22.7972 20.6552V23.6071C22.7972 23.6532 22.779 23.6975 22.7464 23.7302C22.7138 23.7629 22.6696 23.7814 22.6235 23.7817H21.1728C21.1384 23.7815 21.1047 23.7712 21.076 23.752C21.0474 23.7328 21.025 23.7055 21.0118 23.6737C21.003 23.6529 20.9984 23.6305 20.9983 23.6079V12.9558C20.9981 12.9329 21.0026 12.9102 21.0112 12.889C21.0199 12.8678 21.0327 12.8486 21.0488 12.8324C21.065 12.8161 21.0842 12.8033 21.1053 12.7945C21.1264 12.7857 21.1491 12.7812 21.172 12.7812H25.0533C27.2445 12.7786 28.8191 14.3819 28.8191 16.6313ZM27.01 16.6313C27.01 15.3401 26.1295 14.3963 24.9353 14.3963H22.971C22.9481 14.3963 22.9254 14.4008 22.9043 14.4096C22.8832 14.4184 22.864 14.4312 22.8478 14.4475C22.8317 14.4637 22.8189 14.4829 22.8102 14.5041C22.8015 14.5253 22.7971 14.548 22.7972 14.5709V18.6816C22.7972 18.7277 22.8155 18.7719 22.8481 18.8045C22.8807 18.837 22.9249 18.8554 22.971 18.8554H24.9353C26.1295 18.8638 27.01 17.9192 27.01 16.6313ZM29.2493 21.7381C29.2342 21.3936 29.3055 21.0509 29.4566 20.741C29.6077 20.4311 29.8339 20.1638 30.1146 19.9636C30.6805 19.5377 31.5652 19.3175 32.8641 19.272L34.2473 19.2231V18.8149C34.2473 17.9968 33.699 17.651 32.8185 17.651C31.938 17.651 31.3797 17.963 31.2515 18.4733C31.241 18.5092 31.219 18.5406 31.1888 18.5626C31.1585 18.5845 31.1219 18.5959 31.0845 18.5947H29.7182C29.693 18.5954 29.668 18.5906 29.645 18.5805C29.6219 18.5704 29.6014 18.5554 29.5848 18.5365C29.5682 18.5175 29.556 18.4952 29.549 18.471C29.542 18.4468 29.5405 18.4214 29.5444 18.3965C29.7469 17.1871 30.753 16.2678 32.8809 16.2678C35.1446 16.2678 35.9619 17.322 35.9619 19.3344V23.6071C35.9614 23.6537 35.9426 23.6982 35.9094 23.7309C35.8762 23.7636 35.8314 23.7819 35.7848 23.7817H34.4075C34.3614 23.7815 34.3172 23.7634 34.2844 23.7311C34.2683 23.7149 34.2555 23.6957 34.2468 23.6745C34.2381 23.6534 34.2337 23.6308 34.2338 23.6079V23.2883C34.2343 23.2619 34.2267 23.2359 34.2122 23.2139C34.1977 23.1918 34.1768 23.1747 34.1523 23.1647C34.1278 23.1547 34.1009 23.1524 34.0751 23.1581C34.0493 23.1637 34.0258 23.1771 34.0077 23.1963C33.5945 23.6459 32.9273 23.9706 31.8587 23.9706C30.2866 23.9706 29.2493 23.1525 29.2493 21.7381ZM34.2473 20.812V20.4806L32.4559 20.575C31.5121 20.6231 30.9631 21.0153 30.9631 21.6757C30.9631 22.2728 31.4666 22.6034 32.3462 22.6034C33.5413 22.6034 34.2473 21.9582 34.2473 20.812ZM37.3451 27.0102V25.7721C37.3453 25.7461 37.3513 25.7205 37.3626 25.6971C37.3738 25.6737 37.3901 25.6531 37.4102 25.6367C37.4303 25.6203 37.4538 25.6085 37.479 25.6021C37.5042 25.5958 37.5304 25.5951 37.5559 25.6C37.7668 25.6397 37.9818 25.6599 38.1969 25.6608C38.5666 25.6787 38.9317 25.5722 39.2337 25.3581C39.5357 25.144 39.7572 24.8348 39.8626 24.48L39.952 24.1949C39.965 24.1566 39.965 24.1151 39.952 24.0769L37.0819 16.7055C37.0716 16.6788 37.0678 16.65 37.0711 16.6215C37.0743 16.593 37.0844 16.5657 37.1005 16.542C37.1166 16.5183 37.1382 16.4988 37.1634 16.4853C37.1887 16.4717 37.2169 16.4645 37.2456 16.4643H38.6372C38.6727 16.4647 38.7073 16.4757 38.7365 16.496C38.7657 16.5163 38.7881 16.545 38.8008 16.5782L40.7499 21.7769C40.7621 21.8114 40.7847 21.8413 40.8146 21.8625C40.8445 21.8836 40.8802 21.895 40.9169 21.895C40.9535 21.895 40.9892 21.8836 41.0191 21.8625C41.0491 21.8413 41.0717 21.8114 41.0839 21.7769L42.7766 16.5925C42.7883 16.5571 42.8109 16.5262 42.8412 16.5044C42.8715 16.4826 42.9079 16.4709 42.9453 16.4711H44.3849C44.4138 16.4712 44.4422 16.4784 44.4676 16.4919C44.4931 16.5054 44.515 16.5249 44.5313 16.5487C44.5476 16.5724 44.5579 16.5998 44.5614 16.6285C44.5648 16.6571 44.5613 16.6861 44.5511 16.7131L41.4811 24.8992C40.7743 26.8019 39.5624 27.2885 38.2281 27.2885C37.9751 27.2953 37.7221 27.2649 37.4775 27.1983C37.4368 27.1875 37.4012 27.1628 37.377 27.1284C37.3528 27.094 37.3415 27.0521 37.3451 27.0102ZM11.6761 12.1672C9.84771 12.1541 8.08381 12.8423 6.74729 14.0901C6.69014 14.1425 6.65451 14.2142 6.64734 14.2914C6.64016 14.3686 6.66197 14.4456 6.7085 14.5076L7.53587 15.6378C7.5627 15.6754 7.59744 15.7067 7.63766 15.7295C7.67787 15.7522 7.72259 15.7659 7.76865 15.7695C7.81472 15.7731 7.86102 15.7666 7.9043 15.7504C7.94758 15.7342 7.98678 15.7087 8.01914 15.6757C8.49972 15.1953 9.07124 14.8154 9.70031 14.5584C10.3294 14.3013 11.0034 14.1723 11.6829 14.1787C14.5201 14.1787 16.0019 16.3142 16.0019 18.4227C16.0019 20.7151 14.445 22.3276 12.2075 22.3597C10.4785 22.3597 9.17545 21.2135 9.17545 19.6996C9.17725 19.3171 9.2639 18.9398 9.42914 18.5949C9.59438 18.25 9.83411 17.946 10.131 17.705C10.1938 17.6525 10.2335 17.5775 10.2415 17.4961C10.2496 17.4148 10.2253 17.3335 10.174 17.2698L9.30449 16.1716C9.27819 16.1384 9.24551 16.1108 9.20837 16.0905C9.17123 16.0701 9.13038 16.0574 9.08825 16.053C9.04611 16.0487 9.00353 16.0529 8.96303 16.0653C8.92253 16.0777 8.88492 16.0981 8.85242 16.1253C8.3184 16.5555 7.88745 17.0998 7.59119 17.7183C7.29493 18.3368 7.14087 19.0138 7.14032 19.6996C7.14032 22.3057 9.35509 24.3501 12.1923 24.367H12.2302C15.5988 24.3231 18.0345 21.8283 18.0345 18.4185C18.0345 15.3907 15.8046 12.1672 11.677 12.1672H11.6761Z" fill="white"/>
</svg>
