<svg width="52" height="36" viewBox="0 0 52 36" fill="none" xmlns="http://www.w3.org/2000/svg">
<rect x="0.291504" y="0.5" width="51.0417" height="35" fill="white"/>
<path fill-rule="evenodd" clip-rule="evenodd" d="M15.7867 24.2096H12.6945L10.3758 15.3636C10.2658 14.9566 10.0321 14.5969 9.68834 14.4273C8.8305 14.0013 7.88522 13.6622 6.854 13.4911V13.1506H11.8352C12.5227 13.1506 13.0383 13.6622 13.1242 14.2563L14.3273 20.6373L17.4179 13.1506H20.4241L15.7867 24.2096ZM22.1415 24.2094H19.2212L21.6259 13.1504H24.5461L22.1415 24.2094ZM28.3274 16.2143C28.4133 15.6186 28.9289 15.278 29.5305 15.278C30.4758 15.1925 31.5055 15.3636 32.3648 15.7882L32.8804 13.4071C32.0211 13.0665 31.0758 12.8955 30.218 12.8955C27.3836 12.8955 25.3212 14.4274 25.3212 16.5534C25.3212 18.1707 26.7821 19.0199 27.8133 19.5315C28.9289 20.0417 29.3586 20.3822 29.2727 20.8924C29.2727 21.6575 28.4133 21.9981 27.5555 21.9981C26.5243 21.9981 25.4931 21.743 24.5493 21.317L24.0337 23.6995C25.0649 24.1241 26.1805 24.2951 27.2118 24.2951C30.3898 24.3792 32.3648 22.8488 32.3648 20.5518C32.3648 17.6591 28.3274 17.4896 28.3274 16.2143ZM42.582 24.2096L40.2633 13.1506H37.7727C37.2571 13.1506 36.7415 13.4911 36.5696 14.0013L32.2759 24.2096H35.2821L35.8821 22.5937H39.5758L39.9195 24.2096H42.582ZM38.2016 16.1287L39.0594 20.2967H36.6548L38.2016 16.1287Z" fill="#172B85"/>
</svg>
