<svg width="186" height="117" viewBox="0 0 186 117" fill="none" xmlns="http://www.w3.org/2000/svg">
<path d="M83.1265 117C73.7513 103.788 64.7064 90.9968 55.6124 78.2764C55.2864 77.874 55.0837 77.3859 55.0288 76.8709C54.974 76.3559 55.0692 75.836 55.3032 75.3739C61.8883 59.7791 66.9202 43.4885 74.7985 28.5051C83.9347 11.1041 99.3257 1.7149 118.716 0.801279C140.319 -0.217761 162.007 0.400691 183.66 0.224994C186.471 0.224994 186.042 1.27215 185.241 3.12047C181.074 12.6503 176.998 22.2011 172.886 31.752C172.563 32.4969 172.184 33.2349 171.902 33.9939C169.513 40.0097 169.52 40.0308 162.935 40.0097C153.693 40.0097 144.43 39.7005 135.484 42.6803C125.919 45.8569 117.858 50.678 111.519 57.4388C106.445 62.8222 103.873 67.9314 100.977 74.1159C96.0858 84.3344 89.7537 98.7486 83.1265 117Z" fill="white"/>
<path d="M0 0H84.1235C80.6096 2.6987 77.693 4.72272 75.0716 7.14031C66.4063 15.145 61.1986 25.237 57.3895 36.1513C57.1642 37.2111 56.5324 38.1403 55.6298 38.7394C54.7271 39.3386 53.6254 39.56 52.5614 39.356C48.7382 39.0819 33.5861 38.7376 30.4658 39.2928C29.6055 39.4797 28.7075 39.3733 27.9147 38.9906C27.563 38.7901 27.2623 38.5111 27.0362 38.1753C18.1811 25.5884 9.25569 13.0507 0 0Z" fill="white"/>
<path d="M111.416 89.8647C109.813 89.8647 108.773 89.6047 109.532 87.7142C112.491 80.356 115.422 73.0119 120.981 67.0452C132.092 55.0979 146.063 51.5839 161.742 52.8279C163.766 52.9825 163.619 54.0788 163.014 55.4844C158.451 66.0824 153.899 76.6851 149.359 87.2925C148.53 89.2252 147.342 90.1036 145.072 90.0615C139.576 89.8928 117.136 89.8155 111.416 89.8647Z" fill="#14D80F"/>
</svg>
