<svg width="128" height="40" viewBox="0 0 128 40" fill="none" xmlns="http://www.w3.org/2000/svg">
<rect width="40" height="40" rx="8" fill="#FF5700"/>
<path d="M12.5 29H14C14.83 29 15.5 28.33 15.5 27.5V26C15.5 25.17 14.83 24.5 14 24.5H12.5C11.67 24.5 11 25.17 11 26V27.5C11 28.33 11.67 29 12.5 29Z" fill="white"/>
<path d="M17 24.5H18.5C19.33 24.5 20 23.83 20 23V21.5C20 20.67 19.33 20 18.5 20H17C16.17 20 15.5 20.67 15.5 21.5V23C15.5 23.83 16.17 24.5 17 24.5Z" fill="white"/>
<path d="M26 15.5H27.5C28.33 15.5 29 14.83 29 14V12.5C29 11.67 28.33 11 27.5 11H26C25.17 11 24.5 11.67 24.5 12.5V14C24.5 14.83 25.17 15.5 26 15.5Z" fill="white"/>
<path d="M12.5 20H14C14.83 20 15.5 19.33 15.5 18.5V17C15.5 16.17 14.83 15.5 14 15.5H12.5C11.67 15.5 11 16.17 11 17V18.5C11 19.33 11.67 20 12.5 20Z" fill="white"/>
<path d="M17 15.5H18.5C19.33 15.5 20 14.83 20 14V12.5C20 11.67 19.33 11 18.5 11H17C16.17 11 15.5 11.67 15.5 12.5V14C15.5 14.83 16.17 15.5 17 15.5Z" fill="white"/>
<path d="M21.5 29H23C23.83 29 24.5 28.33 24.5 27.5V26C24.5 25.17 23.83 24.5 23 24.5H21.5C20.67 24.5 20 25.17 20 26V27.5C20 28.33 20.67 29 21.5 29Z" fill="white"/>
<path d="M21.5 20H23C23.83 20 24.5 19.33 24.5 18.5V17C24.5 16.17 23.83 15.5 23 15.5H21.5C20.67 15.5 20 16.17 20 17V18.5C20 19.33 20.67 20 21.5 20Z" fill="white"/>
<path d="M26 24.5H27.5C28.33 24.5 29 23.83 29 23V21.5C29 20.67 28.33 20 27.5 20H26C25.17 20 24.5 20.67 24.5 21.5V23C24.5 23.83 25.17 24.5 26 24.5Z" fill="white"/>
<path d="M24.5 21.5C24.5 20.67 23.83 20 23 20C23.83 20 24.5 19.33 24.5 18.5C24.5 19.33 25.17 20 26 20C25.17 20 24.5 20.67 24.5 21.5Z" fill="white"/>
<path d="M20 17C20 16.17 19.33 15.5 18.5 15.5C19.33 15.5 20 14.83 20 14C20 14.83 20.67 15.5 21.5 15.5C20.67 15.5 20 16.17 20 17Z" fill="white"/>
<path d="M20 26C20 25.17 19.33 24.5 18.5 24.5C19.33 24.5 20 23.83 20 23C20 23.83 20.67 24.5 21.5 24.5C20.67 24.5 20 25.17 20 26Z" fill="white"/>
<path d="M15.5 21.5C15.5 20.67 14.83 20 14 20C14.83 20 15.5 19.33 15.5 18.5C15.5 19.33 16.17 20 17 20C16.17 20 15.5 20.67 15.5 21.5Z" fill="white"/>
<path d="M15.5 26C15.5 25.17 14.83 24.5 14 24.5C14.83 24.5 15.5 23.83 15.5 23C15.5 23.83 16.17 24.5 17 24.5C16.17 24.5 15.5 25.17 15.5 26Z" fill="white"/>
<path d="M24.5 17C24.5 16.17 23.83 15.5 23 15.5C23.83 15.5 24.5 14.83 24.5 14C24.5 14.83 25.17 15.5 26 15.5C25.17 15.5 24.5 16.17 24.5 17Z" fill="white"/>
<path d="M15.5 17C15.5 16.17 14.83 15.5 14 15.5C14.83 15.5 15.5 14.83 15.5 14C15.5 14.83 16.17 15.5 17 15.5C16.17 15.5 15.5 16.17 15.5 17Z" fill="white"/>
<path d="M24.5 26C24.5 25.17 23.83 24.5 23 24.5C23.83 24.5 24.5 23.83 24.5 23C24.5 23.83 25.17 24.5 26 24.5C25.17 24.5 24.5 25.17 24.5 26Z" fill="white"/>
<path d="M61.8736 24.7744H55.6275L54.5543 27.8077H52L57.3446 12.9399H60.1779L65.5225 27.8077H62.9468L61.8736 24.7744ZM61.1867 22.7877L58.7613 15.8879L56.3143 22.7877H61.1867Z" fill="black"/>
<path d="M81.7338 15.8451C82.6639 15.8451 83.4939 16.0374 84.2237 16.4219C84.9678 16.8064 85.5473 17.3761 85.9623 18.1308C86.3916 18.8856 86.6062 19.7971 86.6062 20.8652V27.8077H84.1807V21.2283C84.1807 20.1745 83.916 19.3698 83.3866 18.8144C82.8571 18.2448 82.1345 17.9599 81.2187 17.9599C80.3028 17.9599 79.5731 18.2448 79.0293 18.8144C78.4998 19.3698 78.2351 20.1745 78.2351 21.2283V27.8077H75.8096V21.2283C75.8096 20.1745 75.5449 19.3698 75.0155 18.8144C74.486 18.2448 73.7634 17.9599 72.8476 17.9599C71.9318 17.9599 71.202 18.2448 70.6582 18.8144C70.1288 19.3698 69.864 20.1745 69.864 21.2283V27.8077H67.4171V16.0374H69.864V17.3832C70.2647 16.899 70.7727 16.5216 71.388 16.251C72.0033 15.9804 72.6615 15.8451 73.3627 15.8451C74.3071 15.8451 75.1514 16.0445 75.8955 16.4433C76.6396 16.842 77.212 17.4188 77.6126 18.1736C77.9704 17.4615 78.5285 16.899 79.2869 16.486C80.0453 16.0587 80.8609 15.8451 81.7338 15.8451Z" fill="black"/>
<path d="M94.4206 28C93.3044 28 92.2956 27.7508 91.3941 27.2523C90.4926 26.7397 89.7843 26.0276 89.2691 25.1162C88.754 24.1905 88.4964 23.1224 88.4964 21.9119C88.4964 20.7156 88.7611 19.6547 89.2906 18.729C89.82 17.8033 90.5427 17.0912 91.4585 16.5928C92.3743 16.0943 93.3974 15.8451 94.5279 15.8451C95.6583 15.8451 96.6815 16.0943 97.5973 16.5928C98.5131 17.0912 99.2357 17.8033 99.7652 18.729C100.295 19.6547 100.559 20.7156 100.559 21.9119C100.559 23.1081 100.287 24.1691 99.7437 25.0948C99.2 26.0205 98.4559 26.7397 97.5114 27.2523C96.5813 27.7508 95.551 28 94.4206 28ZM94.4206 25.8852C95.0502 25.8852 95.6369 25.7356 96.1806 25.4366C96.7387 25.1375 97.1895 24.6889 97.5329 24.0908C97.8763 23.4927 98.048 22.7664 98.048 21.9119C98.048 21.0574 97.8835 20.3382 97.5544 19.7543C97.2252 19.1562 96.7888 18.7076 96.245 18.4085C95.7013 18.1095 95.1146 17.9599 94.485 17.9599C93.8553 17.9599 93.2686 18.1095 92.7249 18.4085C92.1954 18.7076 91.7733 19.1562 91.4585 19.7543C91.1437 20.3382 90.9863 21.0574 90.9863 21.9119C90.9863 23.1794 91.3082 24.162 91.9522 24.8598C92.6104 25.5434 93.4332 25.8852 94.4206 25.8852Z" fill="black"/>
<path d="M101.733 21.8692C101.733 20.6871 101.977 19.6404 102.463 18.729C102.964 17.8175 103.637 17.1126 104.481 16.6142C105.339 16.1015 106.291 15.8451 107.336 15.8451C108.108 15.8451 108.867 16.016 109.611 16.3578C110.369 16.6854 110.97 17.1268 111.414 17.6822V12H113.882V27.8077H111.414V26.0347C111.013 26.6044 110.455 27.0743 109.74 27.4446C109.038 27.8149 108.23 28 107.314 28C106.284 28 105.339 27.7437 104.481 27.231C103.637 26.7041 102.964 25.9777 102.463 25.0521C101.977 24.1121 101.733 23.0512 101.733 21.8692ZM111.414 21.9119C111.414 21.1001 111.242 20.3952 110.899 19.7971C110.57 19.1989 110.133 18.7432 109.589 18.4299C109.046 18.1166 108.459 17.9599 107.829 17.9599C107.2 17.9599 106.613 18.1166 106.069 18.4299C105.525 18.729 105.082 19.1776 104.738 19.7757C104.409 20.3596 104.245 21.0574 104.245 21.8692C104.245 22.6809 104.409 23.393 104.738 24.0053C105.082 24.6177 105.525 25.0877 106.069 25.4152C106.627 25.7285 107.214 25.8852 107.829 25.8852C108.459 25.8852 109.046 25.7285 109.589 25.4152C110.133 25.1019 110.57 24.6462 110.899 24.0481C111.242 23.4357 111.414 22.7236 111.414 21.9119Z" fill="black"/>
<path d="M115.851 21.8692C115.851 20.6871 116.094 19.6404 116.581 18.729C117.082 17.8175 117.754 17.1126 118.599 16.6142C119.457 16.1015 120.402 15.8451 121.432 15.8451C122.362 15.8451 123.171 16.0303 123.857 16.4005C124.559 16.7566 125.117 17.2052 125.532 17.7463V16.0374H128V27.8077H125.532V26.0561C125.117 26.6115 124.551 27.0743 123.836 27.4446C123.12 27.8149 122.305 28 121.389 28C120.373 28 119.443 27.7437 118.599 27.231C117.754 26.7041 117.082 25.9777 116.581 25.0521C116.094 24.1121 115.851 23.0512 115.851 21.8692ZM125.532 21.9119C125.532 21.1001 125.36 20.3952 125.016 19.7971C124.687 19.1989 124.251 18.7432 123.707 18.4299C123.163 18.1166 122.577 17.9599 121.947 17.9599C121.317 17.9599 120.731 18.1166 120.187 18.4299C119.643 18.729 119.2 19.1776 118.856 19.7757C118.527 20.3596 118.363 21.0574 118.363 21.8692C118.363 22.6809 118.527 23.393 118.856 24.0053C119.2 24.6177 119.643 25.0877 120.187 25.4152C120.745 25.7285 121.332 25.8852 121.947 25.8852C122.577 25.8852 123.163 25.7285 123.707 25.4152C124.251 25.1019 124.687 24.6462 125.016 24.0481C125.36 23.4357 125.532 22.7236 125.532 21.9119Z" fill="black"/>
</svg>
