<svg width="1024" height="494" viewBox="0 0 1024 494" fill="none" xmlns="http://www.w3.org/2000/svg">
<g clip-path="url(#clip0_304_1081)">
<path d="M-135 -60H1158.47V564H-135V-60ZM436.579 459.549C459.505 461.571 490.844 458.968 511.737 453.322C526.074 449.444 534.221 446.173 553.067 436.762C574.225 426.177 604.718 402.594 611.577 391.49C615.606 384.973 614.065 380.981 602.545 368.135C597.063 362.021 592.579 356.691 592.579 356.299C592.579 355.907 590.659 352.888 588.297 349.579C577.459 334.371 567.025 307.907 562.743 284.754C559.724 268.459 559.699 234.341 562.68 218.021C567.872 189.638 582.752 157.844 600.777 136.598C614.608 120.303 616.503 115.187 611.665 107.255C610.352 105.107 606.524 101.128 603.152 98.4126C599.779 95.6968 593.413 90.4547 589.004 86.7663C584.596 83.0779 576.916 77.4189 571.939 74.2105C562.882 68.3621 540.41 56.7663 534.474 54.8716C532.73 54.3284 528.196 52.6863 524.368 51.2337C501.177 42.4042 463.914 37.4653 438.057 39.8021C418.667 41.5453 392.634 46.6863 386.103 50.0716C379.661 53.3937 377.931 55.7937 377.88 61.4147C377.804 69.9411 381.771 72.7832 403.105 79.541C422.684 85.7305 445.851 98.8042 463.939 113.874C505.636 148.585 528.436 203.229 525.101 260.451C522.373 307.149 505.244 345.006 472.225 377.318C451.914 397.2 427.421 412.232 400.579 421.301C383.248 427.162 377.842 433.415 381.606 443.28C382.276 445.074 384.613 447.6 386.773 448.926C392.634 452.488 418.187 457.933 436.579 459.549ZM396.789 318.48C404.356 320.564 418.49 320.564 427.295 318.493C440.621 315.36 454.288 305.002 463.686 290.943C469.775 281.81 472.566 272.526 473.451 258.429C474.676 238.8 469.093 224.476 454.503 209.848C438.752 194.034 420.625 187.945 401.236 191.949C390.107 194.248 385.762 196.219 378.158 202.446L372.789 206.829L372.663 184.257C372.6 171.84 372.145 160.269 371.665 158.526C370.832 155.545 370.238 155.343 360.853 155.002C355.396 154.787 350.381 155.166 349.712 155.836C347.956 157.592 348.499 312.657 350.28 314.792C351.909 316.775 365.552 317.002 369.088 315.107C370.933 314.122 371.526 312.455 371.526 308.16C371.526 305.065 371.855 302.526 372.259 302.526C372.65 302.526 374.747 304.282 376.895 306.442C382.44 311.987 390.171 316.661 396.789 318.48ZM783.177 317.204C792.979 320.665 811.421 321.284 821.842 318.493C840.815 313.415 857.324 298.459 865.08 279.322C869.375 268.712 870.461 249.373 867.354 238.699C863.855 226.636 859.282 219.032 850.301 210.316C829.497 190.105 802.074 185.381 776.368 197.571C759.316 205.655 748.983 217.314 742.099 236.274C738.524 246.152 738.196 257.015 741.101 270.139C744.562 285.789 751.143 296.337 763.509 306.076C773.274 313.743 773.109 313.655 783.177 317.204ZM55.5853 316.863C56.7095 317.179 62.6842 317.343 68.8737 317.242C79.32 317.065 80.2674 316.825 82.4905 313.857C83.8042 312.088 85.6611 307.832 86.6337 304.383C88.3642 298.206 93.7831 280.042 100.554 257.684C102.448 251.432 104.924 243.044 106.036 239.053C107.147 235.061 108.486 231.789 109.004 231.789C109.522 231.789 111.152 235.907 112.617 240.947C124.187 280.535 134.886 312.745 137.274 315.133C138.625 316.484 142.503 317.179 150.309 317.482C151.029 317.52 151.699 317.545 152.356 317.571C156.701 317.773 159.695 317.899 162.12 316.8C167.842 314.223 170.495 304.838 180.486 273.474C182.583 266.867 185.754 256.648 187.535 250.737C189.316 244.825 191.893 236.299 193.257 231.789C197.918 216.455 201.139 202.421 200.747 199.124C200.52 197.141 199.131 195.221 197.211 194.261C193.8 192.543 182.899 192.227 179.046 193.743C176.419 194.779 171.695 206.324 168.903 218.526C163.244 243.272 151.939 280.535 150.549 279.006C150.006 278.387 145.181 264.531 139.838 248.211C127.333 209.987 122.823 197.571 120.436 194.842C118.92 193.112 116.571 192.657 109.547 192.72C104.608 192.771 99.48 193.238 98.1284 193.768C95.6779 194.728 93.2905 200.564 86.7347 221.684C82.0358 236.804 74.5705 262.181 72.8021 269.053C69.581 281.545 68.28 282.594 66.0947 274.421C60.9663 255.171 54.3726 231.107 52.1747 223.579L47.2231 206.703C45.9347 202.295 43.4968 197.255 41.8168 195.512C38.9116 192.493 38.2926 192.379 29.3242 193.187C24.1326 193.655 19.3705 194.362 18.7389 194.754C18.12 195.133 17.8547 197.242 18.1831 199.415C18.8526 204.038 28.4779 238.219 34.2379 256.421C36.4358 263.368 38.6968 270.758 39.2653 272.842C48.5621 306.707 51.96 315.865 55.5853 316.863ZM259.737 319.996C278.646 323.57 295.712 319.099 313.017 306.025C319.724 300.973 324.789 294.429 324.789 290.829C324.789 288.606 314.469 281.747 309.316 280.547C306.373 279.865 305.034 280.585 300.474 285.284C289.674 296.413 271.661 299.267 256.579 292.244C246.171 287.394 237.518 277.566 235.926 268.8L235.194 264.745L280.491 264.379C322.971 264.025 325.952 263.848 328.453 261.6C331.509 258.821 331.888 252.531 329.779 239.545C325.901 215.608 304.718 195.411 279.215 191.356C253.295 187.225 225.505 202.219 213.051 227.065C208.427 236.274 208.099 237.714 207.568 250.636C206.912 266.716 209.248 276.581 216.739 289.263C225.392 303.891 243.657 316.952 259.737 319.996ZM894.259 316.749C898.2 317.002 902.507 317.318 903.846 317.444C905.185 317.571 907.32 316.749 908.583 315.6C910.718 313.667 910.895 310.838 910.895 279.448C910.895 240.392 911.539 236.905 920.697 226.674C935.261 210.392 962.242 214.093 972.145 233.735L975.947 241.263L976.137 275.747C976.251 294.707 976.667 311.545 977.072 313.175C977.476 314.792 979.105 316.459 980.672 316.888C986.128 318.354 996.196 317.709 999.038 315.714C1001.82 313.768 1001.84 313.453 1001.82 280.029C1001.8 261.486 1001.24 242.463 1000.55 237.752C998.141 221.065 986.204 204.442 971.526 197.331C961.497 192.467 949.408 189.688 941.867 190.497C928.478 191.949 921.366 195.524 910.124 206.463C906.335 210.152 905.867 209.773 906.145 203.229C906.499 195.082 902.899 192.139 893.501 192.922C889.813 193.225 886.124 194.16 885.29 194.981C883.358 196.926 883.888 312.417 885.846 314.779C886.541 315.613 890.331 316.509 894.259 316.749ZM626.04 317.558C629.88 319.592 633.354 320.211 640.781 320.211C649.775 320.211 650.697 319.958 653.122 316.888C655.989 313.238 656.469 307.528 654.398 301.604C653.223 298.206 652.225 297.613 645.543 296.299C641.236 295.453 638.406 294.947 636.549 293.331C633 290.248 633 283.061 633 261.499V260.021V230.615L636.802 226.295C642.322 219.992 647.678 217.895 658.225 217.895C669.215 217.895 671.678 216.707 674.76 209.899C680.621 197.002 676.604 191.886 660.827 192.164C650.242 192.354 644.128 194.4 636.815 200.198C631.232 204.606 630.499 204.821 631.295 201.739C631.623 200.501 630.676 197.937 629.198 196.055C626.773 192.973 625.699 192.632 618.474 192.632C617.665 192.632 616.907 192.619 616.213 192.606C613.509 192.556 611.552 192.518 610.124 193.364C606.309 195.676 606.385 204.429 606.651 236.678C606.676 239.823 606.714 243.183 606.739 246.771C607.093 295.339 607.194 296.994 609.834 301.895C613.181 308.072 619.333 314.021 626.04 317.558ZM816.335 292.459C807.227 295.288 802.832 295.44 794.621 293.229C782.975 290.084 776.053 283.958 769.863 271.301C764.848 261.069 764.899 248.198 769.977 238.105C774.474 229.175 778.629 224.779 786.474 220.636C791.867 217.781 794.356 217.301 803.526 217.301C812.709 217.301 815.173 217.781 820.579 220.648C828.17 224.665 835.118 231.688 839.021 239.255C843.189 247.352 842.886 264.341 838.427 273.145C833.589 282.695 825.771 289.528 816.335 292.459ZM426.815 290.299C406.667 300.48 384.423 291.891 376.415 270.821C368.04 248.792 377.034 225.562 396.6 218.665C409.472 214.131 427.333 218.147 436.149 227.571C442.768 234.644 445.383 241.642 445.863 253.566C446.381 266.703 444.448 273.537 437.943 281.482C435.493 284.476 430.478 288.442 426.815 290.299ZM699.556 316.8C703.042 317.697 718.048 316.244 719.842 314.829C721.067 313.869 721.421 300.48 721.421 255.613V197.646L717.316 195.145C712.099 191.962 705.505 191.949 700.339 195.095L696.297 197.558L695.918 254.147C695.703 285.272 695.918 311.962 696.398 313.478C696.878 314.981 698.305 316.472 699.556 316.8ZM650.053 71.7979C655.219 74.5263 663.72 74.3874 669.366 71.4947C685.876 63.0316 688.528 41.9116 674.482 30.7832C670.465 27.6126 668.027 26.7411 661.686 26.2611C654.474 25.7179 653.362 25.9958 647.817 29.7095C636.613 37.2126 632.874 48.4421 637.914 59.3684C640.465 64.8884 644.192 68.7031 650.053 71.7979ZM648.992 472.472C656.533 475.162 662.179 474.72 667.939 470.981C675.973 465.777 679.749 458.943 679.674 449.747C679.573 437.04 674.065 429.764 661.749 426.076C657.594 424.825 655.724 424.964 650.015 426.909C646.276 428.173 641.804 430.686 640.074 432.505C627.834 445.276 632.596 466.636 648.992 472.472ZM301.105 243.335C293.274 243.714 240.524 243.764 238.528 243.385C235.623 242.829 235.863 239.874 239.337 233.053C247.371 217.339 270.663 210.897 287.842 219.651C294.878 223.225 298.251 226.648 301.914 233.949C305.514 241.137 305.349 243.12 301.105 243.335ZM699.632 174.935C705.265 180.568 710.949 181.629 716.091 178.029C721.8 174.038 724.453 164.198 721.383 158.451C719.463 154.863 713.438 152.211 707.173 152.211C699.998 152.211 696.12 156.063 695.223 164.122C694.604 169.503 694.882 170.185 699.632 174.935Z" fill="black"/>
<path d="M436.579 459.549C418.187 457.932 392.634 452.488 386.773 448.926C384.613 447.6 382.276 445.073 381.606 443.28C377.842 433.415 383.248 427.162 400.579 421.301C427.421 412.231 451.914 397.2 472.225 377.318C505.244 345.006 522.373 307.149 525.101 260.45C528.436 203.229 505.636 148.585 463.939 113.874C445.85 98.804 422.684 85.7304 403.105 79.5409C381.77 72.783 377.804 69.9409 377.88 61.4146C377.93 55.7935 379.661 53.3935 386.103 50.0714C392.634 46.6862 418.667 41.5451 438.057 39.802C463.914 37.4651 501.177 42.4041 524.368 51.2335C528.196 52.6862 532.73 54.3283 534.474 54.8714C540.41 56.7662 562.882 68.362 571.939 74.2104C576.916 77.4188 584.596 83.0777 589.004 86.7662C593.413 90.4546 599.779 95.6967 603.152 98.4125C606.524 101.128 610.352 105.107 611.665 107.255C616.503 115.187 614.608 120.303 600.777 136.598C582.752 157.844 567.872 189.638 562.68 218.021C559.699 234.341 559.724 268.459 562.743 284.754C567.025 307.907 577.459 334.37 588.297 349.579C590.659 352.888 592.579 355.907 592.579 356.299C592.579 356.69 597.063 362.021 602.545 368.135C614.065 380.981 615.606 384.972 611.577 391.49C604.718 402.594 574.225 426.177 553.067 436.762C534.221 446.172 526.074 449.444 511.737 453.322C490.844 458.968 459.505 461.57 436.579 459.549ZM626.04 317.558C619.333 314.021 613.181 308.071 609.834 301.895C607.194 296.994 607.093 295.339 606.739 246.77C606.714 243.183 606.676 239.823 606.65 236.678C606.385 204.429 606.309 195.676 610.124 193.364C611.552 192.518 613.509 192.556 616.213 192.606C616.907 192.619 617.665 192.631 618.474 192.631C625.699 192.631 626.773 192.972 629.198 196.055C630.676 197.937 631.623 200.501 631.295 201.739C630.499 204.821 631.232 204.606 636.815 200.198C644.128 194.4 650.242 192.354 660.827 192.164C676.604 191.886 680.621 197.002 674.76 209.899C671.678 216.707 669.215 217.895 658.225 217.895C647.678 217.895 642.322 219.991 636.802 226.295L633 230.615V260.021V261.499C633 283.061 633 290.248 636.549 293.33C638.406 294.947 641.236 295.452 645.543 296.299C652.225 297.612 653.223 298.206 654.398 301.604C656.469 307.528 655.989 313.238 653.122 316.888C650.697 319.958 649.775 320.21 640.781 320.21C633.354 320.21 629.88 319.591 626.04 317.558ZM650.053 71.7977C644.192 68.703 640.465 64.8883 637.914 59.3683C632.874 48.442 636.613 37.2125 647.817 29.7093C653.362 25.9956 654.474 25.7177 661.686 26.2609C668.027 26.7409 670.465 27.6125 674.482 30.783C688.528 41.9114 685.876 63.0314 669.366 71.4946C663.72 74.3872 655.219 74.5262 650.053 71.7977ZM648.992 472.471C632.596 466.636 627.834 445.276 640.074 432.505C641.804 430.686 646.276 428.172 650.015 426.909C655.724 424.964 657.594 424.825 661.749 426.076C674.065 429.764 679.573 437.04 679.674 449.747C679.749 458.943 675.973 465.777 667.939 470.981C662.179 474.72 656.533 475.162 648.992 472.471Z" fill="url(#paint0_linear_304_1081)"/>
<path d="M259.737 319.996C243.657 316.952 225.392 303.891 216.739 289.264C209.249 276.581 206.912 266.716 207.569 250.636C208.099 237.714 208.428 236.274 213.051 227.066C225.505 202.219 253.295 187.226 279.215 191.356C304.718 195.411 325.901 215.609 329.779 239.546C331.889 252.531 331.51 258.821 328.453 261.6C325.952 263.849 322.971 264.026 280.491 264.379L235.194 264.746L235.926 268.8C237.518 277.567 246.171 287.394 256.579 292.245C271.661 299.268 289.674 296.413 300.474 285.285C305.034 280.586 306.373 279.866 309.316 280.548C314.47 281.748 324.79 288.607 324.79 290.83C324.79 294.43 319.724 300.973 313.017 306.026C295.712 319.099 278.646 323.571 259.737 319.996ZM301.105 243.335C305.35 243.12 305.514 241.137 301.914 233.95C298.251 226.649 294.878 223.226 287.842 219.651C270.663 210.897 247.371 217.339 239.337 233.053C235.863 239.874 235.623 242.83 238.529 243.386C240.524 243.765 293.274 243.714 301.105 243.335ZM396.79 318.48C390.171 316.661 382.44 311.988 376.895 306.443C374.748 304.283 372.651 302.527 372.259 302.527C371.855 302.527 371.526 305.066 371.526 308.16C371.526 312.455 370.933 314.122 369.089 315.108C365.552 317.002 351.91 316.775 350.28 314.792C348.499 312.657 347.956 157.592 349.712 155.836C350.381 155.167 355.396 154.788 360.853 155.003C370.238 155.344 370.832 155.546 371.665 158.527C372.145 160.27 372.6 171.84 372.663 184.257L372.79 206.83L378.158 202.447C385.762 196.219 390.108 194.249 401.236 191.95C420.625 187.946 438.752 194.034 454.503 209.849C469.093 224.476 474.676 238.8 473.451 258.43C472.566 272.527 469.775 281.811 463.686 290.944C454.289 305.002 440.621 315.36 427.295 318.493C418.491 320.565 404.356 320.565 396.79 318.48ZM426.815 290.299C430.478 288.443 435.493 284.476 437.943 281.483C444.449 273.537 446.381 266.704 445.863 253.567C445.383 241.643 442.769 234.645 436.15 227.571C427.333 218.148 409.472 214.131 396.6 218.666C377.034 225.563 368.04 248.792 376.415 270.821C384.423 291.891 406.668 300.48 426.815 290.299ZM783.177 317.205C773.11 313.655 773.274 313.744 763.51 306.076C751.143 296.337 744.562 285.79 741.101 270.139C738.196 257.015 738.524 246.152 742.099 236.274C748.983 217.314 759.316 205.655 776.369 197.571C802.074 185.381 829.497 190.106 850.301 210.316C859.282 219.032 863.855 226.636 867.354 238.699C870.461 249.373 869.375 268.712 865.08 279.323C857.324 298.459 840.815 313.415 821.842 318.493C811.421 321.285 792.979 320.666 783.177 317.205ZM816.335 292.459C825.771 289.529 833.59 282.695 838.428 273.146C842.886 264.341 843.19 247.352 839.021 239.255C835.118 231.689 828.171 224.666 820.579 220.649C815.173 217.781 812.71 217.301 803.526 217.301C794.356 217.301 791.868 217.781 786.474 220.636C778.63 224.779 774.474 229.175 769.977 238.106C764.899 248.198 764.849 261.07 769.863 271.301C776.053 283.958 782.975 290.085 794.621 293.23C802.832 295.44 807.228 295.289 816.335 292.459ZM55.5854 316.864C51.9602 315.866 48.5623 306.708 39.2654 272.843C38.697 270.758 36.436 263.369 34.2381 256.421C28.4781 238.219 18.8528 204.038 18.1833 199.415C17.8549 197.243 18.1202 195.133 18.7391 194.754C19.3707 194.363 24.1328 193.655 29.3244 193.188C38.2928 192.379 38.9117 192.493 41.817 195.512C43.497 197.255 45.9349 202.295 47.2233 206.704C48.5244 211.125 50.7475 218.716 52.1749 223.579C54.3728 231.108 60.9665 255.171 66.0949 274.421C68.2802 282.594 69.5812 281.546 72.8023 269.053C74.5707 262.181 82.0359 236.805 86.7349 221.685C93.2907 200.565 95.6781 194.729 98.1286 193.769C99.4802 193.238 104.609 192.771 109.548 192.72C116.571 192.657 118.92 193.112 120.436 194.843C122.823 197.571 127.333 209.988 139.838 248.211C145.181 264.531 150.006 278.388 150.55 279.007C151.939 280.535 163.244 243.272 168.903 218.527C171.695 206.325 176.419 194.779 179.046 193.744C182.899 192.228 193.8 192.544 197.211 194.261C199.131 195.221 200.52 197.141 200.748 199.125C201.139 202.421 197.918 216.455 193.257 231.79C191.893 236.299 189.316 244.826 187.535 250.737C185.754 256.649 182.583 266.868 180.486 273.474C165.606 320.186 167.009 318.139 150.31 317.483C142.503 317.179 138.625 316.485 137.274 315.133C134.886 312.746 124.188 280.535 112.617 240.948C111.152 235.908 109.522 231.79 109.004 231.79C108.486 231.79 107.148 235.061 106.036 239.053C104.924 243.045 102.449 251.432 100.554 257.685C93.7833 280.043 88.3644 298.207 86.6339 304.384C85.6612 307.832 83.8044 312.089 82.4907 313.857C80.2675 316.826 79.3202 317.066 68.8738 317.243C62.6844 317.344 56.7096 317.179 55.5854 316.864ZM699.556 316.8C698.305 316.472 696.878 314.981 696.398 313.478C695.918 311.963 695.703 285.272 695.918 254.148L696.297 197.558L700.339 195.095C705.505 191.95 712.099 191.963 717.316 195.146L721.421 197.647V255.613C721.421 300.48 721.068 313.87 719.842 314.83C718.049 316.245 703.042 317.697 699.556 316.8ZM894.259 316.75C890.331 316.51 886.541 315.613 885.846 314.779C883.889 312.417 883.358 196.927 885.291 194.981C886.124 194.16 889.813 193.226 893.501 192.923C902.899 192.139 906.499 195.083 906.145 203.23C905.868 209.773 906.335 210.152 910.124 206.464C921.366 195.525 928.478 191.95 941.868 190.497C949.409 189.689 961.497 192.468 971.526 197.331C986.204 204.443 998.141 221.066 1000.55 237.752C1001.24 242.464 1001.8 261.487 1001.82 280.03C1001.84 313.453 1001.82 313.769 999.038 315.714C996.196 317.71 986.129 318.354 980.672 316.889C979.105 316.459 977.476 314.792 977.072 313.175C976.668 311.546 976.251 294.708 976.137 275.748L975.948 241.264L972.145 233.735C962.242 214.093 935.261 210.392 920.697 226.674C911.539 236.906 910.895 240.392 910.895 279.449C910.895 310.838 910.718 313.668 908.583 315.6C907.32 316.75 905.185 317.571 903.846 317.445C902.507 317.318 898.2 317.003 894.259 316.75ZM699.632 174.935C694.882 170.186 694.604 169.504 695.223 164.123C696.12 156.064 699.998 152.211 707.173 152.211C713.438 152.211 719.463 154.864 721.383 158.451C724.453 164.198 721.8 174.038 716.091 178.03C710.95 181.63 705.265 180.569 699.632 174.935Z" fill="#F3F3F4"/>
</g>
<defs>
<linearGradient id="paint0_linear_304_1081" x1="530.723" y1="26.0479" x2="530.723" y2="474.192" gradientUnits="userSpaceOnUse">
<stop stop-color="#EB7A12"/>
<stop offset="1" stop-color="#DF4E30"/>
</linearGradient>
<clipPath id="clip0_304_1081">
<rect width="1024" height="494" fill="white"/>
</clipPath>
</defs>
</svg>
