<svg width="180" height="180" viewBox="0 0 180 180" fill="none" xmlns="http://www.w3.org/2000/svg">
<g clip-path="url(#clip0_1914_2745)">
<path d="M12.7113 64.3778C12.7113 36.0765 35.7265 13.1338 64.1172 13.1338H115.523C143.914 13.1338 166.929 36.0765 166.929 64.3778V115.622C166.929 143.923 143.914 166.866 115.523 166.866H64.1172C35.7265 166.866 12.7113 143.923 12.7113 115.622V64.3778Z" fill="white"/>
<path fill-rule="evenodd" clip-rule="evenodd" d="M70.5941 0L109.76 0.0777396C119.059 0.0638893 128.269 1.89394 136.853 5.46102C145.436 9.02811 153.222 14.2611 159.757 20.8557C166.293 27.4503 171.448 35.2747 174.922 43.8736C178.396 52.4726 180.12 61.6744 179.993 70.9437L179.916 109.987C179.878 128.592 172.428 146.421 159.204 159.551C145.98 172.681 128.065 180.037 109.401 180L70.2347 179.922C51.5976 179.797 33.7636 172.342 20.6111 159.179C7.45865 146.016 0.0511306 128.208 0 109.63L0.0779864 70.5866C0.0895043 51.92 7.51323 34.0172 20.7266 20.7906C33.94 7.56393 51.8688 0.089111 70.5941 0ZM127.53 79.8715L147.616 79.9113L147.569 103.71L127.243 103.669L140.667 126.873L119.982 138.732L106.557 115.48L84.767 152.473L64.2251 140.437L85.9193 103.587L32.3713 103.481L32.4188 79.6827L85.9189 79.7889L62.7484 39.6963L83.3861 27.8381L106.748 68.2656L120.553 44.8288L141.143 56.8645L127.53 79.8715Z" fill="#005949"/>
</g>
<defs>
<clipPath id="clip0_1914_2745">
<rect width="180" height="180" fill="white"/>
</clipPath>
</defs>
</svg>
